<svg xmlns="http://www.w3.org/2000/svg" width="278.3042297363281" height="177.392333984375" viewBox="-203.24867248535156 -163.64222717285156 278.3042297363281 177.392333984375"><title>Neo4j Graph Visualization</title><desc>Created using Neo4j (http://www.neo4j.com/)</desc><g class="layer relationships"><g class="relationship" transform="translate(-64.66371215908296 -134.64222630671162) rotate(492.547449198992)"><path class="outline" fill="#F16667" stroke="none" d="M 24.018736134675446,-6.953439040707552 L 24.277555179777966,-5.987513214418485 A 214.51798941062881 214.51798941062881 0 0 1 63.875324458831685,-12.705220376533788 L 63.80109491779754,-13.702461558614573 A 215.51798941062881 215.51798941062881 0 0 0 24.018736134675446,-6.953439040707552 Z M 91.18057392170253,-13.996288856275868 L 91.12776312109847,-12.99768432026596 A 214.51798941062881 214.51798941062881 0 0 1 130.86058032818838,-7.131326150064855 L 130.14649079035345,-4.217552629017846 L 137.7784001336039,-5.950746148624496 L 131.8126997119683,-11.016357511460868 L 131.09861017413337,-8.102583990413859 A 215.51798941062881 215.51798941062881 0 0 0 91.18057392170253,-13.996288856275868"/><text text-anchor="middle" pointer-events="none" font-size="8px" fill="#000000" x="77.49152896583558" y="-10.784655863402492" transform="rotate(180 77.49152896583558 -13.784655863402492)" font-family="sans-serif">NEXT</text></g><g class="relationship" transform="translate(-174.24866896718584 -15.249885794258496) rotate(359.91560489673964)"><path class="outline" fill="#F16667" stroke="none" d="M 25 0.5 L 92.98426525241132 0.5 L 92.98426525241132 -0.5 L 25 -0.5 Z M 120.32020275241132 0.5 L 188.30446800482264 0.5 L 188.30446800482264 3.5 L 195.30446800482264 0 L 188.30446800482264 -3.5 L 188.30446800482264 -0.5 L 120.32020275241132 -0.5 Z"/><text text-anchor="middle" pointer-events="none" font-size="8px" fill="#000000" x="106.65223400241132" y="3" font-family="sans-serif">NEXT</text></g><g class="relationship" transform="translate(-64.66371215908296 -134.64222630671162) rotate(407.0807402802076)"><path class="outline" fill="#A5ABB6" stroke="none" d="M 25 0.5 L 67.01436386823997 0.5 L 67.01436386823997 -0.5 L 25 -0.5 Z M 88.57686386823997 0.5 L 130.59122773647994 0.5 L 130.59122773647994 3.5 L 137.59122773647994 0 L 130.59122773647994 -3.5 L 130.59122773647994 -0.5 L 88.57686386823997 -0.5 Z"/><text text-anchor="middle" pointer-events="none" font-size="8px" fill="#000000" x="77.79561386823997" y="3" font-family="sans-serif">REL</text></g><g class="relationship" transform="translate(-64.66371215908296 -134.64222630671162) rotate(492.547449198992)"><path class="outline" fill="#A5ABB6" stroke="none" d="M 24.018736134675446,6.953439040707552 L 24.277555179777966,5.987513214418485 A 214.51798941062881 214.51798941062881 0 0 0 66.74873381909346,12.89971637890099 L 66.68789900252115,13.897864226212505 A 215.51798941062881 215.51798941062881 0 0 1 24.018736134675446,6.953439040707552 Z M 88.29024119095851,14.129693247775606 L 88.250841487677,13.130469717537608 A 214.51798941062881 214.51798941062881 0 0 0 130.86058032818838,7.131326150064855 L 130.14649079035345,4.217552629017846 L 137.7784001336039,5.950746148624496 L 131.8126997119683,11.016357511460868 L 131.09861017413337,8.102583990413859 A 215.51798941062881 215.51798941062881 0 0 1 88.29024119095851,14.129693247775606"/><text text-anchor="middle" pointer-events="none" font-size="8px" fill="#000000" x="77.49152896583556" y="16.78465586340249" transform="rotate(180 77.49152896583556 13.784655863402492)" font-family="sans-serif">REL</text></g></g><g class="layer nodes"><g class="node" aria-label="graph-node0" transform="translate(-64.66371215908296,-134.64222630671162)"><circle class="outline" cx="0" cy="0" r="25" fill="#D9C8AE" stroke="#c0a378" stroke-width="2px"/><text class="caption" text-anchor="middle" pointer-events="none" x="0" y="5" font-size="10px" fill="#2A2C34" font-family="sans-serif"> A</text></g><g class="node" aria-label="graph-node2" transform="translate(46.0555600461319,-15.574388083271042)"><circle class="outline" cx="0" cy="0" r="25" fill="#D9C8AE" stroke="#c0a378" stroke-width="2px"/><text class="caption" text-anchor="middle" pointer-events="none" x="0" y="5" font-size="10px" fill="#2A2C34" font-family="sans-serif"> C</text></g><g class="node" aria-label="graph-node1" transform="translate(-174.24866896718584,-15.249885794258496)"><circle class="outline" cx="0" cy="0" r="25" fill="#D9C8AE" stroke="#c0a378" stroke-width="2px"/><text class="caption" text-anchor="middle" pointer-events="none" x="0" y="5" font-size="10px" fill="#2A2C34" font-family="sans-serif"> B</text></g></g></svg>