<svg xmlns="http://www.w3.org/2000/svg" width="363.72216796875" height="266.81494140625" viewBox="-94.55796813964844 -27.415403366088867 363.72216796875 266.81494140625"><title>Neo4j Graph Visualization</title><desc>Created using Neo4j (http://www.neo4j.com/)</desc><g class="layer relationships"><g class="relationship" transform="translate(240.16420103414762 115.62952127155077) rotate(477.6593316826827)"><path class="outline" fill="#A5ABB6" stroke="none" d="M 25 0.5 L 38.106073473510925 0.5 L 38.106073473510925 -0.5 L 25 -0.5 Z M 61.891229723510925 0.5 L 74.99730319702185 0.5 L 74.99730319702185 3.5 L 81.99730319702185 0 L 74.99730319702185 -3.5 L 74.99730319702185 -0.5 L 61.891229723510925 -0.5 Z"/><text text-anchor="middle" pointer-events="none" font-size="8px" fill="#000000" x="49.998651598510925" y="3" transform="rotate(180 49.998651598510925 0)" font-family="sans-serif">LINK</text></g><g class="relationship" transform="translate(240.16420103414762 115.62952127155077) rotate(256.5901430850458)"><path class="outline" fill="#A5ABB6" stroke="none" d="M 25 0.5 L 38.054774062806665 0.5 L 38.054774062806665 -0.5 L 25 -0.5 Z M 61.839930312806665 0.5 L 74.89470437561333 0.5 L 74.89470437561333 3.5 L 81.89470437561333 0 L 74.89470437561333 -3.5 L 74.89470437561333 -0.5 L 61.839930312806665 -0.5 Z"/><text text-anchor="middle" pointer-events="none" font-size="8px" fill="#000000" x="49.947352187806665" y="3" transform="rotate(180 49.947352187806665 0)" font-family="sans-serif">LINK</text></g><g class="relationship" transform="translate(12.704039838666274 1.584596429682843) rotate(431.7392849226597)"><path class="outline" fill="#A5ABB6" stroke="none" d="M 25 0.5 L 39.486699310968994 0.5 L 39.486699310968994 -0.5 L 25 -0.5 Z M 63.271855560968994 0.5 L 77.75855487193799 0.5 L 77.75855487193799 3.5 L 84.75855487193799 0 L 77.75855487193799 -3.5 L 77.75855487193799 -0.5 L 63.271855560968994 -0.5 Z"/><text text-anchor="middle" pointer-events="none" font-size="8px" fill="#000000" x="51.379277435968994" y="3" font-family="sans-serif">LINK</text></g><g class="relationship" transform="translate(12.704039838666274 1.584596429682843) rotate(496.4465227461503)"><path class="outline" fill="#A5ABB6" stroke="none" d="M 25 0.5 L 38.60121022645138 0.5 L 38.60121022645138 -0.5 L 25 -0.5 Z M 62.38636647645138 0.5 L 75.98757670290276 0.5 L 75.98757670290276 3.5 L 82.98757670290276 0 L 75.98757670290276 -3.5 L 75.98757670290276 -0.5 L 62.38636647645138 -0.5 Z"/><text text-anchor="middle" pointer-events="none" font-size="8px" fill="#000000" x="50.49378835145138" y="3" transform="rotate(180 50.49378835145138 0)" font-family="sans-serif">LINK</text></g></g><g class="layer nodes"><g class="node" transform="translate(47.095939901832494,105.81577016202364)"><circle class="outline" cx="0" cy="0" r="25" fill="#A5ABB6" stroke="#9AA1AC" stroke-width="2px"/><text text-anchor="middle" pointer-events="none" font-family="sans-serif" dy="1.5625" font-size="25" fill="#FFFFFF"/><text text-anchor="middle" pointer-events="none" y="5" font-size="10px" fill="#FFFFFF" font-family="sans-serif"> Charles</text></g><g class="node" transform="translate(190.4946105885649,210.39953064373296)"><circle class="outline" cx="0" cy="0" r="25" fill="#A5ABB6" stroke="#9AA1AC" stroke-width="2px"/><text text-anchor="middle" pointer-events="none" font-family="sans-serif" dy="1.5625" font-size="25" fill="#FFFFFF"/><text text-anchor="middle" pointer-events="none" y="5" font-size="10px" fill="#FFFFFF" font-family="sans-serif"> Doug</text></g><g class="node" transform="translate(240.16420103414762,115.62952127155077)"><circle class="outline" cx="0" cy="0" r="25" fill="#A5ABB6" stroke="#9AA1AC" stroke-width="2px"/><text text-anchor="middle" pointer-events="none" font-family="sans-serif" dy="1.5625" font-size="25" fill="#FFFFFF"/><text text-anchor="middle" pointer-events="none" y="5" font-size="10px" fill="#FFFFFF" font-family="sans-serif"> Mark</text></g><g class="node" transform="translate(215.37368871374585,11.649194659052693)"><circle class="outline" cx="0" cy="0" r="25" fill="#A5ABB6" stroke="#9AA1AC" stroke-width="2px"/><text text-anchor="middle" pointer-events="none" font-family="sans-serif" dy="1.5625" font-size="25" fill="#FFFFFF"/><text text-anchor="middle" pointer-events="none" y="5" font-size="10px" fill="#FFFFFF" font-family="sans-serif"> Michael</text></g><g class="node" transform="translate(12.704039838666274,1.584596429682843)"><circle class="outline" cx="0" cy="0" r="25" fill="#A5ABB6" stroke="#9AA1AC" stroke-width="2px"/><text text-anchor="middle" pointer-events="none" font-family="sans-serif" dy="1.5625" font-size="25" fill="#FFFFFF"/><text text-anchor="middle" pointer-events="none" y="5" font-size="10px" fill="#FFFFFF" font-family="sans-serif"> Alice</text></g><g class="node" transform="translate(-65.55796687278293,75.99141753946004)"><circle class="outline" cx="0" cy="0" r="25" fill="#A5ABB6" stroke="#9AA1AC" stroke-width="2px"/><text text-anchor="middle" pointer-events="none" font-family="sans-serif" dy="1.5625" font-size="25" fill="#FFFFFF"/><text text-anchor="middle" pointer-events="none" y="5" font-size="10px" fill="#FFFFFF" font-family="sans-serif"> Bridget</text></g></g></svg>