<svg xmlns="http://www.w3.org/2000/svg" width="396.14715576171875" height="413.78399658203125" viewBox="-297.2217102050781 -58.816162109375 396.14715576171875 413.78399658203125"><title>Neo4j Graph Visualization</title><desc>Created using Neo4j (http://www.neo4j.com/)</desc><g class="layer relationships"><g class="relationship" transform="translate(-61.99899280463855 88.72714702309565) rotate(508.8667658828449)"><path class="outline" fill="#A5ABB6" stroke="none" d="M 24.018736134675446,-6.953439040707552 L 24.277555179777966,-5.987513214418485 A 202.32458044051958 202.32458044051958 0 0 1 55.47063040492732,-11.770708300014604 L 55.36598479321205,-12.765217875608897 A 203.32458044051958 203.32458044051958 0 0 0 24.018736134675446,-6.953439040707552 Z M 93.40940797679396,-13.18908790313597 L 93.32694673157556,-12.19249363110896 A 202.32458044051958 202.32458044051958 0 0 1 124.64113214541605,-7.105738352199933 L 123.9294323289516,-4.191380211674909 L 131.55991777605183,-5.930831803870395 L 125.59006523403531,-10.991549206233298 L 124.87836541757086,-8.077191065708273 A 203.32458044051958 203.32458044051958 0 0 0 93.40940797679396,-13.18908790313597"/><text text-anchor="middle" pointer-events="none" font-size="8px" fill="#000000" x="74.3833308805235" y="-10.368968124085171" transform="rotate(180 74.3833308805235 -13.368968124085171)" font-family="sans-serif">SIMILAR</text></g><g class="relationship" transform="translate(-61.99899280463855 88.72714702309565) rotate(447.7802203580194)"><path class="outline" fill="#A5ABB6" stroke="none" d="M 24.018736134675446,-6.953439040707552 L 24.277555179777966,-5.987513214418485 A 189.030665223621 189.030665223621 0 0 1 52.09516655569236,-11.246472192336853 L 51.983506762994764,-12.2402186845041 A 190.030665223621 190.030665223621 0 0 0 24.018736134675446,-6.953439040707552 Z M 90.02519434670113,-12.6824690965706 L 89.93666704044318,-11.686395346265556 A 189.030665223621 189.030665223621 0 0 1 117.86901895632134,-7.075552837529513 L 117.16013829737486,-4.160507690131006 L 124.78893774340895,-5.907338824554113 L 118.81419316825,-10.962279700727523 L 118.10531250930352,-8.047234553329016 A 190.030665223621 190.030665223621 0 0 0 90.02519434670113,-12.6824690965706"/><text text-anchor="middle" pointer-events="none" font-size="8px" fill="#000000" x="70.999067654813" y="-9.915770674960612" font-family="sans-serif">SIMILAR</text></g><g class="relationship" transform="translate(-61.99899280463855 88.72714702309565) rotate(268.2758246987145)"><path class="outline" fill="#A5ABB6" stroke="none" d="M 24.018736134675446,-6.953439040707552 L 24.277555179777966,-5.987513214418485 A 128.81114673406384 128.81114673406384 0 0 1 36.91457480834093,-8.702232262525882 L 36.753860779372246,-9.689233276148798 A 129.81114673406384 129.81114673406384 0 0 0 24.018736134675446,-6.953439040707552 Z M 74.767469796284,-10.238621884918501 L 74.63534603764121,-9.247388656862626 A 128.81114673406384 128.81114673406384 0 0 1 87.34553984726136,-6.898998160216815 L 86.65314930284855,-3.9799922790977424 L 94.27195199394133,-5.7699212034401 L 88.26872723981178,-10.791006001708912 L 87.57633669539896,-7.8720001205898384 A 129.81114673406384 129.81114673406384 0 0 0 74.767469796284,-10.238621884918501"/><text text-anchor="middle" pointer-events="none" font-size="8px" fill="#000000" x="55.74766943595131" y="-7.863143953426913" transform="rotate(180 55.74766943595131 -10.863143953426913)" font-family="sans-serif">SIMILAR</text></g><g class="relationship" transform="translate(-61.99899280463855 88.72714702309565) rotate(396.95075891037794)"><path class="outline" fill="#A5ABB6" stroke="none" d="M 25 0.5 L 64.70036119111147 0.5 L 64.70036119111147 -0.5 L 25 -0.5 Z M 93.38004869111147 0.5 L 133.08040988222294 0.5 L 133.08040988222294 3.5 L 140.08040988222294 0 L 133.08040988222294 -3.5 L 133.08040988222294 -0.5 L 93.38004869111147 -0.5 Z"/><text text-anchor="middle" pointer-events="none" font-size="8px" fill="#000000" x="79.04020494111147" y="3" font-family="sans-serif">LIKES</text></g><g class="relationship" transform="translate(-61.99899280463855 88.72714702309565) rotate(366.06605559512747)"><path class="outline" fill="#A5ABB6" stroke="none" d="M 25 0.5 L 47.10802473146195 0.5 L 47.10802473146195 -0.5 L 25 -0.5 Z M 75.78771223146195 0.5 L 97.8957369629239 0.5 L 97.8957369629239 3.5 L 104.8957369629239 0 L 97.8957369629239 -3.5 L 97.8957369629239 -0.5 L 75.78771223146195 -0.5 Z"/><text text-anchor="middle" pointer-events="none" font-size="8px" fill="#000000" x="61.44786848146195" y="3" font-family="sans-serif">LIKES</text></g><g class="relationship" transform="translate(-61.99899280463855 88.72714702309565) rotate(190.94044003197826)"><path class="outline" fill="#A5ABB6" stroke="none" d="M 25 0.5 L 52.710420418296266 0.5 L 52.710420418296266 -0.5 L 25 -0.5 Z M 81.39010791829627 0.5 L 109.10052833659253 0.5 L 109.10052833659253 3.5 L 116.10052833659253 0 L 109.10052833659253 -3.5 L 109.10052833659253 -0.5 L 81.39010791829627 -0.5 Z"/><text text-anchor="middle" pointer-events="none" font-size="8px" fill="#000000" x="67.05026416829627" y="3" transform="rotate(180 67.05026416829627 0)" font-family="sans-serif">LIKES</text></g><g class="relationship" transform="translate(-65.56733869777625 -29.816159639726237) rotate(483.1052371588756)"><path class="outline" fill="#A5ABB6" stroke="none" d="M 24.018736134675446,-6.953439040707552 L 24.277555179777966,-5.987513214418485 A 362.1724156229591 362.1724156229591 0 0 1 96.36591269089385,-17.680635508549983 L 96.3061379528712,-18.67884740023146 A 363.1724156229591 363.1724156229591 0 0 0 24.018736134675446,-6.953439040707552 Z M 134.34789072303414,-18.960770300591662 L 134.3029169968737,-17.96178213051394 A 362.1724156229591 362.1724156229591 0 0 1 206.55665974712275,-7.338361955409965 L 205.82323570398265,-4.42939492690242 L 213.46648682083037,-6.1118670261676264 L 207.53455847130957,-11.216984660086691 L 206.80113442816946,-8.308017631579146 A 363.1724156229591 363.1724156229591 0 0 0 134.34789072303414,-18.960770300591662"/><text text-anchor="middle" pointer-events="none" font-size="8px" fill="#000000" x="115.32702566634934" y="-15.818280233670578" transform="rotate(180 115.32702566634934 -18.818280233670578)" font-family="sans-serif">SIMILAR</text></g><g class="relationship" transform="translate(-65.56733869777625 -29.816159639726237) rotate(448.2758246987145)"><path class="outline" fill="#A5ABB6" stroke="none" d="M 24.018736134675446,-6.953439040707552 L 24.277555179777966,-5.987513214418485 A 128.81114673406384 128.81114673406384 0 0 1 36.91457480834093,-8.702232262525882 L 36.753860779372246,-9.689233276148798 A 129.81114673406384 129.81114673406384 0 0 0 24.018736134675446,-6.953439040707552 Z M 74.767469796284,-10.238621884918501 L 74.63534603764121,-9.247388656862626 A 128.81114673406384 128.81114673406384 0 0 1 87.34553984726136,-6.898998160216815 L 86.65314930284855,-3.9799922790977424 L 94.27195199394133,-5.7699212034401 L 88.26872723981178,-10.791006001708912 L 87.57633669539896,-7.8720001205898384 A 129.81114673406384 129.81114673406384 0 0 0 74.767469796284,-10.238621884918501"/><text text-anchor="middle" pointer-events="none" font-size="8px" fill="#000000" x="55.74766943595131" y="-7.863143953426913" font-family="sans-serif">SIMILAR</text></g><g class="relationship" transform="translate(-65.56733869777625 -29.816159639726237) rotate(404.8990914839157)"><path class="outline" fill="#A5ABB6" stroke="none" d="M 25 0.5 L 75.8543524892999 0.5 L 75.8543524892999 -0.5 L 25 -0.5 Z M 104.5340399892999 0.5 L 155.3883924785998 0.5 L 155.3883924785998 3.5 L 162.3883924785998 0 L 155.3883924785998 -3.5 L 155.3883924785998 -0.5 L 104.5340399892999 -0.5 Z"/><text text-anchor="middle" pointer-events="none" font-size="8px" fill="#000000" x="90.1941962392999" y="3" font-family="sans-serif">LIKES</text></g><g class="relationship" transform="translate(-65.56733869777625 -29.816159639726237) rotate(505.788353397529)"><path class="outline" fill="#A5ABB6" stroke="none" d="M 25 0.5 L 63.764255719359724 0.5 L 63.764255719359724 -0.5 L 25 -0.5 Z M 92.44394321935972 0.5 L 131.20819893871945 0.5 L 131.20819893871945 3.5 L 138.20819893871945 0 L 131.20819893871945 -3.5 L 131.20819893871945 -0.5 L 92.44394321935972 -0.5 Z"/><text text-anchor="middle" pointer-events="none" font-size="8px" fill="#000000" x="78.10409946935972" y="3" transform="rotate(180 78.10409946935972 0)" font-family="sans-serif">LIKES</text></g><g class="relationship" transform="translate(-56.22467314002416 237.69625798411604) rotate(206.17017667861478)"><path class="outline" fill="#A5ABB6" stroke="none" d="M 24.018736134675446,-6.953439040707552 L 24.277555179777966,-5.987513214418485 A 200.80053988466196 200.80053988466196 0 0 1 55.083340889401015,-11.71105883704439 L 54.977936699294986,-12.705488299956698 A 201.80053988466196 201.80053988466196 0 0 0 24.018736134675446,-6.953439040707552 Z M 93.02119891910507,-13.131389258655275 L 92.9380839791753,-12.134849291187606 A 200.80053988466196 200.80053988466196 0 0 1 123.86428488354635,-7.102404030285646 L 123.15289647181051,-4.187969860905943 L 130.78319601405497,-5.928236764465305 L 124.81280276586081,-10.98831625612525 L 124.10141435412497,-8.073882086745547 A 201.80053988466196 201.80053988466196 0 0 0 93.02119891910507,-13.131389258655275"/><text text-anchor="middle" pointer-events="none" font-size="8px" fill="#000000" x="73.99510571038127" y="-10.317012184568313" transform="rotate(180 73.99510571038127 -13.317012184568313)" font-family="sans-serif">SIMILAR</text></g><g class="relationship" transform="translate(-56.22467314002416 237.69625798411604) rotate(267.7802203580194)"><path class="outline" fill="#A5ABB6" stroke="none" d="M 24.018736134675446,-6.953439040707552 L 24.277555179777966,-5.987513214418485 A 189.030665223621 189.030665223621 0 0 1 52.09516655569236,-11.246472192336853 L 51.983506762994764,-12.2402186845041 A 190.030665223621 190.030665223621 0 0 0 24.018736134675446,-6.953439040707552 Z M 90.02519434670113,-12.6824690965706 L 89.93666704044318,-11.686395346265556 A 189.030665223621 189.030665223621 0 0 1 117.86901895632134,-7.075552837529513 L 117.16013829737486,-4.160507690131006 L 124.78893774340895,-5.907338824554113 L 118.81419316825,-10.962279700727523 L 118.10531250930352,-8.047234553329016 A 190.030665223621 190.030665223621 0 0 0 90.02519434670113,-12.6824690965706"/><text text-anchor="middle" pointer-events="none" font-size="8px" fill="#000000" x="70.999067654813" y="-9.915770674960612" transform="rotate(180 70.999067654813 -12.915770674960612)" font-family="sans-serif">SIMILAR</text></g><g class="relationship" transform="translate(-56.22467314002416 237.69625798411604) rotate(338.4831975117139)"><path class="outline" fill="#A5ABB6" stroke="none" d="M 25 0.5 L 49.96018199186558 0.5 L 49.96018199186558 -0.5 L 25 -0.5 Z M 78.63986949186558 0.5 L 103.60005148373116 0.5 L 103.60005148373116 3.5 L 110.60005148373116 0 L 103.60005148373116 -3.5 L 103.60005148373116 -0.5 L 78.63986949186558 -0.5 Z"/><text text-anchor="middle" pointer-events="none" font-size="8px" fill="#000000" x="64.30002574186558" y="3" font-family="sans-serif">LIKES</text></g><g class="relationship" transform="translate(-195.3982786998369 169.30431300472378) rotate(386.1701766786148)"><path class="outline" fill="#A5ABB6" stroke="none" d="M 24.018736134675446,-6.953439040707552 L 24.277555179777966,-5.987513214418485 A 200.80053988466196 200.80053988466196 0 0 1 55.083340889401015,-11.71105883704439 L 54.977936699294986,-12.705488299956698 A 201.80053988466196 201.80053988466196 0 0 0 24.018736134675446,-6.953439040707552 Z M 93.02119891910507,-13.131389258655275 L 92.9380839791753,-12.134849291187606 A 200.80053988466196 200.80053988466196 0 0 1 123.86428488354635,-7.102404030285646 L 123.15289647181051,-4.187969860905943 L 130.78319601405497,-5.928236764465305 L 124.81280276586081,-10.98831625612525 L 124.10141435412497,-8.073882086745547 A 201.80053988466196 201.80053988466196 0 0 0 93.02119891910507,-13.131389258655275"/><text text-anchor="middle" pointer-events="none" font-size="8px" fill="#000000" x="73.99510571038127" y="-10.317012184568313" font-family="sans-serif">SIMILAR</text></g><g class="relationship" transform="translate(-195.3982786998369 169.30431300472378) rotate(303.1052371588756)"><path class="outline" fill="#A5ABB6" stroke="none" d="M 24.018736134675446,-6.953439040707552 L 24.277555179777966,-5.987513214418485 A 362.1724156229591 362.1724156229591 0 0 1 96.36591269089385,-17.680635508549983 L 96.3061379528712,-18.67884740023146 A 363.1724156229591 363.1724156229591 0 0 0 24.018736134675446,-6.953439040707552 Z M 134.34789072303414,-18.960770300591662 L 134.3029169968737,-17.96178213051394 A 362.1724156229591 362.1724156229591 0 0 1 206.55665974712275,-7.338361955409965 L 205.82323570398265,-4.42939492690242 L 213.46648682083037,-6.1118670261676264 L 207.53455847130957,-11.216984660086691 L 206.80113442816946,-8.308017631579146 A 363.1724156229591 363.1724156229591 0 0 0 134.34789072303414,-18.960770300591662"/><text text-anchor="middle" pointer-events="none" font-size="8px" fill="#000000" x="115.32702566634934" y="-15.818280233670578" font-family="sans-serif">SIMILAR</text></g><g class="relationship" transform="translate(-195.3982786998369 169.30431300472378) rotate(328.8667658828449)"><path class="outline" fill="#A5ABB6" stroke="none" d="M 24.018736134675446,-6.953439040707552 L 24.277555179777966,-5.987513214418485 A 202.32458044051958 202.32458044051958 0 0 1 55.47063040492732,-11.770708300014604 L 55.36598479321205,-12.765217875608897 A 203.32458044051958 203.32458044051958 0 0 0 24.018736134675446,-6.953439040707552 Z M 93.40940797679396,-13.18908790313597 L 93.32694673157556,-12.19249363110896 A 202.32458044051958 202.32458044051958 0 0 1 124.64113214541605,-7.105738352199933 L 123.9294323289516,-4.191380211674909 L 131.55991777605183,-5.930831803870395 L 125.59006523403531,-10.991549206233298 L 124.87836541757086,-8.077191065708273 A 203.32458044051958 203.32458044051958 0 0 0 93.40940797679396,-13.18908790313597"/><text text-anchor="middle" pointer-events="none" font-size="8px" fill="#000000" x="74.3833308805235" y="-10.368968124085171" font-family="sans-serif">SIMILAR</text></g><g class="relationship" transform="translate(-195.3982786998369 169.30431300472378) rotate(364.0223749565994)"><path class="outline" fill="#A5ABB6" stroke="none" d="M 25 0.5 L 115.14959272464637 0.5 L 115.14959272464637 -0.5 L 25 -0.5 Z M 143.82928022464637 0.5 L 233.97887294929274 0.5 L 233.97887294929274 3.5 L 240.97887294929274 0 L 233.97887294929274 -3.5 L 233.97887294929274 -0.5 L 143.82928022464637 -0.5 Z"/><text text-anchor="middle" pointer-events="none" font-size="8px" fill="#000000" x="129.48943647464637" y="3" font-family="sans-serif">LIKES</text></g><g class="relationship" transform="translate(-195.3982786998369 169.30431300472378) rotate(345.7158254287327)"><path class="outline" fill="#A5ABB6" stroke="none" d="M 25 0.5 L 117.63227392825081 0.5 L 117.63227392825081 -0.5 L 25 -0.5 Z M 146.3119614282508 0.5 L 238.94423535650162 0.5 L 238.94423535650162 3.5 L 245.94423535650162 0 L 238.94423535650162 -3.5 L 238.94423535650162 -0.5 L 146.3119614282508 -0.5 Z"/><text text-anchor="middle" pointer-events="none" font-size="8px" fill="#000000" x="131.9721176782508" y="3" font-family="sans-serif">LIKES</text></g><g class="relationship" transform="translate(-195.3982786998369 169.30431300472378) rotate(267.2606270791765)"><path class="outline" fill="#A5ABB6" stroke="none" d="M 25 0.5 L 35.899776176931496 0.5 L 35.899776176931496 -0.5 L 25 -0.5 Z M 64.5794636769315 0.5 L 75.47923985386299 0.5 L 75.47923985386299 3.5 L 82.47923985386299 0 L 75.47923985386299 -3.5 L 75.47923985386299 -0.5 L 64.5794636769315 -0.5 Z"/><text text-anchor="middle" pointer-events="none" font-size="8px" fill="#000000" x="50.239619926931496" y="3" transform="rotate(180 50.239619926931496 0)" font-family="sans-serif">LIKES</text></g></g><g class="layer nodes"><g class="node" transform="translate(-61.99899280463855,88.72714702309565)"><circle class="outline" cx="0" cy="0" r="25" fill="#DA7194" stroke="#cc3c6c" stroke-width="2px"/><text text-anchor="middle" pointer-events="none" font-family="sans-serif" dy="1.5625" font-size="25" fill="#FFFFFF"/><text text-anchor="middle" pointer-events="none" x="0" y="5" font-size="10px" fill="#FFFFFF" font-family="sans-serif"> Alice</text></g><g class="node" transform="translate(-65.56733869777625,-29.816159639726237)"><circle class="outline" cx="0" cy="0" r="25" fill="#DA7194" stroke="#cc3c6c" stroke-width="2px"/><text text-anchor="middle" pointer-events="none" font-family="sans-serif" dy="1.5625" font-size="25" fill="#FFFFFF"/><text text-anchor="middle" pointer-events="none" x="0" y="5" font-size="10px" fill="#FFFFFF" font-family="sans-serif"> Bob</text></g><g class="node" transform="translate(-56.22467314002416,237.69625798411604)"><circle class="outline" cx="0" cy="0" r="25" fill="#DA7194" stroke="#cc3c6c" stroke-width="2px"/><text text-anchor="middle" pointer-events="none" font-family="sans-serif" dy="1.5625" font-size="25" fill="#FFFFFF"/><text text-anchor="middle" pointer-events="none" x="0" y="5" font-size="10px" fill="#FFFFFF" font-family="sans-serif"> Carol</text></g><g class="node" transform="translate(-195.3982786998369,169.30431300472378)"><circle class="outline" cx="0" cy="0" r="25" fill="#DA7194" stroke="#cc3c6c" stroke-width="2px"/><text text-anchor="middle" pointer-events="none" font-family="sans-serif" dy="1.5625" font-size="25" fill="#FFFFFF"/><text text-anchor="middle" pointer-events="none" x="0" y="5" font-size="10px" fill="#FFFFFF" font-family="sans-serif"> Dave</text></g><g class="node" transform="translate(-54.180629097373725,325.96782121909575)"><circle class="outline" cx="0" cy="0" r="25" fill="#DA7194" stroke="#cc3c6c" stroke-width="2px"/><text text-anchor="middle" pointer-events="none" font-family="sans-serif" dy="1.5625" font-size="25" fill="#FFFFFF"/><text text-anchor="middle" pointer-events="none" x="0" y="5" font-size="10px" fill="#FFFFFF" font-family="sans-serif"> Eve</text></g><g class="node" transform="translate(-200.5350193687117,61.947893099508335)"><circle class="outline" cx="0" cy="0" r="25" fill="#F79767" stroke="#f36924" stroke-width="2px"/><text text-anchor="middle" pointer-events="none" font-family="sans-serif" dy="1.5625" font-size="25" fill="#FFFFFF"/><text text-anchor="middle" pointer-events="none" x="0" y="5" font-size="10px" fill="#FFFFFF" font-family="sans-serif"> Guitar</text></g><g class="node" transform="translate(67.16942219128697,102.45387454940301)"><circle class="outline" cx="0" cy="0" r="25" fill="#F79767" stroke="#f36924" stroke-width="2px"/><text text-anchor="middle" pointer-events="none" font-family="sans-serif" dy="1.5625" font-size="25" fill="#FFFFFF"/><text text-anchor="middle" pointer-events="none" x="0" y="5" font-size="10px" fill="#FFFFFF" font-family="sans-serif"> Synthesi…</text></g><g class="node" transform="translate(69.92541730341533,187.96167601640897)"><circle class="outline" cx="0" cy="0" r="25" fill="#F79767" stroke="#f36924" stroke-width="2px"/><text text-anchor="middle" pointer-events="none" font-family="sans-serif" dy="1.5625" font-size="25" fill="#FFFFFF"/><text text-anchor="middle" pointer-events="none" x="0" y="5" font-size="10px" fill="#FFFFFF" font-family="sans-serif"> Bongos</text></g><g class="node" transform="translate(-268.22170136243477,214.9012966446749)"><circle class="outline" cx="0" cy="0" r="25" fill="#F79767" stroke="#f36924" stroke-width="2px"/><text text-anchor="middle" pointer-events="none" font-family="sans-serif" dy="1.5625" font-size="25" fill="#FFFFFF"/><text text-anchor="middle" pointer-events="none" x="0" y="5" font-size="10px" fill="#FFFFFF" font-family="sans-serif"> Trumpet</text></g></g></svg>