<svg xmlns="http://www.w3.org/2000/svg" width="341.0075988769531" height="206.49563598632812" viewBox="123.88922119140625 -19.543724060058594 341.0075988769531 206.49563598632812"><title>Neo4j Graph Visualization</title><desc>Created using Neo4j (http://www.neo4j.com/)</desc><g class="layer relationships"><g class="relationship" transform="translate(152.88921396703267 9.456274961745544) rotate(360.60253776815114)"><path class="outline" fill="#A5ABB6" stroke="none" d="M 25 0.5 L 40.56813183824832 0.5 L 40.56813183824832 -0.5 L 25 -0.5 Z M 100.34547558824832 0.5 L 115.91360742649664 0.5 L 115.91360742649664 3.5 L 122.91360742649664 0 L 115.91360742649664 -3.5 L 115.91360742649664 -0.5 L 100.34547558824832 -0.5 Z"/><text text-anchor="middle" pointer-events="none" font-size="8px" fill="#000000" x="70.45680371324832" y="3" font-family="sans-serif">CONNECTION</text></g><g class="relationship" transform="translate(300.79464244613155 11.011745415957805) rotate(381.2543369149832)"><path class="outline" fill="#A5ABB6" stroke="none" d="M 25 0.5 L 39.09255604805253 0.5 L 39.09255604805253 -0.5 L 25 -0.5 Z M 98.86989979805253 0.5 L 112.96245584610506 0.5 L 112.96245584610506 3.5 L 119.96245584610506 0 L 112.96245584610506 -3.5 L 112.96245584610506 -0.5 L 98.86989979805253 -0.5 Z"/><text text-anchor="middle" pointer-events="none" font-size="8px" fill="#000000" x="68.98122792305253" y="3" font-family="sans-serif">CONNECTION</text></g><g class="relationship" transform="translate(300.79464244613155 11.011745415957805) rotate(449.1971761956333)"><path class="outline" fill="#A5ABB6" stroke="none" d="M 25 0.5 L 37.29624541832629 0.5 L 37.29624541832629 -0.5 L 25 -0.5 Z M 97.0735891683263 0.5 L 109.36983458665259 0.5 L 109.36983458665259 3.5 L 116.36983458665259 0 L 109.36983458665259 -3.5 L 109.36983458665259 -0.5 L 97.0735891683263 -0.5 Z"/><text text-anchor="middle" pointer-events="none" font-size="8px" fill="#000000" x="67.1849172933263" y="3" font-family="sans-serif">CONNECTION</text></g><g class="relationship" transform="translate(302.775440257167 152.36770238661154) rotate(537.8344516563347)"><path class="outline" fill="#A5ABB6" stroke="none" d="M 25 0.5 L 40.50184976826537 0.5 L 40.50184976826537 -0.5 L 25 -0.5 Z M 100.27919351826537 0.5 L 115.78104328653075 0.5 L 115.78104328653075 3.5 L 122.78104328653075 0 L 115.78104328653075 -3.5 L 115.78104328653075 -0.5 L 100.27919351826537 -0.5 Z"/><text text-anchor="middle" pointer-events="none" font-size="8px" fill="#000000" x="70.39052164326537" y="3" transform="rotate(180 70.39052164326537 0)" font-family="sans-serif">CONNECTION</text></g><g class="relationship" transform="translate(435.89681473153064 63.56188003710122) rotate(506.2925823356428)"><path class="outline" fill="#A5ABB6" stroke="none" d="M 25 0.5 L 46.623474742117665 0.5 L 46.623474742117665 -0.5 L 25 -0.5 Z M 106.40081849211766 0.5 L 128.02429323423533 0.5 L 128.02429323423533 3.5 L 135.02429323423533 0 L 128.02429323423533 -3.5 L 128.02429323423533 -0.5 L 106.40081849211766 -0.5 Z"/><text text-anchor="middle" pointer-events="none" font-size="8px" fill="#000000" x="76.51214661711766" y="3" transform="rotate(180 76.51214661711766 0)" font-family="sans-serif">CONNECTION</text></g></g><g class="layer nodes"><g class="node" transform="translate(152.88921396703267,9.456274961745544)"><circle class="outline" cx="0" cy="0" r="25" fill="#F79767" stroke="#f36924" stroke-width="2px"/><text text-anchor="middle" pointer-events="none" font-family="sans-serif" dy="1.5625" font-size="25" fill="#FFFFFF"/><text text-anchor="middle" pointer-events="none" x="0" y="5" font-size="10px" fill="#FFFFFF" font-family="sans-serif"> 0</text></g><g class="node" transform="translate(300.79464244613155,11.011745415957805)"><circle class="outline" cx="0" cy="0" r="25" fill="#F79767" stroke="#f36924" stroke-width="2px"/><text text-anchor="middle" pointer-events="none" font-family="sans-serif" dy="1.5625" font-size="25" fill="#FFFFFF"/><text text-anchor="middle" pointer-events="none" x="0" y="5" font-size="10px" fill="#FFFFFF" font-family="sans-serif"> 1</text></g><g class="node" transform="translate(302.775440257167,152.36770238661154)"><circle class="outline" cx="0" cy="0" r="25" fill="#F79767" stroke="#f36924" stroke-width="2px"/><text text-anchor="middle" pointer-events="none" font-family="sans-serif" dy="1.5625" font-size="25" fill="#FFFFFF"/><text text-anchor="middle" pointer-events="none" x="0" y="5" font-size="10px" fill="#FFFFFF" font-family="sans-serif"> 2</text></g><g class="node" transform="translate(435.89681473153064,63.56188003710122)"><circle class="outline" cx="0" cy="0" r="25" fill="#F79767" stroke="#f36924" stroke-width="2px"/><text text-anchor="middle" pointer-events="none" font-family="sans-serif" dy="1.5625" font-size="25" fill="#FFFFFF"/><text text-anchor="middle" pointer-events="none" x="0" y="5" font-size="10px" fill="#FFFFFF" font-family="sans-serif"> 3</text></g><g class="node" transform="translate(155.09993950862315,157.95189736192307)"><circle class="outline" cx="0" cy="0" r="25" fill="#F79767" stroke="#f36924" stroke-width="2px"/><text text-anchor="middle" pointer-events="none" font-family="sans-serif" dy="1.5625" font-size="25" fill="#FFFFFF"/><text text-anchor="middle" pointer-events="none" x="0" y="5" font-size="10px" fill="#FFFFFF" font-family="sans-serif"> 4</text></g></g></svg>