<svg xmlns="http://www.w3.org/2000/svg" width="545.93115234375" height="267.18548583984375" viewBox="-349.1323547363281 -118.63626861572266 545.93115234375 267.18548583984375"><title>Neo4j Graph Visualization</title><desc>Created using Neo4j (http://www.neo4j.com/)</desc><g class="layer relationships"><g class="relationship" transform="translate(12.663396691128085 18.99696233700449) rotate(390.3540180406338)"><path class="b-outline" fill="#A5ABB6" stroke="none" d="M 40 0.5 L 65.80581405892168 0.5 L 65.80581405892168 -0.5 L 40 -0.5 Z M 89.59097030892168 0.5 L 115.39678436784337 0.5 L 115.39678436784337 3.5 L 122.39678436784337 0 L 115.39678436784337 -3.5 L 115.39678436784337 -0.5 L 89.59097030892168 -0.5 Z"/><text text-anchor="middle" pointer-events="none" font-size="8px" fill="#000000" x="77.69839218392168" y="3" font-family="Helvetica Neue, Helvetica, Arial, sans-serif">LINK</text></g><g class="relationship" transform="translate(12.663396691128085 18.99696233700449) rotate(325.34635167200895)"><path class="b-outline" fill="#A5ABB6" stroke="none" d="M 40 0.5 L 66.94200787092257 0.5 L 66.94200787092257 -0.5 L 40 -0.5 Z M 90.72716412092257 0.5 L 117.66917199184513 0.5 L 117.66917199184513 3.5 L 124.66917199184513 0 L 117.66917199184513 -3.5 L 117.66917199184513 -0.5 L 90.72716412092257 -0.5 Z"/><text text-anchor="middle" pointer-events="none" font-size="8px" fill="#000000" x="78.83458599592257" y="3" font-family="Helvetica Neue, Helvetica, Arial, sans-serif">LINK</text></g><g class="relationship" transform="translate(148.12096778753408 -74.63627234567635) rotate(448.4749273496989)"><path class="b-outline" fill="#A5ABB6" stroke="none" d="M 40 0.5 L 72.48807819393315 0.5 L 72.48807819393315 -0.5 L 40 -0.5 Z M 96.27323444393315 0.5 L 128.7613126378663 0.5 L 128.7613126378663 3.5 L 135.7613126378663 0 L 128.7613126378663 -3.5 L 128.7613126378663 -0.5 L 96.27323444393315 -0.5 Z"/><text text-anchor="middle" pointer-events="none" font-size="8px" fill="#000000" x="84.38065631893315" y="3" font-family="Helvetica Neue, Helvetica, Arial, sans-serif">LINK</text></g><g class="relationship" transform="translate(12.663396691128085 18.99696233700449) rotate(539.9764602719231)"><path class="b-outline" fill="#A5ABB6" stroke="none" d="M 40 0.5 L 66.0319784431695 0.5 L 66.0319784431695 -0.5 L 40 -0.5 Z M 89.8171346931695 0.5 L 115.84911313633901 0.5 L 115.84911313633901 3.5 L 122.84911313633901 0 L 115.84911313633901 -3.5 L 115.84911313633901 -0.5 L 89.8171346931695 -0.5 Z"/><text text-anchor="middle" pointer-events="none" font-size="8px" fill="#000000" x="77.9245565681695" y="3" transform="rotate(180 77.9245565681695 0)" font-family="Helvetica Neue, Helvetica, Arial, sans-serif">LINK</text></g><g class="relationship" transform="translate(-304.91655402627526 -70.95547794057931) rotate(390.18999724292763)"><path class="b-outline" fill="#A5ABB6" stroke="none" d="M 40 0.5 L 74.1131745279074 0.5 L 74.1131745279074 -0.5 L 40 -0.5 Z M 97.8983307779074 0.5 L 132.0115053058148 0.5 L 132.0115053058148 3.5 L 139.0115053058148 0 L 132.0115053058148 -3.5 L 132.0115053058148 -0.5 L 97.8983307779074 -0.5 Z"/><text text-anchor="middle" pointer-events="none" font-size="8px" fill="#000000" x="86.0057526529074" y="3" font-family="Helvetica Neue, Helvetica, Arial, sans-serif">LINK</text></g><g class="relationship" transform="translate(-304.91655402627526 -70.95547794057931) rotate(450.07045421730385)"><path class="b-outline" fill="#A5ABB6" stroke="none" d="M 40 0.5 L 72.35983608886872 0.5 L 72.35983608886872 -0.5 L 40 -0.5 Z M 96.14499233886872 0.5 L 128.50482842773744 0.5 L 128.50482842773744 3.5 L 135.50482842773744 0 L 128.50482842773744 -3.5 L 128.50482842773744 -0.5 L 96.14499233886872 -0.5 Z"/><text text-anchor="middle" pointer-events="none" font-size="8px" fill="#000000" x="84.25241421386872" y="3" transform="rotate(180 84.25241421386872 0)" font-family="Helvetica Neue, Helvetica, Arial, sans-serif">LINK</text></g><g class="relationship" transform="translate(-305.13236489941266 104.54921780035117) rotate(331.1141167525548)"><path class="b-outline" fill="#A5ABB6" stroke="none" d="M 40 0.5 L 73.0893594698889 0.5 L 73.0893594698889 -0.5 L 40 -0.5 Z M 96.8745157198889 0.5 L 129.9638751897778 0.5 L 129.9638751897778 3.5 L 136.9638751897778 0 L 129.9638751897778 -3.5 L 129.9638751897778 -0.5 L 96.8745157198889 -0.5 Z"/><text text-anchor="middle" pointer-events="none" font-size="8px" fill="#000000" x="84.9819375948889" y="3" font-family="Helvetica Neue, Helvetica, Arial, sans-serif">LINK</text></g></g><g class="layer nodes"><g class="node" aria-label="graph-node0" transform="translate(12.663396691128085,18.99696233700449)"><circle class="b-outline" cx="0" cy="0" r="40" fill="#DA7194" stroke="#cc3c6c" stroke-width="2px"/><text class="caption" text-anchor="middle" pointer-events="none" x="0" y="5" font-size="10px" fill="#FFFFFF" font-family="Helvetica Neue, Helvetica, Arial, sans-serif"> Alice</text></g><g class="node" aria-label="graph-node1" transform="translate(152.79874898690088,101.06278110435402)"><circle class="b-outline" cx="0" cy="0" r="40" fill="#DA7194" stroke="#cc3c6c" stroke-width="2px"/><text class="caption" text-anchor="middle" pointer-events="none" x="0" y="5" font-size="10px" fill="#FFFFFF" font-family="Helvetica Neue, Helvetica, Arial, sans-serif"> Bridget</text></g><g class="node" aria-label="graph-node2" transform="translate(148.12096778753408,-74.63627234567635)"><circle class="b-outline" cx="0" cy="0" r="40" fill="#DA7194" stroke="#cc3c6c" stroke-width="2px"/><text class="caption" text-anchor="middle" pointer-events="none" x="0" y="5" font-size="10px" fill="#FFFFFF" font-family="Helvetica Neue, Helvetica, Arial, sans-serif"> Charles</text></g><g class="node" aria-label="graph-node3" transform="translate(-150.1857027012151,19.06386820276859)"><circle class="b-outline" cx="0" cy="0" r="40" fill="#DA7194" stroke="#cc3c6c" stroke-width="2px"/><text class="caption" text-anchor="middle" pointer-events="none" x="0" y="5" font-size="10px" fill="#FFFFFF" font-family="Helvetica Neue, Helvetica, Arial, sans-serif"> Doug</text></g><g class="node" aria-label="graph-node4" transform="translate(-304.91655402627526,-70.95547794057931)"><circle class="b-outline" cx="0" cy="0" r="40" fill="#DA7194" stroke="#cc3c6c" stroke-width="2px"/><text class="caption" text-anchor="middle" pointer-events="none" x="0" y="5" font-size="10px" fill="#FFFFFF" font-family="Helvetica Neue, Helvetica, Arial, sans-serif"> Mark</text></g><g class="node" aria-label="graph-node5" transform="translate(-305.13236489941266,104.54921780035117)"><circle class="b-outline" cx="0" cy="0" r="40" fill="#DA7194" stroke="#cc3c6c" stroke-width="2px"/><text class="caption" text-anchor="middle" pointer-events="none" x="0" y="5" font-size="10px" fill="#FFFFFF" font-family="Helvetica Neue, Helvetica, Arial, sans-serif"> Michael</text></g></g></svg>