<svg xmlns="http://www.w3.org/2000/svg" width="542.0323486328125" height="205.62681579589844" viewBox="-326.1442565917969 -138.12245178222656 542.0323486328125 205.62681579589844"><title>Neo4j Graph Visualization</title><desc>Created using Neo4j (http://www.neo4j.com/)</desc><g class="layer relationships"><g class="relationship" transform="translate(-289.0252089593114 -109.12245086772452) rotate(453.1479272866377)"><path class="b-outline" fill="#A5ABB6" stroke="none" d="M 25 0.5 L 52.31362768668741 0.5 L 52.31362768668741 -0.5 L 25 -0.5 Z M 88.53628393668741 0.5 L 115.84991162337482 0.5 L 115.84991162337482 3.5 L 122.84991162337482 0 L 115.84991162337482 -3.5 L 115.84991162337482 -0.5 L 88.53628393668741 -0.5 Z"/><text text-anchor="middle" pointer-events="none" font-size="8px" fill="#000000" x="70.42495581168741" y="3" transform="rotate(180 70.42495581168741 0)" font-family="Helvetica Neue, Helvetica, Arial, sans-serif">KNOWS</text></g><g class="relationship" transform="translate(-289.0252089593114 -109.12245086772452) rotate(360.67188678942523)"><path class="b-outline" fill="#A5ABB6" stroke="none" d="M 25 0.5 L 66.1464696839282 0.5 L 66.1464696839282 -0.5 L 25 -0.5 Z M 102.3691259339282 0.5 L 143.5155956178564 0.5 L 143.5155956178564 3.5 L 150.5155956178564 0 L 143.5155956178564 -3.5 L 143.5155956178564 -0.5 L 102.3691259339282 -0.5 Z"/><text text-anchor="middle" pointer-events="none" font-size="8px" fill="#000000" x="84.2577978089282" y="3" font-family="Helvetica Neue, Helvetica, Arial, sans-serif">KNOWS</text></g><g class="relationship" transform="translate(-289.0252089593114 -109.12245086772452) rotate(399.4038623793129)"><path class="b-outline" fill="#A5ABB6" stroke="none" d="M 25 0.5 L 93.51282887965802 0.5 L 93.51282887965802 -0.5 L 25 -0.5 Z M 129.735485129658 0.5 L 198.24831400931603 0.5 L 198.24831400931603 3.5 L 205.24831400931603 0 L 198.24831400931603 -3.5 L 198.24831400931603 -0.5 L 129.735485129658 -0.5 Z"/><text text-anchor="middle" pointer-events="none" font-size="8px" fill="#000000" x="111.62415700465802" y="3" font-family="Helvetica Neue, Helvetica, Arial, sans-serif">KNOWS</text></g><g class="relationship" transform="translate(-297.1442477089081 38.50436775552663) rotate(321.5940202780845)"><path class="b-outline" fill="#A5ABB6" stroke="none" d="M 25 0.5 L 95.55039898734151 0.5 L 95.55039898734151 -0.5 L 25 -0.5 Z M 131.7730552373415 0.5 L 202.32345422468302 0.5 L 202.32345422468302 3.5 L 209.32345422468302 0 L 202.32345422468302 -3.5 L 202.32345422468302 -0.5 L 131.7730552373415 -0.5 Z"/><text text-anchor="middle" pointer-events="none" font-size="8px" fill="#000000" x="113.66172711234151" y="3" font-family="Helvetica Neue, Helvetica, Arial, sans-serif">KNOWS</text></g><g class="relationship" transform="translate(-297.1442477089081 38.50436775552663) rotate(359.54750849408265)"><path class="b-outline" fill="#A5ABB6" stroke="none" d="M 25 0.5 L 71.40646710084731 0.5 L 71.40646710084731 -0.5 L 25 -0.5 Z M 107.62912335084731 0.5 L 154.03559045169462 0.5 L 154.03559045169462 3.5 L 161.03559045169462 0 L 154.03559045169462 -3.5 L 154.03559045169462 -0.5 L 107.62912335084731 -0.5 Z"/><text text-anchor="middle" pointer-events="none" font-size="8px" fill="#000000" x="89.51779522584731" y="3" font-family="Helvetica Neue, Helvetica, Arial, sans-serif">KNOWS</text></g><g class="relationship" transform="translate(-113.5216811296498 -107.06429041865924) rotate(449.04294678307053)"><path class="b-outline" fill="#A5ABB6" stroke="none" d="M 25 0.5 L 50.44845629761389 0.5 L 50.44845629761389 -0.5 L 25 -0.5 Z M 86.67111254761389 0.5 L 112.11956884522778 0.5 L 112.11956884522778 3.5 L 119.11956884522778 0 L 112.11956884522778 -3.5 L 112.11956884522778 -0.5 L 86.67111254761389 -0.5 Z"/><text text-anchor="middle" pointer-events="none" font-size="8px" fill="#000000" x="68.55978442261389" y="3" font-family="Helvetica Neue, Helvetica, Arial, sans-serif">KNOWS</text></g><g class="relationship" transform="translate(-113.5216811296498 -107.06429041865924) rotate(385.2569082356881)"><path class="b-outline" fill="#A5ABB6" stroke="none" d="M 25 0.5 L 64.89907094597223 0.5 L 64.89907094597223 -0.5 L 25 -0.5 Z M 101.12172719597223 0.5 L 141.02079814194445 0.5 L 141.02079814194445 3.5 L 148.02079814194445 0 L 141.02079814194445 -3.5 L 141.02079814194445 -0.5 L 101.12172719597223 -0.5 Z"/><text text-anchor="middle" pointer-events="none" font-size="8px" fill="#000000" x="83.01039907097223" y="3" font-family="Helvetica Neue, Helvetica, Arial, sans-serif">KNOWS</text></g><g class="relationship" transform="translate(-111.11445874498983 37.03517316301114) rotate(335.48151960423434)"><path class="b-outline" fill="#A5ABB6" stroke="none" d="M 25 0.5 L 63.06045550254058 0.5 L 63.06045550254058 -0.5 L 25 -0.5 Z M 99.28311175254058 0.5 L 137.34356725508115 0.5 L 137.34356725508115 3.5 L 144.34356725508115 0 L 137.34356725508115 -3.5 L 137.34356725508115 -0.5 L 99.28311175254058 -0.5 Z"/><text text-anchor="middle" pointer-events="none" font-size="8px" fill="#000000" x="81.17178362754058" y="3" font-family="Helvetica Neue, Helvetica, Arial, sans-serif">KNOWS</text></g><g class="relationship" transform="translate(42.95897007470487 -33.240158941637546) rotate(361.59023883585996)"><path class="b-outline" fill="#A5ABB6" stroke="none" d="M 25 0.5 L 50.38095831429476 0.5 L 50.38095831429476 -0.5 L 25 -0.5 Z M 86.60361456429476 0.5 L 111.98457287858952 0.5 L 111.98457287858952 3.5 L 118.98457287858952 0 L 111.98457287858952 -3.5 L 111.98457287858952 -0.5 L 86.60361456429476 -0.5 Z"/><text text-anchor="middle" pointer-events="none" font-size="8px" fill="#000000" x="68.49228643929476" y="3" font-family="Helvetica Neue, Helvetica, Arial, sans-serif">KNOWS</text></g></g><g class="layer nodes"><g class="node" aria-label="graph-node0" transform="translate(-289.0252089593114,-109.12245086772452)"><circle class="b-outline" cx="0" cy="0" r="25" fill="#F79767" stroke="#f36924" stroke-width="2px"/><text class="caption" text-anchor="middle" pointer-events="none" x="0" y="5" font-size="10px" fill="#FFFFFF" font-family="Helvetica Neue, Helvetica, Arial, sans-serif"> Alice</text></g><g class="node" aria-label="graph-node1" transform="translate(-297.1442477089081,38.50436775552663)"><circle class="b-outline" cx="0" cy="0" r="25" fill="#F79767" stroke="#f36924" stroke-width="2px"/><text class="caption" text-anchor="middle" pointer-events="none" x="0" y="5" font-size="10px" fill="#FFFFFF" font-family="Helvetica Neue, Helvetica, Arial, sans-serif"> Michael</text></g><g class="node" aria-label="graph-node2" transform="translate(-113.5216811296498,-107.06429041865924)"><circle class="b-outline" cx="0" cy="0" r="25" fill="#F79767" stroke="#f36924" stroke-width="2px"/><text class="caption" text-anchor="middle" pointer-events="none" x="0" y="5" font-size="10px" fill="#FFFFFF" font-family="Helvetica Neue, Helvetica, Arial, sans-serif"> Karin</text></g><g class="node" aria-label="graph-node3" transform="translate(-111.11445874498983,37.03517316301114)"><circle class="b-outline" cx="0" cy="0" r="25" fill="#F79767" stroke="#f36924" stroke-width="2px"/><text class="caption" text-anchor="middle" pointer-events="none" x="0" y="5" font-size="10px" fill="#FFFFFF" font-family="Helvetica Neue, Helvetica, Arial, sans-serif"> Chris</text></g><g class="node" aria-label="graph-node4" transform="translate(42.95897007470487,-33.240158941637546)"><circle class="b-outline" cx="0" cy="0" r="25" fill="#F79767" stroke="#f36924" stroke-width="2px"/><text class="caption" text-anchor="middle" pointer-events="none" x="0" y="5" font-size="10px" fill="#FFFFFF" font-family="Helvetica Neue, Helvetica, Arial, sans-serif"> Will</text></g><g class="node" aria-label="graph-node5" transform="translate(186.88808835890555,-29.244394063366443)"><circle class="b-outline" cx="0" cy="0" r="25" fill="#F79767" stroke="#f36924" stroke-width="2px"/><text class="caption" text-anchor="middle" pointer-events="none" x="0" y="5" font-size="10px" fill="#FFFFFF" font-family="Helvetica Neue, Helvetica, Arial, sans-serif"> Mark</text></g></g></svg>