<svg width="1599" height="128" viewBox="0 0 1599 128" fill="none" xmlns="http://www.w3.org/2000/svg">
<path d="M0 64C0 28.6538 28.6538 0 64 0C99.3462 0 128 28.6538 128 64C128 99.3462 99.3462 128 64 128C28.6538 128 0 99.3462 0 64Z" fill="#014063"/>
<path d="M60.9962 69V58.878H67.3802L67.3732 60.019H62.2982V63.323H66.8692V64.457H62.2912V67.831L67.5132 67.845V69H60.9962Z" fill="white"/>
<path d="M365 64C365 28.6538 393.654 0 429 0C464.346 0 493 28.6538 493 64C493 99.3462 464.346 128 429 128C393.654 128 365 99.3462 365 64Z" fill="#014063"/>
<path d="M425.483 69V58.878C425.516 58.878 425.614 58.8803 425.777 58.885C425.945 58.885 426.148 58.885 426.386 58.885C426.624 58.8803 426.872 58.8803 427.128 58.885C427.385 58.885 427.621 58.8873 427.835 58.892C429.077 58.9107 430.082 59.1137 430.852 59.501C431.627 59.8837 432.194 60.4413 432.553 61.174C432.917 61.9067 433.099 62.8073 433.099 63.876C433.099 64.996 432.903 65.9363 432.511 66.697C432.124 67.4577 431.531 68.0317 430.733 68.419C429.94 68.8063 428.93 69 427.702 69H425.483ZM426.813 67.887H427.702C428.538 67.887 429.256 67.7587 429.858 67.502C430.46 67.2407 430.922 66.8183 431.244 66.235C431.571 65.6517 431.734 64.8723 431.734 63.897C431.734 62.9217 431.576 62.1493 431.258 61.58C430.946 61.0107 430.493 60.6047 429.9 60.362C429.308 60.1147 428.594 59.991 427.758 59.991H426.813V67.887Z" fill="white"/>
<path d="M353.207 84.7071C353.598 84.3166 353.598 83.6834 353.207 83.2929L346.843 76.9289C346.453 76.5384 345.819 76.5384 345.429 76.9289C345.038 77.3195 345.038 77.9526 345.429 78.3431L351.086 84L345.429 89.6569C345.038 90.0474 345.038 90.6805 345.429 91.0711C345.819 91.4616 346.453 91.4616 346.843 91.0711L353.207 84.7071ZM283 83C282.448 83 282 83.4477 282 84C282 84.5523 282.448 85 283 85V84V83ZM205.5 85C206.052 85 206.5 84.5523 206.5 84C206.5 83.4477 206.052 83 205.5 83V84V85ZM352.5 84V83H283V84V85H352.5V84ZM205.5 84V83H136V84V85H205.5V84Z" fill="#1A1B1D"/>
<path d="M216.068 91L216.078 76.54H218.538V88.9H225.068V91H216.068ZM227.611 91V76.54H230.041V91H227.611ZM233.549 91V76.54H235.929L243.009 86.87V76.54H245.439V91H243.249L235.979 80.39V91H233.549ZM248.939 91V76.54H251.469V83.55L257.289 76.54H260.119L255.529 82.18L260.599 91H257.909L253.779 83.95L251.469 86.66V91H248.939ZM267.489 91.2C266.769 91.2 266.079 91.1133 265.419 90.94C264.759 90.76 264.155 90.4967 263.609 90.15C263.069 89.7967 262.622 89.36 262.269 88.84C261.915 88.3133 261.699 87.7 261.619 87H264.139C264.245 87.4867 264.455 87.8967 264.769 88.23C265.089 88.5633 265.492 88.8167 265.979 88.99C266.465 89.1633 267.009 89.25 267.609 89.25C268.142 89.25 268.639 89.17 269.099 89.01C269.559 88.85 269.932 88.6133 270.219 88.3C270.505 87.98 270.649 87.5867 270.649 87.12C270.649 86.5933 270.462 86.1833 270.089 85.89C269.722 85.59 269.195 85.3533 268.509 85.18L265.679 84.51C264.945 84.3433 264.305 84.1 263.759 83.78C263.219 83.46 262.799 83.04 262.499 82.52C262.199 81.9933 262.049 81.35 262.049 80.59C262.049 79.7233 262.285 78.9733 262.759 78.34C263.239 77.7067 263.889 77.22 264.709 76.88C265.529 76.5333 266.452 76.36 267.479 76.36C268.652 76.36 269.642 76.5567 270.449 76.95C271.255 77.3367 271.869 77.8567 272.289 78.51C272.709 79.1633 272.922 79.88 272.929 80.66H270.469C270.415 80.08 270.245 79.6233 269.959 79.29C269.672 78.95 269.309 78.7033 268.869 78.55C268.429 78.3967 267.942 78.32 267.409 78.32C266.462 78.32 265.759 78.5233 265.299 78.93C264.839 79.3367 264.609 79.8133 264.609 80.36C264.609 80.8733 264.779 81.28 265.119 81.58C265.459 81.88 265.979 82.1133 266.679 82.28L269.369 82.91C270.269 83.0967 270.992 83.3833 271.539 83.77C272.085 84.1567 272.482 84.6167 272.729 85.15C272.982 85.6767 273.109 86.26 273.109 86.9C273.109 87.74 272.869 88.4833 272.389 89.13C271.915 89.7767 271.259 90.2833 270.419 90.65C269.579 91.0167 268.602 91.2 267.489 91.2Z" fill="black" fill-opacity="0.8"/>
<path d="M283 42.5C282.448 42.5 282 42.9477 282 43.5C282 44.0523 282.448 44.5 283 44.5V43.5V42.5ZM205.5 44.5C206.052 44.5 206.5 44.0523 206.5 43.5C206.5 42.9477 206.052 42.5 205.5 42.5V43.5V44.5ZM135.293 42.7929C134.902 43.1834 134.902 43.8166 135.293 44.2071L141.657 50.5711C142.047 50.9616 142.681 50.9616 143.071 50.5711C143.462 50.1805 143.462 49.5474 143.071 49.1569L137.414 43.5L143.071 37.8431C143.462 37.4526 143.462 36.8195 143.071 36.4289C142.681 36.0384 142.047 36.0384 141.657 36.4289L135.293 42.7929ZM352.5 43.5V42.5H283V43.5V44.5H352.5V43.5ZM205.5 43.5V42.5H136V43.5V44.5H205.5V43.5Z" fill="#1A1B1D"/>
<path d="M216.068 50.5L216.078 36.04H218.538V48.4H225.068V50.5H216.068ZM227.611 50.5V36.04H230.041V50.5H227.611ZM233.549 50.5V36.04H235.929L243.009 46.37V36.04H245.439V50.5H243.249L235.979 39.89V50.5H233.549ZM248.939 50.5V36.04H251.469V43.05L257.289 36.04H260.119L255.529 41.68L260.599 50.5H257.909L253.779 43.45L251.469 46.16V50.5H248.939ZM267.489 50.7C266.769 50.7 266.079 50.6133 265.419 50.44C264.759 50.26 264.155 49.9967 263.609 49.65C263.069 49.2967 262.622 48.86 262.269 48.34C261.915 47.8133 261.699 47.2 261.619 46.5H264.139C264.245 46.9867 264.455 47.3967 264.769 47.73C265.089 48.0633 265.492 48.3167 265.979 48.49C266.465 48.6633 267.009 48.75 267.609 48.75C268.142 48.75 268.639 48.67 269.099 48.51C269.559 48.35 269.932 48.1133 270.219 47.8C270.505 47.48 270.649 47.0867 270.649 46.62C270.649 46.0933 270.462 45.6833 270.089 45.39C269.722 45.09 269.195 44.8533 268.509 44.68L265.679 44.01C264.945 43.8433 264.305 43.6 263.759 43.28C263.219 42.96 262.799 42.54 262.499 42.02C262.199 41.4933 262.049 40.85 262.049 40.09C262.049 39.2233 262.285 38.4733 262.759 37.84C263.239 37.2067 263.889 36.72 264.709 36.38C265.529 36.0333 266.452 35.86 267.479 35.86C268.652 35.86 269.642 36.0567 270.449 36.45C271.255 36.8367 271.869 37.3567 272.289 38.01C272.709 38.6633 272.922 39.38 272.929 40.16H270.469C270.415 39.58 270.245 39.1233 269.959 38.79C269.672 38.45 269.309 38.2033 268.869 38.05C268.429 37.8967 267.942 37.82 267.409 37.82C266.462 37.82 265.759 38.0233 265.299 38.43C264.839 38.8367 264.609 39.3133 264.609 39.86C264.609 40.3733 264.779 40.78 265.119 41.08C265.459 41.38 265.979 41.6133 266.679 41.78L269.369 42.41C270.269 42.5967 270.992 42.8833 271.539 43.27C272.085 43.6567 272.482 44.1167 272.729 44.65C272.982 45.1767 273.109 45.76 273.109 46.4C273.109 47.24 272.869 47.9833 272.389 48.63C271.915 49.2767 271.259 49.7833 270.419 50.15C269.579 50.5167 268.602 50.7 267.489 50.7Z" fill="black" fill-opacity="0.8"/>
<path d="M732 64C732 28.6538 760.654 0 796 0C831.346 0 860 28.6538 860 64C860 99.3462 831.346 128 796 128C760.654 128 732 99.3462 732 64Z" fill="#014063"/>
<path d="M796.242 69.14C795.332 69.14 794.555 68.9323 793.911 68.517C793.271 68.1017 792.781 67.5043 792.441 66.725C792.105 65.9457 791.937 65.0053 791.937 63.904C791.937 62.8073 792.105 61.874 792.441 61.104C792.777 60.334 793.264 59.7483 793.904 59.347C794.548 58.941 795.327 58.738 796.242 58.738C796.956 58.738 797.588 58.8873 798.139 59.186C798.689 59.48 799.133 59.8743 799.469 60.369C799.805 60.8637 800.003 61.4073 800.064 62H798.685C798.61 61.6033 798.468 61.244 798.258 60.922C798.048 60.6 797.772 60.3433 797.432 60.152C797.091 59.9607 796.683 59.865 796.207 59.865C795.595 59.865 795.077 60.0097 794.653 60.299C794.233 60.5837 793.913 61.0247 793.694 61.622C793.479 62.2193 793.372 62.9847 793.372 63.918C793.372 65.3273 793.612 66.3633 794.093 67.026C794.578 67.684 795.283 68.013 796.207 68.013C796.683 68.013 797.091 67.9127 797.432 67.712C797.772 67.5113 798.048 67.243 798.258 66.907C798.468 66.571 798.61 66.207 798.685 65.815H800.064C800.012 66.2443 799.896 66.6597 799.714 67.061C799.536 67.4577 799.291 67.8123 798.979 68.125C798.666 68.4377 798.281 68.685 797.824 68.867C797.371 69.049 796.844 69.14 796.242 69.14Z" fill="white"/>
<path d="M720.207 84.7071C720.598 84.3166 720.598 83.6834 720.207 83.2929L713.843 76.9289C713.453 76.5384 712.819 76.5384 712.429 76.9289C712.038 77.3195 712.038 77.9526 712.429 78.3431L718.086 84L712.429 89.6569C712.038 90.0474 712.038 90.6805 712.429 91.0711C712.819 91.4616 713.453 91.4616 713.843 91.0711L720.207 84.7071ZM650 83C649.448 83 649 83.4477 649 84C649 84.5523 649.448 85 650 85V84V83ZM572.5 85C573.052 85 573.5 84.5523 573.5 84C573.5 83.4477 573.052 83 572.5 83V84V85ZM719.5 84V83H650V84V85H719.5V84ZM572.5 84V83H503V84V85H572.5V84Z" fill="#1A1B1D"/>
<path d="M583.068 91L583.078 76.54H585.538V88.9H592.068V91H583.068ZM594.611 91V76.54H597.041V91H594.611ZM600.549 91V76.54H602.929L610.009 86.87V76.54H612.439V91H610.249L602.979 80.39V91H600.549ZM615.939 91V76.54H618.469V83.55L624.289 76.54H627.119L622.529 82.18L627.599 91H624.909L620.779 83.95L618.469 86.66V91H615.939ZM634.489 91.2C633.769 91.2 633.079 91.1133 632.419 90.94C631.759 90.76 631.155 90.4967 630.609 90.15C630.069 89.7967 629.622 89.36 629.269 88.84C628.915 88.3133 628.699 87.7 628.619 87H631.139C631.245 87.4867 631.455 87.8967 631.769 88.23C632.089 88.5633 632.492 88.8167 632.979 88.99C633.465 89.1633 634.009 89.25 634.609 89.25C635.142 89.25 635.639 89.17 636.099 89.01C636.559 88.85 636.932 88.6133 637.219 88.3C637.505 87.98 637.649 87.5867 637.649 87.12C637.649 86.5933 637.462 86.1833 637.089 85.89C636.722 85.59 636.195 85.3533 635.509 85.18L632.679 84.51C631.945 84.3433 631.305 84.1 630.759 83.78C630.219 83.46 629.799 83.04 629.499 82.52C629.199 81.9933 629.049 81.35 629.049 80.59C629.049 79.7233 629.285 78.9733 629.759 78.34C630.239 77.7067 630.889 77.22 631.709 76.88C632.529 76.5333 633.452 76.36 634.479 76.36C635.652 76.36 636.642 76.5567 637.449 76.95C638.255 77.3367 638.869 77.8567 639.289 78.51C639.709 79.1633 639.922 79.88 639.929 80.66H637.469C637.415 80.08 637.245 79.6233 636.959 79.29C636.672 78.95 636.309 78.7033 635.869 78.55C635.429 78.3967 634.942 78.32 634.409 78.32C633.462 78.32 632.759 78.5233 632.299 78.93C631.839 79.3367 631.609 79.8133 631.609 80.36C631.609 80.8733 631.779 81.28 632.119 81.58C632.459 81.88 632.979 82.1133 633.679 82.28L636.369 82.91C637.269 83.0967 637.992 83.3833 638.539 83.77C639.085 84.1567 639.482 84.6167 639.729 85.15C639.982 85.6767 640.109 86.26 640.109 86.9C640.109 87.74 639.869 88.4833 639.389 89.13C638.915 89.7767 638.259 90.2833 637.419 90.65C636.579 91.0167 635.602 91.2 634.489 91.2Z" fill="black" fill-opacity="0.8"/>
<path d="M650 42.5C649.448 42.5 649 42.9477 649 43.5C649 44.0523 649.448 44.5 650 44.5V43.5V42.5ZM572.5 44.5C573.052 44.5 573.5 44.0523 573.5 43.5C573.5 42.9477 573.052 42.5 572.5 42.5V43.5V44.5ZM502.293 42.7929C501.902 43.1834 501.902 43.8166 502.293 44.2071L508.657 50.5711C509.047 50.9616 509.681 50.9616 510.071 50.5711C510.462 50.1805 510.462 49.5474 510.071 49.1569L504.414 43.5L510.071 37.8431C510.462 37.4526 510.462 36.8195 510.071 36.4289C509.681 36.0384 509.047 36.0384 508.657 36.4289L502.293 42.7929ZM719.5 43.5V42.5H650V43.5V44.5H719.5V43.5ZM572.5 43.5V42.5H503V43.5V44.5H572.5V43.5Z" fill="#1A1B1D"/>
<path d="M583.068 50.5L583.078 36.04H585.538V48.4H592.068V50.5H583.068ZM594.611 50.5V36.04H597.041V50.5H594.611ZM600.549 50.5V36.04H602.929L610.009 46.37V36.04H612.439V50.5H610.249L602.979 39.89V50.5H600.549ZM615.939 50.5V36.04H618.469V43.05L624.289 36.04H627.119L622.529 41.68L627.599 50.5H624.909L620.779 43.45L618.469 46.16V50.5H615.939ZM634.489 50.7C633.769 50.7 633.079 50.6133 632.419 50.44C631.759 50.26 631.155 49.9967 630.609 49.65C630.069 49.2967 629.622 48.86 629.269 48.34C628.915 47.8133 628.699 47.2 628.619 46.5H631.139C631.245 46.9867 631.455 47.3967 631.769 47.73C632.089 48.0633 632.492 48.3167 632.979 48.49C633.465 48.6633 634.009 48.75 634.609 48.75C635.142 48.75 635.639 48.67 636.099 48.51C636.559 48.35 636.932 48.1133 637.219 47.8C637.505 47.48 637.649 47.0867 637.649 46.62C637.649 46.0933 637.462 45.6833 637.089 45.39C636.722 45.09 636.195 44.8533 635.509 44.68L632.679 44.01C631.945 43.8433 631.305 43.6 630.759 43.28C630.219 42.96 629.799 42.54 629.499 42.02C629.199 41.4933 629.049 40.85 629.049 40.09C629.049 39.2233 629.285 38.4733 629.759 37.84C630.239 37.2067 630.889 36.72 631.709 36.38C632.529 36.0333 633.452 35.86 634.479 35.86C635.652 35.86 636.642 36.0567 637.449 36.45C638.255 36.8367 638.869 37.3567 639.289 38.01C639.709 38.6633 639.922 39.38 639.929 40.16H637.469C637.415 39.58 637.245 39.1233 636.959 38.79C636.672 38.45 636.309 38.2033 635.869 38.05C635.429 37.8967 634.942 37.82 634.409 37.82C633.462 37.82 632.759 38.0233 632.299 38.43C631.839 38.8367 631.609 39.3133 631.609 39.86C631.609 40.3733 631.779 40.78 632.119 41.08C632.459 41.38 632.979 41.6133 633.679 41.78L636.369 42.41C637.269 42.5967 637.992 42.8833 638.539 43.27C639.085 43.6567 639.482 44.1167 639.729 44.65C639.982 45.1767 640.109 45.76 640.109 46.4C640.109 47.24 639.869 47.9833 639.389 48.63C638.915 49.2767 638.259 49.7833 637.419 50.15C636.579 50.5167 635.602 50.7 634.489 50.7Z" fill="black" fill-opacity="0.8"/>
<path d="M1102 64C1102 28.6538 1130.65 0 1166 0C1201.35 0 1230 28.6538 1230 64C1230 99.3462 1201.35 128 1166 128C1130.65 128 1102 99.3462 1102 64Z" fill="#014063"/>
<path d="M1162.64 69V58.878H1165.9C1167.13 58.878 1168.06 59.1043 1168.69 59.557C1169.32 60.0097 1169.64 60.663 1169.64 61.517C1169.64 62.0537 1169.5 62.5133 1169.22 62.896C1168.95 63.2787 1168.46 63.5937 1167.76 63.841C1168.16 63.925 1168.5 64.0463 1168.77 64.205C1169.04 64.3637 1169.26 64.5503 1169.42 64.765C1169.59 64.975 1169.71 65.2083 1169.78 65.465C1169.86 65.7217 1169.89 65.9923 1169.89 66.277C1169.89 67.1917 1169.57 67.8753 1168.91 68.328C1168.26 68.776 1167.29 69 1166 69H1162.64ZM1163.94 67.922H1165.99C1166.83 67.922 1167.47 67.7843 1167.91 67.509C1168.36 67.229 1168.58 66.7997 1168.58 66.221C1168.58 65.7963 1168.47 65.4533 1168.25 65.192C1168.03 64.926 1167.74 64.7323 1167.37 64.611C1167 64.4897 1166.59 64.429 1166.14 64.429H1163.94V67.922ZM1163.94 63.33H1166.14C1166.41 63.33 1166.67 63.3043 1166.93 63.253C1167.19 63.2017 1167.43 63.113 1167.65 62.987C1167.87 62.861 1168.05 62.693 1168.18 62.483C1168.32 62.2683 1168.39 62 1168.39 61.678C1168.39 61.09 1168.16 60.656 1167.71 60.376C1167.26 60.0913 1166.68 59.949 1165.96 59.949H1163.94V63.33Z" fill="white"/>
<path d="M1090.21 84.7071C1090.6 84.3166 1090.6 83.6834 1090.21 83.2929L1083.84 76.9289C1083.45 76.5384 1082.82 76.5384 1082.43 76.9289C1082.04 77.3195 1082.04 77.9526 1082.43 78.3431L1088.09 84L1082.43 89.6569C1082.04 90.0474 1082.04 90.6805 1082.43 91.0711C1082.82 91.4616 1083.45 91.4616 1083.84 91.0711L1090.21 84.7071ZM1020 83C1019.45 83 1019 83.4477 1019 84C1019 84.5523 1019.45 85 1020 85V84V83ZM942.5 85C943.052 85 943.5 84.5523 943.5 84C943.5 83.4477 943.052 83 942.5 83V84V85ZM1089.5 84V83H1020V84V85H1089.5V84ZM942.5 84V83H873V84V85H942.5V84Z" fill="#1A1B1D"/>
<path d="M953.068 91L953.078 76.54H955.538V88.9H962.068V91H953.068ZM964.611 91V76.54H967.041V91H964.611ZM970.549 91V76.54H972.929L980.009 86.87V76.54H982.439V91H980.249L972.979 80.39V91H970.549ZM985.939 91V76.54H988.469V83.55L994.289 76.54H997.119L992.529 82.18L997.599 91H994.909L990.779 83.95L988.469 86.66V91H985.939ZM1004.49 91.2C1003.77 91.2 1003.08 91.1133 1002.42 90.94C1001.76 90.76 1001.16 90.4967 1000.61 90.15C1000.07 89.7967 999.622 89.36 999.269 88.84C998.915 88.3133 998.699 87.7 998.619 87H1001.14C1001.25 87.4867 1001.46 87.8967 1001.77 88.23C1002.09 88.5633 1002.49 88.8167 1002.98 88.99C1003.47 89.1633 1004.01 89.25 1004.61 89.25C1005.14 89.25 1005.64 89.17 1006.1 89.01C1006.56 88.85 1006.93 88.6133 1007.22 88.3C1007.51 87.98 1007.65 87.5867 1007.65 87.12C1007.65 86.5933 1007.46 86.1833 1007.09 85.89C1006.72 85.59 1006.2 85.3533 1005.51 85.18L1002.68 84.51C1001.95 84.3433 1001.31 84.1 1000.76 83.78C1000.22 83.46 999.799 83.04 999.499 82.52C999.199 81.9933 999.049 81.35 999.049 80.59C999.049 79.7233 999.285 78.9733 999.759 78.34C1000.24 77.7067 1000.89 77.22 1001.71 76.88C1002.53 76.5333 1003.45 76.36 1004.48 76.36C1005.65 76.36 1006.64 76.5567 1007.45 76.95C1008.26 77.3367 1008.87 77.8567 1009.29 78.51C1009.71 79.1633 1009.92 79.88 1009.93 80.66H1007.47C1007.42 80.08 1007.25 79.6233 1006.96 79.29C1006.67 78.95 1006.31 78.7033 1005.87 78.55C1005.43 78.3967 1004.94 78.32 1004.41 78.32C1003.46 78.32 1002.76 78.5233 1002.3 78.93C1001.84 79.3367 1001.61 79.8133 1001.61 80.36C1001.61 80.8733 1001.78 81.28 1002.12 81.58C1002.46 81.88 1002.98 82.1133 1003.68 82.28L1006.37 82.91C1007.27 83.0967 1007.99 83.3833 1008.54 83.77C1009.09 84.1567 1009.48 84.6167 1009.73 85.15C1009.98 85.6767 1010.11 86.26 1010.11 86.9C1010.11 87.74 1009.87 88.4833 1009.39 89.13C1008.92 89.7767 1008.26 90.2833 1007.42 90.65C1006.58 91.0167 1005.6 91.2 1004.49 91.2Z" fill="black" fill-opacity="0.8"/>
<path d="M1020 42.5C1019.45 42.5 1019 42.9477 1019 43.5C1019 44.0523 1019.45 44.5 1020 44.5V43.5V42.5ZM942.5 44.5C943.052 44.5 943.5 44.0523 943.5 43.5C943.5 42.9477 943.052 42.5 942.5 42.5V43.5V44.5ZM872.293 42.7929C871.902 43.1834 871.902 43.8166 872.293 44.2071L878.657 50.5711C879.047 50.9616 879.681 50.9616 880.071 50.5711C880.462 50.1805 880.462 49.5474 880.071 49.1569L874.414 43.5L880.071 37.8431C880.462 37.4526 880.462 36.8195 880.071 36.4289C879.681 36.0384 879.047 36.0384 878.657 36.4289L872.293 42.7929ZM1089.5 43.5V42.5H1020V43.5V44.5H1089.5V43.5ZM942.5 43.5V42.5H873V43.5V44.5H942.5V43.5Z" fill="#1A1B1D"/>
<path d="M953.068 50.5L953.078 36.04H955.538V48.4H962.068V50.5H953.068ZM964.611 50.5V36.04H967.041V50.5H964.611ZM970.549 50.5V36.04H972.929L980.009 46.37V36.04H982.439V50.5H980.249L972.979 39.89V50.5H970.549ZM985.939 50.5V36.04H988.469V43.05L994.289 36.04H997.119L992.529 41.68L997.599 50.5H994.909L990.779 43.45L988.469 46.16V50.5H985.939ZM1004.49 50.7C1003.77 50.7 1003.08 50.6133 1002.42 50.44C1001.76 50.26 1001.16 49.9967 1000.61 49.65C1000.07 49.2967 999.622 48.86 999.269 48.34C998.915 47.8133 998.699 47.2 998.619 46.5H1001.14C1001.25 46.9867 1001.46 47.3967 1001.77 47.73C1002.09 48.0633 1002.49 48.3167 1002.98 48.49C1003.47 48.6633 1004.01 48.75 1004.61 48.75C1005.14 48.75 1005.64 48.67 1006.1 48.51C1006.56 48.35 1006.93 48.1133 1007.22 47.8C1007.51 47.48 1007.65 47.0867 1007.65 46.62C1007.65 46.0933 1007.46 45.6833 1007.09 45.39C1006.72 45.09 1006.2 44.8533 1005.51 44.68L1002.68 44.01C1001.95 43.8433 1001.31 43.6 1000.76 43.28C1000.22 42.96 999.799 42.54 999.499 42.02C999.199 41.4933 999.049 40.85 999.049 40.09C999.049 39.2233 999.285 38.4733 999.759 37.84C1000.24 37.2067 1000.89 36.72 1001.71 36.38C1002.53 36.0333 1003.45 35.86 1004.48 35.86C1005.65 35.86 1006.64 36.0567 1007.45 36.45C1008.26 36.8367 1008.87 37.3567 1009.29 38.01C1009.71 38.6633 1009.92 39.38 1009.93 40.16H1007.47C1007.42 39.58 1007.25 39.1233 1006.96 38.79C1006.67 38.45 1006.31 38.2033 1005.87 38.05C1005.43 37.8967 1004.94 37.82 1004.41 37.82C1003.46 37.82 1002.76 38.0233 1002.3 38.43C1001.84 38.8367 1001.61 39.3133 1001.61 39.86C1001.61 40.3733 1001.78 40.78 1002.12 41.08C1002.46 41.38 1002.98 41.6133 1003.68 41.78L1006.37 42.41C1007.27 42.5967 1007.99 42.8833 1008.54 43.27C1009.09 43.6567 1009.48 44.1167 1009.73 44.65C1009.98 45.1767 1010.11 45.76 1010.11 46.4C1010.11 47.24 1009.87 47.9833 1009.39 48.63C1008.92 49.2767 1008.26 49.7833 1007.42 50.15C1006.58 50.5167 1005.6 50.7 1004.49 50.7Z" fill="black" fill-opacity="0.8"/>
<path d="M1471 64C1471 28.6538 1499.65 0 1535 0C1570.35 0 1599 28.6538 1599 64C1599 99.3462 1570.35 128 1535 128C1499.65 128 1471 99.3462 1471 64Z" fill="#014063"/>
<path d="M1530.61 69L1534.27 58.878H1535.74L1539.4 69H1538.07L1537.08 66.228H1532.93L1531.93 69H1530.61ZM1533.27 65.038H1536.72L1535 60.145L1533.27 65.038Z" fill="white"/>
<path d="M1459.21 84.7071C1459.6 84.3166 1459.6 83.6834 1459.21 83.2929L1452.84 76.9289C1452.45 76.5384 1451.82 76.5384 1451.43 76.9289C1451.04 77.3195 1451.04 77.9526 1451.43 78.3431L1457.09 84L1451.43 89.6569C1451.04 90.0474 1451.04 90.6805 1451.43 91.0711C1451.82 91.4616 1452.45 91.4616 1452.84 91.0711L1459.21 84.7071ZM1389 83C1388.45 83 1388 83.4477 1388 84C1388 84.5523 1388.45 85 1389 85V84V83ZM1311.5 85C1312.05 85 1312.5 84.5523 1312.5 84C1312.5 83.4477 1312.05 83 1311.5 83V84V85ZM1458.5 84V83H1389V84V85H1458.5V84ZM1311.5 84V83H1242V84V85H1311.5V84Z" fill="#1A1B1D"/>
<path d="M1322.07 91L1322.08 76.54H1324.54V88.9H1331.07V91H1322.07ZM1333.61 91V76.54H1336.04V91H1333.61ZM1339.55 91V76.54H1341.93L1349.01 86.87V76.54H1351.44V91H1349.25L1341.98 80.39V91H1339.55ZM1354.94 91V76.54H1357.47V83.55L1363.29 76.54H1366.12L1361.53 82.18L1366.6 91H1363.91L1359.78 83.95L1357.47 86.66V91H1354.94ZM1373.49 91.2C1372.77 91.2 1372.08 91.1133 1371.42 90.94C1370.76 90.76 1370.16 90.4967 1369.61 90.15C1369.07 89.7967 1368.62 89.36 1368.27 88.84C1367.92 88.3133 1367.7 87.7 1367.62 87H1370.14C1370.25 87.4867 1370.46 87.8967 1370.77 88.23C1371.09 88.5633 1371.49 88.8167 1371.98 88.99C1372.47 89.1633 1373.01 89.25 1373.61 89.25C1374.14 89.25 1374.64 89.17 1375.1 89.01C1375.56 88.85 1375.93 88.6133 1376.22 88.3C1376.51 87.98 1376.65 87.5867 1376.65 87.12C1376.65 86.5933 1376.46 86.1833 1376.09 85.89C1375.72 85.59 1375.2 85.3533 1374.51 85.18L1371.68 84.51C1370.95 84.3433 1370.31 84.1 1369.76 83.78C1369.22 83.46 1368.8 83.04 1368.5 82.52C1368.2 81.9933 1368.05 81.35 1368.05 80.59C1368.05 79.7233 1368.29 78.9733 1368.76 78.34C1369.24 77.7067 1369.89 77.22 1370.71 76.88C1371.53 76.5333 1372.45 76.36 1373.48 76.36C1374.65 76.36 1375.64 76.5567 1376.45 76.95C1377.26 77.3367 1377.87 77.8567 1378.29 78.51C1378.71 79.1633 1378.92 79.88 1378.93 80.66H1376.47C1376.42 80.08 1376.25 79.6233 1375.96 79.29C1375.67 78.95 1375.31 78.7033 1374.87 78.55C1374.43 78.3967 1373.94 78.32 1373.41 78.32C1372.46 78.32 1371.76 78.5233 1371.3 78.93C1370.84 79.3367 1370.61 79.8133 1370.61 80.36C1370.61 80.8733 1370.78 81.28 1371.12 81.58C1371.46 81.88 1371.98 82.1133 1372.68 82.28L1375.37 82.91C1376.27 83.0967 1376.99 83.3833 1377.54 83.77C1378.09 84.1567 1378.48 84.6167 1378.73 85.15C1378.98 85.6767 1379.11 86.26 1379.11 86.9C1379.11 87.74 1378.87 88.4833 1378.39 89.13C1377.92 89.7767 1377.26 90.2833 1376.42 90.65C1375.58 91.0167 1374.6 91.2 1373.49 91.2Z" fill="black" fill-opacity="0.8"/>
<path d="M1389 42.5C1388.45 42.5 1388 42.9477 1388 43.5C1388 44.0523 1388.45 44.5 1389 44.5V43.5V42.5ZM1311.5 44.5C1312.05 44.5 1312.5 44.0523 1312.5 43.5C1312.5 42.9477 1312.05 42.5 1311.5 42.5V43.5V44.5ZM1241.29 42.7929C1240.9 43.1834 1240.9 43.8166 1241.29 44.2071L1247.66 50.5711C1248.05 50.9616 1248.68 50.9616 1249.07 50.5711C1249.46 50.1805 1249.46 49.5474 1249.07 49.1569L1243.41 43.5L1249.07 37.8431C1249.46 37.4526 1249.46 36.8195 1249.07 36.4289C1248.68 36.0384 1248.05 36.0384 1247.66 36.4289L1241.29 42.7929ZM1458.5 43.5V42.5H1389V43.5V44.5H1458.5V43.5ZM1311.5 43.5V42.5H1242V43.5V44.5H1311.5V43.5Z" fill="#1A1B1D"/>
<path d="M1322.07 50.5L1322.08 36.04H1324.54V48.4H1331.07V50.5H1322.07ZM1333.61 50.5V36.04H1336.04V50.5H1333.61ZM1339.55 50.5V36.04H1341.93L1349.01 46.37V36.04H1351.44V50.5H1349.25L1341.98 39.89V50.5H1339.55ZM1354.94 50.5V36.04H1357.47V43.05L1363.29 36.04H1366.12L1361.53 41.68L1366.6 50.5H1363.91L1359.78 43.45L1357.47 46.16V50.5H1354.94ZM1373.49 50.7C1372.77 50.7 1372.08 50.6133 1371.42 50.44C1370.76 50.26 1370.16 49.9967 1369.61 49.65C1369.07 49.2967 1368.62 48.86 1368.27 48.34C1367.92 47.8133 1367.7 47.2 1367.62 46.5H1370.14C1370.25 46.9867 1370.46 47.3967 1370.77 47.73C1371.09 48.0633 1371.49 48.3167 1371.98 48.49C1372.47 48.6633 1373.01 48.75 1373.61 48.75C1374.14 48.75 1374.64 48.67 1375.1 48.51C1375.56 48.35 1375.93 48.1133 1376.22 47.8C1376.51 47.48 1376.65 47.0867 1376.65 46.62C1376.65 46.0933 1376.46 45.6833 1376.09 45.39C1375.72 45.09 1375.2 44.8533 1374.51 44.68L1371.68 44.01C1370.95 43.8433 1370.31 43.6 1369.76 43.28C1369.22 42.96 1368.8 42.54 1368.5 42.02C1368.2 41.4933 1368.05 40.85 1368.05 40.09C1368.05 39.2233 1368.29 38.4733 1368.76 37.84C1369.24 37.2067 1369.89 36.72 1370.71 36.38C1371.53 36.0333 1372.45 35.86 1373.48 35.86C1374.65 35.86 1375.64 36.0567 1376.45 36.45C1377.26 36.8367 1377.87 37.3567 1378.29 38.01C1378.71 38.6633 1378.92 39.38 1378.93 40.16H1376.47C1376.42 39.58 1376.25 39.1233 1375.96 38.79C1375.67 38.45 1375.31 38.2033 1374.87 38.05C1374.43 37.8967 1373.94 37.82 1373.41 37.82C1372.46 37.82 1371.76 38.0233 1371.3 38.43C1370.84 38.8367 1370.61 39.3133 1370.61 39.86C1370.61 40.3733 1370.78 40.78 1371.12 41.08C1371.46 41.38 1371.98 41.6133 1372.68 41.78L1375.37 42.41C1376.27 42.5967 1376.99 42.8833 1377.54 43.27C1378.09 43.6567 1378.48 44.1167 1378.73 44.65C1378.98 45.1767 1379.11 45.76 1379.11 46.4C1379.11 47.24 1378.87 47.9833 1378.39 48.63C1377.92 49.2767 1377.26 49.7833 1376.42 50.15C1375.58 50.5167 1374.6 50.7 1373.49 50.7Z" fill="black" fill-opacity="0.8"/>
</svg>
