<!--
  - Copyright (c) "Neo4j"
  - Neo4j Sweden AB [http://neo4j.com]
  - This file contains proprietary code that is only available via a commercial license from Neo4j.
  - For more information, see https://neo4j.com/contact-us/
  -->

<svg xmlns="http://www.w3.org/2000/svg" width="497.76531982421875" height="422.91180419921875" viewBox="-398.2073059082031 -219.1393280029297 497.76531982421875 422.91180419921875"><title>Neo4j Graph Visualization</title><desc>Created using Neo4j (http://www.neo4j.com/)</desc><g class="layer relationships"><g class="relationship" transform="translate(-150.6893902255111 -88.74569270244612) rotate(389.17071110378356)"><path class="b-outline" fill="#57C7E3" stroke="none" d="M 21.40063509461097,-12.933012701892217 L 21.90063509461097,-12.06698729810778 A 204.36433692385103 204.36433692385103 0 0 1 95.77303613243018,-37.47629975357222 L 95.63451016527645,-38.4666585554335 A 205.36433692385103 205.36433692385103 0 0 0 21.40063509461097,-12.933012701892217 Z M 146.9564013718393,-39.16880420013109 L 146.845020797403,-38.17502637403604 A 204.36433692385103 204.36433692385103 0 0 1 221.38490303712945,-14.796173745227964 L 219.95654081485705,-12.158033991161659 L 227.7786228336629,-11.903018518936731 L 223.28938600015934,-18.313693417316372 L 221.86102377788694,-15.675553663250067 A 205.36433692385103 205.36433692385103 0 0 0 146.9564013718393,-39.16880420013109"/><text text-anchor="middle" pointer-events="none" font-size="8px" fill="#000000" x="121.28027351843616" y="-36.92744671234527" font-family="Helvetica Neue, Helvetica, Arial, sans-serif">INTERACTS</text></g><g class="relationship" transform="translate(-150.6893902255111 -88.74569270244612) rotate(357.29964181901767)"><path class="b-outline" fill="#57C7E3" stroke="none" d="M 21.40063509461097,-12.933012701892217 L 21.90063509461097,-12.06698729810778 A 175.89067514184794 175.89067514184794 0 0 1 81.66757448642286,-33.36005125562775 L 81.50737043833226,-34.347135174540114 A 176.89067514184794 176.89067514184794 0 0 0 21.40063509461097,-12.933012701892217 Z M 132.80126084238367,-35.13607937265655 L 132.67148979504927,-34.1445353871099 A 175.89067514184794 175.89067514184794 0 0 1 193.06501403335943,-14.699642817589513 L 191.64562597369036,-12.056663904304578 L 199.4685295076358,-11.828233830575794 L 194.95753144625155,-18.223614701969428 L 193.53814338658248,-15.580635788684493 A 176.89067514184794 176.89067514184794 0 0 0 132.80126084238367,-35.13607937265655"/><text text-anchor="middle" pointer-events="none" font-size="8px" fill="#000000" x="107.13325306690552" y="-33.11100873047744" font-family="Helvetica Neue, Helvetica, Arial, sans-serif">INTERACTS</text></g><g class="relationship" transform="translate(-150.6893902255111 -88.74569270244612) rotate(539.8616640332203)"><path class="b-outline" fill="#57C7E3" stroke="none" d="M 21.40063509461097,-12.933012701892217 L 21.90063509461097,-12.06698729810778 A 172.89133901292277 172.89133901292277 0 0 1 80.18417749734488,-32.920962289781215 L 80.02128832507915,-33.90760666216602 A 173.89133901292277 173.89133901292277 0 0 0 21.40063509461097,-12.933012701892217 Z M 131.3111989285211,-34.70693924903057 L 131.17913430438395,-33.71569814059555 A 172.89133901292277 172.89133901292277 0 0 1 190.08421556576343,-14.688060621583894 L 188.6659043056734,-12.044503705324704 L 196.48890024704988,-11.819260500750328 L 191.9752972458835,-18.212803176596147 L 190.55698598579346,-15.569246260336957 A 173.89133901292277 173.89133901292277 0 0 0 131.3111989285211,-34.70693924903057"/><text text-anchor="middle" pointer-events="none" font-size="8px" fill="#000000" x="105.64439855854964" y="-32.70898185137645" transform="rotate(180 105.64439855854964 -35.70898185137645)" font-family="Helvetica Neue, Helvetica, Arial, sans-serif">INTERACTS</text></g><g class="relationship" transform="translate(-150.6893902255111 -88.74569270244612) rotate(389.17071110378356)"><path class="b-outline" fill="#57C7E3" stroke="none" d="M 25 0.5 L 107.04171664210773 0.5 L 107.04171664210773 -0.5 L 25 -0.5 Z M 135.72140414210773 0.5 L 217.76312078421546 0.5 L 217.76312078421546 3.5 L 224.76312078421546 0 L 217.76312078421546 -3.5 L 217.76312078421546 -0.5 L 135.72140414210773 -0.5 Z"/><text text-anchor="middle" pointer-events="none" font-size="8px" fill="#000000" x="121.38156039210773" y="3" font-family="Helvetica Neue, Helvetica, Arial, sans-serif">LIKES</text></g><g class="relationship" transform="translate(-150.6893902255111 -88.74569270244612) rotate(357.29964181901767)"><path class="b-outline" fill="#57C7E3" stroke="none" d="M 25 0.5 L 92.90683314250518 0.5 L 92.90683314250518 -0.5 L 25 -0.5 Z M 121.58652064250518 0.5 L 189.49335378501036 0.5 L 189.49335378501036 3.5 L 196.49335378501036 0 L 189.49335378501036 -3.5 L 189.49335378501036 -0.5 L 121.58652064250518 -0.5 Z"/><text text-anchor="middle" pointer-events="none" font-size="8px" fill="#000000" x="107.24667689250518" y="3" font-family="Helvetica Neue, Helvetica, Arial, sans-serif">LIKES</text></g><g class="relationship" transform="translate(-150.6893902255111 -88.74569270244612) rotate(539.8616640332203)"><path class="b-outline" fill="#57C7E3" stroke="none" d="M 25 0.5 L 91.41942685793822 0.5 L 91.41942685793822 -0.5 L 25 -0.5 Z M 120.09911435793822 0.5 L 186.51854121587644 0.5 L 186.51854121587644 3.5 L 193.51854121587644 0 L 186.51854121587644 -3.5 L 186.51854121587644 -0.5 L 120.09911435793822 -0.5 Z"/><text text-anchor="middle" pointer-events="none" font-size="8px" fill="#000000" x="105.75927060793822" y="3" transform="rotate(180 105.75927060793822 0)" font-family="Helvetica Neue, Helvetica, Arial, sans-serif">LIKES</text></g><g class="relationship" transform="translate(-148.62731488847407 -182.52114112518163) rotate(380.8181825671727)"><path class="b-outline" fill="#57C7E3" stroke="none" d="M 21.40063509461097,-12.933012701892217 L 21.90063509461097,-12.06698729810778 A 188.99200441662066 188.99200441662066 0 0 1 88.15303872052041,-35.264789208567436 L 88.00359536883163,-36.253559497682176 A 189.99200441662066 189.99200441662066 0 0 0 21.40063509461097,-12.933012701892217 Z M 139.312299418736,-37.00007893845941 L 139.19168559508495,-36.00737943430707 A 188.99200441662066 188.99200441662066 0 0 1 206.09093831769454,-14.746876504137159 L 204.66715902144904,-12.106260569249482 L 212.48967204847335,-11.86482746871231 L 207.9893107126885,-18.26769775065406 L 206.565531416443,-15.627081815766385 A 189.99200441662066 189.99200441662066 0 0 0 139.312299418736,-37.00007893845941"/><text text-anchor="middle" pointer-events="none" font-size="8px" fill="#000000" x="113.63990240980263" y="-34.867061189146" font-family="Helvetica Neue, Helvetica, Arial, sans-serif">INTERACTS</text></g><g class="relationship" transform="translate(-148.62731488847407 -182.52114112518163) rotate(516.8521717516217)"><path class="b-outline" fill="#57C7E3" stroke="none" d="M 21.40063509461097,-12.933012701892217 L 21.90063509461097,-12.06698729810778 A 194.42836213227704 194.42836213227704 0 0 1 90.84666178012168,-36.04950341107832 L 90.70127067529205,-37.038877671222764 A 195.42836213227704 195.42836213227704 0 0 0 21.40063509461097,-12.933012701892217 Z M 142.01508492194424,-37.76908568282826 L 141.8979050586361,-36.77597497417838 A 194.42836213227704 194.42836213227704 0 0 1 211.49843012751379,-14.765009866655912 L 210.07296504175773,-12.12530357820439 L 217.89532231486,-11.878875714633732 L 213.39905024185518,-18.284618251257942 L 211.97358515609912,-15.644911962806422 A 195.42836213227704 195.42836213227704 0 0 0 142.01508492194424,-37.76908568282826"/><text text-anchor="middle" pointer-events="none" font-size="8px" fill="#000000" x="116.34121914282169" y="-35.59571512774298" transform="rotate(180 116.34121914282169 -38.59571512774298)" font-family="Helvetica Neue, Helvetica, Arial, sans-serif">INTERACTS</text></g><g class="relationship" transform="translate(-148.62731488847407 -182.52114112518163) rotate(380.8181825671727)"><path class="b-outline" fill="#57C7E3" stroke="none" d="M 25 0.5 L 99.40755866960194 0.5 L 99.40755866960194 -0.5 L 25 -0.5 Z M 128.08724616960194 0.5 L 202.49480483920388 0.5 L 202.49480483920388 3.5 L 209.49480483920388 0 L 202.49480483920388 -3.5 L 202.49480483920388 -0.5 L 128.08724616960194 -0.5 Z"/><text text-anchor="middle" pointer-events="none" font-size="8px" fill="#000000" x="113.74740241960194" y="3" font-family="Helvetica Neue, Helvetica, Arial, sans-serif">LIKES</text></g><g class="relationship" transform="translate(-148.62731488847407 -182.52114112518163) rotate(516.8521717516217)"><path class="b-outline" fill="#57C7E3" stroke="none" d="M 25 0.5 L 102.10659360931139 0.5 L 102.10659360931139 -0.5 L 25 -0.5 Z M 130.7862811093114 0.5 L 207.89287471862278 0.5 L 207.89287471862278 3.5 L 214.89287471862278 0 L 207.89287471862278 -3.5 L 207.89287471862278 -0.5 L 130.7862811093114 -0.5 Z"/><text text-anchor="middle" pointer-events="none" font-size="8px" fill="#000000" x="116.44643735931139" y="3" transform="rotate(180 116.44643735931139 0)" font-family="Helvetica Neue, Helvetica, Arial, sans-serif">LIKES</text></g><g class="relationship" transform="translate(-150.77040274914742 90.33059151318133) rotate(345.27460723506454)"><path class="b-outline" fill="#57C7E3" stroke="none" d="M 21.40063509461097,-12.933012701892217 L 21.90063509461097,-12.06698729810778 A 180.00593896480495 180.00593896480495 0 0 1 83.70373688460172,-33.96058191361561 L 83.54707612188142,-34.94823438560357 A 181.00593896480495 181.00593896480495 0 0 0 21.40063509461097,-12.933012701892217 Z M 134.8460446424507,-35.72335004431474 L 134.71929498883907,-34.73141530588214 A 180.00593896480495 180.00593896480495 0 0 1 197.15564666372217,-14.715050361605128 L 195.73482617451523,-12.072841221993013 L 203.5576047376849,-11.84017074339099 L 199.0500739826647,-18.237995881087947 L 197.62925349345778,-15.595786741475832 A 181.00593896480495 181.00593896480495 0 0 0 134.8460446424507,-35.72335004431474"/><text text-anchor="middle" pointer-events="none" font-size="8px" fill="#000000" x="109.17651249071776" y="-33.66260859487892" font-family="Helvetica Neue, Helvetica, Arial, sans-serif">INTERACTS</text></g><g class="relationship" transform="translate(-150.77040274914742 90.33059151318133) rotate(345.27460723506454)"><path class="b-outline" fill="#57C7E3" stroke="none" d="M 25 0.5 L 94.94816336722623 0.5 L 94.94816336722623 -0.5 L 25 -0.5 Z M 123.62785086722623 0.5 L 193.57601423445246 0.5 L 193.57601423445246 3.5 L 200.57601423445246 0 L 193.57601423445246 -3.5 L 193.57601423445246 -0.5 L 123.62785086722623 -0.5 Z"/><text text-anchor="middle" pointer-events="none" font-size="8px" fill="#000000" x="109.28800711722623" y="3" font-family="Helvetica Neue, Helvetica, Arial, sans-serif">LIKES</text></g><g class="relationship" transform="translate(-150.07353188564315 6.122617139292743) rotate(367.0434963653554)"><path class="b-outline" fill="#57C7E3" stroke="none" d="M 21.40063509461097,-12.933012701892217 L 21.90063509461097,-12.06698729810778 A 173.50163560821915 173.50163560821915 0 0 1 80.4859708277493,-33.010406190745215 L 80.3236352856535,-33.99714180466236 A 174.50163560821915 174.50163560821915 0 0 0 21.40063509461097,-12.933012701892217 Z M 131.61437576286346,-34.794338850138274 L 131.4827843151151,-33.80303481459748 A 173.50163560821915 173.50163560821915 0 0 1 190.69069897374357,-14.690442116232724 L 189.2721663048019,-12.047004001363138 L 197.09514335326287,-11.821105574513798 L 192.58207586566576,-18.215026269392173 L 191.1635431967241,-15.571588154522587 A 174.50163560821915 174.50163560821915 0 0 0 131.61437576286346,-34.794338850138274"/><text text-anchor="middle" pointer-events="none" font-size="8px" fill="#000000" x="105.94732274508256" y="-32.790785386646036" font-family="Helvetica Neue, Helvetica, Arial, sans-serif">INTERACTS</text></g><g class="relationship" transform="translate(-150.07353188564315 6.122617139292743) rotate(334.4856981877748)"><path class="b-outline" fill="#57C7E3" stroke="none" d="M 21.40063509461097,-12.933012701892217 L 21.90063509461097,-12.06698729810778 A 199.03974922340538 199.03974922340538 0 0 1 93.13254311387792,-36.712828777026516 L 92.9904209161621,-37.702677897305165 A 200.03974922340538 200.03974922340538 0 0 0 21.40063509461097,-12.933012701892217 Z M 144.30817192323263,-38.419591417437886 L 144.19375635179858,-37.426158441835895 A 199.03974922340538 199.03974922340538 0 0 1 216.08634088292052,-14.779778781837692 L 214.65950280340175,-12.140814383662681 L 222.4817308252487,-11.890317329323072 L 217.98879165561223,-18.298397979404374 L 216.56195357609346,-15.659433581229361 A 200.03974922340538 200.03974922340538 0 0 0 144.30817192323263,-38.419591417437886"/><text text-anchor="middle" pointer-events="none" font-size="8px" fill="#000000" x="118.6331937400022" y="-36.213788755721566" font-family="Helvetica Neue, Helvetica, Arial, sans-serif">INTERACTS</text></g><g class="relationship" transform="translate(-150.07353188564315 6.122617139292743) rotate(203.29267870448007)"><path class="b-outline" fill="#57C7E3" stroke="none" d="M 21.40063509461097,-12.933012701892217 L 21.90063509461097,-12.06698729810778 A 193.10498429878166 193.10498429878166 0 0 1 90.19082739545031,-35.8587587882204 L 90.04447022113303,-36.84799060004505 A 194.10498429878166 194.10498429878166 0 0 0 21.40063509461097,-12.933012701892217 Z M 141.3570893320574,-37.58210420632895 L 141.23909152705102,-36.5890903504268 A 193.10498429878166 193.10498429878166 0 0 1 210.1819576655343,-14.760669341693282 L 208.75689609985864,-12.120745188609712 L 216.5792909503419,-11.875513047297309 L 212.08203975310187,-18.280568212471373 L 210.6569781874262,-15.640644059387805 A 194.10498429878166 194.10498429878166 0 0 0 141.3570893320574,-37.58210420632895"/><text text-anchor="middle" pointer-events="none" font-size="8px" fill="#000000" x="115.68356466007752" y="-35.418338977217275" transform="rotate(180 115.68356466007752 -38.418338977217275)" font-family="Helvetica Neue, Helvetica, Arial, sans-serif">INTERACTS</text></g><g class="relationship" transform="translate(-150.07353188564315 6.122617139292743) rotate(367.0434963653554)"><path class="b-outline" fill="#57C7E3" stroke="none" d="M 25 0.5 L 91.72205340525473 0.5 L 91.72205340525473 -0.5 L 25 -0.5 Z M 120.40174090525473 0.5 L 187.12379431050945 0.5 L 187.12379431050945 3.5 L 194.12379431050945 0 L 187.12379431050945 -3.5 L 187.12379431050945 -0.5 L 120.40174090525473 -0.5 Z"/><text text-anchor="middle" pointer-events="none" font-size="8px" fill="#000000" x="106.06189715525473" y="3" font-family="Helvetica Neue, Helvetica, Arial, sans-serif">LIKES</text></g><g class="relationship" transform="translate(-150.07353188564315 6.122617139292743) rotate(334.4856981877748)"><path class="b-outline" fill="#57C7E3" stroke="none" d="M 25 0.5 L 104.39670665502024 0.5 L 104.39670665502024 -0.5 L 25 -0.5 Z M 133.07639415502024 0.5 L 212.47310081004048 0.5 L 212.47310081004048 3.5 L 219.47310081004048 0 L 212.47310081004048 -3.5 L 212.47310081004048 -0.5 L 133.07639415502024 -0.5 Z"/><text text-anchor="middle" pointer-events="none" font-size="8px" fill="#000000" x="118.73655040502024" y="3" font-family="Helvetica Neue, Helvetica, Arial, sans-serif">LIKES</text></g><g class="relationship" transform="translate(-150.07353188564315 6.122617139292743) rotate(203.29267870448007)"><path class="b-outline" fill="#57C7E3" stroke="none" d="M 25 0.5 L 101.44948569635254 0.5 L 101.44948569635254 -0.5 L 25 -0.5 Z M 130.12917319635255 0.5 L 206.57865889270508 0.5 L 206.57865889270508 3.5 L 213.57865889270508 0 L 206.57865889270508 -3.5 L 206.57865889270508 -0.5 L 130.12917319635255 -0.5 Z"/><text text-anchor="middle" pointer-events="none" font-size="8px" fill="#000000" x="115.78932944635254" y="3" transform="rotate(180 115.78932944635254 0)" font-family="Helvetica Neue, Helvetica, Arial, sans-serif">LIKES</text></g><g class="relationship" transform="translate(-369.20729452409506 -88.2180980952037) rotate(383.29267870448007)"><path class="b-outline" fill="#57C7E3" stroke="none" d="M 21.40063509461097,-12.933012701892217 L 21.90063509461097,-12.06698729810778 A 193.10498429878166 193.10498429878166 0 0 1 90.19082739545031,-35.8587587882204 L 90.04447022113303,-36.84799060004505 A 194.10498429878166 194.10498429878166 0 0 0 21.40063509461097,-12.933012701892217 Z M 141.3570893320574,-37.58210420632895 L 141.23909152705102,-36.5890903504268 A 193.10498429878166 193.10498429878166 0 0 1 210.1819576655343,-14.760669341693282 L 208.75689609985864,-12.120745188609712 L 216.5792909503419,-11.875513047297309 L 212.08203975310187,-18.280568212471373 L 210.6569781874262,-15.640644059387805 A 194.10498429878166 194.10498429878166 0 0 0 141.3570893320574,-37.58210420632895"/><text text-anchor="middle" pointer-events="none" font-size="8px" fill="#000000" x="115.68356466007752" y="-35.418338977217275" font-family="Helvetica Neue, Helvetica, Arial, sans-serif">INTERACTS</text></g><g class="relationship" transform="translate(-369.20729452409506 -88.2180980952037) rotate(336.85217175162165)"><path class="b-outline" fill="#57C7E3" stroke="none" d="M 21.40063509461097,-12.933012701892217 L 21.90063509461097,-12.06698729810778 A 194.42836213227704 194.42836213227704 0 0 1 90.84666178012168,-36.04950341107832 L 90.70127067529205,-37.038877671222764 A 195.42836213227704 195.42836213227704 0 0 0 21.40063509461097,-12.933012701892217 Z M 142.01508492194424,-37.76908568282826 L 141.8979050586361,-36.77597497417838 A 194.42836213227704 194.42836213227704 0 0 1 211.49843012751379,-14.765009866655912 L 210.07296504175773,-12.12530357820439 L 217.89532231486,-11.878875714633732 L 213.39905024185518,-18.284618251257942 L 211.97358515609912,-15.644911962806422 A 195.42836213227704 195.42836213227704 0 0 0 142.01508492194424,-37.76908568282826"/><text text-anchor="middle" pointer-events="none" font-size="8px" fill="#000000" x="116.34121914282169" y="-35.59571512774298" font-family="Helvetica Neue, Helvetica, Arial, sans-serif">INTERACTS</text></g><g class="relationship" transform="translate(-369.20729452409506 -88.2180980952037) rotate(359.86166403322034)"><path class="b-outline" fill="#57C7E3" stroke="none" d="M 21.40063509461097,-12.933012701892217 L 21.90063509461097,-12.06698729810778 A 172.89133901292277 172.89133901292277 0 0 1 80.18417749734488,-32.920962289781215 L 80.02128832507915,-33.90760666216602 A 173.89133901292277 173.89133901292277 0 0 0 21.40063509461097,-12.933012701892217 Z M 131.3111989285211,-34.70693924903057 L 131.17913430438395,-33.71569814059555 A 172.89133901292277 172.89133901292277 0 0 1 190.08421556576343,-14.688060621583894 L 188.6659043056734,-12.044503705324704 L 196.48890024704988,-11.819260500750328 L 191.9752972458835,-18.212803176596147 L 190.55698598579346,-15.569246260336957 A 173.89133901292277 173.89133901292277 0 0 0 131.3111989285211,-34.70693924903057"/><text text-anchor="middle" pointer-events="none" font-size="8px" fill="#000000" x="105.64439855854964" y="-32.70898185137645" font-family="Helvetica Neue, Helvetica, Arial, sans-serif">INTERACTS</text></g><g class="relationship" transform="translate(70.55801301134798 -99.18084156954168) rotate(514.4856981877748)"><path class="b-outline" fill="#57C7E3" stroke="none" d="M 21.40063509461097,-12.933012701892217 L 21.90063509461097,-12.06698729810778 A 199.03974922340538 199.03974922340538 0 0 1 93.13254311387792,-36.712828777026516 L 92.9904209161621,-37.702677897305165 A 200.03974922340538 200.03974922340538 0 0 0 21.40063509461097,-12.933012701892217 Z M 144.30817192323263,-38.419591417437886 L 144.19375635179858,-37.426158441835895 A 199.03974922340538 199.03974922340538 0 0 1 216.08634088292052,-14.779778781837692 L 214.65950280340175,-12.140814383662681 L 222.4817308252487,-11.890317329323072 L 217.98879165561223,-18.298397979404374 L 216.56195357609346,-15.659433581229361 A 200.03974922340538 200.03974922340538 0 0 0 144.30817192323263,-38.419591417437886"/><text text-anchor="middle" pointer-events="none" font-size="8px" fill="#000000" x="118.6331937400022" y="-36.213788755721566" transform="rotate(180 118.6331937400022 -39.213788755721566)" font-family="Helvetica Neue, Helvetica, Arial, sans-serif">INTERACTS</text></g><g class="relationship" transform="translate(70.55801301134798 -99.18084156954168) rotate(200.8181825671727)"><path class="b-outline" fill="#57C7E3" stroke="none" d="M 21.40063509461097,-12.933012701892217 L 21.90063509461097,-12.06698729810778 A 188.99200441662066 188.99200441662066 0 0 1 88.15303872052041,-35.264789208567436 L 88.00359536883163,-36.253559497682176 A 189.99200441662066 189.99200441662066 0 0 0 21.40063509461097,-12.933012701892217 Z M 139.312299418736,-37.00007893845941 L 139.19168559508495,-36.00737943430707 A 188.99200441662066 188.99200441662066 0 0 1 206.09093831769454,-14.746876504137159 L 204.66715902144904,-12.106260569249482 L 212.48967204847335,-11.86482746871231 L 207.9893107126885,-18.26769775065406 L 206.565531416443,-15.627081815766385 A 189.99200441662066 189.99200441662066 0 0 0 139.312299418736,-37.00007893845941"/><text text-anchor="middle" pointer-events="none" font-size="8px" fill="#000000" x="113.63990240980263" y="-34.867061189146" transform="rotate(180 113.63990240980263 -37.867061189146)" font-family="Helvetica Neue, Helvetica, Arial, sans-serif">INTERACTS</text></g><g class="relationship" transform="translate(70.55801301134798 -99.18084156954168) rotate(537.2996418190177)"><path class="b-outline" fill="#57C7E3" stroke="none" d="M 21.40063509461097,-12.933012701892217 L 21.90063509461097,-12.06698729810778 A 175.89067514184794 175.89067514184794 0 0 1 81.66757448642286,-33.36005125562775 L 81.50737043833226,-34.347135174540114 A 176.89067514184794 176.89067514184794 0 0 0 21.40063509461097,-12.933012701892217 Z M 132.80126084238367,-35.13607937265655 L 132.67148979504927,-34.1445353871099 A 175.89067514184794 175.89067514184794 0 0 1 193.06501403335943,-14.699642817589513 L 191.64562597369036,-12.056663904304578 L 199.4685295076358,-11.828233830575794 L 194.95753144625155,-18.223614701969428 L 193.53814338658248,-15.580635788684493 A 176.89067514184794 176.89067514184794 0 0 0 132.80126084238367,-35.13607937265655"/><text text-anchor="middle" pointer-events="none" font-size="8px" fill="#000000" x="107.13325306690552" y="-33.11100873047744" transform="rotate(180 107.13325306690552 -36.11100873047744)" font-family="Helvetica Neue, Helvetica, Arial, sans-serif">INTERACTS</text></g><g class="relationship" transform="translate(67.3966113921334 32.9921913037225) rotate(187.0434963653554)"><path class="b-outline" fill="#57C7E3" stroke="none" d="M 21.40063509461097,-12.933012701892217 L 21.90063509461097,-12.06698729810778 A 173.50163560821915 173.50163560821915 0 0 1 80.4859708277493,-33.010406190745215 L 80.3236352856535,-33.99714180466236 A 174.50163560821915 174.50163560821915 0 0 0 21.40063509461097,-12.933012701892217 Z M 131.61437576286346,-34.794338850138274 L 131.4827843151151,-33.80303481459748 A 173.50163560821915 173.50163560821915 0 0 1 190.69069897374357,-14.690442116232724 L 189.2721663048019,-12.047004001363138 L 197.09514335326287,-11.821105574513798 L 192.58207586566576,-18.215026269392173 L 191.1635431967241,-15.571588154522587 A 174.50163560821915 174.50163560821915 0 0 0 131.61437576286346,-34.794338850138274"/><text text-anchor="middle" pointer-events="none" font-size="8px" fill="#000000" x="105.94732274508256" y="-32.790785386646036" transform="rotate(180 105.94732274508256 -35.790785386646036)" font-family="Helvetica Neue, Helvetica, Arial, sans-serif">INTERACTS</text></g><g class="relationship" transform="translate(67.3966113921334 32.9921913037225) rotate(525.2746072350645)"><path class="b-outline" fill="#57C7E3" stroke="none" d="M 21.40063509461097,-12.933012701892217 L 21.90063509461097,-12.06698729810778 A 180.00593896480495 180.00593896480495 0 0 1 83.70373688460172,-33.96058191361561 L 83.54707612188142,-34.94823438560357 A 181.00593896480495 181.00593896480495 0 0 0 21.40063509461097,-12.933012701892217 Z M 134.8460446424507,-35.72335004431474 L 134.71929498883907,-34.73141530588214 A 180.00593896480495 180.00593896480495 0 0 1 197.15564666372217,-14.715050361605128 L 195.73482617451523,-12.072841221993013 L 203.5576047376849,-11.84017074339099 L 199.0500739826647,-18.237995881087947 L 197.62925349345778,-15.595786741475832 A 181.00593896480495 181.00593896480495 0 0 0 134.8460446424507,-35.72335004431474"/><text text-anchor="middle" pointer-events="none" font-size="8px" fill="#000000" x="109.17651249071776" y="-33.66260859487892" transform="rotate(180 109.17651249071776 -36.66260859487892)" font-family="Helvetica Neue, Helvetica, Arial, sans-serif">INTERACTS</text></g><g class="relationship" transform="translate(67.3966113921334 32.9921913037225) rotate(209.17071110378356)"><path class="b-outline" fill="#57C7E3" stroke="none" d="M 21.40063509461097,-12.933012701892217 L 21.90063509461097,-12.06698729810778 A 204.36433692385103 204.36433692385103 0 0 1 95.77303613243018,-37.47629975357222 L 95.63451016527645,-38.4666585554335 A 205.36433692385103 205.36433692385103 0 0 0 21.40063509461097,-12.933012701892217 Z M 146.9564013718393,-39.16880420013109 L 146.845020797403,-38.17502637403604 A 204.36433692385103 204.36433692385103 0 0 1 221.38490303712945,-14.796173745227964 L 219.95654081485705,-12.158033991161659 L 227.7786228336629,-11.903018518936731 L 223.28938600015934,-18.313693417316372 L 221.86102377788694,-15.675553663250067 A 205.36433692385103 205.36433692385103 0 0 0 146.9564013718393,-39.16880420013109"/><text text-anchor="middle" pointer-events="none" font-size="8px" fill="#000000" x="121.28027351843616" y="-36.92744671234527" transform="rotate(180 121.28027351843616 -39.92744671234527)" font-family="Helvetica Neue, Helvetica, Arial, sans-serif">INTERACTS</text></g></g><g class="layer nodes"><g class="node" aria-label="graph-node0" transform="translate(-150.6893902255111,-88.74569270244612)"><circle class="b-outline" cx="0" cy="0" r="25" fill="#ECB5C9" stroke="#da7298" stroke-width="2px"/><text class="caption" text-anchor="middle" pointer-events="none" x="0" y="5" font-size="10px" fill="#2A2C34" font-family="Helvetica Neue, Helvetica, Arial, sans-serif"> Alice</text></g><g class="node" aria-label="graph-node1" transform="translate(-148.62731488847407,-182.52114112518163)"><circle class="b-outline" cx="0" cy="0" r="25" fill="#ECB5C9" stroke="#da7298" stroke-width="2px"/><text class="caption" text-anchor="middle" pointer-events="none" x="0" y="5" font-size="10px" fill="#2A2C34" font-family="Helvetica Neue, Helvetica, Arial, sans-serif"> Bob</text></g><g class="node" aria-label="graph-node2" transform="translate(-150.77040274914742,90.33059151318133)"><circle class="b-outline" cx="0" cy="0" r="25" fill="#ECB5C9" stroke="#da7298" stroke-width="2px"/><text class="caption" text-anchor="middle" pointer-events="none" x="0" y="5" font-size="10px" fill="#2A2C34" font-family="Helvetica Neue, Helvetica, Arial, sans-serif"> Carol</text></g><g class="node" aria-label="graph-node3" transform="translate(-150.07353188564315,6.122617139292743)"><circle class="b-outline" cx="0" cy="0" r="25" fill="#ECB5C9" stroke="#da7298" stroke-width="2px"/><text class="caption" text-anchor="middle" pointer-events="none" x="0" y="5" font-size="10px" fill="#2A2C34" font-family="Helvetica Neue, Helvetica, Arial, sans-serif"> Dave</text></g><g class="node" aria-label="graph-node4" transform="translate(-150.8355796779513,174.7724928169646)"><circle class="b-outline" cx="0" cy="0" r="25" fill="#ECB5C9" stroke="#da7298" stroke-width="2px"/><text class="caption" text-anchor="middle" pointer-events="none" x="0" y="5" font-size="10px" fill="#2A2C34" font-family="Helvetica Neue, Helvetica, Arial, sans-serif"> Eve</text></g><g class="node" aria-label="graph-node5" transform="translate(-369.20729452409506,-88.2180980952037)"><circle class="b-outline" cx="0" cy="0" r="25" fill="#F79767" stroke="#f36924" stroke-width="2px"/><text class="caption" text-anchor="middle" pointer-events="none" x="0" y="5" font-size="10px" fill="#FFFFFF" font-family="Helvetica Neue, Helvetica, Arial, sans-serif"> Guitar</text></g><g class="node" aria-label="graph-node6" transform="translate(70.55801301134798,-99.18084156954168)"><circle class="b-outline" cx="0" cy="0" r="25" fill="#F79767" stroke="#f36924" stroke-width="2px"/><text class="caption" text-anchor="middle" pointer-events="none" x="0" y="5" font-size="10px" fill="#FFFFFF" font-family="Helvetica Neue, Helvetica, Arial, sans-serif"> Synthesi…</text></g><g class="node" aria-label="graph-node7" transform="translate(67.3966113921334,32.9921913037225)"><circle class="b-outline" cx="0" cy="0" r="25" fill="#F79767" stroke="#f36924" stroke-width="2px"/><text class="caption" text-anchor="middle" pointer-events="none" x="0" y="5" font-size="10px" fill="#FFFFFF" font-family="Helvetica Neue, Helvetica, Arial, sans-serif"> Bongos</text></g><g class="node" aria-label="graph-node8" transform="translate(-368.0827664744386,38.914288379476545)"><circle class="b-outline" cx="0" cy="0" r="25" fill="#F79767" stroke="#f36924" stroke-width="2px"/><text class="caption" text-anchor="middle" pointer-events="none" x="0" y="5" font-size="10px" fill="#FFFFFF" font-family="Helvetica Neue, Helvetica, Arial, sans-serif"> Trumpet</text></g></g></svg>