<!--
  - Copyright (c) "Neo4j"
  - Neo4j Sweden AB [http://neo4j.com]
  - This file contains proprietary code that is only available via a commercial license from Neo4j.
  - For more information, see https://neo4j.com/contact-us/
  -->

<svg xmlns="http://www.w3.org/2000/svg" width="520.310791015625" height="398.7138671875" viewBox="-197.85787963867188 -188.41720581054688 520.310791015625 398.7138671875"><title>Neo4j Graph Visualization</title><desc>Created using Neo4j (http://www.neo4j.com/)</desc><g class="layer relationships"><g class="relationship" transform="translate(293.4529204047425 -152.24498740089382) rotate(539.0336124737698)"><path class="b-outline" fill="#57C7E3" stroke="none" d="M 25 0.5 L 34.566326001869825 0.5 L 34.566326001869825 -0.5 L 25 -0.5 Z M 82.79288850186983 0.5 L 92.35921450373965 0.5 L 92.35921450373965 3.5 L 99.35921450373965 0 L 92.35921450373965 -3.5 L 92.35921450373965 -0.5 L 82.79288850186983 -0.5 Z"/><text text-anchor="middle" pointer-events="none" font-size="8px" fill="#000000" x="58.679607251869825" y="3" transform="rotate(180 58.679607251869825 0)" font-family="Helvetica Neue, Helvetica, Arial, sans-serif">REQUIRED</text></g><g class="relationship" transform="translate(169.11139456551678 -150.14756422940522) rotate(500.7362889693913)"><path class="b-outline" fill="#57C7E3" stroke="none" d="M 25 0.5 L 45.17076325418074 0.5 L 45.17076325418074 -0.5 L 25 -0.5 Z M 93.39732575418074 0.5 L 113.56808900836148 0.5 L 113.56808900836148 3.5 L 120.56808900836148 0 L 113.56808900836148 -3.5 L 113.56808900836148 -0.5 L 93.39732575418074 -0.5 Z"/><text text-anchor="middle" pointer-events="none" font-size="8px" fill="#000000" x="69.28404450418074" y="3" transform="rotate(180 69.28404450418074 0)" font-family="Helvetica Neue, Helvetica, Arial, sans-serif">REQUIRED</text></g><g class="relationship" transform="translate(56.406580632010524 -58.01888544934245) rotate(449.58096829240174)"><path class="b-outline" fill="#57C7E3" stroke="none" d="M 25 0.5 L 36.16416168041757 0.5 L 36.16416168041757 -0.5 L 25 -0.5 Z M 84.39072418041758 0.5 L 95.55488586083514 0.5 L 95.55488586083514 3.5 L 102.55488586083514 0 L 95.55488586083514 -3.5 L 95.55488586083514 -0.5 L 84.39072418041758 -0.5 Z"/><text text-anchor="middle" pointer-events="none" font-size="8px" fill="#000000" x="60.27744293041757" y="3" font-family="Helvetica Neue, Helvetica, Arial, sans-serif">REQUIRED</text></g><g class="relationship" transform="translate(-168.8578860652325 -159.4172001760562) rotate(361.65244730649795)"><path class="b-outline" fill="#57C7E3" stroke="none" d="M 25 0.5 L 39.85534755897241 0.5 L 39.85534755897241 -0.5 L 25 -0.5 Z M 88.08191005897241 0.5 L 102.93725761794482 0.5 L 102.93725761794482 3.5 L 109.93725761794482 0 L 102.93725761794482 -3.5 L 102.93725761794482 -0.5 L 88.08191005897241 -0.5 Z"/><text text-anchor="middle" pointer-events="none" font-size="8px" fill="#000000" x="63.96862880897241" y="3" font-family="Helvetica Neue, Helvetica, Arial, sans-serif">REQUIRED</text></g><g class="relationship" transform="translate(-33.976743807454994 -155.52606195070365) rotate(407.17132445821255)"><path class="b-outline" fill="#57C7E3" stroke="none" d="M 25 0.5 L 38.86377269720289 0.5 L 38.86377269720289 -0.5 L 25 -0.5 Z M 87.09033519720289 0.5 L 100.95410789440578 0.5 L 100.95410789440578 3.5 L 107.95410789440578 0 L 100.95410789440578 -3.5 L 100.95410789440578 -0.5 L 87.09033519720289 -0.5 Z"/><text text-anchor="middle" pointer-events="none" font-size="8px" fill="#000000" x="62.97705394720289" y="3" font-family="Helvetica Neue, Helvetica, Arial, sans-serif">REQUIRED</text></g><g class="relationship" transform="translate(57.339442801162065 69.53258916049516) rotate(450.51655846581883)"><path class="b-outline" fill="#57C7E3" stroke="none" d="M 25 0.5 L 28.271032667598405 0.5 L 28.271032667598405 -0.5 L 25 -0.5 Z M 76.4975951675984 0.5 L 79.76862783519681 0.5 L 79.76862783519681 3.5 L 86.76862783519681 0 L 79.76862783519681 -3.5 L 79.76862783519681 -0.5 L 76.4975951675984 -0.5 Z"/><text text-anchor="middle" pointer-events="none" font-size="8px" fill="#000000" x="52.384313917598405" y="3" transform="rotate(180 52.384313917598405 0)" font-family="Helvetica Neue, Helvetica, Arial, sans-serif">REQUIRED</text></g></g><g class="layer nodes"><g class="node" aria-label="graph-node14" transform="translate(293.4529204047425,-152.24498740089382)"><circle class="b-outline" cx="0" cy="0" r="25" fill="#DA7194" stroke="#cc3c6c" stroke-width="2px"/><text class="caption" text-anchor="middle" pointer-events="none" x="0" y="5" font-size="10px" fill="#FFFFFF" font-family="Helvetica Neue, Helvetica, Arial, sans-serif"> Cement</text></g><g class="node" aria-label="graph-node15" transform="translate(169.11139456551678,-150.14756422940522)"><circle class="b-outline" cx="0" cy="0" r="25" fill="#DA7194" stroke="#cc3c6c" stroke-width="2px"/><text class="caption" text-anchor="middle" pointer-events="none" x="0" y="5" font-size="10px" fill="#FFFFFF" font-family="Helvetica Neue, Helvetica, Arial, sans-serif"> Base</text></g><g class="node" aria-label="graph-node16" transform="translate(56.406580632010524,-58.01888544934245)"><circle class="b-outline" cx="0" cy="0" r="25" fill="#DA7194" stroke="#cc3c6c" stroke-width="2px"/><text class="caption" text-anchor="middle" pointer-events="none" x="0" y="5" font-size="10px" fill="#FFFFFF" font-family="Helvetica Neue, Helvetica, Arial, sans-serif"> Skeleton</text></g><g class="node" aria-label="graph-node17" transform="translate(-168.8578860652325,-159.4172001760562)"><circle class="b-outline" cx="0" cy="0" r="25" fill="#DA7194" stroke="#cc3c6c" stroke-width="2px"/><text class="caption" text-anchor="middle" pointer-events="none" x="0" y="5" font-size="10px" fill="#FFFFFF" font-family="Helvetica Neue, Helvetica, Arial, sans-serif"> Steel</text></g><g class="node" aria-label="graph-node18" transform="translate(-33.976743807454994,-155.52606195070365)"><circle class="b-outline" cx="0" cy="0" r="25" fill="#DA7194" stroke="#cc3c6c" stroke-width="2px"/><text class="caption" text-anchor="middle" pointer-events="none" x="0" y="5" font-size="10px" fill="#FFFFFF" font-family="Helvetica Neue, Helvetica, Arial, sans-serif"> Support</text></g><g class="node" aria-label="graph-node19" transform="translate(57.339442801162065,69.53258916049516)"><circle class="b-outline" cx="0" cy="0" r="25" fill="#DA7194" stroke="#cc3c6c" stroke-width="2px"/><text class="caption" text-anchor="middle" pointer-events="none" x="0" y="5" font-size="10px" fill="#FFFFFF" font-family="Helvetica Neue, Helvetica, Arial, sans-serif"> Door</text></g><g class="node" aria-label="graph-node20" transform="translate(56.33179006862556,181.2966746447568)"><circle class="b-outline" cx="0" cy="0" r="25" fill="#DA7194" stroke="#cc3c6c" stroke-width="2px"/><text class="caption" text-anchor="middle" pointer-events="none" x="0" y="5" font-size="10px" fill="#FFFFFF" font-family="Helvetica Neue, Helvetica, Arial, sans-serif"> House</text></g></g></svg>