<svg xmlns="http://www.w3.org/2000/svg" width="563.59814453125" height="264.4195556640625" viewBox="-297.1270446777344 -135.1914520263672 563.59814453125 264.4195556640625"><title>Neo4j Graph Visualization</title><desc>Created using Neo4j (http://www.neo4j.com/)</desc><g class="layer relationships"><g class="relationship" transform="translate(-268.12705932240436 -35.78210876612821) rotate(408.08795384931665)"><path class="b-outline" fill="#A5ABB6" stroke="none" d="M 24.018736134675446,6.953439040707552 L 24.277555179777966,5.987513214418485 A 255.06082341200963 255.06082341200963 0 0 0 75.99225737631166,14.277325152900943 L 75.93619272329778,15.275752293298524 A 256.06082341200965 256.06082341200965 0 0 1 24.018736134675446,6.953439040707552 Z M 99.75819539265413,15.5034701657938 L 99.72122745149007,14.504153713749616 A 255.06082341200963 255.06082341200963 0 0 0 151.5849519001194,7.204462516979087 L 150.86403211547523,4.292371401627676 L 158.49998446671336,6.007664872034622 L 152.54617827964492,11.087250670780968 L 151.82525849500075,8.175159555429557 A 256.06082341200965 256.06082341200965 0 0 1 99.75819539265413,15.5034701657938"/><text text-anchor="middle" pointer-events="none" font-size="8px" fill="#000000" x="87.84932370662939" y="18.16682460611983" font-family="Helvetica Neue, Helvetica, Arial, sans-serif">LINK</text></g><g class="relationship" transform="translate(-255.55062979545502 73.16303430512465) rotate(373.88227613665487)"><path class="b-outline" fill="#A5ABB6" stroke="none" d="M 24.018736134675446,6.953439040707552 L 24.277555179777966,5.987513214418485 A 117.28844486463623 117.28844486463623 0 0 0 41.04545026653814,9.194199946341044 L 40.9295941118219,10.187465948686025 A 118.28844486463623 118.28844486463623 0 0 1 24.018736134675446,6.953439040707552 Z M 64.77241692955563,10.5487443114352 L 64.68670797920166,9.552424093920166 A 117.28844486463623 117.28844486463623 0 0 0 81.54406140668624,6.855243926011704 L 80.85575772195735,3.9352716594330244 L 88.4720473094913,5.735864039407407 L 82.46179965299142,10.748540281449944 L 81.77349596826252,7.828568014871264 A 118.28844486463623 118.28844486463623 0 0 1 64.77241692955563,10.5487443114352"/><text text-anchor="middle" pointer-events="none" font-size="8px" fill="#000000" x="52.84945397675211" y="13.47050037702266" font-family="Helvetica Neue, Helvetica, Arial, sans-serif">LINK</text></g><g class="relationship" transform="translate(-173.30293280957497 -94.82459942216819) rotate(442.04332053156327)"><path class="b-outline" fill="#A5ABB6" stroke="none" d="M 24.018736134675446,6.953439040707552 L 24.277555179777966,5.987513214418485 A 282.76073008701275 282.76073008701275 0 0 0 83.08132051020611,15.25645717751678 L 83.03046444961115,16.25516317084049 A 283.76073008701275 283.76073008701275 0 0 1 24.018736134675446,6.953439040707552 Z M 106.84966384780608,16.467003482082248 L 106.81657876759948,15.467550943205254 A 282.76073008701275 282.76073008701275 0 0 0 165.7758993522644,7.245954053196841 L 165.0511047671268,4.334824923571155 L 172.68933308558059,6.0399548761467114 L 166.74229213244786,11.127459559364423 L 166.01749754731026,8.216330429738736 A 283.76073008701275 283.76073008701275 0 0 1 106.84966384780608,16.467003482082248"/><text text-anchor="middle" pointer-events="none" font-size="8px" fill="#000000" x="94.94228697987954" y="19.111149503297327" font-family="Helvetica Neue, Helvetica, Arial, sans-serif">LINK</text></g><g class="relationship" transform="translate(-103.3993723448313 -6.6407593817537816) rotate(471.75217491628166)"><path class="b-outline" fill="#A5ABB6" stroke="none" d="M 24.018736134675446,6.953439040707552 L 24.277555179777966,5.987513214418485 A 121.78197070735087 121.78197070735087 0 0 0 42.17070688795483,9.372397677484855 L 42.05881559910594,10.366118130871882 A 122.78197070735087 122.78197070735087 0 0 1 24.018736134675446,6.953439040707552 Z M 65.90095951421449,10.720694091913998 L 65.81866802706008,9.724085788144691 A 121.78197070735087 121.78197070735087 0 0 0 83.8045630877035,6.872787882337018 L 83.11462070026958,3.9532023805881855 L 90.73191965635644,5.749519895282675 L 84.72448627094873,10.76556855133546 L 84.03454388351481,7.8459830495866285 A 122.78197070735087 122.78197070735087 0 0 1 65.90095951421449,10.720694091913998"/><text text-anchor="middle" pointer-events="none" font-size="8px" fill="#000000" x="53.978694736474985" y="13.623612875657585" transform="rotate(180 53.978694736474985 10.623612875657585)" font-family="Helvetica Neue, Helvetica, Arial, sans-serif">LINK</text></g><g class="relationship" transform="translate(-268.12705932240436 -35.78210876612821) rotate(443.4150264050701)"><path class="b-outline" fill="#A5ABB6" stroke="none" d="M 24.018736134675446,6.953439040707552 L 24.277555179777966,5.987513214418485 A 111.033749573241 111.033749573241 0 0 0 39.48205031754066,8.943078194156598 L 39.360167070753526,9.935622638578423 A 112.033749573241 112.033749573241 0 0 1 24.018736134675446,6.953439040707552 Z M 63.203817413945416,10.306646348777974 L 63.11287505742982,9.310790190594787 A 111.033749573241 111.033749573241 0 0 0 78.40196790110588,6.829726555546991 L 77.7160477071053,3.909193472792709 L 85.33086512653263,5.716001616671383 L 79.3165281597733,10.723770665886033 L 78.63060796577273,7.80323758313175 A 112.033749573241 112.033749573241 0 0 1 63.203817413945416,10.306646348777974"/><text text-anchor="middle" pointer-events="none" font-size="8px" fill="#000000" x="51.27987192181417" y="13.257395816255098" font-family="Helvetica Neue, Helvetica, Arial, sans-serif">LINK</text></g><g class="relationship" transform="translate(-173.30293280957497 -94.82459942216819) rotate(476.08663185110424)"><path class="b-outline" fill="#A5ABB6" stroke="none" d="M 24.018736134675446,6.953439040707552 L 24.277555179777966,5.987513214418485 A 263.4141344665228 263.4141344665228 0 0 0 78.12876465449061,14.573311378248206 L 78.07438114426846,15.571831500136511 A 264.4141344665228 264.4141344665228 0 0 1 24.018736134675446,6.953439040707552 Z M 101.89549467532298,15.794519000823925 L 101.85978801854587,14.795156686814721 A 263.4141344665228 263.4141344665228 0 0 0 155.8620977035022,7.217608225111483 L 155.13995026175985,4.305821304269751 L 162.7766250924233,6.017895347852949 L 156.82496095915866,11.099990786233793 L 156.1028135174163,8.18820386539206 A 264.4141344665228 264.4141344665228 0 0 1 101.89549467532298,15.794519000823925"/><text text-anchor="middle" pointer-events="none" font-size="8px" fill="#000000" x="89.98710274045871" y="18.45160106315751" transform="rotate(180 89.98710274045871 15.451601063157511)" font-family="Helvetica Neue, Helvetica, Arial, sans-serif">LINK</text></g><g class="relationship" transform="translate(-146.04043439197437 100.22811999496312) rotate(193.88227613665487)"><path class="b-outline" fill="#A5ABB6" stroke="none" d="M 24.018736134675446,6.953439040707552 L 24.277555179777966,5.987513214418485 A 117.28844486463623 117.28844486463623 0 0 0 41.04545026653814,9.194199946341044 L 40.9295941118219,10.187465948686025 A 118.28844486463623 118.28844486463623 0 0 1 24.018736134675446,6.953439040707552 Z M 64.77241692955563,10.5487443114352 L 64.68670797920166,9.552424093920166 A 117.28844486463623 117.28844486463623 0 0 0 81.54406140668624,6.855243926011704 L 80.85575772195735,3.9352716594330244 L 88.4720473094913,5.735864039407407 L 82.46179965299142,10.748540281449944 L 81.77349596826252,7.828568014871264 A 118.28844486463623 118.28844486463623 0 0 1 64.77241692955563,10.5487443114352"/><text text-anchor="middle" pointer-events="none" font-size="8px" fill="#000000" x="52.84945397675211" y="13.47050037702266" transform="rotate(180 52.84945397675211 10.47050037702266)" font-family="Helvetica Neue, Helvetica, Arial, sans-serif">LINK</text></g><g class="relationship" transform="translate(-103.3993723448313 -6.6407593817537816) rotate(512.3228541372378)"><path class="b-outline" fill="#A5ABB6" stroke="none" d="M 24.018736134675446,6.953439040707552 L 24.277555179777966,5.987513214418485 A 233.62361463852835 233.62361463852835 0 0 0 70.51523135973733,13.514355509772457 L 70.45432756498953,14.512499150630504 A 234.62361463852835 234.62361463852835 0 0 1 24.018736134675446,6.953439040707552 Z M 94.27880467955069,14.754215334226444 L 94.23816508468161,13.75504146380706 A 233.62361463852835 233.62361463852835 0 0 0 140.6190378238252,7.167879903827502 L 139.90153447713197,4.254945138426116 L 147.5354695008773,5.979194555776877 L 141.5757089527495,11.051792924362683 L 140.85820560605626,8.138858158961296 A 234.62361463852835 234.62361463852835 0 0 1 94.27880467955069,14.754215334226444"/><text text-anchor="middle" pointer-events="none" font-size="8px" fill="#000000" x="82.36856849207038" y="17.435995970329117" transform="rotate(180 82.36856849207038 14.435995970329117)" font-family="Helvetica Neue, Helvetica, Arial, sans-serif">LINK</text></g><g class="relationship" transform="translate(-255.55062979545502 73.16303430512465) rotate(332.32285413723775)"><path class="b-outline" fill="#A5ABB6" stroke="none" d="M 24.018736134675446,6.953439040707552 L 24.277555179777966,5.987513214418485 A 233.62361463852835 233.62361463852835 0 0 0 70.51523135973733,13.514355509772457 L 70.45432756498953,14.512499150630504 A 234.62361463852835 234.62361463852835 0 0 1 24.018736134675446,6.953439040707552 Z M 94.27880467955069,14.754215334226444 L 94.23816508468161,13.75504146380706 A 233.62361463852835 233.62361463852835 0 0 0 140.6190378238252,7.167879903827502 L 139.90153447713197,4.254945138426116 L 147.5354695008773,5.979194555776877 L 141.5757089527495,11.051792924362683 L 140.85820560605626,8.138858158961296 A 234.62361463852835 234.62361463852835 0 0 1 94.27880467955069,14.754215334226444"/><text text-anchor="middle" pointer-events="none" font-size="8px" fill="#000000" x="82.36856849207038" y="17.435995970329117" font-family="Helvetica Neue, Helvetica, Arial, sans-serif">LINK</text></g><g class="relationship" transform="translate(-146.04043439197437 100.22811999496312) rotate(291.75217491628166)"><path class="b-outline" fill="#A5ABB6" stroke="none" d="M 24.018736134675446,6.953439040707552 L 24.277555179777966,5.987513214418485 A 121.78197070735087 121.78197070735087 0 0 0 42.17070688795483,9.372397677484855 L 42.05881559910594,10.366118130871882 A 122.78197070735087 122.78197070735087 0 0 1 24.018736134675446,6.953439040707552 Z M 65.90095951421449,10.720694091913998 L 65.81866802706008,9.724085788144691 A 121.78197070735087 121.78197070735087 0 0 0 83.8045630877035,6.872787882337018 L 83.11462070026958,3.9532023805881855 L 90.73191965635644,5.749519895282675 L 84.72448627094873,10.76556855133546 L 84.03454388351481,7.8459830495866285 A 122.78197070735087 122.78197070735087 0 0 1 65.90095951421449,10.720694091913998"/><text text-anchor="middle" pointer-events="none" font-size="8px" fill="#000000" x="53.978694736474985" y="13.623612875657585" font-family="Helvetica Neue, Helvetica, Arial, sans-serif">LINK</text></g><g class="relationship" transform="translate(-268.12705932240436 -35.78210876612821) rotate(370.0321830076413)"><path class="b-outline" fill="#A5ABB6" stroke="none" d="M 24.018736134675446,6.953439040707552 L 24.277555179777966,5.987513214418485 A 224.7617000312728 224.7617000312728 0 0 0 68.25387739879008,13.19730501411837 L 68.1907158977126,14.195308333141725 A 225.7617000312728 225.7617000312728 0 0 1 24.018736134675446,6.953439040707552 Z M 92.0163036352045,14.443319633602584 L 91.97393090379616,13.444217761102578 A 224.7617000312728 224.7617000312728 0 0 0 136.0908075925622,7.151427844571063 L 135.37484071972386,4.238115050345539 L 143.0078652578948,5.966390606985925 L 137.04543008967994,11.035844903538429 L 136.32946321684162,8.122532109312903 A 225.7617000312728 225.7617000312728 0 0 1 92.0163036352045,14.443319633602584"/><text text-anchor="middle" pointer-events="none" font-size="8px" fill="#000000" x="80.10544004176725" y="17.133879111495133" font-family="Helvetica Neue, Helvetica, Arial, sans-serif">LINK</text></g><g class="relationship" transform="translate(-173.30293280957497 -94.82459942216819) rotate(411.59604560129316)"><path class="b-outline" fill="#A5ABB6" stroke="none" d="M 24.018736134675446,6.953439040707552 L 24.277555179777966,5.987513214418485 A 116.73927270735886 116.73927270735886 0 0 0 40.90804317045123,9.17230061291012 L 40.79168250807619,10.165507638787219 A 117.73927270735886 117.73927270735886 0 0 1 24.018736134675446,6.953439040707552 Z M 64.63458409277386,10.527621893493375 L 64.54843881947899,9.531339307130978 A 116.73927270735886 116.73927270735886 0 0 0 81.26797224821645,6.853055620355159 L 80.57987296441813,3.933035179393104 L 88.1960364910943,5.7341606983194024 L 82.18543795994755,10.746416208304563 L 81.49733867614923,7.826395767342509 A 117.73927270735886 117.73927270735886 0 0 1 64.63458409277386,10.527621893493375"/><text text-anchor="middle" pointer-events="none" font-size="8px" fill="#000000" x="52.71153521290054" y="13.451788581758876" font-family="Helvetica Neue, Helvetica, Arial, sans-serif">LINK</text></g><g class="relationship" transform="translate(65.61464300977944 -15.129386240782136) rotate(537.1247700285553)"><path class="b-outline" fill="#A5ABB6" stroke="none" d="M 24.018736134675446,6.953439040707552 L 24.277555179777966,5.987513214418485 A 228.56540496486963 228.56540496486963 0 0 0 69.22427782410745,13.333520009843994 L 69.16210587286955,14.331585462847585 A 229.56540496486963 229.56540496486963 0 0 1 24.018736134675446,6.953439040707552 Z M 92.98721029661361,14.576855625881336 L 92.9455987338356,13.577721762055688 A 228.56540496486963 228.56540496486963 0 0 0 138.03402809584537,7.158591760897506 L 137.31739217623215,4.2454434710364986 L 144.9508134254566,5.971965996776834 L 138.98954265532967,11.042789480712184 L 138.27290673571645,8.129641190851176 A 229.56540496486963 229.56540496486963 0 0 1 92.98721029661361,14.576855625881336"/><text text-anchor="middle" pointer-events="none" font-size="8px" fill="#000000" x="81.07662092835159" y="17.263553431017385" transform="rotate(180 81.07662092835159 14.263553431017385)" font-family="Helvetica Neue, Helvetica, Arial, sans-serif">LINK</text></g><g class="relationship" transform="translate(139.27481278568868 -106.19145110543691) rotate(488.96942049377924)"><path class="b-outline" fill="#A5ABB6" stroke="none" d="M 24.018736134675446,6.953439040707552 L 24.277555179777966,5.987513214418485 A 125.884542587111 125.884542587111 0 0 0 43.19945913596624,9.533656544528384 L 43.09095166659268,10.527752178303203 A 126.884542587111 126.884542587111 0 0 1 24.018736134675446,6.953439040707552 Z M 66.93243273510545,10.876415096375041 L 66.85304118555679,9.879571587161948 A 125.884542587111 125.884542587111 0 0 0 85.8705502462831,6.888262347031514 L 85.17916247067438,3.969018790262257 L 92.79734984134616,5.761564796739367 L 86.7924006137614,10.780587089390522 L 86.10101283815268,7.861343532621266 A 126.884542587111 126.884542587111 0 0 1 66.93243273510545,10.876415096375041"/><text text-anchor="middle" pointer-events="none" font-size="8px" fill="#000000" x="55.010795316316084" y="13.763412372072324" transform="rotate(180 55.010795316316084 10.763412372072324)" font-family="Helvetica Neue, Helvetica, Arial, sans-serif">LINK</text></g><g class="relationship" transform="translate(237.47110700204462 -57.582598524839035) rotate(526.124180642468)"><path class="b-outline" fill="#A5ABB6" stroke="none" d="M 24.018736134675446,6.953439040707552 L 24.277555179777966,5.987513214418485 A 243.82538595031795 243.82538595031795 0 0 0 73.12057386513858,13.878097292398394 L 73.06207448115335,14.876384737012074 A 244.82538595031795 244.82538595031795 0 0 1 24.018736134675446,6.953439040707552 Z M 96.88533800366743,15.111233446784269 L 96.84653022552958,14.111986752340897 A 243.82538595031795 243.82538595031795 0 0 0 145.83561173275754,7.185827321001898 L 145.11643227453482,4.273305920759406 L 152.75135824302714,5.993162151855977 L 146.7945176770545,11.069189187991885 L 146.07533821883177,8.156667787749395 A 244.82538595031795 244.82538595031795 0 0 1 96.88533800366743,15.111233446784269"/><text text-anchor="middle" pointer-events="none" font-size="8px" fill="#000000" x="84.97577659225902" y="17.783790948406846" transform="rotate(180 84.97577659225902 14.783790948406846)" font-family="Helvetica Neue, Helvetica, Arial, sans-serif">LINK</text></g><g class="relationship" transform="translate(231.23415702476834 52.248714073128156) rotate(202.13770340064468)"><path class="b-outline" fill="#A5ABB6" stroke="none" d="M 24.018736134675446,6.953439040707552 L 24.277555179777966,5.987513214418485 A 247.30384327310182 247.30384327310182 0 0 0 74.0093843562398,14.001842448409036 L 73.9516613738521,15.000175087014185 A 248.30384327310182 248.30384327310182 0 0 1 24.018736134675446,6.953439040707552 Z M 97.77452629961323,15.232769443940867 L 97.73630688895646,14.233500072525402 A 247.30384327310182 247.30384327310182 0 0 0 147.6151362842443,7.191718730895382 L 146.89540662998877,4.2793332439130705 L 154.53065736291228,5.9977471187961715 L 148.57477582325168,11.074899380205132 L 147.85504616899615,8.162513893222819 A 248.30384327310182 248.30384327310182 0 0 1 97.77452629961323,15.232769443940867"/><text text-anchor="middle" pointer-events="none" font-size="8px" fill="#000000" x="85.86518415296226" y="17.902377126421243" transform="rotate(180 85.86518415296226 14.902377126421243)" font-family="Helvetica Neue, Helvetica, Arial, sans-serif">LINK</text></g><g class="relationship" transform="translate(128.1006002717911 86.1815142405022) rotate(238.33478223330553)"><path class="b-outline" fill="#A5ABB6" stroke="none" d="M 24.018736134675446,6.953439040707552 L 24.277555179777966,5.987513214418485 A 129.6733864275294 129.6733864275294 0 0 0 44.15065315915339,9.681477793266652 L 44.045089138284254,10.675890301986215 A 130.6733864275294 130.6733864275294 0 0 1 24.018736134675446,6.953439040707552 Z M 67.88593173174823,11.019259219506438 L 67.80904970721174,10.022219022571932 A 129.6733864275294 129.6733864275294 0 0 0 87.78028765514166,6.902114467463944 L 87.08760603596346,3.983177644842963 L 94.70658717778699,5.772346826484981 L 88.70386314737925,10.794030230958587 L 88.01118152820105,7.875093408337605 A 130.6733864275294 130.6733864275294 0 0 1 67.88593173174823,11.019259219506438"/><text text-anchor="middle" pointer-events="none" font-size="8px" fill="#000000" x="55.96486299875665" y="13.89252765300489" transform="rotate(180 55.96486299875665 10.89252765300489)" font-family="Helvetica Neue, Helvetica, Arial, sans-serif">LINK</text></g><g class="relationship" transform="translate(-103.3993723448313 -6.6407593817537816) rotate(357.1247700285553)"><path class="b-outline" fill="#A5ABB6" stroke="none" d="M 24.018736134675446,6.953439040707552 L 24.277555179777966,5.987513214418485 A 228.56540496486963 228.56540496486963 0 0 0 69.22427782410745,13.333520009843994 L 69.16210587286955,14.331585462847585 A 229.56540496486963 229.56540496486963 0 0 1 24.018736134675446,6.953439040707552 Z M 92.98721029661361,14.576855625881336 L 92.9455987338356,13.577721762055688 A 228.56540496486963 228.56540496486963 0 0 0 138.03402809584537,7.158591760897506 L 137.31739217623215,4.2454434710364986 L 144.9508134254566,5.971965996776834 L 138.98954265532967,11.042789480712184 L 138.27290673571645,8.129641190851176 A 229.56540496486963 229.56540496486963 0 0 1 92.98721029661361,14.576855625881336"/><text text-anchor="middle" pointer-events="none" font-size="8px" fill="#000000" x="81.07662092835159" y="17.263553431017385" font-family="Helvetica Neue, Helvetica, Arial, sans-serif">LINK</text></g><g class="relationship" transform="translate(139.27481278568868 -106.19145110543691) rotate(453.3243580619055)"><path class="b-outline" fill="#A5ABB6" stroke="none" d="M 24.018736134675446,6.953439040707552 L 24.277555179777966,5.987513214418485 A 274.4610805675996 274.4610805675996 0 0 0 80.95598376183924,14.963767647047916 L 80.90367278871854,15.962398490799103 A 275.4610805675996 275.4610805675996 0 0 1 24.018736134675446,6.953439040707552 Z M 104.72366958080335,16.17876147897374 L 104.68950736960704,15.179345177662697 A 274.4610805675996 274.4610805675996 0 0 0 161.52163784181352,7.234135541584803 L 160.7979469519999,4.322731843022751 L 168.4355282867606,6.030757415113395 L 162.48655902823168,11.116007139667538 L 161.76286813841807,8.204603441105487 A 275.4610805675996 275.4610805675996 0 0 1 104.72366958080335,16.17876147897374"/><text text-anchor="middle" pointer-events="none" font-size="8px" fill="#000000" x="92.81587273227028" y="18.828205560995684" transform="rotate(180 92.81587273227028 15.828205560995684)" font-family="Helvetica Neue, Helvetica, Arial, sans-serif">LINK</text></g><g class="relationship" transform="translate(237.47110700204462 -57.582598524839035) rotate(487.26255714428146)"><path class="b-outline" fill="#A5ABB6" stroke="none" d="M 24.018736134675446,6.953439040707552 L 24.277555179777966,5.987513214418485 A 250.89708179386412 250.89708179386412 0 0 0 74.92776566491091,14.129531835503172 L 74.87082306302165,15.127909289219986 A 251.89708179386412 251.89708179386412 0 0 1 24.018736134675446,6.953439040707552 Z M 98.69328406811796,15.358219340309574 L 98.6556544707763,14.358927584412498 A 250.89708179386412 250.89708179386412 0 0 0 149.45381331832314,7.197688368065547 L 148.7335261641767,4.285440711087926 L 156.36910571029532,6.002392951220164 L 150.41419619051837,11.08068524403571 L 149.69390903637193,8.168437587058088 A 251.89708179386412 251.89708179386412 0 0 1 98.69328406811796,15.358219340309574"/><text text-anchor="middle" pointer-events="none" font-size="8px" fill="#000000" x="86.78416295712658" y="18.024876277082825" transform="rotate(180 86.78416295712658 15.024876277082825)" font-family="Helvetica Neue, Helvetica, Arial, sans-serif">LINK</text></g><g class="relationship" transform="translate(231.23415702476834 52.248714073128156) rotate(521.787862056681)"><path class="b-outline" fill="#A5ABB6" stroke="none" d="M 24.018736134675446,6.953439040707552 L 24.277555179777966,5.987513214418485 A 108.84500348343572 108.84500348343572 0 0 0 38.93581115648835,8.854258672054783 L 38.811663024221446,9.846522367477846 A 109.84500348343572 109.84500348343572 0 0 1 24.018736134675446,6.953439040707552 Z M 62.6555598989091,10.22107651463402 L 62.56263946985283,9.225402976839632 A 108.84500348343572 108.84500348343572 0 0 0 77.30370596337654,6.820479603600049 L 76.61864950357449,3.8997437978683034 L 84.23293225338429,5.70880383168386 L 78.21711457644597,10.714794011242375 L 77.53205811664391,7.79405820551063 A 109.84500348343572 109.84500348343572 0 0 1 62.6555598989091,10.22107651463402"/><text text-anchor="middle" pointer-events="none" font-size="8px" fill="#000000" x="50.73127042770448" y="13.182828280759495" transform="rotate(180 50.73127042770448 10.182828280759495)" font-family="Helvetica Neue, Helvetica, Arial, sans-serif">LINK</text></g><g class="relationship" transform="translate(65.61464300977944 -15.129386240782136) rotate(418.33478223330553)"><path class="b-outline" fill="#A5ABB6" stroke="none" d="M 24.018736134675446,6.953439040707552 L 24.277555179777966,5.987513214418485 A 129.6733864275294 129.6733864275294 0 0 0 44.15065315915339,9.681477793266652 L 44.045089138284254,10.675890301986215 A 130.6733864275294 130.6733864275294 0 0 1 24.018736134675446,6.953439040707552 Z M 67.88593173174823,11.019259219506438 L 67.80904970721174,10.022219022571932 A 129.6733864275294 129.6733864275294 0 0 0 87.78028765514166,6.902114467463944 L 87.08760603596346,3.983177644842963 L 94.70658717778699,5.772346826484981 L 88.70386314737925,10.794030230958587 L 88.01118152820105,7.875093408337605 A 130.6733864275294 130.6733864275294 0 0 1 67.88593173174823,11.019259219506438"/><text text-anchor="middle" pointer-events="none" font-size="8px" fill="#000000" x="55.96486299875665" y="13.89252765300489" font-family="Helvetica Neue, Helvetica, Arial, sans-serif">LINK</text></g><g class="relationship" transform="translate(139.27481278568868 -106.19145110543691) rotate(419.8689386588865)"><path class="b-outline" fill="#A5ABB6" stroke="none" d="M 24.018736134675446,6.953439040707552 L 24.277555179777966,5.987513214418485 A 255.89349975923778 255.89349975923778 0 0 0 76.20517474071102,14.30686011715494 L 76.14928238038084,15.305296917386556 A 256.8934997592378 256.8934997592378 0 0 1 24.018736134675446,6.953439040707552 Z M 99.97119461905883,15.53250329970939 L 99.93435628647151,14.533182061442034 A 255.89349975923778 255.89349975923778 0 0 0 152.01120974734934,7.205799188457621 L 151.29016513265833,4.2937389789796105 L 158.92619100524652,6.008705122424967 L 152.97260256693733,11.088546134428302 L 152.25155795224632,8.17648592495029 A 256.8934997592378 256.8934997592378 0 0 1 99.97119461905883,15.53250329970939"/><text text-anchor="middle" pointer-events="none" font-size="8px" fill="#000000" x="88.06237197298995" y="18.19521179273312" font-family="Helvetica Neue, Helvetica, Arial, sans-serif">LINK</text></g><g class="relationship" transform="translate(237.47110700204462 -57.582598524839035) rotate(453.2501435589413)"><path class="b-outline" fill="#A5ABB6" stroke="none" d="M 24.018736134675446,6.953439040707552 L 24.277555179777966,5.987513214418485 A 111.71153752480353 111.71153752480353 0 0 0 39.651296296758815,8.970479057277387 L 39.530097245594405,9.963107280731094 A 112.71153752480353 112.71153752480353 0 0 1 24.018736134675446,6.953439040707552 Z M 63.37366616048464,10.333050630035686 L 63.28332015212359,9.33714019291132 A 111.71153752480353 111.71153752480353 0 0 0 78.74220299737243,6.832555930307938 L 78.05601851952966,3.9120849302177754 L 85.6709994105566,5.71820398202315 L 79.65711563449614,10.726517263761489 L 78.97093115665336,7.806046263671325 A 112.71153752480353 112.71153752480353 0 0 1 63.37366616048464,10.333050630035686"/><text text-anchor="middle" pointer-events="none" font-size="8px" fill="#000000" x="51.44982732347263" y="13.280487717083176" transform="rotate(180 51.44982732347263 10.280487717083176)" font-family="Helvetica Neue, Helvetica, Arial, sans-serif">LINK</text></g><g class="relationship" transform="translate(128.1006002717911 86.1815142405022) rotate(341.787862056681)"><path class="b-outline" fill="#A5ABB6" stroke="none" d="M 24.018736134675446,6.953439040707552 L 24.277555179777966,5.987513214418485 A 108.84500348343572 108.84500348343572 0 0 0 38.93581115648835,8.854258672054783 L 38.811663024221446,9.846522367477846 A 109.84500348343572 109.84500348343572 0 0 1 24.018736134675446,6.953439040707552 Z M 62.6555598989091,10.22107651463402 L 62.56263946985283,9.225402976839632 A 108.84500348343572 108.84500348343572 0 0 0 77.30370596337654,6.820479603600049 L 76.61864950357449,3.8997437978683034 L 84.23293225338429,5.70880383168386 L 78.21711457644597,10.714794011242375 L 77.53205811664391,7.79405820551063 A 109.84500348343572 109.84500348343572 0 0 1 62.6555598989091,10.22107651463402"/><text text-anchor="middle" pointer-events="none" font-size="8px" fill="#000000" x="50.73127042770448" y="13.182828280759495" font-family="Helvetica Neue, Helvetica, Arial, sans-serif">LINK</text></g><g class="relationship" transform="translate(65.61464300977944 -15.129386240782136) rotate(382.1377034006447)"><path class="b-outline" fill="#A5ABB6" stroke="none" d="M 24.018736134675446,6.953439040707552 L 24.277555179777966,5.987513214418485 A 247.30384327310182 247.30384327310182 0 0 0 74.0093843562398,14.001842448409036 L 73.9516613738521,15.000175087014185 A 248.30384327310182 248.30384327310182 0 0 1 24.018736134675446,6.953439040707552 Z M 97.77452629961323,15.232769443940867 L 97.73630688895646,14.233500072525402 A 247.30384327310182 247.30384327310182 0 0 0 147.6151362842443,7.191718730895382 L 146.89540662998877,4.2793332439130705 L 154.53065736291228,5.9977471187961715 L 148.57477582325168,11.074899380205132 L 147.85504616899615,8.162513893222819 A 248.30384327310182 248.30384327310182 0 0 1 97.77452629961323,15.232769443940867"/><text text-anchor="middle" pointer-events="none" font-size="8px" fill="#000000" x="85.86518415296226" y="17.902377126421243" font-family="Helvetica Neue, Helvetica, Arial, sans-serif">LINK</text></g><g class="relationship" transform="translate(139.27481278568868 -106.19145110543691) rotate(386.3362005860835)"><path class="b-outline" fill="#A5ABB6" stroke="none" d="M 24.018736134675446,6.953439040707552 L 24.277555179777966,5.987513214418485 A 110.83456592230918 110.83456592230918 0 0 0 39.4323216846341,8.935016641574336 L 39.3102358542895,9.927536187995997 A 111.83456592230918 111.83456592230918 0 0 1 24.018736134675446,6.953439040707552 Z M 63.1539096894985,10.298878538765862 L 63.06279065211219,9.303038531020746 A 110.83456592230918 110.83456592230918 0 0 0 78.30199415444898,6.828892034919437 L 77.61615191071968,3.908340645760815 L 85.23092110310732,5.7153520310775034 L 79.21645047942138,10.7229605537976 L 78.53060823569209,7.802409164638978 A 111.83456592230918 111.83456592230918 0 0 1 63.1539096894985,10.298878538765862"/><text text-anchor="middle" pointer-events="none" font-size="8px" fill="#000000" x="51.22993286102071" y="13.250609781374507" font-family="Helvetica Neue, Helvetica, Arial, sans-serif">LINK</text></g><g class="relationship" transform="translate(231.23415702476834 52.248714073128156) rotate(273.2501435589413)"><path class="b-outline" fill="#A5ABB6" stroke="none" d="M 24.018736134675446,6.953439040707552 L 24.277555179777966,5.987513214418485 A 111.71153752480353 111.71153752480353 0 0 0 39.651296296758815,8.970479057277387 L 39.530097245594405,9.963107280731094 A 112.71153752480353 112.71153752480353 0 0 1 24.018736134675446,6.953439040707552 Z M 63.37366616048464,10.333050630035686 L 63.28332015212359,9.33714019291132 A 111.71153752480353 111.71153752480353 0 0 0 78.74220299737243,6.832555930307938 L 78.05601851952966,3.9120849302177754 L 85.6709994105566,5.71820398202315 L 79.65711563449614,10.726517263761489 L 78.97093115665336,7.806046263671325 A 112.71153752480353 112.71153752480353 0 0 1 63.37366616048464,10.333050630035686"/><text text-anchor="middle" pointer-events="none" font-size="8px" fill="#000000" x="51.44982732347263" y="13.280487717083176" font-family="Helvetica Neue, Helvetica, Arial, sans-serif">LINK</text></g><g class="relationship" transform="translate(128.1006002717911 86.1815142405022) rotate(307.26255714428146)"><path class="b-outline" fill="#A5ABB6" stroke="none" d="M 24.018736134675446,6.953439040707552 L 24.277555179777966,5.987513214418485 A 250.89708179386412 250.89708179386412 0 0 0 74.92776566491091,14.129531835503172 L 74.87082306302165,15.127909289219986 A 251.89708179386412 251.89708179386412 0 0 1 24.018736134675446,6.953439040707552 Z M 98.69328406811796,15.358219340309574 L 98.6556544707763,14.358927584412498 A 250.89708179386412 250.89708179386412 0 0 0 149.45381331832314,7.197688368065547 L 148.7335261641767,4.285440711087926 L 156.36910571029532,6.002392951220164 L 150.41419619051837,11.08068524403571 L 149.69390903637193,8.168437587058088 A 251.89708179386412 251.89708179386412 0 0 1 98.69328406811796,15.358219340309574"/><text text-anchor="middle" pointer-events="none" font-size="8px" fill="#000000" x="86.78416295712658" y="18.024876277082825" font-family="Helvetica Neue, Helvetica, Arial, sans-serif">LINK</text></g><g class="relationship" transform="translate(65.61464300977944 -15.129386240782136) rotate(346.124180642468)"><path class="b-outline" fill="#A5ABB6" stroke="none" d="M 24.018736134675446,6.953439040707552 L 24.277555179777966,5.987513214418485 A 243.82538595031795 243.82538595031795 0 0 0 73.12057386513858,13.878097292398394 L 73.06207448115335,14.876384737012074 A 244.82538595031795 244.82538595031795 0 0 1 24.018736134675446,6.953439040707552 Z M 96.88533800366743,15.111233446784269 L 96.84653022552958,14.111986752340897 A 243.82538595031795 243.82538595031795 0 0 0 145.83561173275754,7.185827321001898 L 145.11643227453482,4.273305920759406 L 152.75135824302714,5.993162151855977 L 146.7945176770545,11.069189187991885 L 146.07533821883177,8.156667787749395 A 244.82538595031795 244.82538595031795 0 0 1 96.88533800366743,15.111233446784269"/><text text-anchor="middle" pointer-events="none" font-size="8px" fill="#000000" x="84.97577659225902" y="17.783790948406846" font-family="Helvetica Neue, Helvetica, Arial, sans-serif">LINK</text></g><g class="relationship" transform="translate(237.47110700204462 -57.582598524839035) rotate(206.33620058608352)"><path class="b-outline" fill="#A5ABB6" stroke="none" d="M 24.018736134675446,6.953439040707552 L 24.277555179777966,5.987513214418485 A 110.83456592230918 110.83456592230918 0 0 0 39.4323216846341,8.935016641574336 L 39.3102358542895,9.927536187995997 A 111.83456592230918 111.83456592230918 0 0 1 24.018736134675446,6.953439040707552 Z M 63.1539096894985,10.298878538765862 L 63.06279065211219,9.303038531020746 A 110.83456592230918 110.83456592230918 0 0 0 78.30199415444898,6.828892034919437 L 77.61615191071968,3.908340645760815 L 85.23092110310732,5.7153520310775034 L 79.21645047942138,10.7229605537976 L 78.53060823569209,7.802409164638978 A 111.83456592230918 111.83456592230918 0 0 1 63.1539096894985,10.298878538765862"/><text text-anchor="middle" pointer-events="none" font-size="8px" fill="#000000" x="51.22993286102071" y="13.250609781374507" transform="rotate(180 51.22993286102071 10.250609781374507)" font-family="Helvetica Neue, Helvetica, Arial, sans-serif">LINK</text></g><g class="relationship" transform="translate(231.23415702476834 52.248714073128156) rotate(239.86893865888652)"><path class="b-outline" fill="#A5ABB6" stroke="none" d="M 24.018736134675446,6.953439040707552 L 24.277555179777966,5.987513214418485 A 255.89349975923778 255.89349975923778 0 0 0 76.20517474071102,14.30686011715494 L 76.14928238038084,15.305296917386556 A 256.8934997592378 256.8934997592378 0 0 1 24.018736134675446,6.953439040707552 Z M 99.97119461905883,15.53250329970939 L 99.93435628647151,14.533182061442034 A 255.89349975923778 255.89349975923778 0 0 0 152.01120974734934,7.205799188457621 L 151.29016513265833,4.2937389789796105 L 158.92619100524652,6.008705122424967 L 152.97260256693733,11.088546134428302 L 152.25155795224632,8.17648592495029 A 256.8934997592378 256.8934997592378 0 0 1 99.97119461905883,15.53250329970939"/><text text-anchor="middle" pointer-events="none" font-size="8px" fill="#000000" x="88.06237197298995" y="18.19521179273312" transform="rotate(180 88.06237197298995 15.195211792733119)" font-family="Helvetica Neue, Helvetica, Arial, sans-serif">LINK</text></g><g class="relationship" transform="translate(128.1006002717911 86.1815142405022) rotate(273.3243580619055)"><path class="b-outline" fill="#A5ABB6" stroke="none" d="M 24.018736134675446,6.953439040707552 L 24.277555179777966,5.987513214418485 A 274.4610805675996 274.4610805675996 0 0 0 80.95598376183924,14.963767647047916 L 80.90367278871854,15.962398490799103 A 275.4610805675996 275.4610805675996 0 0 1 24.018736134675446,6.953439040707552 Z M 104.72366958080335,16.17876147897374 L 104.68950736960704,15.179345177662697 A 274.4610805675996 274.4610805675996 0 0 0 161.52163784181352,7.234135541584803 L 160.7979469519999,4.322731843022751 L 168.4355282867606,6.030757415113395 L 162.48655902823168,11.116007139667538 L 161.76286813841807,8.204603441105487 A 275.4610805675996 275.4610805675996 0 0 1 104.72366958080335,16.17876147897374"/><text text-anchor="middle" pointer-events="none" font-size="8px" fill="#000000" x="92.81587273227028" y="18.828205560995684" font-family="Helvetica Neue, Helvetica, Arial, sans-serif">LINK</text></g><g class="relationship" transform="translate(65.61464300977944 -15.129386240782136) rotate(308.96942049377924)"><path class="b-outline" fill="#A5ABB6" stroke="none" d="M 24.018736134675446,6.953439040707552 L 24.277555179777966,5.987513214418485 A 125.884542587111 125.884542587111 0 0 0 43.19945913596624,9.533656544528384 L 43.09095166659268,10.527752178303203 A 126.884542587111 126.884542587111 0 0 1 24.018736134675446,6.953439040707552 Z M 66.93243273510545,10.876415096375041 L 66.85304118555679,9.879571587161948 A 125.884542587111 125.884542587111 0 0 0 85.8705502462831,6.888262347031514 L 85.17916247067438,3.969018790262257 L 92.79734984134616,5.761564796739367 L 86.7924006137614,10.780587089390522 L 86.10101283815268,7.861343532621266 A 126.884542587111 126.884542587111 0 0 1 66.93243273510545,10.876415096375041"/><text text-anchor="middle" pointer-events="none" font-size="8px" fill="#000000" x="55.010795316316084" y="13.763412372072324" font-family="Helvetica Neue, Helvetica, Arial, sans-serif">LINK</text></g><g class="relationship" transform="translate(-146.04043439197437 100.22811999496312) rotate(262.04332053156327)"><path class="b-outline" fill="#A5ABB6" stroke="none" d="M 24.018736134675446,6.953439040707552 L 24.277555179777966,5.987513214418485 A 282.76073008701275 282.76073008701275 0 0 0 83.08132051020611,15.25645717751678 L 83.03046444961115,16.25516317084049 A 283.76073008701275 283.76073008701275 0 0 1 24.018736134675446,6.953439040707552 Z M 106.84966384780608,16.467003482082248 L 106.81657876759948,15.467550943205254 A 282.76073008701275 282.76073008701275 0 0 0 165.7758993522644,7.245954053196841 L 165.0511047671268,4.334824923571155 L 172.68933308558059,6.0399548761467114 L 166.74229213244786,11.127459559364423 L 166.01749754731026,8.216330429738736 A 283.76073008701275 283.76073008701275 0 0 1 106.84966384780608,16.467003482082248"/><text text-anchor="middle" pointer-events="none" font-size="8px" fill="#000000" x="94.94228697987954" y="19.111149503297327" transform="rotate(180 94.94228697987954 16.111149503297327)" font-family="Helvetica Neue, Helvetica, Arial, sans-serif">LINK</text></g><g class="relationship" transform="translate(-255.55062979545502 73.16303430512465) rotate(296.08663185110424)"><path class="b-outline" fill="#A5ABB6" stroke="none" d="M 24.018736134675446,6.953439040707552 L 24.277555179777966,5.987513214418485 A 263.4141344665228 263.4141344665228 0 0 0 78.12876465449061,14.573311378248206 L 78.07438114426846,15.571831500136511 A 264.4141344665228 264.4141344665228 0 0 1 24.018736134675446,6.953439040707552 Z M 101.89549467532298,15.794519000823925 L 101.85978801854587,14.795156686814721 A 263.4141344665228 263.4141344665228 0 0 0 155.8620977035022,7.217608225111483 L 155.13995026175985,4.305821304269751 L 162.7766250924233,6.017895347852949 L 156.82496095915866,11.099990786233793 L 156.1028135174163,8.18820386539206 A 264.4141344665228 264.4141344665228 0 0 1 101.89549467532298,15.794519000823925"/><text text-anchor="middle" pointer-events="none" font-size="8px" fill="#000000" x="89.98710274045871" y="18.45160106315751" font-family="Helvetica Neue, Helvetica, Arial, sans-serif">LINK</text></g><g class="relationship" transform="translate(-268.12705932240436 -35.78210876612821) rotate(328.09143439249647)"><path class="b-outline" fill="#A5ABB6" stroke="none" d="M 24.018736134675446,6.953439040707552 L 24.277555179777966,5.987513214418485 A 115.09246353936949 115.09246353936949 0 0 0 40.49615467862455,9.106463999755874 L 40.37825363110489,10.09948934837179 A 116.09246353936949 116.09246353936949 0 0 1 24.018736134675446,6.953439040707552 Z M 64.22138500967226,10.464132658961432 L 64.13390552988076,9.467966337198135 A 115.09246353936949 115.09246353936949 0 0 0 80.44029671312825,6.8464342881378455 L 79.75281590307749,3.9262681737169602 L 87.36859778178543,5.729006750422912 L 81.35693779319591,10.739989107365691 L 80.66945698314515,7.819822992944807 A 116.09246353936949 116.09246353936949 0 0 1 64.22138500967226,10.464132658961432"/><text text-anchor="middle" pointer-events="none" font-size="8px" fill="#000000" x="52.29807789902126" y="13.395678274066583" font-family="Helvetica Neue, Helvetica, Arial, sans-serif">LINK</text></g><g class="relationship" transform="translate(-103.3993723448313 -6.6407593817537816) rotate(231.59604560129316)"><path class="b-outline" fill="#A5ABB6" stroke="none" d="M 24.018736134675446,6.953439040707552 L 24.277555179777966,5.987513214418485 A 116.73927270735886 116.73927270735886 0 0 0 40.90804317045123,9.17230061291012 L 40.79168250807619,10.165507638787219 A 117.73927270735886 117.73927270735886 0 0 1 24.018736134675446,6.953439040707552 Z M 64.63458409277386,10.527621893493375 L 64.54843881947899,9.531339307130978 A 116.73927270735886 116.73927270735886 0 0 0 81.26797224821645,6.853055620355159 L 80.57987296441813,3.933035179393104 L 88.1960364910943,5.7341606983194024 L 82.18543795994755,10.746416208304563 L 81.49733867614923,7.826395767342509 A 117.73927270735886 117.73927270735886 0 0 1 64.63458409277386,10.527621893493375"/><text text-anchor="middle" pointer-events="none" font-size="8px" fill="#000000" x="52.71153521290054" y="13.451788581758876" transform="rotate(180 52.71153521290054 10.451788581758876)" font-family="Helvetica Neue, Helvetica, Arial, sans-serif">LINK</text></g><g class="relationship" transform="translate(-255.55062979545502 73.16303430512465) rotate(263.4150264050701)"><path class="b-outline" fill="#A5ABB6" stroke="none" d="M 24.018736134675446,6.953439040707552 L 24.277555179777966,5.987513214418485 A 111.033749573241 111.033749573241 0 0 0 39.48205031754066,8.943078194156598 L 39.360167070753526,9.935622638578423 A 112.033749573241 112.033749573241 0 0 1 24.018736134675446,6.953439040707552 Z M 63.203817413945416,10.306646348777974 L 63.11287505742982,9.310790190594787 A 111.033749573241 111.033749573241 0 0 0 78.40196790110588,6.829726555546991 L 77.7160477071053,3.909193472792709 L 85.33086512653263,5.716001616671383 L 79.3165281597733,10.723770665886033 L 78.63060796577273,7.80323758313175 A 112.033749573241 112.033749573241 0 0 1 63.203817413945416,10.306646348777974"/><text text-anchor="middle" pointer-events="none" font-size="8px" fill="#000000" x="51.27987192181417" y="13.257395816255098" transform="rotate(180 51.27987192181417 10.257395816255098)" font-family="Helvetica Neue, Helvetica, Arial, sans-serif">LINK</text></g><g class="relationship" transform="translate(-146.04043439197437 100.22811999496312) rotate(228.08795384931665)"><path class="b-outline" fill="#A5ABB6" stroke="none" d="M 24.018736134675446,6.953439040707552 L 24.277555179777966,5.987513214418485 A 255.06082341200963 255.06082341200963 0 0 0 75.99225737631166,14.277325152900943 L 75.93619272329778,15.275752293298524 A 256.06082341200965 256.06082341200965 0 0 1 24.018736134675446,6.953439040707552 Z M 99.75819539265413,15.5034701657938 L 99.72122745149007,14.504153713749616 A 255.06082341200963 255.06082341200963 0 0 0 151.5849519001194,7.204462516979087 L 150.86403211547523,4.292371401627676 L 158.49998446671336,6.007664872034622 L 152.54617827964492,11.087250670780968 L 151.82525849500075,8.175159555429557 A 256.06082341200965 256.06082341200965 0 0 1 99.75819539265413,15.5034701657938"/><text text-anchor="middle" pointer-events="none" font-size="8px" fill="#000000" x="87.84932370662939" y="18.16682460611983" transform="rotate(180 87.84932370662939 15.166824606119832)" font-family="Helvetica Neue, Helvetica, Arial, sans-serif">LINK</text></g><g class="relationship" transform="translate(-173.30293280957497 -94.82459942216819) rotate(508.09143439249647)"><path class="b-outline" fill="#A5ABB6" stroke="none" d="M 24.018736134675446,6.953439040707552 L 24.277555179777966,5.987513214418485 A 115.09246353936949 115.09246353936949 0 0 0 40.49615467862455,9.106463999755874 L 40.37825363110489,10.09948934837179 A 116.09246353936949 116.09246353936949 0 0 1 24.018736134675446,6.953439040707552 Z M 64.22138500967226,10.464132658961432 L 64.13390552988076,9.467966337198135 A 115.09246353936949 115.09246353936949 0 0 0 80.44029671312825,6.8464342881378455 L 79.75281590307749,3.9262681737169602 L 87.36859778178543,5.729006750422912 L 81.35693779319591,10.739989107365691 L 80.66945698314515,7.819822992944807 A 116.09246353936949 116.09246353936949 0 0 1 64.22138500967226,10.464132658961432"/><text text-anchor="middle" pointer-events="none" font-size="8px" fill="#000000" x="52.29807789902126" y="13.395678274066583" transform="rotate(180 52.29807789902126 10.395678274066583)" font-family="Helvetica Neue, Helvetica, Arial, sans-serif">LINK</text></g><g class="relationship" transform="translate(-103.3993723448313 -6.6407593817537816) rotate(190.03218300764132)"><path class="b-outline" fill="#A5ABB6" stroke="none" d="M 24.018736134675446,6.953439040707552 L 24.277555179777966,5.987513214418485 A 224.7617000312728 224.7617000312728 0 0 0 68.25387739879008,13.19730501411837 L 68.1907158977126,14.195308333141725 A 225.7617000312728 225.7617000312728 0 0 1 24.018736134675446,6.953439040707552 Z M 92.0163036352045,14.443319633602584 L 91.97393090379616,13.444217761102578 A 224.7617000312728 224.7617000312728 0 0 0 136.0908075925622,7.151427844571063 L 135.37484071972386,4.238115050345539 L 143.0078652578948,5.966390606985925 L 137.04543008967994,11.035844903538429 L 136.32946321684162,8.122532109312903 A 225.7617000312728 225.7617000312728 0 0 1 92.0163036352045,14.443319633602584"/><text text-anchor="middle" pointer-events="none" font-size="8px" fill="#000000" x="80.10544004176725" y="17.133879111495133" transform="rotate(180 80.10544004176725 14.133879111495133)" font-family="Helvetica Neue, Helvetica, Arial, sans-serif">LINK</text></g></g><g class="layer nodes"><g class="node" aria-label="graph-node0" transform="translate(-146.04043439197437,100.22811999496312)"><circle class="b-outline" cx="0" cy="0" r="25" fill="#ECB5C9" stroke="#da7298" stroke-width="2px"/><text class="caption" text-anchor="middle" pointer-events="none" x="0" y="5" font-size="10px" fill="#2A2C34" font-family="Helvetica Neue, Helvetica, Arial, sans-serif"> Jasmine</text></g><g class="node" aria-label="graph-node1" transform="translate(-255.55062979545502,73.16303430512465)"><circle class="b-outline" cx="0" cy="0" r="25" fill="#ECB5C9" stroke="#da7298" stroke-width="2px"/><text class="caption" text-anchor="middle" pointer-events="none" x="0" y="5" font-size="10px" fill="#2A2C34" font-family="Helvetica Neue, Helvetica, Arial, sans-serif"> June</text></g><g class="node" aria-label="graph-node20" transform="translate(-103.3993723448313,-6.6407593817537816)"><circle class="b-outline" cx="0" cy="0" r="25" fill="#ECB5C9" stroke="#da7298" stroke-width="2px"/><text class="caption" text-anchor="middle" pointer-events="none" x="0" y="5" font-size="10px" fill="#2A2C34" font-family="Helvetica Neue, Helvetica, Arial, sans-serif"> Juliette</text></g><g class="node" aria-label="graph-node21" transform="translate(65.61464300977944,-15.129386240782136)"><circle class="b-outline" cx="0" cy="0" r="25" fill="#57C7E3" stroke="#23b3d7" stroke-width="2px"/><text class="caption" text-anchor="middle" pointer-events="none" x="0" y="5" font-size="10px" fill="#2A2C34" font-family="Helvetica Neue, Helvetica, Arial, sans-serif"> Romeo</text></g><g class="node" aria-label="graph-node22" transform="translate(128.1006002717911,86.1815142405022)"><circle class="b-outline" cx="0" cy="0" r="25" fill="#57C7E3" stroke="#23b3d7" stroke-width="2px"/><text class="caption" text-anchor="middle" pointer-events="none" x="0" y="5" font-size="10px" fill="#2A2C34" font-family="Helvetica Neue, Helvetica, Arial, sans-serif"> Ryan</text></g><g class="node" aria-label="graph-node23" transform="translate(231.23415702476834,52.248714073128156)"><circle class="b-outline" cx="0" cy="0" r="25" fill="#57C7E3" stroke="#23b3d7" stroke-width="2px"/><text class="caption" text-anchor="middle" pointer-events="none" x="0" y="5" font-size="10px" fill="#2A2C34" font-family="Helvetica Neue, Helvetica, Arial, sans-serif"> Robert</text></g><g class="node" aria-label="graph-node24" transform="translate(237.47110700204462,-57.582598524839035)"><circle class="b-outline" cx="0" cy="0" r="25" fill="#57C7E3" stroke="#23b3d7" stroke-width="2px"/><text class="caption" text-anchor="middle" pointer-events="none" x="0" y="5" font-size="10px" fill="#2A2C34" font-family="Helvetica Neue, Helvetica, Arial, sans-serif"> Riley</text></g><g class="node" aria-label="graph-node25" transform="translate(139.27481278568868,-106.19145110543691)"><circle class="b-outline" cx="0" cy="0" r="25" fill="#57C7E3" stroke="#23b3d7" stroke-width="2px"/><text class="caption" text-anchor="middle" pointer-events="none" x="0" y="5" font-size="10px" fill="#2A2C34" font-family="Helvetica Neue, Helvetica, Arial, sans-serif"> Ronan</text></g><g class="node" aria-label="graph-node26" transform="translate(-173.30293280957497,-94.82459942216819)"><circle class="b-outline" cx="0" cy="0" r="25" fill="#ECB5C9" stroke="#da7298" stroke-width="2px"/><text class="caption" text-anchor="middle" pointer-events="none" x="0" y="5" font-size="10px" fill="#2A2C34" font-family="Helvetica Neue, Helvetica, Arial, sans-serif"> Josie</text></g><g class="node" aria-label="graph-node27" transform="translate(-268.12705932240436,-35.78210876612821)"><circle class="b-outline" cx="0" cy="0" r="25" fill="#ECB5C9" stroke="#da7298" stroke-width="2px"/><text class="caption" text-anchor="middle" pointer-events="none" x="0" y="5" font-size="10px" fill="#2A2C34" font-family="Helvetica Neue, Helvetica, Arial, sans-serif"> Jade</text></g></g></svg>