<?xml version="1.0" encoding="UTF-8" standalone="no"?>
<svg xmlns:dc="http://purl.org/dc/elements/1.1/"
     xmlns:cc="http://creativecommons.org/ns#"
     xmlns:rdf="http://www.w3.org/1999/02/22-rdf-syntax-ns#"
     xmlns="http://www.w3.org/2000/svg"
     xmlns:sodipodi="http://sodipodi.sourceforge.net/DTD/sodipodi-0.dtd"
     xmlns:inkscape="http://www.inkscape.org/namespaces/inkscape"
     width="760.06433"
     height="223.34497"
     viewbox="0 0 1763 577"
     version="1.1"
     id="svg102"
     sodipodi:docname="hits.svg"
     inkscape:version="1.0.1 (3bc2e813f5, 2020-09-07)">
  <metadata
     id="metadata108">
    <rdf:RDF>
      <cc:Work
         rdf:about="">
        <dc:format>image/svg+xml</dc:format>
        <dc:type
           rdf:resource="http://purl.org/dc/dcmitype/StillImage" />
      </cc:Work>
    </rdf:RDF>
  </metadata>
  <defs
     id="defs106" />
  <sodipodi:namedview
     pagecolor="#ffffff"
     bordercolor="#666666"
     borderopacity="1"
     objecttolerance="10"
     gridtolerance="10"
     guidetolerance="10"
     inkscape:pageopacity="0"
     inkscape:pageshadow="2"
     inkscape:window-width="3840"
     inkscape:window-height="2077"
     id="namedview104"
     showgrid="false"
     inkscape:zoom="0.83834373"
     inkscape:cx="881.5"
     inkscape:cy="288.5"
     inkscape:window-x="0"
     inkscape:window-y="0"
     inkscape:window-maximized="1"
     inkscape:current-layer="svg102" />
  <path
     d="M 66.857596,29.056153 H 174.01108"
     fill="none"
     stroke="#848484"
     stroke-width="1.22636"
     id="path2" />
  <polygon
     transform="matrix(0.43133932,0,0,0.38741538,181.80952,29.056153)"
     points="0,0 -20.088457,-6.6961524 -18.079612,0 -20.088457,6.6961524 "
     fill="undefined"
     stroke="none"
     stroke-width="3"
     id="polygon4" />
  <path
     d="M 32.35045,60.049384 V 156.29126"
     fill="none"
     stroke="#848484"
     stroke-width="1.22636"
     id="path6" />
  <polygon
     transform="matrix(0,0.38741538,-0.43133932,0,32.35045,163.29559)"
     points="0,0 -20.088457,-6.6961524 -18.079612,0 -20.088457,6.6961524 "
     fill="undefined"
     stroke="none"
     stroke-width="3"
     id="polygon8" />
  <path
     d="M 56.750686,50.971677 186.4021,167.42049"
     fill="none"
     stroke="#848484"
     stroke-width="1.22636"
     id="path10" />
  <polygon
     transform="matrix(0.30500296,0.27394404,-0.30500296,0.27394404,191.91643,172.37329)"
     points="0,0 -20.088457,-6.6961524 -18.079612,0 -20.088457,6.6961524 "
     fill="undefined"
     stroke="none"
     stroke-width="3"
     id="polygon12" />
  <path
     d="M 191.91643,50.971677 62.265021,167.42049"
     fill="none"
     stroke="#848484"
     stroke-width="1.22636"
     id="path14" />
  <polygon
     transform="matrix(-0.30500296,0.27394404,-0.30500296,-0.27394404,56.750686,172.37329)"
     points="0,0 -20.088457,-6.6961524 -18.079612,0 -20.088457,6.6961524 "
     fill="undefined"
     stroke="none"
     stroke-width="3"
     id="polygon16" />
  <path
     d="M 216.31667,60.049384 V 156.29126"
     fill="none"
     stroke="#848484"
     stroke-width="1.22636"
     id="path18" />
  <polygon
     transform="matrix(0,0.38741538,-0.43133932,0,216.31667,163.29559)"
     points="0,0 -20.088457,-6.6961524 -18.079612,0 -20.088457,6.6961524 "
     fill="undefined"
     stroke="none"
     stroke-width="3"
     id="polygon20" />
  <path
     d="M 66.857596,194.28881 H 174.01108"
     fill="none"
     stroke="#848484"
     stroke-width="1.22636"
     id="path22" />
  <polygon
     transform="matrix(0.43133932,0,0,0.38741538,181.80952,194.28881)"
     points="0,0 -20.088457,-6.6961524 -18.079612,0 -20.088457,6.6961524 "
     fill="undefined"
     stroke="none"
     stroke-width="3"
     id="polygon24" />
  <path
     d="M 578.25483,29.056153 H 685.40831"
     fill="none"
     stroke="#848484"
     stroke-width="1.22636"
     id="path26" />
  <polygon
     transform="matrix(0.43133932,0,0,0.38741538,693.20676,29.056153)"
     points="0,0 -20.088457,-6.6961524 -18.079612,0 -20.088457,6.6961524 "
     fill="undefined"
     stroke="none"
     stroke-width="3"
     id="polygon28" />
  <path
     d="M 727.7139,60.049384 V 156.29126"
     fill="none"
     stroke="#848484"
     stroke-width="1.22636"
     id="path30" />
  <polygon
     transform="matrix(0,0.38741538,-0.43133932,0,727.7139,163.29559)"
     points="0,0 -20.088457,-6.6961524 -18.079612,0 -20.088457,6.6961524 "
     fill="undefined"
     stroke="none"
     stroke-width="3"
     id="polygon32" />
  <path
     d="M 578.25483,194.28881 H 685.40831"
     fill="none"
     stroke="#848484"
     stroke-width="1.22636"
     id="path34" />
  <polygon
     transform="matrix(0.43133932,0,0,0.38741538,693.20676,194.28881)"
     points="0,0 -20.088457,-6.6961524 -18.079612,0 -20.088457,6.6961524 "
     fill="undefined"
     stroke="none"
     stroke-width="3"
     id="polygon36" />
  <path
     d="M 543.74768,60.049384 V 156.29126"
     fill="none"
     stroke="#848484"
     stroke-width="1.22636"
     id="path38" />
  <polygon
     transform="matrix(0,0.38741538,-0.43133932,0,543.74768,163.29559)"
     points="0,0 -20.088457,-6.6961524 -18.079612,0 -20.088457,6.6961524 "
     fill="undefined"
     stroke="none"
     stroke-width="3"
     id="polygon40" />
  <path
     d="M 568.14792,50.971677 697.79933,167.42049"
     fill="none"
     stroke="#848484"
     stroke-width="1.22636"
     id="path42" />
  <polygon
     transform="matrix(0.30500296,0.27394404,-0.30500296,0.27394404,703.31367,172.37329)"
     points="0,0 -20.088457,-6.6961524 -18.079612,0 -20.088457,6.6961524 "
     fill="undefined"
     stroke="none"
     stroke-width="3"
     id="polygon44" />
  <path
     d="M 703.31367,50.971677 573.66225,167.42049"
     fill="none"
     stroke="#848484"
     stroke-width="1.22636"
     id="path46" />
  <polygon
     transform="matrix(-0.30500296,0.27394404,-0.30500296,-0.27394404,568.14792,172.37329)"
     points="0,0 -20.088457,-6.6961524 -18.079612,0 -20.088457,6.6961524 "
     fill="undefined"
     stroke="none"
     stroke-width="3"
     id="polygon48" />
  <path
     d="M 345.52503,29.056153 H 258.62226"
     fill="none"
     stroke="#848484"
     stroke-width="1.22636"
     id="path50" />
  <polygon
     transform="matrix(-0.43133932,0,0,-0.38741538,250.82382,29.056153)"
     points="0,0 -20.088457,-6.6961524 -18.079612,0 -20.088457,6.6961524 "
     fill="undefined"
     stroke="none"
     stroke-width="3"
     id="polygon52" />
  <path
     d="m 414.53932,29.056153 h 86.90277"
     fill="none"
     stroke="#848484"
     stroke-width="1.22636"
     id="path54" />
  <polygon
     transform="matrix(0.43133932,0,0,0.38741538,509.24054,29.056153)"
     points="0,0 -20.088457,-6.6961524 -18.079612,0 -20.088457,6.6961524 "
     fill="undefined"
     stroke="none"
     stroke-width="3"
     id="polygon56" />
  <path
     d="M 357.09201,52.208907 244.44121,165.90365"
     fill="none"
     stroke="#848484"
     stroke-width="1.22636"
     id="path58" />
  <polygon
     transform="matrix(-0.28675208,0.28940942,-0.32222175,-0.25755167,239.25684,171.13606)"
     points="0,0 -20.088457,-6.6961524 -18.079612,0 -20.088457,6.6961524 "
     fill="undefined"
     stroke="none"
     stroke-width="3"
     id="polygon60" />
  <path
     d="M 402.97234,52.208907 515.62315,165.90365"
     fill="none"
     stroke="#848484"
     stroke-width="1.22636"
     id="path62" />
  <polygon
     transform="matrix(0.28675208,0.28940942,-0.32222175,0.25755167,520.80752,171.13606)"
     points="0,0 -20.088457,-6.6961524 -18.079612,0 -20.088457,6.6961524 "
     fill="undefined"
     stroke="none"
     stroke-width="3"
     id="polygon64" />
  <ellipse
     cx="32.350449"
     cy="29.056154"
     fill="#4c8eda"
     stroke="none"
     strokewidth="0"
     id="circle66"
     rx="32.350449"
     ry="29.056154"
     style="stroke-width:0.408788" />
  <text
     xml:space="preserve"
     transform="scale(1.0551667,0.94771753)"
     x="30.659088"
     y="32.907421"
     font-family="sans-serif"
     font-size="8.17579px"
     font-weight="normal"
     text-anchor="middle"
     fill="#ffffff"
     id="text68"
     style="stroke-width:0.408788">A</text>
  <ellipse
     cx="216.31667"
     cy="29.056154"
     fill="#4c8eda"
     stroke="none"
     strokewidth="0"
     id="circle70"
     rx="32.350449"
     ry="29.056154"
     style="stroke-width:0.408788" />
  <text
     xml:space="preserve"
     transform="scale(1.0551667,0.94771753)"
     x="205.0071"
     y="32.907421"
     font-family="sans-serif"
     font-size="8.17579px"
     font-weight="normal"
     text-anchor="middle"
     fill="#ffffff"
     id="text72"
     style="stroke-width:0.408788">B</text>
  <ellipse
     cx="32.350449"
     cy="194.28882"
     fill="#4c8eda"
     stroke="none"
     strokewidth="0"
     id="circle74"
     rx="32.350449"
     ry="29.056154"
     style="stroke-width:0.408788" />
  <text
     xml:space="preserve"
     transform="scale(1.0551667,0.94771753)"
     x="30.659088"
     y="207.25543"
     font-family="sans-serif"
     font-size="8.17579px"
     font-weight="normal"
     text-anchor="middle"
     fill="#ffffff"
     id="text76"
     style="stroke-width:0.408788">C</text>
  <ellipse
     cx="216.31667"
     cy="194.28882"
     fill="#4c8eda"
     stroke="none"
     strokewidth="0"
     id="circle78"
     rx="32.350449"
     ry="29.056154"
     style="stroke-width:0.408788" />
  <text
     xml:space="preserve"
     transform="scale(1.0551667,0.94771753)"
     x="205.0071"
     y="207.25543"
     font-family="sans-serif"
     font-size="8.17579px"
     font-weight="normal"
     text-anchor="middle"
     fill="#ffffff"
     id="text80"
     style="stroke-width:0.408788">D</text>
  <ellipse
     cx="380.03217"
     cy="29.056154"
     fill="#4c8eda"
     stroke="none"
     strokewidth="0"
     id="circle82"
     rx="32.350449"
     ry="29.056154"
     style="stroke-width:0.408788" />
  <text
     xml:space="preserve"
     transform="scale(1.0551667,0.94771753)"
     x="360.16315"
     y="32.907421"
     font-family="sans-serif"
     font-size="8.17579px"
     font-weight="normal"
     text-anchor="middle"
     fill="#ffffff"
     id="text84"
     style="stroke-width:0.408788">E</text>
  <ellipse
     cx="543.74768"
     cy="29.056154"
     fill="#4c8eda"
     stroke="none"
     strokewidth="0"
     id="circle86"
     rx="32.350449"
     ry="29.056154"
     style="stroke-width:0.408788" />
  <text
     xml:space="preserve"
     transform="scale(1.0551667,0.94771753)"
     x="515.31921"
     y="32.907421"
     font-family="sans-serif"
     font-size="8.17579px"
     font-weight="normal"
     text-anchor="middle"
     fill="#ffffff"
     id="text88"
     style="stroke-width:0.408788">F</text>
  <ellipse
     cx="727.71387"
     cy="29.056154"
     fill="#4c8eda"
     stroke="none"
     strokewidth="0"
     id="circle90"
     rx="32.350449"
     ry="29.056154"
     style="stroke-width:0.408788" />
  <text
     xml:space="preserve"
     transform="scale(1.0551667,0.94771753)"
     x="689.66724"
     y="32.907421"
     font-family="sans-serif"
     font-size="8.17579px"
     font-weight="normal"
     text-anchor="middle"
     fill="#ffffff"
     id="text92"
     style="stroke-width:0.408788">G</text>
  <ellipse
     cx="543.74768"
     cy="194.28882"
     fill="#4c8eda"
     stroke="none"
     strokewidth="0"
     id="circle94"
     rx="32.350449"
     ry="29.056154"
     style="stroke-width:0.408788" />
  <text
     xml:space="preserve"
     transform="scale(1.0551667,0.94771753)"
     x="515.31921"
     y="207.25543"
     font-family="sans-serif"
     font-size="8.17579px"
     font-weight="normal"
     text-anchor="middle"
     fill="#ffffff"
     id="text96"
     style="stroke-width:0.408788">H</text>
  <ellipse
     cx="727.71387"
     cy="194.28882"
     fill="#4c8eda"
     stroke="none"
     strokewidth="0"
     id="circle98"
     rx="32.350449"
     ry="29.056154"
     style="stroke-width:0.408788" />
  <text
     xml:space="preserve"
     transform="scale(1.0551667,0.94771753)"
     x="689.66724"
     y="207.25543"
     font-family="sans-serif"
     font-size="8.17579px"
     font-weight="normal"
     text-anchor="middle"
     fill="#ffffff"
     id="text100"
     style="stroke-width:0.408788">I</text>
</svg>
