<svg xmlns="http://www.w3.org/2000/svg" width="967.8980712890625" height="359.7602844238281" viewBox="-660.2332153320312 -301.9520568847656 967.8980712890625 359.7602844238281"><title>Neo4j Graph Visualization</title><desc>Created using Neo4j (http://www.neo4j.com/)</desc><g class="layer relationships"><g class="relationship" transform="translate(83.89952021280955 2.3312053449262464) rotate(235.5351273575934)"><path class="b-outline" fill="#A5ABB6" stroke="none" d="M 40 0.5 L 133.8899447696567 0.5 L 133.8899447696567 -0.5 L 40 -0.5 Z M 169.6672885196567 0.5 L 263.5572332893134 0.5 L 263.5572332893134 3.5 L 270.5572332893134 0 L 263.5572332893134 -3.5 L 263.5572332893134 -0.5 L 169.6672885196567 -0.5 Z"/><text text-anchor="middle" pointer-events="none" font-size="8px" fill="#000000" x="151.7786166446567" y="3" transform="rotate(180 151.7786166446567 0)" font-family="Helvetica Neue, Helvetica, Arial, sans-serif">FRIEND</text></g><g class="relationship" transform="translate(-91.84508785285018 -253.7149387075876) rotate(180.22295888682055)"><path class="b-outline" fill="#A5ABB6" stroke="none" d="M 40 0.5 L 67.56022274983532 0.5 L 67.56022274983532 -0.5 L 40 -0.5 Z M 103.33756649983532 0.5 L 130.89778924967064 0.5 L 130.89778924967064 3.5 L 137.89778924967064 0 L 130.89778924967064 -3.5 L 130.89778924967064 -0.5 L 103.33756649983532 -0.5 Z"/><text text-anchor="middle" pointer-events="none" font-size="8px" fill="#000000" x="85.44889462483532" y="3" transform="rotate(180 85.44889462483532 0)" font-family="Helvetica Neue, Helvetica, Arial, sans-serif">FRIEND</text></g><g class="relationship" transform="translate(-269.74153017471866 -254.40720248849422) rotate(470.9195336815978)"><path class="b-outline" fill="#A5ABB6" stroke="none" d="M 40 0.5 L 66.22176974000931 0.5 L 66.22176974000931 -0.5 L 40 -0.5 Z M 101.99911349000931 0.5 L 128.22088323001861 0.5 L 128.22088323001861 3.5 L 135.22088323001861 0 L 128.22088323001861 -3.5 L 128.22088323001861 -0.5 L 101.99911349000931 -0.5 Z"/><text text-anchor="middle" pointer-events="none" font-size="8px" fill="#000000" x="84.11044161500931" y="3" transform="rotate(180 84.11044161500931 0)" font-family="Helvetica Neue, Helvetica, Arial, sans-serif">FRIEND</text></g><g class="relationship" transform="translate(-269.74153017471866 -254.40720248849422) rotate(415.78655165521326)"><path class="b-outline" fill="#A5ABB6" stroke="none" d="M 40 0.5 L 137.85371327847807 0.5 L 137.85371327847807 -0.5 L 40 -0.5 Z M 173.63105702847807 0.5 L 271.48477030695614 0.5 L 271.48477030695614 3.5 L 278.48477030695614 0 L 271.48477030695614 -3.5 L 271.48477030695614 -0.5 L 173.63105702847807 -0.5 Z"/><text text-anchor="middle" pointer-events="none" font-size="8px" fill="#000000" x="155.74238515347807" y="3" font-family="Helvetica Neue, Helvetica, Arial, sans-serif">FRIEND</text></g><g class="relationship" transform="translate(-332.3052809409519 -90.7363895438263) rotate(234.13832094613053)"><path class="b-outline" fill="#A5ABB6" stroke="none" d="M 40 0.5 L 79.91983743132248 0.5 L 79.91983743132248 -0.5 L 40 -0.5 Z M 115.69718118132248 0.5 L 155.61701861264496 0.5 L 155.61701861264496 3.5 L 162.61701861264496 0 L 155.61701861264496 -3.5 L 155.61701861264496 -0.5 L 115.69718118132248 -0.5 Z"/><text text-anchor="middle" pointer-events="none" font-size="8px" fill="#000000" x="97.80850930632248" y="3" transform="rotate(180 97.80850930632248 0)" font-family="Helvetica Neue, Helvetica, Arial, sans-serif">FRIEND</text></g><g class="relationship" transform="translate(-332.3052809409519 -90.7363895438263) rotate(193.04659326429112)"><path class="b-outline" fill="#A5ABB6" stroke="none" d="M 40 0.5 L 124.33692976800637 0.5 L 124.33692976800637 -0.5 L 40 -0.5 Z M 160.11427351800637 0.5 L 244.45120328601274 0.5 L 244.45120328601274 3.5 L 251.45120328601274 0 L 244.45120328601274 -3.5 L 244.45120328601274 -0.5 L 160.11427351800637 -0.5 Z"/><text text-anchor="middle" pointer-events="none" font-size="8px" fill="#000000" x="142.22560164300637" y="3" transform="rotate(180 142.22560164300637 0)" font-family="Helvetica Neue, Helvetica, Arial, sans-serif">FRIEND</text></g><g class="relationship" transform="translate(-332.3052809409519 -90.7363895438263) rotate(505.87025044741404)"><path class="b-outline" fill="#A5ABB6" stroke="none" d="M 40 0.5 L 71.77691630645496 0.5 L 71.77691630645496 -0.5 L 40 -0.5 Z M 107.55426005645496 0.5 L 139.33117636290993 0.5 L 139.33117636290993 3.5 L 146.33117636290993 0 L 139.33117636290993 -3.5 L 139.33117636290993 -0.5 L 107.55426005645496 -0.5 Z"/><text text-anchor="middle" pointer-events="none" font-size="8px" fill="#000000" x="89.66558818145496" y="3" transform="rotate(180 89.66558818145496 0)" font-family="Helvetica Neue, Helvetica, Arial, sans-serif">FRIEND</text></g><g class="relationship" transform="translate(-451.00449976013437 -254.94403760929478) rotate(509.2208802170035)"><path class="b-outline" fill="#A5ABB6" stroke="none" d="M 40 0.5 L 74.76996374872105 0.5 L 74.76996374872105 -0.5 L 40 -0.5 Z M 110.54730749872105 0.5 L 145.3172712474421 0.5 L 145.3172712474421 3.5 L 152.3172712474421 0 L 145.3172712474421 -3.5 L 145.3172712474421 -0.5 L 110.54730749872105 -0.5 Z"/><text text-anchor="middle" pointer-events="none" font-size="8px" fill="#000000" x="92.65863562372105" y="3" transform="rotate(180 92.65863562372105 0)" font-family="Helvetica Neue, Helvetica, Arial, sans-serif">FRIEND</text></g><g class="relationship" transform="translate(-451.00449976013437 -254.94403760929478) rotate(457.53312216477315)"><path class="b-outline" fill="#A5ABB6" stroke="none" d="M 40 0.5 L 114.15732855174375 0.5 L 114.15732855174375 -0.5 L 40 -0.5 Z M 149.93467230174375 0.5 L 224.0920008534875 0.5 L 224.0920008534875 3.5 L 231.0920008534875 0 L 224.0920008534875 -3.5 L 224.0920008534875 -0.5 L 149.93467230174375 -0.5 Z"/><text text-anchor="middle" pointer-events="none" font-size="8px" fill="#000000" x="132.04600042674375" y="3" transform="rotate(180 132.04600042674375 0)" font-family="Helvetica Neue, Helvetica, Arial, sans-serif">FRIEND</text></g><g class="relationship" transform="translate(-616.2331992643243 -156.52955859214848) rotate(412.71573250538273)"><path class="b-outline" fill="#A5ABB6" stroke="none" d="M 40 0.5 L 85.6558613429539 0.5 L 85.6558613429539 -0.5 L 40 -0.5 Z M 121.4332050929539 0.5 L 167.0890664359078 0.5 L 167.0890664359078 3.5 L 174.0890664359078 0 L 167.0890664359078 -3.5 L 167.0890664359078 -0.5 L 121.4332050929539 -0.5 Z"/><text text-anchor="middle" pointer-events="none" font-size="8px" fill="#000000" x="103.5445332179539" y="3" font-family="Helvetica Neue, Helvetica, Arial, sans-serif">FRIEND</text></g><g class="relationship" transform="translate(-486.5444755261983 13.808233170497637) rotate(359.29883222480146)"><path class="b-outline" fill="#A5ABB6" stroke="none" d="M 40 0.5 L 176.56603265966964 0.5 L 176.56603265966964 -0.5 L 40 -0.5 Z M 212.34337640966964 0.5 L 348.9094090693393 0.5 L 348.9094090693393 3.5 L 355.9094090693393 0 L 348.9094090693393 -3.5 L 348.9094090693393 -0.5 L 212.34337640966964 -0.5 Z"/><text text-anchor="middle" pointer-events="none" font-size="8px" fill="#000000" x="194.45470453466964" y="3" font-family="Helvetica Neue, Helvetica, Arial, sans-serif">FRIEND</text></g><g class="relationship" transform="translate(263.6649008502343 6.286719273588673) rotate(236.4772942069854)"><path class="b-outline" fill="#A5ABB6" stroke="none" d="M 40 0.5 L 137.09114061643768 0.5 L 137.09114061643768 -0.5 L 40 -0.5 Z M 172.86848436643768 0.5 L 269.95962498287537 0.5 L 269.95962498287537 3.5 L 276.95962498287537 0 L 269.95962498287537 -3.5 L 269.95962498287537 -0.5 L 172.86848436643768 -0.5 Z"/><text text-anchor="middle" pointer-events="none" font-size="8px" fill="#000000" x="154.97981249143768" y="3" transform="rotate(180 154.97981249143768 0)" font-family="Helvetica Neue, Helvetica, Arial, sans-serif">FRIEND</text></g></g><g class="layer nodes"><g class="node" aria-label="graph-node0" transform="translate(83.89952021280955,2.3312053449262464)"><circle class="b-outline" cx="0" cy="0" r="40" fill="#DA7194" stroke="#cc3c6c" stroke-width="2px"/><text class="caption" text-anchor="middle" pointer-events="none" x="0" y="5" font-size="10px" fill="#FFFFFF" font-family="Helvetica Neue, Helvetica, Arial, sans-serif"> Alice</text></g><g class="node" aria-label="graph-node1" transform="translate(-91.84508785285018,-253.7149387075876)"><circle class="b-outline" cx="0" cy="0" r="40" fill="#DA7194" stroke="#cc3c6c" stroke-width="2px"/><text class="caption" text-anchor="middle" pointer-events="none" x="0" y="5" font-size="10px" fill="#FFFFFF" font-family="Helvetica Neue, Helvetica, Arial, sans-serif"> Bridget</text></g><g class="node" aria-label="graph-node2" transform="translate(-269.74153017471866,-254.40720248849422)"><circle class="b-outline" cx="0" cy="0" r="40" fill="#DA7194" stroke="#cc3c6c" stroke-width="2px"/><text class="caption" text-anchor="middle" pointer-events="none" x="0" y="5" font-size="10px" fill="#FFFFFF" font-family="Helvetica Neue, Helvetica, Arial, sans-serif"> Charles</text></g><g class="node" aria-label="graph-node3" transform="translate(-332.3052809409519,-90.7363895438263)"><circle class="b-outline" cx="0" cy="0" r="40" fill="#DA7194" stroke="#cc3c6c" stroke-width="2px"/><text class="caption" text-anchor="middle" pointer-events="none" x="0" y="5" font-size="10px" fill="#FFFFFF" font-family="Helvetica Neue, Helvetica, Arial, sans-serif"> Doug</text></g><g class="node" aria-label="graph-node4" transform="translate(-451.00449976013437,-254.94403760929478)"><circle class="b-outline" cx="0" cy="0" r="40" fill="#DA7194" stroke="#cc3c6c" stroke-width="2px"/><text class="caption" text-anchor="middle" pointer-events="none" x="0" y="5" font-size="10px" fill="#FFFFFF" font-family="Helvetica Neue, Helvetica, Arial, sans-serif"> Eli</text></g><g class="node" aria-label="graph-node5" transform="translate(-616.2331992643243,-156.52955859214848)"><circle class="b-outline" cx="0" cy="0" r="40" fill="#DA7194" stroke="#cc3c6c" stroke-width="2px"/><text class="caption" text-anchor="middle" pointer-events="none" x="0" y="5" font-size="10px" fill="#FFFFFF" font-family="Helvetica Neue, Helvetica, Arial, sans-serif"> Filip</text></g><g class="node" aria-label="graph-node6" transform="translate(-486.5444755261983,13.808233170497637)"><circle class="b-outline" cx="0" cy="0" r="40" fill="#DA7194" stroke="#cc3c6c" stroke-width="2px"/><text class="caption" text-anchor="middle" pointer-events="none" x="0" y="5" font-size="10px" fill="#FFFFFF" font-family="Helvetica Neue, Helvetica, Arial, sans-serif"> Greg</text></g><g class="node" aria-label="graph-node7" transform="translate(-90.66471197458128,8.963338956044623)"><circle class="b-outline" cx="0" cy="0" r="40" fill="#DA7194" stroke="#cc3c6c" stroke-width="2px"/><text class="caption" text-anchor="middle" pointer-events="none" x="0" y="5" font-size="10px" fill="#FFFFFF" font-family="Helvetica Neue, Helvetica, Arial, sans-serif"> Harry</text></g><g class="node" aria-label="graph-node8" transform="translate(263.6649008502343,6.286719273588673)"><circle class="b-outline" cx="0" cy="0" r="40" fill="#DA7194" stroke="#cc3c6c" stroke-width="2px"/><text class="caption" text-anchor="middle" pointer-events="none" x="0" y="5" font-size="10px" fill="#FFFFFF" font-family="Helvetica Neue, Helvetica, Arial, sans-serif"> Ian</text></g><g class="node" aria-label="graph-node9" transform="translate(88.61843181551905,-257.9520696045082)"><circle class="b-outline" cx="0" cy="0" r="40" fill="#DA7194" stroke="#cc3c6c" stroke-width="2px"/><text class="caption" text-anchor="middle" pointer-events="none" x="0" y="5" font-size="10px" fill="#FFFFFF" font-family="Helvetica Neue, Helvetica, Arial, sans-serif"> James</text></g></g></svg>