<svg xmlns="http://www.w3.org/2000/svg" width="428.88653564453125" height="186.3377685546875" viewBox="-166.72349548339844 -1.214132308959961 428.88653564453125 186.3377685546875"><title>Neo4j Graph Visualization</title><desc>Created using Neo4j (http://www.neo4j.com/)</desc><g class="layer relationships"><g class="relationship" transform="translate(-65.74072023889276 36.662293496915765) rotate(481.07153468844035)"><path class="outline" fill="#A5ABB6" stroke="none" d="M 24.018736134675446,-6.953439040707552 L 24.277555179777966,-5.987513214418485 A 170.11198266978067 170.11198266978067 0 0 1 46.4267576687668,-10.371082051451083 L 46.29814228210958,-11.362776602366324 A 171.11198266978067 171.11198266978067 0 0 0 24.018736134675446,-6.953439040707552 Z M 86.1026021690393,-11.855925645269053 L 85.99859527369219,-10.86134906917232 A 170.11198266978067 170.11198266978067 0 0 1 108.24960119458133,-7.027867341579481 L 107.54517418468775,-4.111742757866983 L 115.17129639155942,-5.870225082446538 L 109.18883720777278,-10.916033453196144 L 108.4844101978792,-7.999908869483646 A 171.11198266978067 171.11198266978067 0 0 0 86.1026021690393,-11.855925645269053"/><text text-anchor="middle" pointer-events="none" font-size="8px" fill="#000000" x="66.19217677337657" y="-9.270845965914958" transform="rotate(180 66.19217677337657 -12.270845965914958)" font-family="sans-serif">FOLLOW</text></g><g class="relationship" transform="translate(-65.74072023889276 36.662293496915765) rotate(374.9716787938729)"><path class="outline" fill="#A5ABB6" stroke="none" d="M 25 0.5 L 46.157366565730186 0.5 L 46.157366565730186 -0.5 L 25 -0.5 Z M 85.93861656573019 0.5 L 107.09598313146037 0.5 L 107.09598313146037 3.5 L 114.09598313146037 0 L 107.09598313146037 -3.5 L 107.09598313146037 -0.5 L 85.93861656573019 -0.5 Z"/><text text-anchor="middle" pointer-events="none" font-size="8px" fill="#000000" x="66.04799156573019" y="3" font-family="sans-serif">FOLLOW</text></g><g class="relationship" transform="translate(-65.74072023889276 36.662293496915765) rotate(417.9158529626827)"><path class="outline" fill="#A5ABB6" stroke="none" d="M 24.018736134675446,-6.953439040707552 L 24.277555179777966,-5.987513214418485 A 158.75523365364347 158.75523365364347 0 0 1 43.56008112397146,-9.89219313875563 L 43.422722804921364,-10.882714563151751 A 159.75523365364347 159.75523365364347 0 0 0 24.018736134675446,-6.953439040707552 Z M 83.2218893594273,-11.396000199405876 L 83.11012177728287,-10.4022658246449 A 158.75523365364347 158.75523365364347 0 0 1 102.48693400544234,-6.996171290627085 L 101.7854673515482,-4.079333185165185 L 109.40980069383579,-5.845555449117762 L 103.42222287730117,-10.885288764576286 L 102.72075622340704,-7.968450659114385 A 159.75523365364347 159.75523365364347 0 0 0 83.2218893594273,-11.396000199405876"/><text text-anchor="middle" pointer-events="none" font-size="8px" fill="#000000" x="63.312706066996206" y="-8.883723823691241" font-family="sans-serif">FOLLOW</text></g><g class="relationship" transform="translate(5.284845107549003 149.95636939155685) rotate(237.91585296268272)"><path class="outline" fill="#A5ABB6" stroke="none" d="M 24.018736134675446,-6.953439040707552 L 24.277555179777966,-5.987513214418485 A 158.75523365364347 158.75523365364347 0 0 1 43.56008112397146,-9.89219313875563 L 43.422722804921364,-10.882714563151751 A 159.75523365364347 159.75523365364347 0 0 0 24.018736134675446,-6.953439040707552 Z M 83.2218893594273,-11.396000199405876 L 83.11012177728287,-10.4022658246449 A 158.75523365364347 158.75523365364347 0 0 1 102.48693400544234,-6.996171290627085 L 101.7854673515482,-4.079333185165185 L 109.40980069383579,-5.845555449117762 L 103.42222287730117,-10.885288764576286 L 102.72075622340704,-7.968450659114385 A 159.75523365364347 159.75523365364347 0 0 0 83.2218893594273,-11.396000199405876"/><text text-anchor="middle" pointer-events="none" font-size="8px" fill="#000000" x="63.312706066996206" y="-8.883723823691241" transform="rotate(180 63.312706066996206 -11.883723823691241)" font-family="sans-serif">FOLLOW</text></g><g class="relationship" transform="translate(5.284845107549003 149.95636939155685) rotate(537.5306352418966)"><path class="outline" fill="#A5ABB6" stroke="none" d="M 24.018736134675446,-6.953439040707552 L 24.277555179777966,-5.987513214418485 A 177.34144623618607 177.34144623618607 0 0 1 48.25515704330046,-10.670152484751583 L 48.13154385318792,-11.66248296358927 A 178.34144623618607 178.34144623618607 0 0 0 24.018736134675446,-6.953439040707552 Z M 87.93861126563988,-12.143593533105644 L 87.83901740964754,-11.148565360716248 A 177.34144623618607 177.34144623618607 0 0 1 111.92278812269097,-7.046798679978075 L 111.21659298235082,-4.131101778076243 L 118.84378008385195,-5.884959502834677 L 112.86438164314453,-10.934394549180517 L 112.15818650280437,-8.018697647278685 A 178.34144623618607 178.34144623618607 0 0 0 87.93861126563988,-12.143593533105644"/><text text-anchor="middle" pointer-events="none" font-size="8px" fill="#000000" x="68.02765368875127" y="-9.51728898124125" transform="rotate(180 68.02765368875127 -12.51728898124125)" font-family="sans-serif">FOLLOW</text></g><g class="relationship" transform="translate(68.63346086588139 72.59656649260697) rotate(339.7837339327367)"><path class="outline" fill="#A5ABB6" stroke="none" d="M 25 0.5 L 41.44630483944803 0.5 L 41.44630483944803 -0.5 L 25 -0.5 Z M 81.22755483944803 0.5 L 97.67385967889606 0.5 L 97.67385967889606 3.5 L 104.67385967889606 0 L 97.67385967889606 -3.5 L 97.67385967889606 -0.5 L 81.22755483944803 -0.5 Z"/><text text-anchor="middle" pointer-events="none" font-size="8px" fill="#000000" x="61.33692983944803" y="3" font-family="sans-serif">FOLLOW</text></g><g class="relationship" transform="translate(190.31875671554295 27.785868461864723) rotate(429.7652818241642)"><path class="outline" fill="#A5ABB6" stroke="none" d="M 24.018736134675446,-6.953439040707552 L 24.277555179777966,-5.987513214418485 A 139.2846581292432 139.2846581292432 0 0 1 38.66435318548423,-9.038625859627956 L 38.508824755435356,-10.026457276139155 A 140.2846581292432 140.2846581292432 0 0 0 24.018736134675446,-6.953439040707552 Z M 78.29395267051848,-10.578217121543076 L 78.16587825727976,-9.586452560433145 A 139.2846581292432 139.2846581292432 0 0 1 92.63175555989092,-6.935483096906694 L 91.93595721570368,-4.017287650363352 L 99.55684465918992,-5.798319534893685 L 93.55948668547391,-10.826410358964482 L 92.86368834128668,-7.9082149124211405 A 140.2846581292432 140.2846581292432 0 0 0 78.29395267051848,-10.578217121543076"/><text text-anchor="middle" pointer-events="none" font-size="8px" fill="#000000" x="58.38866097331544" y="-8.220082037868167" font-family="sans-serif">FOLLOW</text></g><g class="relationship" transform="translate(233.16305650383163 144.0158830765406) rotate(249.76528182416422)"><path class="outline" fill="#A5ABB6" stroke="none" d="M 24.018736134675446,-6.953439040707552 L 24.277555179777966,-5.987513214418485 A 139.2846581292432 139.2846581292432 0 0 1 38.66435318548423,-9.038625859627956 L 38.508824755435356,-10.026457276139155 A 140.2846581292432 140.2846581292432 0 0 0 24.018736134675446,-6.953439040707552 Z M 78.29395267051848,-10.578217121543076 L 78.16587825727976,-9.586452560433145 A 139.2846581292432 139.2846581292432 0 0 1 92.63175555989092,-6.935483096906694 L 91.93595721570368,-4.017287650363352 L 99.55684465918992,-5.798319534893685 L 93.55948668547391,-10.826410358964482 L 92.86368834128668,-7.9082149124211405 A 140.2846581292432 140.2846581292432 0 0 0 78.29395267051848,-10.578217121543076"/><text text-anchor="middle" pointer-events="none" font-size="8px" fill="#000000" x="58.38866097331544" y="-8.220082037868167" transform="rotate(180 58.38866097331544 -11.220082037868167)" font-family="sans-serif">FOLLOW</text></g><g class="relationship" transform="translate(-137.72348839637678 156.12363956390732) rotate(357.53063524189656)"><path class="outline" fill="#A5ABB6" stroke="none" d="M 24.018736134675446,-6.953439040707552 L 24.277555179777966,-5.987513214418485 A 177.34144623618607 177.34144623618607 0 0 1 48.25515704330046,-10.670152484751583 L 48.13154385318792,-11.66248296358927 A 178.34144623618607 178.34144623618607 0 0 0 24.018736134675446,-6.953439040707552 Z M 87.93861126563988,-12.143593533105644 L 87.83901740964754,-11.148565360716248 A 177.34144623618607 177.34144623618607 0 0 1 111.92278812269097,-7.046798679978075 L 111.21659298235082,-4.131101778076243 L 118.84378008385195,-5.884959502834677 L 112.86438164314453,-10.934394549180517 L 112.15818650280437,-8.018697647278685 A 178.34144623618607 178.34144623618607 0 0 0 87.93861126563988,-12.143593533105644"/><text text-anchor="middle" pointer-events="none" font-size="8px" fill="#000000" x="68.02765368875127" y="-9.51728898124125" font-family="sans-serif">FOLLOW</text></g><g class="relationship" transform="translate(-137.72348839637678 156.12363956390732) rotate(301.07153468844035)"><path class="outline" fill="#A5ABB6" stroke="none" d="M 24.018736134675446,-6.953439040707552 L 24.277555179777966,-5.987513214418485 A 170.11198266978067 170.11198266978067 0 0 1 46.4267576687668,-10.371082051451083 L 46.29814228210958,-11.362776602366324 A 171.11198266978067 171.11198266978067 0 0 0 24.018736134675446,-6.953439040707552 Z M 86.1026021690393,-11.855925645269053 L 85.99859527369219,-10.86134906917232 A 170.11198266978067 170.11198266978067 0 0 1 108.24960119458133,-7.027867341579481 L 107.54517418468775,-4.111742757866983 L 115.17129639155942,-5.870225082446538 L 109.18883720777278,-10.916033453196144 L 108.4844101978792,-7.999908869483646 A 171.11198266978067 171.11198266978067 0 0 0 86.1026021690393,-11.855925645269053"/><text text-anchor="middle" pointer-events="none" font-size="8px" fill="#000000" x="66.19217677337657" y="-9.270845965914958" font-family="sans-serif">FOLLOW</text></g></g><g class="layer nodes"><g class="node" transform="translate(-65.74072023889276,36.662293496915765)"><circle class="outline" cx="0" cy="0" r="25" fill="#A5ABB6" stroke="#9AA1AC" stroke-width="2px"/><text text-anchor="middle" pointer-events="none" font-family="sans-serif" dy="1.5625" font-size="25" fill="#FFFFFF"/><text text-anchor="middle" pointer-events="none" y="5" font-size="10px" fill="#FFFFFF" font-family="sans-serif"> Alice</text></g><g class="node" transform="translate(5.284845107549003,149.95636939155685)"><circle class="outline" cx="0" cy="0" r="25" fill="#A5ABB6" stroke="#9AA1AC" stroke-width="2px"/><text text-anchor="middle" pointer-events="none" font-family="sans-serif" dy="1.5625" font-size="25" fill="#FFFFFF"/><text text-anchor="middle" pointer-events="none" y="5" font-size="10px" fill="#FFFFFF" font-family="sans-serif"> Bridget</text></g><g class="node" transform="translate(68.63346086588139,72.59656649260697)"><circle class="outline" cx="0" cy="0" r="25" fill="#A5ABB6" stroke="#9AA1AC" stroke-width="2px"/><text text-anchor="middle" pointer-events="none" font-family="sans-serif" dy="1.5625" font-size="25" fill="#FFFFFF"/><text text-anchor="middle" pointer-events="none" y="5" font-size="10px" fill="#FFFFFF" font-family="sans-serif"> Charles</text></g><g class="node" transform="translate(190.31875671554295,27.785868461864723)"><circle class="outline" cx="0" cy="0" r="25" fill="#A5ABB6" stroke="#9AA1AC" stroke-width="2px"/><text text-anchor="middle" pointer-events="none" font-family="sans-serif" dy="1.5625" font-size="25" fill="#FFFFFF"/><text text-anchor="middle" pointer-events="none" y="5" font-size="10px" fill="#FFFFFF" font-family="sans-serif"> Doug</text></g><g class="node" transform="translate(233.16305650383163,144.0158830765406)"><circle class="outline" cx="0" cy="0" r="25" fill="#A5ABB6" stroke="#9AA1AC" stroke-width="2px"/><text text-anchor="middle" pointer-events="none" font-family="sans-serif" dy="1.5625" font-size="25" fill="#FFFFFF"/><text text-anchor="middle" pointer-events="none" y="5" font-size="10px" fill="#FFFFFF" font-family="sans-serif"> Mark</text></g><g class="node" transform="translate(-137.72348839637678,156.12363956390732)"><circle class="outline" cx="0" cy="0" r="25" fill="#A5ABB6" stroke="#9AA1AC" stroke-width="2px"/><text text-anchor="middle" pointer-events="none" font-family="sans-serif" dy="1.5625" font-size="25" fill="#FFFFFF"/><text text-anchor="middle" pointer-events="none" y="5" font-size="10px" fill="#FFFFFF" font-family="sans-serif"> Michael</text></g></g></svg>