<svg xmlns="http://www.w3.org/2000/svg" width="500.8039855957031" height="401.50543212890625" viewBox="-417.8928527832031 -192.98829650878906 500.8039855957031 401.50543212890625"><title>Neo4j Graph Visualization</title><desc>Created using Neo4j (http://www.neo4j.com/)</desc><g class="layer relationships"><g class="relationship" transform="translate(-195.6452212909352 -120.50124700692317) rotate(442.0924261637143)"><path class="b-outline" fill="#A5ABB6" stroke="none" d="M 25 0.5 L 129.83794298880204 0.5 L 129.83794298880204 -0.5 L 25 -0.5 Z M 166.06059923880204 0.5 L 270.8985422276041 0.5 L 270.8985422276041 3.5 L 277.8985422276041 0 L 270.8985422276041 -3.5 L 270.8985422276041 -0.5 L 166.06059923880204 -0.5 Z"/><text text-anchor="middle" pointer-events="none" font-size="8px" fill="#000000" x="147.94927111380204" y="3" font-family="Helvetica Neue, Helvetica, Arial, sans-serif">KNOWS</text></g><g class="relationship" transform="translate(-195.6452212909352 -120.50124700692317) rotate(498.1462281680471)"><path class="b-outline" fill="#A5ABB6" stroke="none" d="M 24.018736134675446,-6.953439040707552 L 24.277555179777966,-5.987513214418485 A 404.4369475545372 404.4369475545372 0 0 1 111.66768794668386,-19.39879588084733 L 111.62494741096411,-20.397882086640607 A 405.4369475545372 405.4369475545372 0 0 0 24.018736134675446,-6.953439040707552 Z M 140.76722405581594,-20.596216994691986 L 140.7380859015923,-19.59664160085299 A 404.4369475545372 404.4369475545372 0 0 1 228.30266263105986,-7.376056100743813 L 227.56571866378565,-4.467978799656695 L 235.21100032814218,-6.14119972728516 L 229.2852545874255,-11.253492502193303 L 228.54831062015128,-8.345415201106185 A 405.4369475545372 405.4369475545372 0 0 0 140.76722405581594,-20.596216994691986"/><text text-anchor="middle" pointer-events="none" font-size="8px" fill="#000000" x="126.19770590338491" y="-17.258990377674877" transform="rotate(180 126.19770590338491 -20.258990377674877)" font-family="Helvetica Neue, Helvetica, Arial, sans-serif">BORN</text></g><g class="relationship" transform="translate(-195.6452212909352 -120.50124700692317) rotate(498.1462281680471)"><path class="b-outline" fill="#A5ABB6" stroke="none" d="M 24.018736134675446,6.953439040707552 L 24.277555179777966,5.987513214418485 A 404.4369475545372 404.4369475545372 0 0 0 111.88402173347401,19.40799254348741 L 111.84181609890042,20.407101488703233 A 405.4369475545372 405.4369475545372 0 0 1 24.018736134675446,6.953439040707552 Z M 140.55024997287987,20.60248377341918 L 140.5216469797565,19.602892922728586 A 404.4369475545372 404.4369475545372 0 0 0 228.30266263105986,7.376056100743813 L 227.56571866378565,4.467978799656695 L 235.21100032814218,6.14119972728516 L 229.2852545874255,11.253492502193303 L 228.54831062015128,8.345415201106185 A 405.4369475545372 405.4369475545372 0 0 1 140.55024997287987,20.60248377341918"/><text text-anchor="middle" pointer-events="none" font-size="8px" fill="#000000" x="126.19770590338496" y="23.258990377674877" transform="rotate(180 126.19770590338496 20.258990377674877)" font-family="Helvetica Neue, Helvetica, Arial, sans-serif">LIVES</text></g><g class="relationship" transform="translate(-195.6452212909352 -120.50124700692317) rotate(537.3175566832451)"><path class="b-outline" fill="#A5ABB6" stroke="none" d="M 25 0.5 L 63.33543334202267 0.5 L 63.33543334202267 -0.5 L 25 -0.5 Z M 99.55808959202267 0.5 L 137.89352293404534 0.5 L 137.89352293404534 3.5 L 144.89352293404534 0 L 137.89352293404534 -3.5 L 137.89352293404534 -0.5 L 99.55808959202267 -0.5 Z"/><text text-anchor="middle" pointer-events="none" font-size="8px" fill="#000000" x="81.44676146702267" y="3" transform="rotate(180 81.44676146702267 0)" font-family="Helvetica Neue, Helvetica, Arial, sans-serif">KNOWS</text></g><g class="relationship" transform="translate(-195.6452212909352 -120.50124700692317) rotate(421.1624749139729)"><path class="b-outline" fill="#A5ABB6" stroke="none" d="M 25 0.5 L 74.31725854315478 0.5 L 74.31725854315478 -0.5 L 25 -0.5 Z M 110.53991479315478 0.5 L 159.85717333630956 0.5 L 159.85717333630956 3.5 L 166.85717333630956 0 L 159.85717333630956 -3.5 L 159.85717333630956 -0.5 L 110.53991479315478 -0.5 Z"/><text text-anchor="middle" pointer-events="none" font-size="8px" fill="#000000" x="92.42858666815478" y="3" font-family="Helvetica Neue, Helvetica, Arial, sans-serif">KNOWS</text></g><g class="relationship" transform="translate(-153.97380935327413 179.5171196154045) rotate(330.79832533289766)"><path class="b-outline" fill="#A5ABB6" stroke="none" d="M 25 0.5 L 101.0194789184756 0.5 L 101.0194789184756 -0.5 L 25 -0.5 Z M 130.1327601684756 0.5 L 206.1522390869512 0.5 L 206.1522390869512 3.5 L 213.1522390869512 0 L 206.1522390869512 -3.5 L 206.1522390869512 -0.5 L 130.1327601684756 -0.5 Z"/><text text-anchor="middle" pointer-events="none" font-size="8px" fill="#000000" x="115.5761195434756" y="3" font-family="Helvetica Neue, Helvetica, Arial, sans-serif">BORN</text></g><g class="relationship" transform="translate(-153.97380935327413 179.5171196154045) rotate(208.37889217170726)"><path class="b-outline" fill="#A5ABB6" stroke="none" d="M 25 0.5 L 115.66362370240228 0.5 L 115.66362370240228 -0.5 L 25 -0.5 Z M 144.34331120240228 0.5 L 235.00693490480455 0.5 L 235.00693490480455 3.5 L 242.00693490480455 0 L 235.00693490480455 -3.5 L 235.00693490480455 -0.5 L 144.34331120240228 -0.5 Z"/><text text-anchor="middle" pointer-events="none" font-size="8px" fill="#000000" x="130.00346745240228" y="3" transform="rotate(180 130.00346745240228 0)" font-family="Helvetica Neue, Helvetica, Arial, sans-serif">LIVES</text></g><g class="relationship" transform="translate(-153.97380935327413 179.5171196154045) rotate(359.7526022969937)"><path class="b-outline" fill="#A5ABB6" stroke="none" d="M 25 0.5 L 65.4413200185746 0.5 L 65.4413200185746 -0.5 L 25 -0.5 Z M 101.6639762685746 0.5 L 142.1052962871492 0.5 L 142.1052962871492 3.5 L 149.1052962871492 0 L 142.1052962871492 -3.5 L 142.1052962871492 -0.5 L 101.6639762685746 -0.5 Z"/><text text-anchor="middle" pointer-events="none" font-size="8px" fill="#000000" x="83.5526481435746" y="3" font-family="Helvetica Neue, Helvetica, Arial, sans-serif">KNOWS</text></g><g class="relationship" transform="translate(-103.10723132510364 47.5639051623543) rotate(538.9886998167646)"><path class="b-outline" fill="#A5ABB6" stroke="none" d="M 25 0.5 L 124.85842893700473 0.5 L 124.85842893700473 -0.5 L 25 -0.5 Z M 153.97171018700473 0.5 L 253.83013912400946 0.5 L 253.83013912400946 3.5 L 260.83013912400946 0 L 253.83013912400946 -3.5 L 253.83013912400946 -0.5 L 153.97171018700473 -0.5 Z"/><text text-anchor="middle" pointer-events="none" font-size="8px" fill="#000000" x="139.41506956200473" y="3" transform="rotate(180 139.41506956200473 0)" font-family="Helvetica Neue, Helvetica, Arial, sans-serif">BORN</text></g><g class="relationship" transform="translate(-103.10723132510364 47.5639051623543) rotate(365.7324250675696)"><path class="b-outline" fill="#A5ABB6" stroke="none" d="M 25 0.5 L 61.06392457889166 0.5 L 61.06392457889166 -0.5 L 25 -0.5 Z M 89.74361207889166 0.5 L 125.80753665778332 0.5 L 125.80753665778332 3.5 L 132.80753665778332 0 L 125.80753665778332 -3.5 L 125.80753665778332 -0.5 L 89.74361207889166 -0.5 Z"/><text text-anchor="middle" pointer-events="none" font-size="8px" fill="#000000" x="75.40376832889166" y="3" font-family="Helvetica Neue, Helvetica, Arial, sans-serif">LIVES</text></g><g class="relationship" transform="translate(-103.10723132510364 47.5639051623543) rotate(471.08112711470204)"><path class="b-outline" fill="#A5ABB6" stroke="none" d="M 25 0.5 L 49.097687503823124 0.5 L 49.097687503823124 -0.5 L 25 -0.5 Z M 85.32034375382312 0.5 L 109.41803125764625 0.5 L 109.41803125764625 3.5 L 116.41803125764625 0 L 109.41803125764625 -3.5 L 109.41803125764625 -0.5 L 85.32034375382312 -0.5 Z"/><text text-anchor="middle" pointer-events="none" font-size="8px" fill="#000000" x="67.20901562882312" y="3" transform="rotate(180 67.20901562882312 0)" font-family="Helvetica Neue, Helvetica, Arial, sans-serif">KNOWS</text></g><g class="relationship" transform="translate(-4.004154259190369 -71.10771902848678) rotate(426.6931999345645)"><path class="b-outline" fill="#A5ABB6" stroke="none" d="M 24.018736134675446,-6.953439040707552 L 24.277555179777966,-5.987513214418485 A 183.71433312268053 183.71433312268053 0 0 1 55.158798703624846,-11.489782545938453 L 55.06807347569458,-12.485658508605013 A 184.71433312268053 184.71433312268053 0 0 0 24.018736134675446,-6.953439040707552 Z M 84.22796343031526,-12.83063673304494 L 84.16082386528842,-11.832893139325591 A 183.71433312268053 183.71433312268053 0 0 1 115.1635959539919,-7.062747209521325 L 114.4559112823531,-4.147411481765861 L 122.08399343069445,-5.897372263656692 L 116.10717551617697,-10.949861513195277 L 115.39949084453816,-8.034525785439813 A 184.71433312268053 184.71433312268053 0 0 0 84.22796343031526,-12.83063673304494"/><text text-anchor="middle" pointer-events="none" font-size="8px" fill="#000000" x="69.64711472140259" y="-9.734537120814508" font-family="Helvetica Neue, Helvetica, Arial, sans-serif">BORN</text></g><g class="relationship" transform="translate(-4.004154259190369 -71.10771902848678) rotate(426.6931999345645)"><path class="b-outline" fill="#A5ABB6" stroke="none" d="M 24.018736134675446,6.953439040707552 L 24.277555179777966,5.987513214418485 A 183.71433312268053 183.71433312268053 0 0 0 55.37412698325906,11.509271401031896 L 55.28457383741936,12.505253446086016 A 184.71433312268053 184.71433312268053 0 0 1 24.018736134675446,6.953439040707552 Z M 84.01106009014363,12.84510425612973 L 83.94509478883799,11.847282338639616 A 183.71433312268053 183.71433312268053 0 0 0 115.1635959539919,7.062747209521325 L 114.4559112823531,4.147411481765861 L 122.08399343069445,5.897372263656692 L 116.10717551617697,10.949861513195277 L 115.39949084453816,8.034525785439813 A 184.71433312268053 184.71433312268053 0 0 1 84.01106009014363,12.84510425612973"/><text text-anchor="middle" pointer-events="none" font-size="8px" fill="#000000" x="69.64711472140263" y="15.734537120814508" font-family="Helvetica Neue, Helvetica, Arial, sans-serif">LIVES</text></g><g class="relationship" transform="translate(-4.004154259190369 -71.10771902848678) rotate(489.8653719372079)"><path class="b-outline" fill="#A5ABB6" stroke="none" d="M 25 0.5 L 55.69386942345815 0.5 L 55.69386942345815 -0.5 L 25 -0.5 Z M 91.91652567345815 0.5 L 122.6103950969163 0.5 L 122.6103950969163 3.5 L 129.6103950969163 0 L 122.6103950969163 -3.5 L 122.6103950969163 -0.5 L 91.91652567345815 -0.5 Z"/><text text-anchor="middle" pointer-events="none" font-size="8px" fill="#000000" x="73.80519754845815" y="3" transform="rotate(180 73.80519754845815 0)" font-family="Helvetica Neue, Helvetica, Arial, sans-serif">KNOWS</text></g><g class="relationship" transform="translate(-4.004154259190369 -71.10771902848678) rotate(194.45284888822994)"><path class="b-outline" fill="#A5ABB6" stroke="none" d="M 25 0.5 L 77.34070467274285 0.5 L 77.34070467274285 -0.5 L 25 -0.5 Z M 113.56336092274285 0.5 L 165.9040655954857 0.5 L 165.9040655954857 3.5 L 172.9040655954857 0 L 165.9040655954857 -3.5 L 165.9040655954857 -0.5 L 113.56336092274285 -0.5 Z"/><text text-anchor="middle" pointer-events="none" font-size="8px" fill="#000000" x="95.45203279774285" y="3" transform="rotate(180 95.45203279774285 0)" font-family="Helvetica Neue, Helvetica, Arial, sans-serif">KNOWS</text></g><g class="relationship" transform="translate(-76.66520091625434 -163.98829596007494) rotate(411.96370929577506)"><path class="b-outline" fill="#A5ABB6" stroke="none" d="M 25 0.5 L 37.351434005951546 0.5 L 37.351434005951546 -0.5 L 25 -0.5 Z M 73.57409025595155 0.5 L 85.92552426190309 0.5 L 85.92552426190309 3.5 L 92.92552426190309 0 L 85.92552426190309 -3.5 L 85.92552426190309 -0.5 L 73.57409025595155 -0.5 Z"/><text text-anchor="middle" pointer-events="none" font-size="8px" fill="#000000" x="55.462762130951546" y="3" font-family="Helvetica Neue, Helvetica, Arial, sans-serif">KNOWS</text></g><g class="relationship" transform="translate(-76.66520091625434 -163.98829596007494) rotate(519.922705041189)"><path class="b-outline" fill="#A5ABB6" stroke="none" d="M 25 0.5 L 41.72777645308291 0.5 L 41.72777645308291 -0.5 L 25 -0.5 Z M 77.95043270308291 0.5 L 94.67820915616582 0.5 L 94.67820915616582 3.5 L 101.67820915616582 0 L 94.67820915616582 -3.5 L 94.67820915616582 -0.5 L 77.95043270308291 -0.5 Z"/><text text-anchor="middle" pointer-events="none" font-size="8px" fill="#000000" x="59.83910457808291" y="3" transform="rotate(180 59.83910457808291 0)" font-family="Helvetica Neue, Helvetica, Arial, sans-serif">KNOWS</text></g><g class="relationship" transform="translate(-365.3525855236345 -112.55016782665282) rotate(458.1117902012043)"><path class="b-outline" fill="#A5ABB6" stroke="none" d="M 25 0.5 L 65.35737696449105 0.5 L 65.35737696449105 -0.5 L 25 -0.5 Z M 94.47065821449105 0.5 L 134.8280351789821 0.5 L 134.8280351789821 3.5 L 141.8280351789821 0 L 134.8280351789821 -3.5 L 134.8280351789821 -0.5 L 94.47065821449105 -0.5 Z"/><text text-anchor="middle" pointer-events="none" font-size="8px" fill="#000000" x="79.91401758949105" y="3" transform="rotate(180 79.91401758949105 0)" font-family="Helvetica Neue, Helvetica, Arial, sans-serif">BORN</text></g><g class="relationship" transform="translate(-365.3525855236345 -112.55016782665282) rotate(391.4061795632732)"><path class="b-outline" fill="#A5ABB6" stroke="none" d="M 25 0.5 L 132.01902545774908 0.5 L 132.01902545774908 -0.5 L 25 -0.5 Z M 168.24168170774908 0.5 L 275.26070716549816 0.5 L 275.26070716549816 3.5 L 282.26070716549816 0 L 275.26070716549816 -3.5 L 275.26070716549816 -0.5 L 168.24168170774908 -0.5 Z"/><text text-anchor="middle" pointer-events="none" font-size="8px" fill="#000000" x="150.13035358274908" y="3" font-family="Helvetica Neue, Helvetica, Arial, sans-serif">KNOWS</text></g><g class="relationship" transform="translate(20.129863900787967 178.7653519127262) rotate(286.3112014264273)"><path class="b-outline" fill="#A5ABB6" stroke="none" d="M 25 0.5 L 42.083567886946504 0.5 L 42.083567886946504 -0.5 L 25 -0.5 Z M 71.1968491369465 0.5 L 88.28041702389301 0.5 L 88.28041702389301 3.5 L 95.28041702389301 0 L 88.28041702389301 -3.5 L 88.28041702389301 -0.5 L 71.1968491369465 -0.5 Z"/><text text-anchor="middle" pointer-events="none" font-size="8px" fill="#000000" x="56.640208511946504" y="3" font-family="Helvetica Neue, Helvetica, Arial, sans-serif">BORN</text></g><g class="relationship" transform="translate(20.129863900787967 178.7653519127262) rotate(226.79286824398304)"><path class="b-outline" fill="#A5ABB6" stroke="none" d="M 25 0.5 L 68.39034028884963 0.5 L 68.39034028884963 -0.5 L 25 -0.5 Z M 104.61299653884963 0.5 L 148.00333682769926 0.5 L 148.00333682769926 3.5 L 155.00333682769926 0 L 148.00333682769926 -3.5 L 148.00333682769926 -0.5 L 104.61299653884963 -0.5 Z"/><text text-anchor="middle" pointer-events="none" font-size="8px" fill="#000000" x="86.50166841384963" y="3" transform="rotate(180 86.50166841384963 0)" font-family="Helvetica Neue, Helvetica, Arial, sans-serif">KNOWS</text></g><g class="relationship" transform="translate(-262.1980642335378 179.20547678863238) rotate(282.5199442953143)"><path class="b-outline" fill="#A5ABB6" stroke="none" d="M 25 0.5 L 131.89225586573957 0.5 L 131.89225586573957 -0.5 L 25 -0.5 Z M 168.11491211573957 0.5 L 275.00716798147914 0.5 L 275.00716798147914 3.5 L 282.00716798147914 0 L 275.00716798147914 -3.5 L 275.00716798147914 -0.5 L 168.11491211573957 -0.5 Z"/><text text-anchor="middle" pointer-events="none" font-size="8px" fill="#000000" x="150.00358399073957" y="3" font-family="Helvetica Neue, Helvetica, Arial, sans-serif">KNOWS</text></g><g class="relationship" transform="translate(-262.1980642335378 179.20547678863238) rotate(224.97783194585156)"><path class="b-outline" fill="#A5ABB6" stroke="none" d="M 24.018736134675446,-6.953439040707552 L 24.277555179777966,-5.987513214418485 A 247.89778167399922 247.89778167399922 0 0 1 71.5077548597566,-13.855606557546679 L 71.43945869614598,-14.853271648664986 A 248.89778167399922 248.89778167399922 0 0 0 24.018736134675446,-6.953439040707552 Z M 100.59326290013732,-15.137449548916237 L 100.54442742839181,-14.138642712386087 A 247.89778167399922 247.89778167399922 0 0 1 147.9190273995564,-7.192713527679117 L 147.19920484186082,-4.280351001235582 L 154.83451038754058,-5.998521314129982 L 148.8787908098172,-11.075863562937164 L 148.1589682521216,-8.163501036493628 A 248.89778167399922 248.89778167399922 0 0 0 100.59326290013732,-15.137449548916237"/><text text-anchor="middle" pointer-events="none" font-size="8px" fill="#000000" x="86.01706978719423" y="-11.922625428310283" transform="rotate(180 86.01706978719423 -14.922625428310283)" font-family="Helvetica Neue, Helvetica, Arial, sans-serif">BORN</text></g><g class="relationship" transform="translate(-262.1980642335378 179.20547678863238) rotate(224.97783194585156)"><path class="b-outline" fill="#A5ABB6" stroke="none" d="M 24.018736134675446,6.953439040707552 L 24.277555179777966,5.987513214418485 A 247.89778167399922 247.89778167399922 0 0 0 71.72361658317759,13.87028894951547 L 71.65619118864753,14.868013268239054 A 248.89778167399922 248.89778167399922 0 0 1 24.018736134675446,6.953439040707552 Z M 100.37628422742821,15.14796355114808 L 100.32832051384483,14.14911447236824 A 247.89778167399922 247.89778167399922 0 0 0 147.9190273995564,7.192713527679117 L 147.19920484186082,4.280351001235582 L 154.83451038754058,5.998521314129982 L 148.8787908098172,11.075863562937164 L 148.1589682521216,8.163501036493628 A 248.89778167399922 248.89778167399922 0 0 1 100.37628422742821,15.14796355114808"/><text text-anchor="middle" pointer-events="none" font-size="8px" fill="#000000" x="86.01706978719429" y="17.922625428310283" transform="rotate(180 86.01706978719429 14.922625428310283)" font-family="Helvetica Neue, Helvetica, Arial, sans-serif">LIVES</text></g></g><g class="layer nodes"><g class="node" aria-label="graph-node0" transform="translate(-195.6452212909352,-120.50124700692317)"><circle class="b-outline" cx="0" cy="0" r="25" fill="#C990C0" stroke="#b261a5" stroke-width="2px"/><text class="caption" text-anchor="middle" pointer-events="none" x="0" y="5" font-size="10px" fill="#FFFFFF" font-family="Helvetica Neue, Helvetica, Arial, sans-serif"> Michael</text></g><g class="node" aria-label="graph-node1" transform="translate(-153.97380935327413,179.5171196154045)"><circle class="b-outline" cx="0" cy="0" r="25" fill="#C990C0" stroke="#b261a5" stroke-width="2px"/><text class="caption" text-anchor="middle" pointer-events="none" x="0" y="5" font-size="10px" fill="#FFFFFF" font-family="Helvetica Neue, Helvetica, Arial, sans-serif"> Karin</text></g><g class="node" aria-label="graph-node2" transform="translate(-103.10723132510364,47.5639051623543)"><circle class="b-outline" cx="0" cy="0" r="25" fill="#C990C0" stroke="#b261a5" stroke-width="2px"/><text class="caption" text-anchor="middle" pointer-events="none" x="0" y="5" font-size="10px" fill="#FFFFFF" font-family="Helvetica Neue, Helvetica, Arial, sans-serif"> Chris</text></g><g class="node" aria-label="graph-node3" transform="translate(-4.004154259190369,-71.10771902848678)"><circle class="b-outline" cx="0" cy="0" r="25" fill="#C990C0" stroke="#b261a5" stroke-width="2px"/><text class="caption" text-anchor="middle" pointer-events="none" x="0" y="5" font-size="10px" fill="#FFFFFF" font-family="Helvetica Neue, Helvetica, Arial, sans-serif"> Will</text></g><g class="node" aria-label="graph-node4" transform="translate(-76.66520091625434,-163.98829596007494)"><circle class="b-outline" cx="0" cy="0" r="25" fill="#C990C0" stroke="#b261a5" stroke-width="2px"/><text class="caption" text-anchor="middle" pointer-events="none" x="0" y="5" font-size="10px" fill="#FFFFFF" font-family="Helvetica Neue, Helvetica, Arial, sans-serif"> Mark</text></g><g class="node" aria-label="graph-node5" transform="translate(-365.3525855236345,-112.55016782665282)"><circle class="b-outline" cx="0" cy="0" r="25" fill="#C990C0" stroke="#b261a5" stroke-width="2px"/><text class="caption" text-anchor="middle" pointer-events="none" x="0" y="5" font-size="10px" fill="#FFFFFF" font-family="Helvetica Neue, Helvetica, Arial, sans-serif"> Greg</text></g><g class="node" aria-label="graph-node6" transform="translate(20.129863900787967,178.7653519127262)"><circle class="b-outline" cx="0" cy="0" r="25" fill="#C990C0" stroke="#b261a5" stroke-width="2px"/><text class="caption" text-anchor="middle" pointer-events="none" x="0" y="5" font-size="10px" fill="#FFFFFF" font-family="Helvetica Neue, Helvetica, Arial, sans-serif"> Veselin</text></g><g class="node" aria-label="graph-node7" transform="translate(-388.89284773234874,52.60869320364331)"><circle class="b-outline" cx="0" cy="0" r="25" fill="#F79767" stroke="#f36924" stroke-width="2px"/><text class="caption" text-anchor="middle" pointer-events="none" x="0" y="5" font-size="10px" fill="#FFFFFF" font-family="Helvetica Neue, Helvetica, Arial, sans-serif"> London</text></g><g class="node" aria-label="graph-node8" transform="translate(53.91114190393661,63.32617322578476)"><circle class="b-outline" cx="0" cy="0" r="25" fill="#F79767" stroke="#f36924" stroke-width="2px"/><text class="caption" text-anchor="middle" pointer-events="none" x="0" y="5" font-size="10px" fill="#FFFFFF" font-family="Helvetica Neue, Helvetica, Arial, sans-serif"> Malmo</text></g><g class="node" aria-label="graph-node12" transform="translate(-262.1980642335378,179.20547678863238)"><circle class="b-outline" cx="0" cy="0" r="25" fill="#C990C0" stroke="#b261a5" stroke-width="2px"/><text class="caption" text-anchor="middle" pointer-events="none" x="0" y="5" font-size="10px" fill="#FFFFFF" font-family="Helvetica Neue, Helvetica, Arial, sans-serif"> Alice</text></g></g></svg>