<svg xmlns="http://www.w3.org/2000/svg" width="463.214111328125" height="278.00018310546875" viewBox="-81.46825408935547 -64.0039291381836 463.214111328125 278.00018310546875"><title>Neo4j Graph Visualization</title><desc>Created using Neo4j (http://www.neo4j.com/)</desc><g class="layer relationships"><g class="relationship" transform="translate(24.015728776269896 184.99624020635207) rotate(331.54324648034105)"><path class="outline" fill="#A5ABB6" stroke="none" d="M 25 0.5 L 37.168378167253024 0.5 L 37.168378167253024 -0.5 L 25 -0.5 Z M 73.39103441725302 0.5 L 85.55941258450605 0.5 L 85.55941258450605 3.5 L 92.55941258450605 0 L 85.55941258450605 -3.5 L 85.55941258450605 -0.5 L 73.39103441725302 -0.5 Z"/><text text-anchor="middle" pointer-events="none" font-size="8px" fill="#000000" x="55.279706292253024" y="3" font-family="sans-serif">KNOWS</text></g><g class="relationship" transform="translate(127.37126264164857 128.97973275884442) rotate(338.2093809439018)"><path class="outline" fill="#A5ABB6" stroke="none" d="M 25 0.5 L 27.349904770719142 0.5 L 27.349904770719142 -0.5 L 25 -0.5 Z M 63.57256102071914 0.5 L 65.92246579143828 0.5 L 65.92246579143828 3.5 L 72.92246579143828 0 L 65.92246579143828 -3.5 L 65.92246579143828 -0.5 L 63.57256102071914 -0.5 Z"/><text text-anchor="middle" pointer-events="none" font-size="8px" fill="#000000" x="45.46123289571914" y="3" font-family="sans-serif">KNOWS</text></g><g class="relationship" transform="translate(127.37126264164857 128.97973275884442) rotate(277.07579350278627)"><path class="outline" fill="#A5ABB6" stroke="none" d="M 25 0.5 L 47.093186309750195 0.5 L 47.093186309750195 -0.5 L 25 -0.5 Z M 83.3158425597502 0.5 L 105.40902886950039 0.5 L 105.40902886950039 3.5 L 112.40902886950039 0 L 105.40902886950039 -3.5 L 105.40902886950039 -0.5 L 83.3158425597502 -0.5 Z"/><text text-anchor="middle" pointer-events="none" font-size="8px" fill="#000000" x="65.2045144347502" y="3" font-family="sans-serif">KNOWS</text></g><g class="relationship" transform="translate(127.37126264164857 128.97973275884442) rotate(361.3679962147799)"><path class="outline" fill="#A5ABB6" stroke="none" d="M 25 0.5 L 91.1080898575947 0.5 L 91.1080898575947 -0.5 L 25 -0.5 Z M 127.3307461075947 0.5 L 193.4388359651894 0.5 L 193.4388359651894 3.5 L 200.4388359651894 0 L 193.4388359651894 -3.5 L 193.4388359651894 -0.5 L 127.3307461075947 -0.5 Z"/><text text-anchor="middle" pointer-events="none" font-size="8px" fill="#000000" x="109.2194179825947" y="3" font-family="sans-serif">KNOWS</text></g><g class="relationship" transform="translate(352.74584424230943 134.3618076065814) rotate(267.4446273894454)"><path class="outline" fill="#A5ABB6" stroke="none" d="M 25 0.5 L 63.15583189181493 0.5 L 63.15583189181493 -0.5 L 25 -0.5 Z M 99.37848814181493 0.5 L 137.53432003362985 0.5 L 137.53432003362985 3.5 L 144.53432003362985 0 L 137.53432003362985 -3.5 L 137.53432003362985 -0.5 L 99.37848814181493 -0.5 Z"/><text text-anchor="middle" pointer-events="none" font-size="8px" fill="#000000" x="81.26716001681493" y="3" transform="rotate(180 81.26716001681493 0)" font-family="sans-serif">KNOWS</text></g><g class="relationship" transform="translate(144.2976121779968 -7.382798408014452) rotate(394.21566608433335)"><path class="outline" fill="#A5ABB6" stroke="none" d="M 25 0.5 L 104.42656179800147 0.5 L 104.42656179800147 -0.5 L 25 -0.5 Z M 140.64921804800147 0.5 L 220.07577984600294 0.5 L 220.07577984600294 3.5 L 227.07577984600294 0 L 220.07577984600294 -3.5 L 220.07577984600294 -0.5 L 140.64921804800147 -0.5 Z"/><text text-anchor="middle" pointer-events="none" font-size="8px" fill="#000000" x="122.53788992300147" y="3" font-family="sans-serif">KNOWS</text></g><g class="relationship" transform="translate(21.60914369282054 16.193209520785928) rotate(349.1225471338903)"><path class="outline" fill="#A5ABB6" stroke="none" d="M 25 0.5 L 40.85523983158168 0.5 L 40.85523983158168 -0.5 L 25 -0.5 Z M 77.07789608158168 0.5 L 92.93313591316335 0.5 L 92.93313591316335 3.5 L 99.93313591316335 0 L 92.93313591316335 -3.5 L 92.93313591316335 -0.5 L 77.07789608158168 -0.5 Z"/><text text-anchor="middle" pointer-events="none" font-size="8px" fill="#000000" x="58.96656795658168" y="3" font-family="sans-serif">KNOWS</text></g><g class="relationship" transform="translate(21.60914369282054 16.193209520785928) rotate(406.8409183906146)"><path class="outline" fill="#A5ABB6" stroke="none" d="M 25 0.5 L 55.69718632954627 0.5 L 55.69718632954627 -0.5 L 25 -0.5 Z M 91.91984257954627 0.5 L 122.61702890909254 0.5 L 122.61702890909254 3.5 L 129.61702890909254 0 L 122.61702890909254 -3.5 L 122.61702890909254 -0.5 L 91.91984257954627 -0.5 Z"/><text text-anchor="middle" pointer-events="none" font-size="8px" fill="#000000" x="73.80851445454627" y="3" font-family="sans-serif">KNOWS</text></g><g class="relationship" transform="translate(-52.468253440570564 103.63476083770661) rotate(310.27009409416775)"><path class="outline" fill="#A5ABB6" stroke="none" d="M 25 0.5 L 35.68938230420806 0.5 L 35.68938230420806 -0.5 L 25 -0.5 Z M 71.91203855420807 0.5 L 82.60142085841612 0.5 L 82.60142085841612 3.5 L 89.60142085841612 0 L 82.60142085841612 -3.5 L 82.60142085841612 -0.5 L 71.91203855420807 -0.5 Z"/><text text-anchor="middle" pointer-events="none" font-size="8px" fill="#000000" x="53.80071042920806" y="3" font-family="sans-serif">KNOWS</text></g><g class="relationship" transform="translate(-52.468253440570564 103.63476083770661) rotate(368.02192348761974)"><path class="outline" fill="#A5ABB6" stroke="none" d="M 25 0.5 L 69.19701282775887 0.5 L 69.19701282775887 -0.5 L 25 -0.5 Z M 105.41966907775887 0.5 L 149.61668190551774 0.5 L 149.61668190551774 3.5 L 156.61668190551774 0 L 149.61668190551774 -3.5 L 149.61668190551774 -0.5 L 105.41966907775887 -0.5 Z"/><text text-anchor="middle" pointer-events="none" font-size="8px" fill="#000000" x="87.30834095275887" y="3" font-family="sans-serif">KNOWS</text></g><g class="relationship" transform="translate(218.2968370669186 92.62936519385164) rotate(233.50217797812843)"><path class="outline" fill="#A5ABB6" stroke="none" d="M 25 0.5 L 40.59461643114281 0.5 L 40.59461643114281 -0.5 L 25 -0.5 Z M 76.81727268114281 0.5 L 92.41188911228562 0.5 L 92.41188911228562 3.5 L 99.41188911228562 0 L 92.41188911228562 -3.5 L 92.41188911228562 -0.5 L 76.81727268114281 -0.5 Z"/><text text-anchor="middle" pointer-events="none" font-size="8px" fill="#000000" x="58.70594455614281" y="3" transform="rotate(180 58.70594455614281 0)" font-family="sans-serif">KNOWS</text></g><g class="relationship" transform="translate(345.1871766932432 -35.00392745853712) rotate(532.1712554927925)"><path class="outline" fill="#A5ABB6" stroke="none" d="M 25 0.5 L 79.77844441290317 0.5 L 79.77844441290317 -0.5 L 25 -0.5 Z M 116.00110066290317 0.5 L 170.77954507580634 0.5 L 170.77954507580634 3.5 L 177.77954507580634 0 L 170.77954507580634 -3.5 L 170.77954507580634 -0.5 L 116.00110066290317 -0.5 Z"/><text text-anchor="middle" pointer-events="none" font-size="8px" fill="#000000" x="97.88977253790317" y="3" transform="rotate(180 97.88977253790317 0)" font-family="sans-serif">KNOWS</text></g></g><g class="layer nodes"><g class="node" transform="translate(24.015728776269896,184.99624020635207)"><circle class="outline" cx="0" cy="0" r="25" fill="#F79767" stroke="#f36924" stroke-width="2px"/><text text-anchor="middle" pointer-events="none" font-family="sans-serif" dy="1.5625" font-size="25" fill="#FFFFFF"/><text text-anchor="middle" pointer-events="none" x="0" y="5" font-size="10px" fill="#FFFFFF" font-family="sans-serif"> Alice</text></g><g class="node" transform="translate(127.37126264164857,128.97973275884442)"><circle class="outline" cx="0" cy="0" r="25" fill="#F79767" stroke="#f36924" stroke-width="2px"/><text text-anchor="middle" pointer-events="none" font-family="sans-serif" dy="1.5625" font-size="25" fill="#FFFFFF"/><text text-anchor="middle" pointer-events="none" x="0" y="5" font-size="10px" fill="#FFFFFF" font-family="sans-serif"> Michael</text></g><g class="node" transform="translate(352.74584424230943,134.3618076065814)"><circle class="outline" cx="0" cy="0" r="25" fill="#F79767" stroke="#f36924" stroke-width="2px"/><text text-anchor="middle" pointer-events="none" font-family="sans-serif" dy="1.5625" font-size="25" fill="#FFFFFF"/><text text-anchor="middle" pointer-events="none" x="0" y="5" font-size="10px" fill="#FFFFFF" font-family="sans-serif"> Karin</text></g><g class="node" transform="translate(144.2976121779968,-7.382798408014452)"><circle class="outline" cx="0" cy="0" r="25" fill="#F79767" stroke="#f36924" stroke-width="2px"/><text text-anchor="middle" pointer-events="none" font-family="sans-serif" dy="1.5625" font-size="25" fill="#FFFFFF"/><text text-anchor="middle" pointer-events="none" x="0" y="5" font-size="10px" fill="#FFFFFF" font-family="sans-serif"> Chris</text></g><g class="node" transform="translate(21.60914369282054,16.193209520785928)"><circle class="outline" cx="0" cy="0" r="25" fill="#F79767" stroke="#f36924" stroke-width="2px"/><text text-anchor="middle" pointer-events="none" font-family="sans-serif" dy="1.5625" font-size="25" fill="#FFFFFF"/><text text-anchor="middle" pointer-events="none" x="0" y="5" font-size="10px" fill="#FFFFFF" font-family="sans-serif"> Will</text></g><g class="node" transform="translate(-52.468253440570564,103.63476083770661)"><circle class="outline" cx="0" cy="0" r="25" fill="#F79767" stroke="#f36924" stroke-width="2px"/><text text-anchor="middle" pointer-events="none" font-family="sans-serif" dy="1.5625" font-size="25" fill="#FFFFFF"/><text text-anchor="middle" pointer-events="none" x="0" y="5" font-size="10px" fill="#FFFFFF" font-family="sans-serif"> Mark</text></g><g class="node" transform="translate(218.2968370669186,92.62936519385164)"><circle class="outline" cx="0" cy="0" r="25" fill="#F79767" stroke="#f36924" stroke-width="2px"/><text text-anchor="middle" pointer-events="none" font-family="sans-serif" dy="1.5625" font-size="25" fill="#FFFFFF"/><text text-anchor="middle" pointer-events="none" x="0" y="5" font-size="10px" fill="#FFFFFF" font-family="sans-serif"> Greg</text></g><g class="node" transform="translate(345.1871766932432,-35.00392745853712)"><circle class="outline" cx="0" cy="0" r="25" fill="#F79767" stroke="#f36924" stroke-width="2px"/><text text-anchor="middle" pointer-events="none" font-family="sans-serif" dy="1.5625" font-size="25" fill="#FFFFFF"/><text text-anchor="middle" pointer-events="none" x="0" y="5" font-size="10px" fill="#FFFFFF" font-family="sans-serif"> Veselin</text></g></g></svg>