<svg xmlns="http://www.w3.org/2000/svg" width="266.2418212890625" height="316.18865966796875" viewBox="-124.90117645263672 -167.82542419433594 266.2418212890625 316.18865966796875"><title>Neo4j Graph Visualization</title><desc>Created using Neo4j (http://www.neo4j.com/)</desc><g class="layer relationships"><g class="relationship" transform="translate(112.34063211880064 -138.82542085004346) rotate(491.815473079287)"><path class="b-outline" fill="#57C7E3" stroke="none" d="M 25 0.5 L 41.33313465429169 0.5 L 41.33313465429169 -0.5 L 25 -0.5 Z M 51.78235340429169 0.5 L 68.11548805858338 0.5 L 68.11548805858338 3.5 L 75.11548805858338 0 L 68.11548805858338 -3.5 L 68.11548805858338 -0.5 L 51.78235340429169 -0.5 Z"/><text text-anchor="middle" pointer-events="none" font-size="8px" fill="#000000" x="46.55774402929169" y="3" transform="rotate(180 46.55774402929169 0)" font-family="Helvetica Neue, Helvetica, Arial, sans-serif">1</text></g><g class="relationship" transform="translate(45.59025569635568 -64.20975093634333) rotate(491.84210047641227)"><path class="b-outline" fill="#57C7E3" stroke="none" d="M 25 0.5 L 42.840891827837694 0.5 L 42.840891827837694 -0.5 L 25 -0.5 Z M 53.290110577837694 0.5 L 71.13100240567539 0.5 L 71.13100240567539 3.5 L 78.13100240567539 0 L 71.13100240567539 -3.5 L 71.13100240567539 -0.5 L 53.290110577837694 -0.5 Z"/><text text-anchor="middle" pointer-events="none" font-size="8px" fill="#000000" x="48.065501202837694" y="3" transform="rotate(180 48.065501202837694 0)" font-family="Helvetica Neue, Helvetica, Arial, sans-serif">0</text></g><g class="relationship" transform="translate(-95.90117794296887 -68.61552988428409) rotate(408.1762582724707)"><path class="b-outline" fill="#57C7E3" stroke="none" d="M 25 0.5 L 45.78220995697796 0.5 L 45.78220995697796 -0.5 L 25 -0.5 Z M 56.23142870697796 0.5 L 77.01363866395592 0.5 L 77.01363866395592 3.5 L 84.01363866395592 0 L 77.01363866395592 -3.5 L 77.01363866395592 -0.5 L 56.23142870697796 -0.5 Z"/><text text-anchor="middle" pointer-events="none" font-size="8px" fill="#000000" x="51.00681933197796" y="3" font-family="Helvetica Neue, Helvetica, Arial, sans-serif">3</text></g><g class="relationship" transform="translate(-23.206379577514923 12.621405713764759) rotate(450.83398495996744)"><path class="b-outline" fill="#57C7E3" stroke="none" d="M 25 0.5 L 44.651954774351246 0.5 L 44.651954774351246 -0.5 L 25 -0.5 Z M 55.101173524351246 0.5 L 74.75312829870249 0.5 L 74.75312829870249 3.5 L 81.75312829870249 0 L 74.75312829870249 -3.5 L 74.75312829870249 -0.5 L 55.101173524351246 -0.5 Z"/><text text-anchor="middle" pointer-events="none" font-size="8px" fill="#000000" x="49.876564149351246" y="3" transform="rotate(180 49.876564149351246 0)" font-family="Helvetica Neue, Helvetica, Arial, sans-serif">1</text></g></g><g class="layer nodes"><g class="node" aria-label="graph-node0" transform="translate(112.34063211880064,-138.82542085004346)"><circle class="b-outline" cx="0" cy="0" r="25" fill="#57C7E3" stroke="#23b3d7" stroke-width="2px"/><text class="caption" text-anchor="middle" pointer-events="none" x="0" y="5" font-size="10px" fill="#2A2C34" font-family="Helvetica Neue, Helvetica, Arial, sans-serif"> Timber</text></g><g class="node" aria-label="graph-node1" transform="translate(45.59025569635568,-64.20975093634333)"><circle class="b-outline" cx="0" cy="0" r="25" fill="#57C7E3" stroke="#23b3d7" stroke-width="2px"/><text class="caption" text-anchor="middle" pointer-events="none" x="0" y="5" font-size="10px" fill="#2A2C34" font-family="Helvetica Neue, Helvetica, Arial, sans-serif"> Lumber</text></g><g class="node" aria-label="graph-node2" transform="translate(-95.90117794296887,-68.61552988428409)"><circle class="b-outline" cx="0" cy="0" r="25" fill="#57C7E3" stroke="#23b3d7" stroke-width="2px"/><text class="caption" text-anchor="middle" pointer-events="none" x="0" y="5" font-size="10px" fill="#2A2C34" font-family="Helvetica Neue, Helvetica, Arial, sans-serif"> Screws</text></g><g class="node" aria-label="graph-node3" transform="translate(-23.206379577514923,12.621405713764759)"><circle class="b-outline" cx="0" cy="0" r="25" fill="#57C7E3" stroke="#23b3d7" stroke-width="2px"/><text class="caption" text-anchor="middle" pointer-events="none" x="0" y="0" font-size="10px" fill="#2A2C34" font-family="Helvetica Neue, Helvetica, Arial, sans-serif"> Table</text><text class="caption" text-anchor="middle" pointer-events="none" x="0" y="10" font-size="10px" fill="#2A2C34" font-family="Helvetica Neue, Helvetica, Arial, sans-serif"> Maker</text></g><g class="node" aria-label="graph-node4" transform="translate(-24.7602001275217,119.36322527506704)"><circle class="b-outline" cx="0" cy="0" r="25" fill="#57C7E3" stroke="#23b3d7" stroke-width="2px"/><text class="caption" text-anchor="middle" pointer-events="none" x="0" y="5" font-size="10px" fill="#2A2C34" font-family="Helvetica Neue, Helvetica, Arial, sans-serif"> Table</text></g></g></svg>