<svg xmlns="http://www.w3.org/2000/svg" width="450.15283203125" height="207.0892791748047" viewBox="-203.54995727539062 -102.24858093261719 450.15283203125 207.0892791748047"><title>Neo4j Graph Visualization</title><desc>Created using Neo4j (http://www.neo4j.com/)</desc><g class="layer relationships"><g class="relationship" transform="translate(-174.54996185947718 -6.5666171209751765) rotate(360.47148583788646)"><path class="b-outline" fill="#A5ABB6" stroke="none" d="M 25 0.5 L 59.02260804134394 0.5 L 59.02260804134394 -0.5 L 25 -0.5 Z M 82.78927445369746 0.5 L 116.8118824950414 0.5 L 116.8118824950414 3.5 L 123.8118824950414 0 L 116.8118824950414 -3.5 L 116.8118824950414 -0.5 L 82.78927445369746 -0.5 Z"/><text text-anchor="middle" pointer-events="none" font-size="8px" fill="#000000" x="70.9059412475207" y="3" font-family="Helvetica Neue, Helvetica, Arial, sans-serif">LINK</text></g><g class="relationship" transform="translate(-25.743117817346004 -5.3420608997833146) rotate(393.1389294588968)"><path class="b-outline" fill="#A5ABB6" stroke="none" d="M 25 0.5 L 58.8686018830784 0.5 L 58.8686018830784 -0.5 L 25 -0.5 Z M 82.63526829543191 0.5 L 116.50387017851031 0.5 L 116.50387017851031 3.5 L 123.50387017851031 0 L 116.50387017851031 -3.5 L 116.50387017851031 -0.5 L 82.63526829543191 -0.5 Z"/><text text-anchor="middle" pointer-events="none" font-size="8px" fill="#000000" x="70.75193508925516" y="3" font-family="Helvetica Neue, Helvetica, Arial, sans-serif">LINK</text></g><g class="relationship" transform="translate(-25.743117817346004 -5.3420608997833146) rotate(331.82142333680366)"><path class="b-outline" fill="#A5ABB6" stroke="none" d="M 25 0.5 L 56.517843926460344 0.5 L 56.517843926460344 -0.5 L 25 -0.5 Z M 80.28451033881386 0.5 L 111.8023542652742 0.5 L 111.8023542652742 3.5 L 118.8023542652742 0 L 111.8023542652742 -3.5 L 111.8023542652742 -0.5 L 80.28451033881386 -0.5 Z"/><text text-anchor="middle" pointer-events="none" font-size="8px" fill="#000000" x="68.4011771326371" y="3" font-family="Helvetica Neue, Helvetica, Arial, sans-serif">LINK</text></g><g class="relationship" transform="translate(98.60622302559821 75.8407013710407) rotate(328.7876431443133)"><path class="b-outline" fill="#A5ABB6" stroke="none" d="M 25 0.5 L 54.18480782064182 0.5 L 54.18480782064182 -0.5 L 25 -0.5 Z M 77.95147423299534 0.5 L 107.13628205363716 0.5 L 107.13628205363716 3.5 L 114.13628205363716 0 L 107.13628205363716 -3.5 L 107.13628205363716 -0.5 L 77.95147423299534 -0.5 Z"/><text text-anchor="middle" pointer-events="none" font-size="8px" fill="#000000" x="66.06814102681858" y="3" font-family="Helvetica Neue, Helvetica, Arial, sans-serif">LINK</text></g><g class="relationship" transform="translate(101.01579304748049 -73.24858200489072) rotate(393.438429939497)"><path class="b-outline" fill="#A5ABB6" stroke="none" d="M 25 0.5 L 54.472925709339634 0.5 L 54.472925709339634 -0.5 L 25 -0.5 Z M 78.23959212169315 0.5 L 107.71251783103278 0.5 L 107.71251783103278 3.5 L 114.71251783103278 0 L 107.71251783103278 -3.5 L 107.71251783103278 -0.5 L 78.23959212169315 -0.5 Z"/><text text-anchor="middle" pointer-events="none" font-size="8px" fill="#000000" x="66.35625891551639" y="3" font-family="Helvetica Neue, Helvetica, Arial, sans-serif">LINK</text></g></g><g class="layer nodes"><g class="node" aria-label="graph-node17926" transform="translate(-174.54996185947718,-6.5666171209751765)"><circle class="b-outline" cx="0" cy="0" r="25" fill="#C990C0" stroke="#b261a5" stroke-width="2px"/><text class="caption" text-anchor="middle" pointer-events="none" x="0" y="5" font-size="10px" fill="#FFFFFF" font-family="Helvetica Neue, Helvetica, Arial, sans-serif"> A</text></g><g class="node" aria-label="graph-node17927" transform="translate(-25.743117817346004,-5.3420608997833146)"><circle class="b-outline" cx="0" cy="0" r="25" fill="#C990C0" stroke="#b261a5" stroke-width="2px"/><text class="caption" text-anchor="middle" pointer-events="none" x="0" y="5" font-size="10px" fill="#FFFFFF" font-family="Helvetica Neue, Helvetica, Arial, sans-serif"> B</text></g><g class="node" aria-label="graph-node17928" transform="translate(98.60622302559821,75.8407013710407)"><circle class="b-outline" cx="0" cy="0" r="25" fill="#C990C0" stroke="#b261a5" stroke-width="2px"/><text class="caption" text-anchor="middle" pointer-events="none" x="0" y="5" font-size="10px" fill="#FFFFFF" font-family="Helvetica Neue, Helvetica, Arial, sans-serif"> C</text></g><g class="node" aria-label="graph-node17929" transform="translate(101.01579304748049,-73.24858200489072)"><circle class="b-outline" cx="0" cy="0" r="25" fill="#C990C0" stroke="#b261a5" stroke-width="2px"/><text class="caption" text-anchor="middle" pointer-events="none" x="0" y="5" font-size="10px" fill="#FFFFFF" font-family="Helvetica Neue, Helvetica, Arial, sans-serif"> D</text></g><g class="node" aria-label="graph-node17930" transform="translate(217.60287866872096,3.7386838579271)"><circle class="b-outline" cx="0" cy="0" r="25" fill="#C990C0" stroke="#b261a5" stroke-width="2px"/><text class="caption" text-anchor="middle" pointer-events="none" x="0" y="5" font-size="10px" fill="#FFFFFF" font-family="Helvetica Neue, Helvetica, Arial, sans-serif"> E</text></g></g></svg>