<svg xmlns="http://www.w3.org/2000/svg" width="878.37548828125" height="299.0780029296875" viewBox="-455.1791076660156 -144.0784912109375 878.37548828125 299.0780029296875"><title>Neo4j Graph Visualization</title><desc>Created using Neo4j (http://www.neo4j.com/)</desc><g class="layer relationships"><g class="relationship" transform="translate(-305.18639271203244 7.896439578815055) rotate(332.8144874781623)"><path class="b-outline" fill="#A5ABB6" stroke="none" d="M 25 0.5 L 44.670540632241114 0.5 L 44.670540632241114 -0.5 L 25 -0.5 Z M 84.75257188224111 0.5 L 104.42311251448223 0.5 L 104.42311251448223 3.5 L 111.42311251448223 0 L 104.42311251448223 -3.5 L 104.42311251448223 -0.5 L 84.75257188224111 -0.5 Z"/><text text-anchor="middle" pointer-events="none" font-size="8px" fill="#000000" x="64.71155625724111" y="3" font-family="Helvetica Neue, Helvetica, Arial, sans-serif">PAINTED</text></g><g class="relationship" transform="translate(-305.18639271203244 7.896439578815055) rotate(271.3262818808331)"><path class="b-outline" fill="#A5ABB6" stroke="none" d="M 25 0.5 L 37.96293005047819 0.5 L 37.96293005047819 -0.5 L 25 -0.5 Z M 78.04496130047819 0.5 L 91.00789135095638 0.5 L 91.00789135095638 3.5 L 98.00789135095638 0 L 91.00789135095638 -3.5 L 91.00789135095638 -0.5 L 78.04496130047819 -0.5 Z"/><text text-anchor="middle" pointer-events="none" font-size="8px" fill="#000000" x="58.00394567547819" y="3" font-family="Helvetica Neue, Helvetica, Arial, sans-serif">PAINTED</text></g><g class="relationship" transform="translate(-305.18639271203244 7.896439578815055) rotate(205.17632532157296)"><path class="b-outline" fill="#A5ABB6" stroke="none" d="M 25 0.5 L 43.30556857089124 0.5 L 43.30556857089124 -0.5 L 25 -0.5 Z M 83.38759982089124 0.5 L 101.69316839178248 0.5 L 101.69316839178248 3.5 L 108.69316839178248 0 L 101.69316839178248 -3.5 L 101.69316839178248 -0.5 L 83.38759982089124 -0.5 Z"/><text text-anchor="middle" pointer-events="none" font-size="8px" fill="#000000" x="63.34658419589124" y="3" transform="rotate(180 63.34658419589124 0)" font-family="Helvetica Neue, Helvetica, Arial, sans-serif">PAINTED</text></g><g class="relationship" transform="translate(312.4112420362612 -3.2223594837176677) rotate(486.1191187189406)"><path class="b-outline" fill="#A5ABB6" stroke="none" d="M 25 0.5 L 42.67494205612867 0.5 L 42.67494205612867 -0.5 L 25 -0.5 Z M 82.75697330612867 0.5 L 100.43191536225734 0.5 L 100.43191536225734 3.5 L 107.43191536225734 0 L 100.43191536225734 -3.5 L 100.43191536225734 -0.5 L 82.75697330612867 -0.5 Z"/><text text-anchor="middle" pointer-events="none" font-size="8px" fill="#000000" x="62.71595768112867" y="3" transform="rotate(180 62.71595768112867 0)" font-family="Helvetica Neue, Helvetica, Arial, sans-serif">PAINTED</text></g><g class="relationship" transform="translate(312.4112420362612 -3.2223594837176677) rotate(412.75698786035974)"><path class="b-outline" fill="#A5ABB6" stroke="none" d="M 25 0.5 L 44.02801215628875 0.5 L 44.02801215628875 -0.5 L 25 -0.5 Z M 84.11004340628875 0.5 L 103.1380555625775 0.5 L 103.1380555625775 3.5 L 110.1380555625775 0 L 103.1380555625775 -3.5 L 103.1380555625775 -0.5 L 84.11004340628875 -0.5 Z"/><text text-anchor="middle" pointer-events="none" font-size="8px" fill="#000000" x="64.06902778128875" y="3" font-family="Helvetica Neue, Helvetica, Arial, sans-serif">PAINTED</text></g><g class="relationship" transform="translate(312.4112420362612 -3.2223594837176677) rotate(307.84270113507256)"><path class="b-outline" fill="#A5ABB6" stroke="none" d="M 25 0.5 L 34.404716794809616 0.5 L 34.404716794809616 -0.5 L 25 -0.5 Z M 74.48674804480962 0.5 L 83.89146483961923 0.5 L 83.89146483961923 3.5 L 90.89146483961923 0 L 83.89146483961923 -3.5 L 83.89146483961923 -0.5 L 74.48674804480962 -0.5 Z"/><text text-anchor="middle" pointer-events="none" font-size="8px" fill="#000000" x="54.445732419809616" y="3" font-family="Helvetica Neue, Helvetica, Arial, sans-serif">PAINTED</text></g><g class="relationship" transform="translate(312.4112420362612 -3.2223594837176677) rotate(233.90793808125392)"><path class="b-outline" fill="#A5ABB6" stroke="none" d="M 25 0.5 L 38.69980084325741 0.5 L 38.69980084325741 -0.5 L 25 -0.5 Z M 78.7818320932574 0.5 L 92.48163293651481 0.5 L 92.48163293651481 3.5 L 99.48163293651481 0 L 92.48163293651481 -3.5 L 92.48163293651481 -0.5 L 78.7818320932574 -0.5 Z"/><text text-anchor="middle" pointer-events="none" font-size="8px" fill="#000000" x="58.74081646825741" y="3" transform="rotate(180 58.74081646825741 0)" font-family="Helvetica Neue, Helvetica, Arial, sans-serif">PAINTED</text></g><g class="relationship" transform="translate(13.747494678060256 3.5548416221002377) rotate(389.9312001211473)"><path class="b-outline" fill="#A5ABB6" stroke="none" d="M 25 0.5 L 38.86373179972881 0.5 L 38.86373179972881 -0.5 L 25 -0.5 Z M 78.94576304972881 0.5 L 92.80949484945762 0.5 L 92.80949484945762 3.5 L 99.80949484945762 0 L 92.80949484945762 -3.5 L 92.80949484945762 -0.5 L 78.94576304972881 -0.5 Z"/><text text-anchor="middle" pointer-events="none" font-size="8px" fill="#000000" x="58.90474742472881" y="3" font-family="Helvetica Neue, Helvetica, Arial, sans-serif">PAINTED</text></g><g class="relationship" transform="translate(13.747494678060256 3.5548416221002377) rotate(310.51099623459174)"><path class="b-outline" fill="#A5ABB6" stroke="none" d="M 25 0.5 L 38.858918710041785 0.5 L 38.858918710041785 -0.5 L 25 -0.5 Z M 78.94094996004179 0.5 L 92.79986867008357 0.5 L 92.79986867008357 3.5 L 99.79986867008357 0 L 92.79986867008357 -3.5 L 92.79986867008357 -0.5 L 78.94094996004179 -0.5 Z"/><text text-anchor="middle" pointer-events="none" font-size="8px" fill="#000000" x="58.899934335041785" y="3" font-family="Helvetica Neue, Helvetica, Arial, sans-serif">PAINTED</text></g><g class="relationship" transform="translate(13.747494678060256 3.5548416221002377) rotate(231.9574801114095)"><path class="b-outline" fill="#A5ABB6" stroke="none" d="M 25 0.5 L 39.78344257180552 0.5 L 39.78344257180552 -0.5 L 25 -0.5 Z M 79.86547382180552 0.5 L 94.64891639361105 0.5 L 94.64891639361105 3.5 L 101.64891639361105 0 L 94.64891639361105 -3.5 L 94.64891639361105 -0.5 L 79.86547382180552 -0.5 Z"/><text text-anchor="middle" pointer-events="none" font-size="8px" fill="#000000" x="59.82445819680552" y="3" transform="rotate(180 59.82445819680552 0)" font-family="Helvetica Neue, Helvetica, Arial, sans-serif">PAINTED</text></g><g class="relationship" transform="translate(13.747494678060256 3.5548416221002377) rotate(514.6986280927565)"><path class="b-outline" fill="#A5ABB6" stroke="none" d="M 25 0.5 L 39.20406072978435 0.5 L 39.20406072978435 -0.5 L 25 -0.5 Z M 79.28609197978435 0.5 L 93.4901527095687 0.5 L 93.4901527095687 3.5 L 100.4901527095687 0 L 93.4901527095687 -3.5 L 93.4901527095687 -0.5 L 79.28609197978435 -0.5 Z"/><text text-anchor="middle" pointer-events="none" font-size="8px" fill="#000000" x="59.24507635478435" y="3" transform="rotate(180 59.24507635478435 0)" font-family="Helvetica Neue, Helvetica, Arial, sans-serif">PAINTED</text></g><g class="relationship" transform="translate(-305.18639271203244 7.896439578815055) rotate(481.32788902597616)"><path class="b-outline" fill="#A5ABB6" stroke="none" d="M 25 0.5 L 45.589316122024044 0.5 L 45.589316122024044 -0.5 L 25 -0.5 Z M 85.67134737202404 0.5 L 106.26066349404809 0.5 L 106.26066349404809 3.5 L 113.26066349404809 0 L 106.26066349404809 -3.5 L 106.26066349404809 -0.5 L 85.67134737202404 -0.5 Z"/><text text-anchor="middle" pointer-events="none" font-size="8px" fill="#000000" x="65.63033174702404" y="3" transform="rotate(180 65.63033174702404 0)" font-family="Helvetica Neue, Helvetica, Arial, sans-serif">PAINTED</text></g><g class="relationship" transform="translate(-305.18639271203244 7.896439578815055) rotate(413.8348828256354)"><path class="b-outline" fill="#A5ABB6" stroke="none" d="M 25 0.5 L 49.0846112328355 0.5 L 49.0846112328355 -0.5 L 25 -0.5 Z M 89.1666424828355 0.5 L 113.251253715671 0.5 L 113.251253715671 3.5 L 120.251253715671 0 L 113.251253715671 -3.5 L 113.251253715671 -0.5 L 89.1666424828355 -0.5 Z"/><text text-anchor="middle" pointer-events="none" font-size="8px" fill="#000000" x="69.1256268578355" y="3" font-family="Helvetica Neue, Helvetica, Arial, sans-serif">PAINTED</text></g><g class="relationship" transform="translate(13.747494678060256 3.5548416221002377) rotate(450.78072140974564)"><path class="b-outline" fill="#A5ABB6" stroke="none" d="M 25 0.5 L 35.128614785079066 0.5 L 35.128614785079066 -0.5 L 25 -0.5 Z M 75.21064603507907 0.5 L 85.33926082015813 0.5 L 85.33926082015813 3.5 L 92.33926082015813 0 L 85.33926082015813 -3.5 L 85.33926082015813 -0.5 L 75.21064603507907 -0.5 Z"/><text text-anchor="middle" pointer-events="none" font-size="8px" fill="#000000" x="55.169630410079066" y="3" transform="rotate(180 55.169630410079066 0)" font-family="Helvetica Neue, Helvetica, Arial, sans-serif">PAINTED</text></g></g><g class="layer nodes"><g class="node" aria-label="graph-node0" transform="translate(-183.83367896092432,-54.43159980460126)"><circle class="b-outline" cx="0" cy="0" r="25" fill="#FFC454" stroke="#d7a013" stroke-width="2px"/><text class="caption" text-anchor="middle" pointer-events="none" x="0" y="5" font-size="10px" fill="#2A2C34" font-family="Helvetica Neue, Helvetica, Arial, sans-serif"> Gold</text></g><g class="node" aria-label="graph-node1" transform="translate(-302.3392620891887,-115.07849763127322)"><circle class="b-outline" cx="0" cy="0" r="25" fill="#FFC454" stroke="#d7a013" stroke-width="2px"/><text class="caption" text-anchor="middle" pointer-events="none" x="0" y="5" font-size="10px" fill="#2A2C34" font-family="Helvetica Neue, Helvetica, Arial, sans-serif"> Red</text></g><g class="node" aria-label="graph-node2" transform="translate(-426.17909884416366,-48.977353484926)"><circle class="b-outline" cx="0" cy="0" r="25" fill="#FFC454" stroke="#d7a013" stroke-width="2px"/><text class="caption" text-anchor="middle" pointer-events="none" x="0" y="5" font-size="10px" fill="#2A2C34" font-family="Helvetica Neue, Helvetica, Arial, sans-serif"> Blue</text></g><g class="node" aria-label="graph-node3" transform="translate(234.34713878336618,103.75524560182083)"><circle class="b-outline" cx="0" cy="0" r="25" fill="#FFC454" stroke="#d7a013" stroke-width="2px"/><text class="caption" text-anchor="middle" pointer-events="none" x="0" y="5" font-size="10px" fill="#2A2C34" font-family="Helvetica Neue, Helvetica, Arial, sans-serif"> Green</text></g><g class="node" aria-label="graph-node4" transform="translate(394.19637463275365,104.3577787733437)"><circle class="b-outline" cx="0" cy="0" r="25" fill="#FFC454" stroke="#d7a013" stroke-width="2px"/><text class="caption" text-anchor="middle" pointer-events="none" x="0" y="5" font-size="10px" fill="#2A2C34" font-family="Helvetica Neue, Helvetica, Arial, sans-serif"> Gray</text></g><g class="node" aria-label="graph-node5" transform="translate(383.5101650862212,-94.74161846131521)"><circle class="b-outline" cx="0" cy="0" r="25" fill="#FFC454" stroke="#d7a013" stroke-width="2px"/><text class="caption" text-anchor="middle" pointer-events="none" x="0" y="5" font-size="10px" fill="#2A2C34" font-family="Helvetica Neue, Helvetica, Arial, sans-serif"> Black</text></g><g class="node" aria-label="graph-node6" transform="translate(239.08105296460474,-103.81242017192045)"><circle class="b-outline" cx="0" cy="0" r="25" fill="#FFC454" stroke="#d7a013" stroke-width="2px"/><text class="caption" text-anchor="middle" pointer-events="none" x="0" y="5" font-size="10px" fill="#2A2C34" font-family="Helvetica Neue, Helvetica, Arial, sans-serif"> White</text></g><g class="node" aria-label="graph-node7" transform="translate(121.91054455579717,65.8297534704761)"><circle class="b-outline" cx="0" cy="0" r="25" fill="#FFC454" stroke="#d7a013" stroke-width="2px"/><text class="caption" text-anchor="middle" pointer-events="none" x="0" y="5" font-size="10px" fill="#2A2C34" font-family="Helvetica Neue, Helvetica, Arial, sans-serif"> Teal</text></g><g class="node" aria-label="graph-node8" transform="translate(94.81673730477746,-91.32816591876855)"><circle class="b-outline" cx="0" cy="0" r="25" fill="#FFC454" stroke="#d7a013" stroke-width="2px"/><text class="caption" text-anchor="middle" pointer-events="none" x="0" y="5" font-size="10px" fill="#2A2C34" font-family="Helvetica Neue, Helvetica, Arial, sans-serif"> Beige</text></g><g class="node" aria-label="graph-node9" transform="translate(-64.299405867812,-96.18797435408223)"><circle class="b-outline" cx="0" cy="0" r="25" fill="#FFC454" stroke="#d7a013" stroke-width="2px"/><text class="caption" text-anchor="middle" pointer-events="none" x="0" y="5" font-size="10px" fill="#2A2C34" font-family="Helvetica Neue, Helvetica, Arial, sans-serif"> Magenta</text></g><g class="node" aria-label="graph-node10" transform="translate(-99.70467839474998,57.18676170825775)"><circle class="b-outline" cx="0" cy="0" r="25" fill="#FFC454" stroke="#d7a013" stroke-width="2px"/><text class="caption" text-anchor="middle" pointer-events="none" x="0" y="5" font-size="10px" fill="#2A2C34" font-family="Helvetica Neue, Helvetica, Arial, sans-serif"> Purple</text></g><g class="node" aria-label="graph-node11" transform="translate(-377.07294562959675,125.9995071911537)"><circle class="b-outline" cx="0" cy="0" r="25" fill="#A5ABB6" stroke="#9AA1AC" stroke-width="2px"/><text class="caption" text-anchor="middle" pointer-events="none" x="0" y="5" font-size="10px" fill="#FFFFFF" font-family="Helvetica Neue, Helvetica, Arial, sans-serif"> Pink</text></g><g class="node" aria-label="graph-node12" transform="translate(-219.4715559598522,125.16064326656164)"><circle class="b-outline" cx="0" cy="0" r="25" fill="#A5ABB6" stroke="#9AA1AC" stroke-width="2px"/><text class="caption" text-anchor="middle" pointer-events="none" x="0" y="5" font-size="10px" fill="#FFFFFF" font-family="Helvetica Neue, Helvetica, Arial, sans-serif"> Tan</text></g><g class="node" aria-label="graph-node13" transform="translate(12.148660714230807,120.88320929069607)"><circle class="b-outline" cx="0" cy="0" r="25" fill="#A5ABB6" stroke="#9AA1AC" stroke-width="2px"/><text class="caption" text-anchor="middle" pointer-events="none" x="0" y="5" font-size="10px" fill="#FFFFFF" font-family="Helvetica Neue, Helvetica, Arial, sans-serif"> Yellow</text></g><g class="node" aria-label="graph-node14" transform="translate(-305.18639271203244,7.896439578815055)"><circle class="b-outline" cx="0" cy="0" r="25" fill="#57C7E3" stroke="#23b3d7" stroke-width="2px"/><text class="caption" text-anchor="middle" pointer-events="none" x="0" y="5" font-size="10px" fill="#2A2C34" font-family="Helvetica Neue, Helvetica, Arial, sans-serif"> Schiele</text></g><g class="node" aria-label="graph-node15" transform="translate(312.4112420362612,-3.2223594837176677)"><circle class="b-outline" cx="0" cy="0" r="25" fill="#57C7E3" stroke="#23b3d7" stroke-width="2px"/><text class="caption" text-anchor="middle" pointer-events="none" x="0" y="5" font-size="10px" fill="#2A2C34" font-family="Helvetica Neue, Helvetica, Arial, sans-serif"> Picasso</text></g><g class="node" aria-label="graph-node16" transform="translate(13.747494678060256,3.5548416221002377)"><circle class="b-outline" cx="0" cy="0" r="25" fill="#57C7E3" stroke="#23b3d7" stroke-width="2px"/><text class="caption" text-anchor="middle" pointer-events="none" x="0" y="5" font-size="10px" fill="#2A2C34" font-family="Helvetica Neue, Helvetica, Arial, sans-serif"> Kahlo</text></g></g></svg>