<svg xmlns="http://www.w3.org/2000/svg" width="333.2344055175781" height="321.0218505859375" viewBox="-215.98382568359375 -127.33687591552734 333.2344055175781 321.0218505859375"><title>Neo4j Graph Visualization</title><desc>Created using Neo4j (http://www.neo4j.com/)</desc><g class="layer relationships"><g class="relationship" transform="translate(-56.323272872407195 -32.574865961646324) rotate(361.0094203814397)"><path class="outline" fill="#A5ABB6" stroke="none" d="M 25 0.5 L 54.458304247907265 0.5 L 54.458304247907265 -0.5 L 25 -0.5 Z M 83.13799174790726 0.5 L 112.59629599581453 0.5 L 112.59629599581453 3.5 L 119.59629599581453 0 L 112.59629599581453 -3.5 L 112.59629599581453 -0.5 L 83.13799174790726 -0.5 Z"/><text text-anchor="middle" pointer-events="none" font-size="8px" fill="#000000" x="68.79814799790726" y="3" font-family="sans-serif">LIKES</text></g><g class="relationship" transform="translate(-56.323272872407195 -32.574865961646324) rotate(538.5678227465929)"><path class="outline" fill="#A5ABB6" stroke="none" d="M 25 0.5 L 47.51084956443543 0.5 L 47.51084956443543 -0.5 L 25 -0.5 Z M 76.19053706443543 0.5 L 98.70138662887086 0.5 L 98.70138662887086 3.5 L 105.70138662887086 0 L 98.70138662887086 -3.5 L 98.70138662887086 -0.5 L 76.19053706443543 -0.5 Z"/><text text-anchor="middle" pointer-events="none" font-size="8px" fill="#000000" x="61.85069331443543" y="3" transform="rotate(180 61.85069331443543 0)" font-family="sans-serif">LIKES</text></g><g class="relationship" transform="translate(-56.323272872407195 -32.574865961646324) rotate(403.72495604413956)"><path class="outline" fill="#A5ABB6" stroke="none" d="M 25 0.5 L 78.19935230926619 0.5 L 78.19935230926619 -0.5 L 25 -0.5 Z M 106.87903980926619 0.5 L 160.07839211853238 0.5 L 160.07839211853238 3.5 L 167.07839211853238 0 L 160.07839211853238 -3.5 L 160.07839211853238 -0.5 L 106.87903980926619 -0.5 Z"/><text text-anchor="middle" pointer-events="none" font-size="8px" fill="#000000" x="92.53919605926619" y="3" font-family="sans-serif">LIKES</text></g><g class="relationship" transform="translate(-57.63877110157463 -98.3368789654781) rotate(385.09026299919924)"><path class="outline" fill="#A5ABB6" stroke="none" d="M 25 0.5 L 62.70497185005851 0.5 L 62.70497185005851 -0.5 L 25 -0.5 Z M 91.38465935005851 0.5 L 129.08963120011703 0.5 L 129.08963120011703 3.5 L 136.08963120011703 0 L 129.08963120011703 -3.5 L 129.08963120011703 -0.5 L 91.38465935005851 -0.5 Z"/><text text-anchor="middle" pointer-events="none" font-size="8px" fill="#000000" x="77.04481560005851" y="3" font-family="sans-serif">LIKES</text></g><g class="relationship" transform="translate(-57.63877110157463 -98.3368789654781) rotate(511.91210620472293)"><path class="outline" fill="#A5ABB6" stroke="none" d="M 25 0.5 L 55.46620526199513 0.5 L 55.46620526199513 -0.5 L 25 -0.5 Z M 84.14589276199513 0.5 L 114.61209802399026 0.5 L 114.61209802399026 3.5 L 121.61209802399026 0 L 114.61209802399026 -3.5 L 114.61209802399026 -0.5 L 84.14589276199513 -0.5 Z"/><text text-anchor="middle" pointer-events="none" font-size="8px" fill="#000000" x="69.80604901199513" y="3" transform="rotate(180 69.80604901199513 0)" font-family="sans-serif">LIKES</text></g><g class="relationship" transform="translate(-62.04855293090567 100.7980056053467) rotate(359.75865588916054)"><path class="outline" fill="#A5ABB6" stroke="none" d="M 25 0.5 L 54.427713759375465 0.5 L 54.427713759375465 -0.5 L 25 -0.5 Z M 83.10740125937546 0.5 L 112.53511501875093 0.5 L 112.53511501875093 3.5 L 119.53511501875093 0 L 112.53511501875093 -3.5 L 112.53511501875093 -0.5 L 83.10740125937546 -0.5 Z"/><text text-anchor="middle" pointer-events="none" font-size="8px" fill="#000000" x="68.76755750937546" y="3" font-family="sans-serif">LIKES</text></g><g class="relationship" transform="translate(-62.85589661528141 40.53092132347139) rotate(382.31670449659146)"><path class="outline" fill="#A5ABB6" stroke="none" d="M 25 0.5 L 60.71454271459919 0.5 L 60.71454271459919 -0.5 L 25 -0.5 Z M 89.39423021459919 0.5 L 125.10877292919838 0.5 L 125.10877292919838 3.5 L 132.10877292919838 0 L 125.10877292919838 -3.5 L 125.10877292919838 -0.5 L 89.39423021459919 -0.5 Z"/><text text-anchor="middle" pointer-events="none" font-size="8px" fill="#000000" x="75.05438646459919" y="3" font-family="sans-serif">LIKES</text></g><g class="relationship" transform="translate(-62.85589661528141 40.53092132347139) rotate(334.9699974840644)"><path class="outline" fill="#A5ABB6" stroke="none" d="M 25 0.5 L 65.54430511249997 0.5 L 65.54430511249997 -0.5 L 25 -0.5 Z M 94.22399261249997 0.5 L 134.76829772499994 0.5 L 134.76829772499994 3.5 L 141.76829772499994 0 L 134.76829772499994 -3.5 L 134.76829772499994 -0.5 L 94.22399261249997 -0.5 Z"/><text text-anchor="middle" pointer-events="none" font-size="8px" fill="#000000" x="79.88414886249997" y="3" font-family="sans-serif">LIKES</text></g><g class="relationship" transform="translate(-62.85589661528141 40.53092132347139) rotate(209.36375825082803)"><path class="outline" fill="#A5ABB6" stroke="none" d="M 25 0.5 L 53.373290693417204 0.5 L 53.373290693417204 -0.5 L 25 -0.5 Z M 82.0529781934172 0.5 L 110.42626888683441 0.5 L 110.42626888683441 3.5 L 117.42626888683441 0 L 110.42626888683441 -3.5 L 110.42626888683441 -0.5 L 82.0529781934172 -0.5 Z"/><text text-anchor="middle" pointer-events="none" font-size="8px" fill="#000000" x="67.7131344434172" y="3" transform="rotate(180 67.7131344434172 0)" font-family="sans-serif">LIKES</text></g></g><g class="layer nodes"><g class="node" transform="translate(-186.98382983169736,-29.30816704719564)"><circle class="outline" cx="0" cy="0" r="25" fill="#F79767" stroke="#f36924" stroke-width="2px"/><text text-anchor="middle" pointer-events="none" font-family="sans-serif" dy="1.5625" font-size="25" fill="#FFFFFF"/><text text-anchor="middle" pointer-events="none" x="0" y="5" font-size="10px" fill="#FFFFFF" font-family="sans-serif"> Guitar</text></g><g class="node" transform="translate(88.25058353879243,-30.027542247816143)"><circle class="outline" cx="0" cy="0" r="25" fill="#F79767" stroke="#f36924" stroke-width="2px"/><text text-anchor="middle" pointer-events="none" font-family="sans-serif" dy="1.5625" font-size="25" fill="#FFFFFF"/><text text-anchor="middle" pointer-events="none" x="0" y="5" font-size="10px" fill="#FFFFFF" font-family="sans-serif"> Synthesi…</text></g><g class="node" transform="translate(82.48527984323732,100.18918945934792)"><circle class="outline" cx="0" cy="0" r="25" fill="#F79767" stroke="#f36924" stroke-width="2px"/><text text-anchor="middle" pointer-events="none" font-family="sans-serif" dy="1.5625" font-size="25" fill="#FFFFFF"/><text text-anchor="middle" pointer-events="none" x="0" y="5" font-size="10px" fill="#FFFFFF" font-family="sans-serif"> Bongos</text></g><g class="node" transform="translate(-186.2559279250856,81.07020789025452)"><circle class="outline" cx="0" cy="0" r="25" fill="#F79767" stroke="#f36924" stroke-width="2px"/><text text-anchor="middle" pointer-events="none" font-family="sans-serif" dy="1.5625" font-size="25" fill="#FFFFFF"/><text text-anchor="middle" pointer-events="none" x="0" y="5" font-size="10px" fill="#FFFFFF" font-family="sans-serif"> Trumpet</text></g><g class="node" transform="translate(-56.323272872407195,-32.574865961646324)"><circle class="outline" cx="0" cy="0" r="25" fill="#DA7194" stroke="#cc3c6c" stroke-width="2px"/><text text-anchor="middle" pointer-events="none" font-family="sans-serif" dy="1.5625" font-size="25" fill="#FFFFFF"/><text text-anchor="middle" pointer-events="none" x="0" y="5" font-size="10px" fill="#FFFFFF" font-family="sans-serif"> Alice</text></g><g class="node" transform="translate(-57.63877110157463,-98.3368789654781)"><circle class="outline" cx="0" cy="0" r="25" fill="#DA7194" stroke="#cc3c6c" stroke-width="2px"/><text text-anchor="middle" pointer-events="none" font-family="sans-serif" dy="1.5625" font-size="25" fill="#FFFFFF"/><text text-anchor="middle" pointer-events="none" x="0" y="5" font-size="10px" fill="#FFFFFF" font-family="sans-serif"> Bob</text></g><g class="node" transform="translate(-62.04855293090567,100.7980056053467)"><circle class="outline" cx="0" cy="0" r="25" fill="#DA7194" stroke="#cc3c6c" stroke-width="2px"/><text text-anchor="middle" pointer-events="none" font-family="sans-serif" dy="1.5625" font-size="25" fill="#FFFFFF"/><text text-anchor="middle" pointer-events="none" x="0" y="5" font-size="10px" fill="#FFFFFF" font-family="sans-serif"> Carol</text></g><g class="node" transform="translate(-62.85589661528141,40.53092132347139)"><circle class="outline" cx="0" cy="0" r="25" fill="#DA7194" stroke="#cc3c6c" stroke-width="2px"/><text text-anchor="middle" pointer-events="none" font-family="sans-serif" dy="1.5625" font-size="25" fill="#FFFFFF"/><text text-anchor="middle" pointer-events="none" x="0" y="5" font-size="10px" fill="#FFFFFF" font-family="sans-serif"> Dave</text></g><g class="node" transform="translate(-65.06471623581211,164.6849597013702)"><circle class="outline" cx="0" cy="0" r="25" fill="#DA7194" stroke="#cc3c6c" stroke-width="2px"/><text text-anchor="middle" pointer-events="none" font-family="sans-serif" dy="1.5625" font-size="25" fill="#FFFFFF"/><text text-anchor="middle" pointer-events="none" x="0" y="5" font-size="10px" fill="#FFFFFF" font-family="sans-serif"> Eve</text></g></g></svg>