<svg xmlns="http://www.w3.org/2000/svg" width="382.1683044433594" height="180.22348022460938" viewBox="-189.42990112304688 -130.2656707763672 382.1683044433594 180.22348022460938"><title>Neo4j Graph Visualization</title><desc>Created using Neo4j (http://www.neo4j.com/)</desc><g class="layer relationships"><g class="relationship" transform="translate(163.7383855173919 20.957818007014225) rotate(235.46665028839163)"><path class="b-outline" fill="#A5ABB6" stroke="none" d="M 25 0.5 L 40.751907981941486 0.5 L 40.751907981941486 -0.5 L 25 -0.5 Z M 100.52925173194149 0.5 L 116.28115971388297 0.5 L 116.28115971388297 3.5 L 123.28115971388297 0 L 116.28115971388297 -3.5 L 116.28115971388297 -0.5 L 100.52925173194149 -0.5 Z"/><text text-anchor="middle" pointer-events="none" font-size="8px" fill="#000000" x="70.64057985694149" y="3" transform="rotate(180 70.64057985694149 0)" font-family="Helvetica Neue, Helvetica, Arial, sans-serif">CONNECTION</text></g><g class="relationship" transform="translate(79.67989666929111 -101.19566241277481) rotate(180.0260110489117)"><path class="b-outline" fill="#A5ABB6" stroke="none" d="M 25 0.5 L 43.71829623334024 0.5 L 43.71829623334024 -0.5 L 25 -0.5 Z M 103.49563998334024 0.5 L 122.21393621668048 0.5 L 122.21393621668048 3.5 L 129.21393621668048 0 L 122.21393621668048 -3.5 L 122.21393621668048 -0.5 L 103.49563998334024 -0.5 Z"/><text text-anchor="middle" pointer-events="none" font-size="8px" fill="#000000" x="73.60696810834024" y="3" transform="rotate(180 73.60696810834024 0)" font-family="Helvetica Neue, Helvetica, Arial, sans-serif">CONNECTION</text></g><g class="relationship" transform="translate(79.67989666929111 -101.19566241277481) rotate(482.82311748506356)"><path class="b-outline" fill="#A5ABB6" stroke="none" d="M 25 0.5 L 38.6166217333889 0.5 L 38.6166217333889 -0.5 L 25 -0.5 Z M 98.3939654833889 0.5 L 112.0105872167778 0.5 L 112.0105872167778 3.5 L 119.0105872167778 0 L 112.0105872167778 -3.5 L 112.0105872167778 -0.5 L 98.3939654833889 -0.5 Z"/><text text-anchor="middle" pointer-events="none" font-size="8px" fill="#000000" x="68.5052936083889" y="3" transform="rotate(180 68.5052936083889 0)" font-family="Helvetica Neue, Helvetica, Arial, sans-serif">CONNECTION</text></g><g class="relationship" transform="translate(1.6193445622254679 19.82334202562425) rotate(237.83404749789742)"><path class="b-outline" fill="#A5ABB6" stroke="none" d="M 25 0.5 L 38.133850557352346 0.5 L 38.133850557352346 -0.5 L 25 -0.5 Z M 97.91119430735235 0.5 L 111.04504486470469 0.5 L 111.04504486470469 3.5 L 118.04504486470469 0 L 111.04504486470469 -3.5 L 111.04504486470469 -0.5 L 97.91119430735235 -0.5 Z"/><text text-anchor="middle" pointer-events="none" font-size="8px" fill="#000000" x="68.02252243235235" y="3" transform="rotate(180 68.02252243235235 0)" font-family="Helvetica Neue, Helvetica, Arial, sans-serif">CONNECTION</text></g><g class="relationship" transform="translate(-74.53402365591887 -101.26567221339373) rotate(485.5569399740419)"><path class="b-outline" fill="#A5ABB6" stroke="none" d="M 25 0.5 L 40.46699925106557 0.5 L 40.46699925106557 -0.5 L 25 -0.5 Z M 100.24434300106557 0.5 L 115.71134225213115 0.5 L 115.71134225213115 3.5 L 122.71134225213115 0 L 115.71134225213115 -3.5 L 115.71134225213115 -0.5 L 100.24434300106557 -0.5 Z"/><text text-anchor="middle" pointer-events="none" font-size="8px" fill="#000000" x="70.35567112606557" y="3" transform="rotate(180 70.35567112606557 0)" font-family="Helvetica Neue, Helvetica, Arial, sans-serif">CONNECTION</text></g></g><g class="layer nodes"><g class="node" aria-label="graph-node68" transform="translate(163.7383855173919,20.957818007014225)"><circle class="b-outline" cx="0" cy="0" r="25" fill="#A5ABB6" stroke="#9AA1AC" stroke-width="2px"/><text class="caption" text-anchor="middle" pointer-events="none" x="0" y="0" font-size="10px" fill="#FFFFFF" font-family="Helvetica Neue, Helvetica, Arial, sans-serif"> Kings</text><text class="caption" text-anchor="middle" pointer-events="none" x="0" y="10" font-size="10px" fill="#FFFFFF" font-family="Helvetica Neue, Helvetica, Arial, sans-serif"> Cross</text></g><g class="node" aria-label="graph-node69" transform="translate(79.67989666929111,-101.19566241277481)"><circle class="b-outline" cx="0" cy="0" r="25" fill="#A5ABB6" stroke="#9AA1AC" stroke-width="2px"/><text class="caption" text-anchor="middle" pointer-events="none" x="0" y="5" font-size="10px" fill="#FFFFFF" font-family="Helvetica Neue, Helvetica, Arial, sans-serif"> Euston</text></g><g class="node" aria-label="graph-node70" transform="translate(-74.53402365591887,-101.26567221339373)"><circle class="b-outline" cx="0" cy="0" r="25" fill="#A5ABB6" stroke="#9AA1AC" stroke-width="2px"/><text class="caption" text-anchor="middle" pointer-events="none" x="0" y="0" font-size="10px" fill="#FFFFFF" font-family="Helvetica Neue, Helvetica, Arial, sans-serif"> Camden</text><text class="caption" text-anchor="middle" pointer-events="none" x="0" y="10" font-size="10px" fill="#FFFFFF" font-family="Helvetica Neue, Helvetica, Arial, sans-serif"> Town</text></g><g class="node" aria-label="graph-node71" transform="translate(1.6193445622254679,19.82334202562425)"><circle class="b-outline" cx="0" cy="0" r="25" fill="#A5ABB6" stroke="#9AA1AC" stroke-width="2px"/><text class="caption" text-anchor="middle" pointer-events="none" x="0" y="5" font-size="10px" fill="#FFFFFF" font-family="Helvetica Neue, Helvetica, Arial, sans-serif"> Morningt…</text></g><g class="node" aria-label="graph-node72" transform="translate(-160.42990163770133,18.903120639264)"><circle class="b-outline" cx="0" cy="0" r="25" fill="#A5ABB6" stroke="#9AA1AC" stroke-width="2px"/><text class="caption" text-anchor="middle" pointer-events="none" x="0" y="0" font-size="10px" fill="#FFFFFF" font-family="Helvetica Neue, Helvetica, Arial, sans-serif"> Kentish</text><text class="caption" text-anchor="middle" pointer-events="none" x="0" y="10" font-size="10px" fill="#FFFFFF" font-family="Helvetica Neue, Helvetica, Arial, sans-serif"> Town</text></g></g></svg>