<svg xmlns="http://www.w3.org/2000/svg" width="588.8660278320312" height="353.484375" viewBox="-181.6946563720703 -103.99748992919922 588.8660278320312 353.484375"><title>Neo4j Graph Visualization</title><desc>Created using Neo4j (http://www.neo4j.com/)</desc><g class="layer relationships"><g class="relationship" transform="translate(168.88943972690018 174.38298644918763) rotate(359.607674786866)"><path class="outline" fill="#A5ABB6" stroke="none" d="M 25 0.5 L 83.03210464686012 0.5 L 83.03210464686012 -0.5 L 25 -0.5 Z M 119.25476089686012 0.5 L 177.28686554372024 0.5 L 177.28686554372024 3.5 L 184.28686554372024 0 L 177.28686554372024 -3.5 L 177.28686554372024 -0.5 L 119.25476089686012 -0.5 Z"/><text text-anchor="middle" pointer-events="none" font-size="8px" fill="#000000" x="101.14343277186012" y="3" font-family="sans-serif">KNOWS</text></g><g class="relationship" transform="translate(168.88943972690018 174.38298644918763) rotate(386.6979274100074)"><path class="outline" fill="#A5ABB6" stroke="none" d="M 25 0.5 L 29.69655424992805 0.5 L 29.69655424992805 -0.5 L 25 -0.5 Z M 65.91921049992806 0.5 L 70.6157647498561 0.5 L 70.6157647498561 3.5 L 77.6157647498561 0 L 70.6157647498561 -3.5 L 70.6157647498561 -0.5 L 65.91921049992806 -0.5 Z"/><text text-anchor="middle" pointer-events="none" font-size="8px" fill="#000000" x="47.80788237492805" y="3" font-family="sans-serif">KNOWS</text></g><g class="relationship" transform="translate(168.88943972690018 174.38298644918763) rotate(314.85279708425276)"><path class="outline" fill="#A5ABB6" stroke="none" d="M 25 0.5 L 42.65028571670938 0.5 L 42.65028571670938 -0.5 L 25 -0.5 Z M 78.87294196670938 0.5 L 96.52322768341875 0.5 L 96.52322768341875 3.5 L 103.52322768341875 0 L 96.52322768341875 -3.5 L 96.52322768341875 -0.5 L 78.87294196670938 -0.5 Z"/><text text-anchor="middle" pointer-events="none" font-size="8px" fill="#000000" x="60.76161384170938" y="3" font-family="sans-serif">KNOWS</text></g><g class="relationship" transform="translate(259.5353001219759 83.27015503999294) rotate(397.08648019574514)"><path class="outline" fill="#A5ABB6" stroke="none" d="M 25 0.5 L 52.74757626330482 0.5 L 52.74757626330482 -0.5 L 25 -0.5 Z M 88.97023251330482 0.5 L 116.71780877660964 0.5 L 116.71780877660964 3.5 L 123.71780877660964 0 L 116.71780877660964 -3.5 L 116.71780877660964 -0.5 L 88.97023251330482 -0.5 Z"/><text text-anchor="middle" pointer-events="none" font-size="8px" fill="#000000" x="70.85890438830482" y="3" font-family="sans-serif">KNOWS</text></g><g class="relationship" transform="translate(259.5353001219759 83.27015503999294) rotate(449.57000989439166)"><path class="outline" fill="#A5ABB6" stroke="none" d="M 25 0.5 L 46.998967905890666 0.5 L 46.998967905890666 -0.5 L 25 -0.5 Z M 83.22162415589067 0.5 L 105.22059206178133 0.5 L 105.22059206178133 3.5 L 112.22059206178133 0 L 105.22059206178133 -3.5 L 105.22059206178133 -0.5 L 83.22162415589067 -0.5 Z"/><text text-anchor="middle" pointer-events="none" font-size="8px" fill="#000000" x="65.11029603089067" y="3" font-family="sans-serif">KNOWS</text></g><g class="relationship" transform="translate(259.5353001219759 83.27015503999294) rotate(244.0197044629498)"><path class="outline" fill="#A5ABB6" stroke="none" d="M 25 0.5 L 34.820851420321205 0.5 L 34.820851420321205 -0.5 L 25 -0.5 Z M 71.0435076703212 0.5 L 80.86435909064241 0.5 L 80.86435909064241 3.5 L 87.86435909064241 0 L 80.86435909064241 -3.5 L 80.86435909064241 -0.5 L 71.0435076703212 -0.5 Z"/><text text-anchor="middle" pointer-events="none" font-size="8px" fill="#000000" x="52.932179545321205" y="3" transform="rotate(180 52.932179545321205 0)" font-family="sans-serif">KNOWS</text></g><g class="relationship" transform="translate(260.56509574597504 220.4868829078393) rotate(337.99123958557175)"><path class="outline" fill="#A5ABB6" stroke="none" d="M 25 0.5 L 41.813832667423235 0.5 L 41.813832667423235 -0.5 L 25 -0.5 Z M 78.03648891742324 0.5 L 94.85032158484647 0.5 L 94.85032158484647 3.5 L 101.85032158484647 0 L 94.85032158484647 -3.5 L 94.85032158484647 -0.5 L 78.03648891742324 -0.5 Z"/><text text-anchor="middle" pointer-events="none" font-size="8px" fill="#000000" x="59.925160792423235" y="3" font-family="sans-serif">KNOWS</text></g><g class="relationship" transform="translate(210.09371114755834 -18.188668295517047) rotate(209.46435547210643)"><path class="outline" fill="#A5ABB6" stroke="none" d="M 25 0.5 L 36.135062938458596 0.5 L 36.135062938458596 -0.5 L 25 -0.5 Z M 72.35771918845859 0.5 L 83.49278212691719 0.5 L 83.49278212691719 3.5 L 90.49278212691719 0 L 83.49278212691719 -3.5 L 83.49278212691719 -0.5 L 72.35771918845859 -0.5 Z"/><text text-anchor="middle" pointer-events="none" font-size="8px" fill="#000000" x="54.246391063458596" y="3" transform="rotate(180 54.246391063458596 0)" font-family="sans-serif">KNOWS</text></g><g class="relationship" transform="translate(109.53854934290166 -74.99748942265256) rotate(514.1425598455315)"><path class="outline" fill="#A5ABB6" stroke="none" d="M 25 0.5 L 36.16517089830011 0.5 L 36.16517089830011 -0.5 L 25 -0.5 Z M 72.38782714830012 0.5 L 83.55299804660022 0.5 L 83.55299804660022 3.5 L 90.55299804660022 0 L 83.55299804660022 -3.5 L 83.55299804660022 -0.5 L 72.38782714830012 -0.5 Z"/><text text-anchor="middle" pointer-events="none" font-size="8px" fill="#000000" x="54.27649902330011" y="3" transform="rotate(180 54.27649902330011 0)" font-family="sans-serif">KNOWS</text></g><g class="relationship" transform="translate(5.554487366771596 -24.600959656190113) rotate(473.96615575167004)"><path class="outline" fill="#A5ABB6" stroke="none" d="M 25 0.5 L 40.02595374210955 0.5 L 40.02595374210955 -0.5 L 25 -0.5 Z M 76.24860999210955 0.5 L 91.2745637342191 0.5 L 91.2745637342191 3.5 L 98.2745637342191 0 L 91.2745637342191 -3.5 L 91.2745637342191 -0.5 L 76.24860999210955 -0.5 Z"/><text text-anchor="middle" pointer-events="none" font-size="8px" fill="#000000" x="58.13728186710955" y="3" transform="rotate(180 58.13728186710955 0)" font-family="sans-serif">KNOWS</text></g><g class="relationship" transform="translate(-44.51926403078342 88.04555597939404) rotate(448.5789671266099)"><path class="outline" fill="#A5ABB6" stroke="none" d="M 25 0.5 L 41.239639626713085 0.5 L 41.239639626713085 -0.5 L 25 -0.5 Z M 77.46229587671309 0.5 L 93.70193550342617 0.5 L 93.70193550342617 3.5 L 100.70193550342617 0 L 93.70193550342617 -3.5 L 93.70193550342617 -0.5 L 77.46229587671309 -0.5 Z"/><text text-anchor="middle" pointer-events="none" font-size="8px" fill="#000000" x="59.350967751713085" y="3" font-family="sans-serif">KNOWS</text></g><g class="relationship" transform="translate(-44.51926403078342 88.04555597939404) rotate(397.5377201446654)"><path class="outline" fill="#A5ABB6" stroke="none" d="M 25 0.5 L 46.07558297062802 0.5 L 46.07558297062802 -0.5 L 25 -0.5 Z M 82.29823922062802 0.5 L 103.37382219125604 0.5 L 103.37382219125604 3.5 L 110.37382219125604 0 L 103.37382219125604 -3.5 L 103.37382219125604 -0.5 L 82.29823922062802 -0.5 Z"/><text text-anchor="middle" pointer-events="none" font-size="8px" fill="#000000" x="64.18691109562802" y="3" font-family="sans-serif">KNOWS</text></g><g class="relationship" transform="translate(-44.51926403078342 88.04555597939404) rotate(503.87616360153936)"><path class="outline" fill="#A5ABB6" stroke="none" d="M 25 0.5 L 45.35005116486566 0.5 L 45.35005116486566 -0.5 L 25 -0.5 Z M 81.57270741486566 0.5 L 101.92275857973132 0.5 L 101.92275857973132 3.5 L 108.92275857973132 0 L 101.92275857973132 -3.5 L 101.92275857973132 -0.5 L 81.57270741486566 -0.5 Z"/><text text-anchor="middle" pointer-events="none" font-size="8px" fill="#000000" x="63.46137928986566" y="3" transform="rotate(180 63.46137928986566 0)" font-family="sans-serif">KNOWS</text></g><g class="relationship" transform="translate(-152.6946617293737 166.99736785446646) rotate(382.7686324975791)"><path class="outline" fill="#A5ABB6" stroke="none" d="M 25 0.5 L 38.7377108126088 0.5 L 38.7377108126088 -0.5 L 25 -0.5 Z M 74.96036706260881 0.5 L 88.6980778752176 0.5 L 88.6980778752176 3.5 L 95.6980778752176 0 L 88.6980778752176 -3.5 L 88.6980778752176 -0.5 L 74.96036706260881 -0.5 Z"/><text text-anchor="middle" pointer-events="none" font-size="8px" fill="#000000" x="56.8490389376088" y="3" font-family="sans-serif">KNOWS</text></g><g class="relationship" transform="translate(-152.6946617293737 166.99736785446646) rotate(360.93815861529356)"><path class="outline" fill="#A5ABB6" stroke="none" d="M 25 0.5 L 86.16331626900161 0.5 L 86.16331626900161 -0.5 L 25 -0.5 Z M 122.38597251900161 0.5 L 183.54928878800322 0.5 L 183.54928878800322 3.5 L 190.54928878800322 0 L 183.54928878800322 -3.5 L 183.54928878800322 -0.5 L 122.38597251900161 -0.5 Z"/><text text-anchor="middle" pointer-events="none" font-size="8px" fill="#000000" x="104.27464439400161" y="3" font-family="sans-serif">KNOWS</text></g><g class="relationship" transform="translate(62.82573262588022 170.52660487822095) rotate(517.4954474315198)"><path class="outline" fill="#A5ABB6" stroke="none" d="M 25 0.5 L 34.798150284522904 0.5 L 34.798150284522904 -0.5 L 25 -0.5 Z M 71.0208065345229 0.5 L 80.81895681904581 0.5 L 80.81895681904581 3.5 L 87.81895681904581 0 L 80.81895681904581 -3.5 L 80.81895681904581 -0.5 L 71.0208065345229 -0.5 Z"/><text text-anchor="middle" pointer-events="none" font-size="8px" fill="#000000" x="52.909478409522904" y="3" transform="rotate(180 52.909478409522904 0)" font-family="sans-serif">KNOWS</text></g></g><g class="layer nodes"><g class="node" transform="translate(168.88943972690018,174.38298644918763)"><circle class="outline" cx="0" cy="0" r="25" fill="#FFC454" stroke="#d7a013" stroke-width="2px"/><text text-anchor="middle" pointer-events="none" font-family="sans-serif" dy="1.5625" font-size="25" fill="#2A2C34"/><text text-anchor="middle" pointer-events="none" x="0" y="5" font-size="10px" fill="#2A2C34" font-family="sans-serif"> Alice</text></g><g class="node" transform="translate(259.5353001219759,83.27015503999294)"><circle class="outline" cx="0" cy="0" r="25" fill="#FFC454" stroke="#d7a013" stroke-width="2px"/><text text-anchor="middle" pointer-events="none" font-family="sans-serif" dy="1.5625" font-size="25" fill="#2A2C34"/><text text-anchor="middle" pointer-events="none" x="0" y="5" font-size="10px" fill="#2A2C34" font-family="sans-serif"> Bob</text></g><g class="node" transform="translate(260.56509574597504,220.4868829078393)"><circle class="outline" cx="0" cy="0" r="25" fill="#FFC454" stroke="#d7a013" stroke-width="2px"/><text text-anchor="middle" pointer-events="none" font-family="sans-serif" dy="1.5625" font-size="25" fill="#2A2C34"/><text text-anchor="middle" pointer-events="none" x="0" y="5" font-size="10px" fill="#2A2C34" font-family="sans-serif"> Carol</text></g><g class="node" transform="translate(378.171398932718,172.9499337322047)"><circle class="outline" cx="0" cy="0" r="25" fill="#FFC454" stroke="#d7a013" stroke-width="2px"/><text text-anchor="middle" pointer-events="none" font-family="sans-serif" dy="1.5625" font-size="25" fill="#2A2C34"/><text text-anchor="middle" pointer-events="none" x="0" y="5" font-size="10px" fill="#2A2C34" font-family="sans-serif"> Dave</text></g><g class="node" transform="translate(210.09371114755834,-18.188668295517047)"><circle class="outline" cx="0" cy="0" r="25" fill="#FFC454" stroke="#d7a013" stroke-width="2px"/><text text-anchor="middle" pointer-events="none" font-family="sans-serif" dy="1.5625" font-size="25" fill="#2A2C34"/><text text-anchor="middle" pointer-events="none" x="0" y="5" font-size="10px" fill="#2A2C34" font-family="sans-serif"> Eve</text></g><g class="node" transform="translate(109.53854934290166,-74.99748942265256)"><circle class="outline" cx="0" cy="0" r="25" fill="#FFC454" stroke="#d7a013" stroke-width="2px"/><text text-anchor="middle" pointer-events="none" font-family="sans-serif" dy="1.5625" font-size="25" fill="#2A2C34"/><text text-anchor="middle" pointer-events="none" x="0" y="5" font-size="10px" fill="#2A2C34" font-family="sans-serif"> Fredrick</text></g><g class="node" transform="translate(5.554487366771596,-24.600959656190113)"><circle class="outline" cx="0" cy="0" r="25" fill="#FFC454" stroke="#d7a013" stroke-width="2px"/><text text-anchor="middle" pointer-events="none" font-family="sans-serif" dy="1.5625" font-size="25" fill="#2A2C34"/><text text-anchor="middle" pointer-events="none" x="0" y="5" font-size="10px" fill="#2A2C34" font-family="sans-serif"> Gary</text></g><g class="node" transform="translate(-44.51926403078342,88.04555597939404)"><circle class="outline" cx="0" cy="0" r="25" fill="#FFC454" stroke="#d7a013" stroke-width="2px"/><text text-anchor="middle" pointer-events="none" font-family="sans-serif" dy="1.5625" font-size="25" fill="#2A2C34"/><text text-anchor="middle" pointer-events="none" x="0" y="5" font-size="10px" fill="#2A2C34" font-family="sans-serif"> Hilda</text></g><g class="node" transform="translate(-152.6946617293737,166.99736785446646)"><circle class="outline" cx="0" cy="0" r="25" fill="#FFC454" stroke="#d7a013" stroke-width="2px"/><text text-anchor="middle" pointer-events="none" font-family="sans-serif" dy="1.5625" font-size="25" fill="#2A2C34"/><text text-anchor="middle" pointer-events="none" x="0" y="5" font-size="10px" fill="#2A2C34" font-family="sans-serif"> Ichabod</text></g><g class="node" transform="translate(62.82573262588022,170.52660487822095)"><circle class="outline" cx="0" cy="0" r="25" fill="#FFC454" stroke="#d7a013" stroke-width="2px"/><text text-anchor="middle" pointer-events="none" font-family="sans-serif" dy="1.5625" font-size="25" fill="#2A2C34"/><text text-anchor="middle" pointer-events="none" x="0" y="5" font-size="10px" fill="#2A2C34" font-family="sans-serif"> James</text></g><g class="node" transform="translate(-41.40196164392857,213.70883229804022)"><circle class="outline" cx="0" cy="0" r="25" fill="#FFC454" stroke="#d7a013" stroke-width="2px"/><text text-anchor="middle" pointer-events="none" font-family="sans-serif" dy="1.5625" font-size="25" fill="#2A2C34"/><text text-anchor="middle" pointer-events="none" x="0" y="5" font-size="10px" fill="#2A2C34" font-family="sans-serif"> Khalid</text></g></g></svg>