<svg xmlns="http://www.w3.org/2000/svg" width="487.953857421875" height="423.68280029296875" viewBox="-255.37371826171875 -218.15809631347656 487.953857421875 423.68280029296875"><title>Neo4j Graph Visualization</title><desc>Created using Neo4j (http://www.neo4j.com/)</desc><g class="layer relationships"><g class="relationship" transform="translate(69.10280022271364 161.52470530876715) rotate(252.4557898826231)"><path class="b-outline" fill="#A5ABB6" stroke="none" d="M 40 0.5 L 71.7023980986013 0.5 L 71.7023980986013 -0.5 L 40 -0.5 Z M 95.4875543486013 0.5 L 127.18995244720259 0.5 L 127.18995244720259 3.5 L 134.1899524472026 0 L 127.18995244720259 -3.5 L 127.18995244720259 -0.5 L 95.4875543486013 -0.5 Z"/><text text-anchor="middle" pointer-events="none" font-size="8px" fill="#000000" x="83.5949762236013" y="3" transform="rotate(180 83.5949762236013 0)" font-family="Helvetica Neue, Helvetica, Arial, sans-serif">LINK</text></g><g class="relationship" transform="translate(188.58012587364902 35.95417546002213) rotate(193.25622494588407)"><path class="b-outline" fill="#A5ABB6" stroke="none" d="M 40 0.5 L 72.95419151875525 0.5 L 72.95419151875525 -0.5 L 40 -0.5 Z M 96.73934776875525 0.5 L 129.6935392875105 0.5 L 129.6935392875105 3.5 L 136.6935392875105 0 L 129.6935392875105 -3.5 L 129.6935392875105 -0.5 L 96.73934776875525 -0.5 Z"/><text text-anchor="middle" pointer-events="none" font-size="8px" fill="#000000" x="84.84676964375525" y="3" transform="rotate(180 84.84676964375525 0)" font-family="Helvetica Neue, Helvetica, Arial, sans-serif">LINK</text></g><g class="relationship" transform="translate(188.58012587364902 35.95417546002213) rotate(493.57561308085747)"><path class="b-outline" fill="#A5ABB6" stroke="none" d="M 40 0.5 L 71.2717012973696 0.5 L 71.2717012973696 -0.5 L 40 -0.5 Z M 95.0568575473696 0.5 L 126.3285588447392 0.5 L 126.3285588447392 3.5 L 133.3285588447392 0 L 126.3285588447392 -3.5 L 126.3285588447392 -0.5 L 95.0568575473696 -0.5 Z"/><text text-anchor="middle" pointer-events="none" font-size="8px" fill="#000000" x="83.1642794223696" y="3" transform="rotate(180 83.1642794223696 0)" font-family="Helvetica Neue, Helvetica, Arial, sans-serif">LINK</text></g><g class="relationship" transform="translate(16.594700604755495 -4.562738551595998) rotate(255.76996159283362)"><path class="b-outline" fill="#A5ABB6" stroke="none" d="M 40 0.5 L 72.08934586143653 0.5 L 72.08934586143653 -0.5 L 40 -0.5 Z M 95.87450211143653 0.5 L 127.96384797287305 0.5 L 127.96384797287305 3.5 L 134.96384797287305 0 L 127.96384797287305 -3.5 L 127.96384797287305 -0.5 L 95.87450211143653 -0.5 Z"/><text text-anchor="middle" pointer-events="none" font-size="8px" fill="#000000" x="83.98192398643653" y="3" transform="rotate(180 83.98192398643653 0)" font-family="Helvetica Neue, Helvetica, Arial, sans-serif">LINK</text></g><g class="relationship" transform="translate(143.84188217320005 -133.57781488248025) rotate(193.4062354917903)"><path class="b-outline" fill="#A5ABB6" stroke="none" d="M 40 0.5 L 72.12009792265056 0.5 L 72.12009792265056 -0.5 L 40 -0.5 Z M 95.90525417265056 0.5 L 128.02535209530112 0.5 L 128.02535209530112 3.5 L 135.02535209530112 0 L 128.02535209530112 -3.5 L 128.02535209530112 -0.5 L 95.90525417265056 -0.5 Z"/><text text-anchor="middle" pointer-events="none" font-size="8px" fill="#000000" x="84.01267604765056" y="3" transform="rotate(180 84.01267604765056 0)" font-family="Helvetica Neue, Helvetica, Arial, sans-serif">LINK</text></g><g class="relationship" transform="translate(143.84188217320005 -133.57781488248025) rotate(435.2170732783497)"><path class="b-outline" fill="#A5ABB6" stroke="none" d="M 40 0.5 L 72.27526974252079 0.5 L 72.27526974252079 -0.5 L 40 -0.5 Z M 96.06042599252079 0.5 L 128.33569573504158 0.5 L 128.33569573504158 3.5 L 135.33569573504158 0 L 128.33569573504158 -3.5 L 128.33569573504158 -0.5 L 96.06042599252079 -0.5 Z"/><text text-anchor="middle" pointer-events="none" font-size="8px" fill="#000000" x="84.16784786752079" y="3" font-family="Helvetica Neue, Helvetica, Arial, sans-serif">LINK</text></g><g class="relationship" transform="translate(-211.37372292065254 -9.994818072823621) rotate(432.2553232007921)"><path class="b-outline" fill="#A5ABB6" stroke="none" d="M 40 0.5 L 70.67129298471707 0.5 L 70.67129298471707 -0.5 L 40 -0.5 Z M 94.45644923471707 0.5 L 125.12774221943414 0.5 L 125.12774221943414 3.5 L 132.12774221943414 0 L 125.12774221943414 -3.5 L 125.12774221943414 -0.5 L 94.45644923471707 -0.5 Z"/><text text-anchor="middle" pointer-events="none" font-size="8px" fill="#000000" x="82.56387110971707" y="3" font-family="Helvetica Neue, Helvetica, Arial, sans-serif">LINK</text></g></g><g class="layer nodes"><g class="node" aria-label="graph-node0" transform="translate(69.10280022271364,161.52470530876715)"><circle class="b-outline" cx="0" cy="0" r="40" fill="#DA7194" stroke="#cc3c6c" stroke-width="2px"/><text class="caption" text-anchor="middle" pointer-events="none" x="0" y="5" font-size="10px" fill="#FFFFFF" font-family="Helvetica Neue, Helvetica, Arial, sans-serif"> A</text></g><g class="node" aria-label="graph-node1" transform="translate(188.58012587364902,35.95417546002213)"><circle class="b-outline" cx="0" cy="0" r="40" fill="#DA7194" stroke="#cc3c6c" stroke-width="2px"/><text class="caption" text-anchor="middle" pointer-events="none" x="0" y="5" font-size="10px" fill="#FFFFFF" font-family="Helvetica Neue, Helvetica, Arial, sans-serif"> B</text></g><g class="node" aria-label="graph-node2" transform="translate(16.594700604755495,-4.562738551595998)"><circle class="b-outline" cx="0" cy="0" r="40" fill="#DA7194" stroke="#cc3c6c" stroke-width="2px"/><text class="caption" text-anchor="middle" pointer-events="none" x="0" y="5" font-size="10px" fill="#FFFFFF" font-family="Helvetica Neue, Helvetica, Arial, sans-serif"> C</text></g><g class="node" aria-label="graph-node3" transform="translate(143.84188217320005,-133.57781488248025)"><circle class="b-outline" cx="0" cy="0" r="40" fill="#DA7194" stroke="#cc3c6c" stroke-width="2px"/><text class="caption" text-anchor="middle" pointer-events="none" x="0" y="5" font-size="10px" fill="#FFFFFF" font-family="Helvetica Neue, Helvetica, Arial, sans-serif"> D</text></g><g class="node" aria-label="graph-node4" transform="translate(-26.414143081368085,-174.1581024689426)"><circle class="b-outline" cx="0" cy="0" r="40" fill="#DA7194" stroke="#cc3c6c" stroke-width="2px"/><text class="caption" text-anchor="middle" pointer-events="none" x="0" y="5" font-size="10px" fill="#FFFFFF" font-family="Helvetica Neue, Helvetica, Arial, sans-serif"> E</text></g><g class="node" aria-label="graph-node5" transform="translate(-211.37372292065254,-9.994818072823621)"><circle class="b-outline" cx="0" cy="0" r="40" fill="#DA7194" stroke="#cc3c6c" stroke-width="2px"/><text class="caption" text-anchor="middle" pointer-events="none" x="0" y="5" font-size="10px" fill="#FFFFFF" font-family="Helvetica Neue, Helvetica, Arial, sans-serif"> F</text></g><g class="node" aria-label="graph-node6" transform="translate(-158.91335032635607,153.94379528238184)"><circle class="b-outline" cx="0" cy="0" r="40" fill="#DA7194" stroke="#cc3c6c" stroke-width="2px"/><text class="caption" text-anchor="middle" pointer-events="none" x="0" y="5" font-size="10px" fill="#FFFFFF" font-family="Helvetica Neue, Helvetica, Arial, sans-serif"> G</text></g></g></svg>