<svg xmlns="http://www.w3.org/2000/svg" width="482.11297607421875" height="319.1985778808594" viewBox="-128.6016845703125 -110.8370361328125 482.11297607421875 319.1985778808594"><title>Neo4j Graph Visualization</title><desc>Created using Neo4j (http://www.neo4j.com/)</desc><g class="layer relationships"><g class="relationship" transform="translate(7.508299365584016 179.36154476451182) rotate(359.8449276712636)"><path class="outline" fill="#A5ABB6" stroke="none" d="M 25 1 L 78.15815064719087 1 L 78.15815064719087 -1 L 25 -1 Z M 105.05268189719087 1 L 158.21083254438173 1 L 158.21083254438173 4 L 166.21083254438173 0 L 158.21083254438173 -4 L 158.21083254438173 -1 L 105.05268189719087 -1 Z"/><text text-anchor="middle" pointer-events="none" font-size="8px" fill="#000000" x="91.60541627219087" y="3" font-family="sans-serif">TYPE</text></g><g class="relationship" transform="translate(198.71843157536375 178.84402893466512) rotate(316.756478653714)"><path class="outline" fill="#A5ABB6" stroke="none" d="M 25 1 L 68.89573652671062 1 L 68.89573652671062 -1 L 25 -1 Z M 95.79026777671062 1 L 139.68600430342124 1 L 139.68600430342124 4 L 147.68600430342124 0 L 139.68600430342124 -4 L 139.68600430342124 -1 L 95.79026777671062 -1 Z"/><text text-anchor="middle" pointer-events="none" font-size="8px" fill="#000000" x="82.34300215171062" y="3" font-family="sans-serif">TYPE</text></g><g class="relationship" transform="translate(324.51128227846584 60.53673924265888) rotate(229.92260422069324)"><path class="outline" fill="#A5ABB6" stroke="none" d="M 25 1 L 75.58615333771368 1 L 75.58615333771368 -1 L 25 -1 Z M 102.48068458771368 1 L 153.06683792542736 1 L 153.06683792542736 4 L 161.06683792542736 0 L 153.06683792542736 -4 L 153.06683792542736 -1 L 102.48068458771368 -1 Z"/><text text-anchor="middle" pointer-events="none" font-size="8px" fill="#000000" x="89.03341896271368" y="3" transform="rotate(180 89.03341896271368 0)" font-family="sans-serif">TYPE</text></g><g class="relationship" transform="translate(204.71739496069367 -81.83703902027887) rotate(538.543102652972)"><path class="outline" fill="#A5ABB6" stroke="none" d="M 25 1 L 81.46992136561721 1 L 81.46992136561721 -1 L 25 -1 Z M 108.36445261561721 1 L 164.83437398123442 1 L 164.83437398123442 4 L 172.83437398123442 0 L 164.83437398123442 -4 L 164.83437398123442 -1 L 108.36445261561721 -1 Z"/><text text-anchor="middle" pointer-events="none" font-size="8px" fill="#000000" x="94.91718699061721" y="3" transform="rotate(180 94.91718699061721 0)" font-family="sans-serif">TYPE</text></g><g class="relationship" transform="translate(6.946973990587555 -76.8071167689967) rotate(489.75774159906535)"><path class="outline" fill="#A5ABB6" stroke="none" d="M 25 1 L 65.85336997365668 1 L 65.85336997365668 -1 L 25 -1 Z M 92.74790122365668 1 L 133.60127119731337 1 L 133.60127119731337 4 L 141.60127119731337 0 L 133.60127119731337 -4 L 133.60127119731337 -1 L 92.74790122365668 -1 Z"/><text text-anchor="middle" pointer-events="none" font-size="8px" fill="#000000" x="79.30063559865668" y="3" transform="rotate(180 79.30063559865668 0)" font-family="sans-serif">TYPE</text></g></g><g class="layer nodes"><g class="node" transform="translate(7.508299365584016,179.36154476451182)"><circle class="outline" cx="0" cy="0" r="25" fill="#4C8EDA" stroke="#2870c2" stroke-width="2px"/><text text-anchor="middle" pointer-events="none" font-family="sans-serif" dy="1.5625" font-size="25" fill="#FFFFFF"/><text text-anchor="middle" pointer-events="none" x="0" y="5" font-size="10px" fill="#FFFFFF" font-family="sans-serif"> 0</text></g><g class="node" transform="translate(198.71843157536375,178.84402893466512)"><circle class="outline" cx="0" cy="0" r="25" fill="#4C8EDA" stroke="#2870c2" stroke-width="2px"/><text text-anchor="middle" pointer-events="none" font-family="sans-serif" dy="1.5625" font-size="25" fill="#FFFFFF"/><text text-anchor="middle" pointer-events="none" x="0" y="5" font-size="10px" fill="#FFFFFF" font-family="sans-serif"> 1</text></g><g class="node" transform="translate(324.51128227846584,60.53673924265888)"><circle class="outline" cx="0" cy="0" r="25" fill="#4C8EDA" stroke="#2870c2" stroke-width="2px"/><text text-anchor="middle" pointer-events="none" font-family="sans-serif" dy="1.5625" font-size="25" fill="#FFFFFF"/><text text-anchor="middle" pointer-events="none" x="0" y="5" font-size="10px" fill="#FFFFFF" font-family="sans-serif"> 2</text></g><g class="node" transform="translate(204.71739496069367,-81.83703902027887)"><circle class="outline" cx="0" cy="0" r="25" fill="#4C8EDA" stroke="#2870c2" stroke-width="2px"/><text text-anchor="middle" pointer-events="none" font-family="sans-serif" dy="1.5625" font-size="25" fill="#FFFFFF"/><text text-anchor="middle" pointer-events="none" x="0" y="5" font-size="10px" fill="#FFFFFF" font-family="sans-serif"> 3</text></g><g class="node" transform="translate(6.946973990587555,-76.8071167689967)"><circle class="outline" cx="0" cy="0" r="25" fill="#4C8EDA" stroke="#2870c2" stroke-width="2px"/><text text-anchor="middle" pointer-events="none" font-family="sans-serif" dy="1.5625" font-size="25" fill="#FFFFFF"/><text text-anchor="middle" pointer-events="none" x="0" y="5" font-size="10px" fill="#FFFFFF" font-family="sans-serif"> 4</text></g><g class="node" transform="translate(-99.60168268240247,51.26851450308429)"><circle class="outline" cx="0" cy="0" r="25" fill="#4C8EDA" stroke="#2870c2" stroke-width="2px"/><text text-anchor="middle" pointer-events="none" font-family="sans-serif" dy="1.5625" font-size="25" fill="#FFFFFF"/><text text-anchor="middle" pointer-events="none" x="0" y="5" font-size="10px" fill="#FFFFFF" font-family="sans-serif"> 5</text></g></g></svg>