<svg xmlns="http://www.w3.org/2000/svg" width="362.2257385253906" height="381.9668273925781" viewBox="-181.91323852539062 -171.67147827148438 362.2257385253906 381.9668273925781"><title>Neo4j Graph Visualization</title><desc>Created using Neo4j (http://www.neo4j.com/)</desc><g class="layer relationships"><g class="relationship" transform="translate(-10.225028361300899 166.29536768904018) rotate(271.26381774782766)"><path class="b-outline" fill="#A5ABB6" stroke="none" d="M 40 0.5 L 69.37063577893899 0.5 L 69.37063577893899 -0.5 L 40 -0.5 Z M 93.15579202893899 0.5 L 122.52642780787798 0.5 L 122.52642780787798 3.5 L 129.52642780787798 0 L 122.52642780787798 -3.5 L 122.52642780787798 -0.5 L 93.15579202893899 -0.5 Z"/><text text-anchor="middle" pointer-events="none" font-size="8px" fill="#000000" x="81.26321390393899" y="3" font-family="Helvetica Neue, Helvetica, Arial, sans-serif">LINK</text></g><g class="relationship" transform="translate(-10.225028361300899 166.29536768904018) rotate(324.3541207754773)"><path class="b-outline" fill="#A5ABB6" stroke="none" d="M 40 0.5 L 74.76945277148312 0.5 L 74.76945277148312 -0.5 L 40 -0.5 Z M 98.55460902148312 0.5 L 133.32406179296623 0.5 L 133.32406179296623 3.5 L 140.32406179296623 0 L 133.32406179296623 -3.5 L 133.32406179296623 -0.5 L 98.55460902148312 -0.5 Z"/><text text-anchor="middle" pointer-events="none" font-size="8px" fill="#000000" x="86.66203089648312" y="3" font-family="Helvetica Neue, Helvetica, Arial, sans-serif">LINK</text></g><g class="relationship" transform="translate(-10.225028361300899 166.29536768904018) rotate(224.96544637409897)"><path class="b-outline" fill="#A5ABB6" stroke="none" d="M 40 0.5 L 74.84222415912583 0.5 L 74.84222415912583 -0.5 L 40 -0.5 Z M 98.62738040912583 0.5 L 133.46960456825167 0.5 L 133.46960456825167 3.5 L 140.46960456825167 0 L 133.46960456825167 -3.5 L 133.46960456825167 -0.5 L 98.62738040912583 -0.5 Z"/><text text-anchor="middle" pointer-events="none" font-size="8px" fill="#000000" x="86.73480228412583" y="3" transform="rotate(180 86.73480228412583 0)" font-family="Helvetica Neue, Helvetica, Arial, sans-serif">LINK</text></g><g class="relationship" transform="translate(136.3125018491843 61.207216590428494) rotate(264.2504059001866)"><path class="b-outline" fill="#A5ABB6" stroke="none" d="M 40 0.5 L 74.71469067548664 0.5 L 74.71469067548664 -0.5 L 40 -0.5 Z M 98.49984692548664 0.5 L 133.21453760097327 0.5 L 133.21453760097327 3.5 L 140.21453760097327 0 L 133.21453760097327 -3.5 L 133.21453760097327 -0.5 L 98.49984692548664 -0.5 Z"/><text text-anchor="middle" pointer-events="none" font-size="8px" fill="#000000" x="86.60726880048664" y="3" transform="rotate(180 86.60726880048664 0)" font-family="Helvetica Neue, Helvetica, Arial, sans-serif">LINK</text></g><g class="relationship" transform="translate(118.25842692231416 -118.10070275857173) rotate(497.34963397213744)"><path class="b-outline" fill="#A5ABB6" stroke="none" d="M 40 0.5 L 69.40965003618301 0.5 L 69.40965003618301 -0.5 L 40 -0.5 Z M 93.19480628618301 0.5 L 122.60445632236602 0.5 L 122.60445632236602 3.5 L 129.60445632236602 0 L 122.60445632236602 -3.5 L 122.60445632236602 -0.5 L 93.19480628618301 -0.5 Z"/><text text-anchor="middle" pointer-events="none" font-size="8px" fill="#000000" x="81.30222816118301" y="3" transform="rotate(180 81.30222816118301 0)" font-family="Helvetica Neue, Helvetica, Arial, sans-serif">LINK</text></g><g class="relationship" transform="translate(118.25842692231416 -118.10070275857173) rotate(183.0385978209407)"><path class="b-outline" fill="#A5ABB6" stroke="none" d="M 40 0.5 L 74.88304843701884 0.5 L 74.88304843701884 -0.5 L 40 -0.5 Z M 98.66820468701884 0.5 L 133.5512531240377 0.5 L 133.5512531240377 3.5 L 140.5512531240377 0 L 133.5512531240377 -3.5 L 133.5512531240377 -0.5 L 98.66820468701884 -0.5 Z"/><text text-anchor="middle" pointer-events="none" font-size="8px" fill="#000000" x="86.77562656201884" y="3" transform="rotate(180 86.77562656201884 0)" font-family="Helvetica Neue, Helvetica, Arial, sans-serif">LINK</text></g><g class="relationship" transform="translate(-137.91324545362275 38.761068816912434) rotate(294.50757628068243)"><path class="b-outline" fill="#A5ABB6" stroke="none" d="M 40 0.5 L 76.06328489254035 0.5 L 76.06328489254035 -0.5 L 40 -0.5 Z M 99.84844114254035 0.5 L 135.9117260350807 0.5 L 135.9117260350807 3.5 L 142.9117260350807 0 L 135.9117260350807 -3.5 L 135.9117260350807 -0.5 L 99.84844114254035 -0.5 Z"/><text text-anchor="middle" pointer-events="none" font-size="8px" fill="#000000" x="87.95586301754035" y="3" font-family="Helvetica Neue, Helvetica, Arial, sans-serif">LINK</text></g></g><g class="layer nodes"><g class="node" aria-label="graph-node0" transform="translate(-10.225028361300899,166.29536768904018)"><circle class="b-outline" cx="0" cy="0" r="40" fill="#DA7194" stroke="#cc3c6c" stroke-width="2px"/><text class="caption" text-anchor="middle" pointer-events="none" x="0" y="5" font-size="10px" fill="#FFFFFF" font-family="Helvetica Neue, Helvetica, Arial, sans-serif"> A</text></g><g class="node" aria-label="graph-node1" transform="translate(136.3125018491843,61.207216590428494)"><circle class="b-outline" cx="0" cy="0" r="40" fill="#DA7194" stroke="#cc3c6c" stroke-width="2px"/><text class="caption" text-anchor="middle" pointer-events="none" x="0" y="5" font-size="10px" fill="#FFFFFF" font-family="Helvetica Neue, Helvetica, Arial, sans-serif"> B</text></g><g class="node" aria-label="graph-node2" transform="translate(118.25842692231416,-118.10070275857173)"><circle class="b-outline" cx="0" cy="0" r="40" fill="#DA7194" stroke="#cc3c6c" stroke-width="2px"/><text class="caption" text-anchor="middle" pointer-events="none" x="0" y="5" font-size="10px" fill="#FFFFFF" font-family="Helvetica Neue, Helvetica, Arial, sans-serif"> C</text></g><g class="node" aria-label="graph-node3" transform="translate(-62.03898045065949,-127.67148638606618)"><circle class="b-outline" cx="0" cy="0" r="40" fill="#DA7194" stroke="#cc3c6c" stroke-width="2px"/><text class="caption" text-anchor="middle" pointer-events="none" x="0" y="5" font-size="10px" fill="#FFFFFF" font-family="Helvetica Neue, Helvetica, Arial, sans-serif"> D</text></g><g class="node" aria-label="graph-node4" transform="translate(-6.485954791561577,-3.189820614067148)"><circle class="b-outline" cx="0" cy="0" r="40" fill="#DA7194" stroke="#cc3c6c" stroke-width="2px"/><text class="caption" text-anchor="middle" pointer-events="none" x="0" y="5" font-size="10px" fill="#FFFFFF" font-family="Helvetica Neue, Helvetica, Arial, sans-serif"> E</text></g><g class="node" aria-label="graph-node5" transform="translate(-137.91324545362275,38.761068816912434)"><circle class="b-outline" cx="0" cy="0" r="40" fill="#DA7194" stroke="#cc3c6c" stroke-width="2px"/><text class="caption" text-anchor="middle" pointer-events="none" x="0" y="5" font-size="10px" fill="#FFFFFF" font-family="Helvetica Neue, Helvetica, Arial, sans-serif"> F</text></g></g></svg>