<svg xmlns="http://www.w3.org/2000/svg" width="224.98995971679688" height="245.60452270507812" viewBox="-81.96719360351562 -98.90972137451172 224.98995971679688 245.60452270507812"><title>Neo4j Graph Visualization</title><desc>Created using Neo4j (http://www.neo4j.com/)</desc><g class="layer relationships"><g class="relationship" transform="translate(26.953698033228527 -69.90971837244778) rotate(406.85158839036444)"><path class="b-outline" fill="#57C7E3" stroke="none" d="M 25 0.5 L 54.26849419892324 0.5 L 54.26849419892324 -0.5 L 25 -0.5 Z M 66.04583794892324 0.5 L 95.31433214784649 0.5 L 95.31433214784649 3.5 L 102.31433214784649 0 L 95.31433214784649 -3.5 L 95.31433214784649 -0.5 L 66.04583794892324 -0.5 Z"/><text text-anchor="middle" pointer-events="none" font-size="8px" fill="#000000" x="60.15716607392324" y="3" font-family="Helvetica Neue, Helvetica, Arial, sans-serif">R</text></g><g class="relationship" transform="translate(114.0227570522065 22.976869097444265) rotate(539.2572994353146)"><path class="b-outline" fill="#57C7E3" stroke="none" d="M 24.018736134675446,-6.953439040707552 L 24.277555179777966,-5.987513214418485 A 224.21013152080363 224.21013152080363 0 0 1 74.09607436262755,-13.476874344501766 L 74.05945098212294,-14.476203483474706 A 225.21013152080363 225.21013152080363 0 0 0 24.018736134675446,-6.953439040707552 Z M 85.86100798399261,-14.599250227002841 L 85.84522893960552,-13.599374723873467 A 224.21013152080363 224.21013152080363 0 0 1 135.80907384542485,-7.1503758918077445 L 135.09320521593577,-4.2370389553526735 L 142.72617146873486,-5.965571912409053 L 136.7635653514103,-11.034825140414506 L 136.04769672192123,-8.121488203959435 A 225.21013152080363 225.21013152080363 0 0 0 85.86100798399261,-14.599250227002841"/><text text-anchor="middle" pointer-events="none" font-size="8px" fill="#000000" x="79.96463618124291" y="-11.115075281286494" transform="rotate(180 79.96463618124291 -14.115075281286494)" font-family="Helvetica Neue, Helvetica, Arial, sans-serif">R</text></g><g class="relationship" transform="translate(-52.96719172555822 25.141609280046666) rotate(359.2572994353146)"><path class="b-outline" fill="#57C7E3" stroke="none" d="M 24.018736134675446,-6.953439040707552 L 24.277555179777966,-5.987513214418485 A 224.21013152080363 224.21013152080363 0 0 1 74.09607436262755,-13.476874344501766 L 74.05945098212294,-14.476203483474706 A 225.21013152080363 225.21013152080363 0 0 0 24.018736134675446,-6.953439040707552 Z M 85.86100798399261,-14.599250227002841 L 85.84522893960552,-13.599374723873467 A 224.21013152080363 224.21013152080363 0 0 1 135.80907384542485,-7.1503758918077445 L 135.09320521593577,-4.2370389553526735 L 142.72617146873486,-5.965571912409053 L 136.7635653514103,-11.034825140414506 L 136.04769672192123,-8.121488203959435 A 225.21013152080363 225.21013152080363 0 0 0 85.86100798399261,-14.599250227002841"/><text text-anchor="middle" pointer-events="none" font-size="8px" fill="#000000" x="79.96463618124291" y="-11.115075281286494" font-family="Helvetica Neue, Helvetica, Arial, sans-serif">R</text></g><g class="relationship" transform="translate(114.0227570522065 22.976869097444265) rotate(493.54234600313464)"><path class="b-outline" fill="#57C7E3" stroke="none" d="M 25 0.5 L 55.9461660546244 0.5 L 55.9461660546244 -0.5 L 25 -0.5 Z M 67.7235098046244 0.5 L 98.6696758592488 0.5 L 98.6696758592488 3.5 L 105.6696758592488 0 L 98.6696758592488 -3.5 L 98.6696758592488 -0.5 L 67.7235098046244 -0.5 Z"/><text text-anchor="middle" pointer-events="none" font-size="8px" fill="#000000" x="61.8348379296244" y="3" transform="rotate(180 61.8348379296244 0)" font-family="Helvetica Neue, Helvetica, Arial, sans-serif">R</text></g></g><g class="layer nodes"><g class="node" aria-label="graph-node0" transform="translate(26.953698033228527,-69.90971837244778)"><circle class="b-outline" cx="0" cy="0" r="25" fill="#57C7E3" stroke="#23b3d7" stroke-width="2px"/><text class="caption" text-anchor="middle" pointer-events="none" x="0" y="5" font-size="10px" fill="#2A2C34" font-family="Helvetica Neue, Helvetica, Arial, sans-serif"> 0</text></g><g class="node" aria-label="graph-node1" transform="translate(114.0227570522065,22.976869097444265)"><circle class="b-outline" cx="0" cy="0" r="25" fill="#57C7E3" stroke="#23b3d7" stroke-width="2px"/><text class="caption" text-anchor="middle" pointer-events="none" x="0" y="5" font-size="10px" fill="#2A2C34" font-family="Helvetica Neue, Helvetica, Arial, sans-serif"> 1</text></g><g class="node" aria-label="graph-node2" transform="translate(-52.96719172555822,25.141609280046666)"><circle class="b-outline" cx="0" cy="0" r="25" fill="#57C7E3" stroke="#23b3d7" stroke-width="2px"/><text class="caption" text-anchor="middle" pointer-events="none" x="0" y="5" font-size="10px" fill="#2A2C34" font-family="Helvetica Neue, Helvetica, Arial, sans-serif"> 2</text></g><g class="node" aria-label="graph-node3" transform="translate(24.00565933045251,117.69479932669566)"><circle class="b-outline" cx="0" cy="0" r="25" fill="#57C7E3" stroke="#23b3d7" stroke-width="2px"/><text class="caption" text-anchor="middle" pointer-events="none" x="0" y="5" font-size="10px" fill="#2A2C34" font-family="Helvetica Neue, Helvetica, Arial, sans-serif"> 3</text></g></g></svg>