<svg xmlns="http://www.w3.org/2000/svg" width="281.8096008300781" height="281.2473449707031" viewBox="-280.61236572265625 -198.89805603027344 281.8096008300781 281.2473449707031"><title>Neo4j Graph Visualization</title><desc>Created using Neo4j (http://www.neo4j.com/)</desc><g class="layer relationships"><g class="relationship" transform="translate(-143.02576482149436 -169.89806214592858) rotate(396.57800838215485)"><path class="outline" fill="#A5ABB6" stroke="none" d="M 25 0.5 L 57.15167474489816 0.5 L 57.15167474489816 -0.5 L 25 -0.5 Z M 78.71417474489816 0.5 L 110.86584948979632 0.5 L 110.86584948979632 3.5 L 117.86584948979632 0 L 110.86584948979632 -3.5 L 110.86584948979632 -0.5 L 78.71417474489816 -0.5 Z"/><text text-anchor="middle" pointer-events="none" font-size="8px" fill="#000000" x="67.93292474489816" y="3" font-family="sans-serif">REL</text></g><g class="relationship" transform="translate(-143.02576482149436 -169.89806214592858) rotate(499.65170410386645)"><path class="outline" fill="#A5ABB6" stroke="none" d="M 25 0.5 L 56.11789265619308 0.5 L 56.11789265619308 -0.5 L 25 -0.5 Z M 77.68039265619308 0.5 L 108.79828531238616 0.5 L 108.79828531238616 3.5 L 115.79828531238616 0 L 108.79828531238616 -3.5 L 108.79828531238616 -0.5 L 77.68039265619308 -0.5 Z"/><text text-anchor="middle" pointer-events="none" font-size="8px" fill="#000000" x="66.89914265619308" y="3" transform="rotate(180 66.89914265619308 0)" font-family="sans-serif">REL</text></g><g class="relationship" transform="translate(-250.33135744188996 -78.7406875715487) rotate(450.55563444287503)"><path class="outline" fill="#A5ABB6" stroke="none" d="M 25 0.5 L 51.76684209139539 0.5 L 51.76684209139539 -0.5 L 25 -0.5 Z M 73.32934209139539 0.5 L 100.09618418279078 0.5 L 100.09618418279078 3.5 L 107.09618418279078 0 L 100.09618418279078 -3.5 L 100.09618418279078 -0.5 L 73.32934209139539 -0.5 Z"/><text text-anchor="middle" pointer-events="none" font-size="8px" fill="#000000" x="62.54809209139539" y="3" transform="rotate(180 62.54809209139539 0)" font-family="sans-serif">REL</text></g><g class="relationship" transform="translate(-28.297878315419325 -84.76191818644273) rotate(449.7876496862051)"><path class="outline" fill="#A5ABB6" stroke="none" d="M 25 0.5 L 52.51266795884233 0.5 L 52.51266795884233 -0.5 L 25 -0.5 Z M 74.07516795884233 0.5 L 101.58783591768466 0.5 L 101.58783591768466 3.5 L 108.58783591768466 0 L 101.58783591768466 -3.5 L 101.58783591768466 -0.5 L 74.07516795884233 -0.5 Z"/><text text-anchor="middle" pointer-events="none" font-size="8px" fill="#000000" x="63.29391795884233" y="3" font-family="sans-serif">REL</text></g></g><g class="layer nodes"><g class="node" aria-label="graph-node0" transform="translate(-143.02576482149436,-169.89806214592858)"><circle class="outline" cx="0" cy="0" r="25" fill="#D9C8AE" stroke="#c0a378" stroke-width="2px"/><text class="caption" text-anchor="middle" pointer-events="none" x="0" y="5" font-size="10px" fill="#2A2C34" font-family="sans-serif"> A</text></g><g class="node" aria-label="graph-node1" transform="translate(-250.33135744188996,-78.7406875715487)"><circle class="outline" cx="0" cy="0" r="25" fill="#D9C8AE" stroke="#c0a378" stroke-width="2px"/><text class="caption" text-anchor="middle" pointer-events="none" x="0" y="5" font-size="10px" fill="#2A2C34" font-family="sans-serif"> B</text></g><g class="node" aria-label="graph-node2" transform="translate(-28.297878315419325,-84.76191818644273)"><circle class="outline" cx="0" cy="0" r="25" fill="#D9C8AE" stroke="#c0a378" stroke-width="2px"/><text class="caption" text-anchor="middle" pointer-events="none" x="0" y="5" font-size="10px" fill="#2A2C34" font-family="sans-serif"> C</text></g><g class="node" aria-label="graph-node3" transform="translate(-27.802774589195423,48.825000250470524)"><circle class="outline" cx="0" cy="0" r="25" fill="#D9C8AE" stroke="#c0a378" stroke-width="2px"/><text class="caption" text-anchor="middle" pointer-events="none" x="0" y="5" font-size="10px" fill="#2A2C34" font-family="sans-serif"> D</text></g><g class="node" aria-label="graph-node4" transform="translate(-251.61235998519646,53.34928520510768)"><circle class="outline" cx="0" cy="0" r="25" fill="#D9C8AE" stroke="#c0a378" stroke-width="2px"/><text class="caption" text-anchor="middle" pointer-events="none" x="0" y="5" font-size="10px" fill="#2A2C34" font-family="sans-serif"> E</text></g></g></svg>