<svg xmlns="http://www.w3.org/2000/svg" width="354.55657958984375" height="259.5057373046875" viewBox="-145.38418579101562 -143.50027465820312 354.55657958984375 259.5057373046875"><title>Neo4j Graph Visualization</title><desc>Created using Neo4j (http://www.neo4j.com/)</desc><g class="layer relationships"><g class="relationship" transform="translate(106.18766925006797 72.00545890592419) rotate(267.53154644608014)"><path class="b-outline" fill="#A5ABB6" stroke="none" d="M 9.869798890956295,-38.766442574113995 L 10.835724717245364,-38.50762352901147 A 75.8060150012732 75.8060150012732 0 0 1 68.22667288598849,-93.02191008377599 L 68.01782350235084,-93.9998579018901 A 76.8060150012732 76.8060150012732 0 0 0 9.869798890956295,-38.766442574113995 Z M 94.20462388681496,-95.02052224207009 L 94.07252601021486,-94.02928556448106 A 75.8060150012732 75.8060150012732 0 0 1 155.5324510723773,-44.14736517607002 L 152.7038995909621,-43.14771697946091 L 158.33638877803443,-37.71401975220272 L 159.30385304759758,-45.48022943821549 L 156.47530156618237,-44.48058124160638 A 76.8060150012732 76.8060150012732 0 0 0 94.20462388681496,-95.02052224207009"/><text text-anchor="middle" pointer-events="none" font-size="8px" fill="#000000" x="81.08684348663188" y="-92.13570388079262" transform="rotate(180 81.08684348663188 -95.13570388079262)" font-family="Helvetica Neue, Helvetica, Arial, sans-serif">PAYS</text></g><g class="relationship" transform="translate(106.18766925006797 72.00545890592419) rotate(267.53154644608014)"><path class="b-outline" fill="#A5ABB6" stroke="none" d="M 27.93071785686863,-28.63782463805517 L 28.637824638055175,-27.930717856868625 A 78.37697110467366 78.37697110467366 0 0 1 68.95862493655484,-49.418457433170786 L 68.76596518911052,-50.3997230555762 A 79.37697110467366 79.37697110467366 0 0 0 27.93071785686863,-28.63782463805517 Z M 94.96504900447881,-51.13396992675182 L 94.82764975054326,-50.1434541797705 A 78.37697110467366 78.37697110467366 0 0 1 136.2886321024377,-30.947703836885427 L 134.28945100480436,-28.710903680665474 L 141.84102931655647,-26.655747968444327 L 138.95420689928213,-33.9301040451787 L 136.9550258016488,-31.69330388895875 A 79.37697110467366 79.37697110467366 0 0 0 94.96504900447881,-51.13396992675182"/><text text-anchor="middle" pointer-events="none" font-size="8px" fill="#000000" x="81.84900007658916" y="-48.3558429484642" transform="rotate(180 81.84900007658916 -51.3558429484642)" font-family="Helvetica Neue, Helvetica, Arial, sans-serif">PAYS</text></g><g class="relationship" transform="translate(106.18766925006797 72.00545890592419) rotate(267.53154644608014)"><path class="b-outline" fill="#A5ABB6" stroke="none" d="M 38.50762352901147,-10.835724717245364 L 38.766442574113995,-9.869798890956295 A 174.99589260511073 174.99589260511073 0 0 1 69.25482907007898,-15.205343291627912 L 69.17023346555038,-16.201758658678443 A 175.99589260511073 175.99589260511073 0 0 0 38.50762352901147,-10.835724717245364 Z M 95.38319468920695,-16.467923672898223 L 95.31884953815512,-15.469995969336424 A 174.99589260511073 174.99589260511073 0 0 1 125.90929231400294,-10.75464275282562 L 125.19183696183518,-7.841696166009132 L 132.82574357526937,-9.566071362236906 L 126.86589945022664,-14.638571535247603 L 126.14844409805887,-11.725624948431117 A 175.99589260511073 175.99589260511073 0 0 0 95.38319468920695,-16.467923672898223"/><text text-anchor="middle" pointer-events="none" font-size="8px" fill="#000000" x="82.27682829076518" y="-13.323592989236175" transform="rotate(180 82.27682829076518 -16.323592989236175)" font-family="Helvetica Neue, Helvetica, Arial, sans-serif">PAYS</text></g><g class="relationship" transform="translate(106.18766925006797 72.00545890592419) rotate(267.53154644608014)"><path class="b-outline" fill="#A5ABB6" stroke="none" d="M 38.50762352901147,10.835724717245364 L 38.766442574113995,9.869798890956295 A 174.99589260511073 174.99589260511073 0 0 0 69.25482907007901,15.205343291627912 L 69.17023346555041,16.201758658678443 A 175.99589260511073 175.99589260511073 0 0 1 38.50762352901147,10.835724717245364 Z M 95.38319468920699,16.467923672898223 L 95.31884953815518,15.469995969336424 A 174.99589260511073 174.99589260511073 0 0 0 125.90929231400294,10.75464275282562 L 125.19183696183518,7.841696166009132 L 132.82574357526937,9.566071362236906 L 126.86589945022664,14.638571535247603 L 126.14844409805887,11.725624948431117 A 175.99589260511073 175.99589260511073 0 0 1 95.38319468920699,16.467923672898223"/><text text-anchor="middle" pointer-events="none" font-size="8px" fill="#000000" x="82.27682829076522" y="19.323592989236175" transform="rotate(180 82.27682829076522 16.323592989236175)" font-family="Helvetica Neue, Helvetica, Arial, sans-serif">PAYS</text></g><g class="relationship" transform="translate(106.18766925006797 72.00545890592419) rotate(267.53154644608014)"><path class="b-outline" fill="#A5ABB6" stroke="none" d="M 27.93071785686863,28.63782463805517 L 28.637824638055175,27.930717856868625 A 78.37697110467366 78.37697110467366 0 0 0 68.95862493655487,49.4184574331708 L 68.76596518911055,50.39972305557622 A 79.37697110467366 79.37697110467366 0 0 1 27.93071785686863,28.63782463805517 Z M 94.9650490044788,51.13396992675182 L 94.82764975054324,50.1434541797705 A 78.37697110467366 78.37697110467366 0 0 0 136.2886321024377,30.947703836885427 L 134.28945100480436,28.710903680665474 L 141.84102931655647,26.655747968444327 L 138.95420689928213,33.9301040451787 L 136.9550258016488,31.69330388895875 A 79.37697110467366 79.37697110467366 0 0 1 94.9650490044788,51.13396992675182"/><text text-anchor="middle" pointer-events="none" font-size="8px" fill="#000000" x="81.84900007658916" y="54.3558429484642" transform="rotate(180 81.84900007658916 51.3558429484642)" font-family="Helvetica Neue, Helvetica, Arial, sans-serif">PAYS</text></g><g class="relationship selected" transform="translate(106.18766925006797 72.00545890592419) rotate(267.53154644608014)"><path class="b-outline" fill="#A5ABB6" stroke="none" d="M 9.869798890956295,38.766442574113995 L 10.835724717245364,38.50762352901147 A 75.8060150012732 75.8060150012732 0 0 0 68.2266728859885,93.02191008377599 L 68.01782350235085,93.99985790189012 A 76.8060150012732 76.8060150012732 0 0 1 9.869798890956295,38.766442574113995 Z M 94.20462388681497,95.02052224207009 L 94.07252601021487,94.02928556448106 A 75.8060150012732 75.8060150012732 0 0 0 155.5324510723773,44.14736517607002 L 152.7038995909621,43.14771697946091 L 158.33638877803443,37.71401975220272 L 159.30385304759758,45.48022943821549 L 156.47530156618237,44.48058124160638 A 76.8060150012732 76.8060150012732 0 0 1 94.20462388681497,95.02052224207009"/><text text-anchor="middle" pointer-events="none" font-size="8px" fill="#000000" x="81.08684348663189" y="98.13570388079262" transform="rotate(180 81.08684348663189 95.13570388079262)" font-family="Helvetica Neue, Helvetica, Arial, sans-serif">PAYS</text></g><g class="relationship" transform="translate(-101.38418900661324 -89.58006199049815) rotate(357.1629194677937)"><path class="b-outline" fill="#A5ABB6" stroke="none" d="M 38.50762352901147,10.835724717245364 L 38.766442574113995,9.869798890956295 A 231.53739842917477 231.53739842917477 0 0 0 83.6249181326097,17.268438458906132 L 83.55984090141209,18.266318689184118 A 232.53739842917477 232.53739842917477 0 0 1 38.50762352901147,10.835724717245364 Z M 109.765392017055,18.495473093669148 L 109.7177753276503,17.49660741156262 A 231.53739842917477 231.53739842917477 0 0 0 154.69877598418591,10.8835690156872 L 153.97311293247495,7.972656248979561 L 161.61184961512222,9.675507356146218 L 155.66632671980054,14.764786037964054 L 154.94066366808957,11.853873271256415 A 232.53739842917477 232.53739842917477 0 0 1 109.765392017055,18.495473093669148"/><text text-anchor="middle" pointer-events="none" font-size="8px" fill="#000000" x="96.6637578128093" y="21.250373418870964" font-family="Helvetica Neue, Helvetica, Arial, sans-serif">PAYS</text></g><g class="relationship" transform="translate(-101.38418900661324 -89.58006199049815) rotate(357.1629194677937)"><path class="b-outline" fill="#A5ABB6" stroke="none" d="M 38.50762352901147,-10.835724717245364 L 38.766442574113995,-9.869798890956295 A 231.53739842917477 231.53739842917477 0 0 1 83.62491813260962,-17.268438458906104 L 83.55984090141203,-18.26631868918409 A 232.53739842917477 232.53739842917477 0 0 0 38.50762352901147,-10.835724717245364 Z M 109.76539201705498,-18.495473093669176 L 109.71777532765027,-17.49660741156265 A 231.53739842917477 231.53739842917477 0 0 1 154.69877598418591,-10.8835690156872 L 153.97311293247495,-7.972656248979561 L 161.61184961512222,-9.675507356146218 L 155.66632671980054,-14.764786037964054 L 154.94066366808957,-11.853873271256415 A 232.53739842917477 232.53739842917477 0 0 0 109.76539201705498,-18.495473093669176"/><text text-anchor="middle" pointer-events="none" font-size="8px" fill="#000000" x="96.66375781280925" y="-15.250373418870964" font-family="Helvetica Neue, Helvetica, Arial, sans-serif">PAYS</text></g><g class="relationship" transform="translate(-100.1453249545012 64.25141034943101) rotate(269.5385850112245)"><path class="b-outline" fill="#A5ABB6" stroke="none" d="M 38.50762352901147,10.835724717245364 L 38.766442574113995,9.869798890956295 A 139.7594720783223 139.7594720783223 0 0 0 60.35348128871604,13.868835039425903 L 60.24912074573568,14.863374569594924 A 140.7594720783223 140.7594720783223 0 0 1 38.50762352901147,10.835724717245364 Z M 86.4667315656817,15.15913999795211 L 86.38483387372524,14.162499256234128 A 139.7594720783223 139.7594720783223 0 0 0 108.05659490700732,10.651473152826146 L 107.34570772205166,7.736916683950339 L 114.97570786521015,9.47849579940889 L 109.00444448694822,14.537548444660553 L 108.29355730199255,11.622991975784746 A 140.7594720783223 140.7594720783223 0 0 1 86.4667315656817,15.15913999795211"/><text text-anchor="middle" pointer-events="none" font-size="8px" fill="#000000" x="73.35666485350137" y="18.123063219246006" transform="rotate(180 73.35666485350137 15.123063219246006)" font-family="Helvetica Neue, Helvetica, Arial, sans-serif">PAYS</text></g><g class="relationship" transform="translate(-100.1453249545012 64.25141034943101) rotate(269.5385850112245)"><path class="b-outline" fill="#A5ABB6" stroke="none" d="M 38.50762352901147,-10.835724717245364 L 38.766442574113995,-9.869798890956295 A 139.7594720783223 139.7594720783223 0 0 1 60.353481288716054,-13.868835039425903 L 60.249120745735695,-14.863374569594924 A 140.7594720783223 140.7594720783223 0 0 0 38.50762352901147,-10.835724717245364 Z M 86.46673156568173,-15.15913999795211 L 86.38483387372527,-14.1624992562341 A 139.7594720783223 139.7594720783223 0 0 1 108.05659490700732,-10.651473152826146 L 107.34570772205166,-7.736916683950339 L 114.97570786521015,-9.47849579940889 L 109.00444448694822,-14.537548444660553 L 108.29355730199255,-11.622991975784746 A 140.7594720783223 140.7594720783223 0 0 0 86.46673156568173,-15.15913999795211"/><text text-anchor="middle" pointer-events="none" font-size="8px" fill="#000000" x="73.35666485350139" y="-12.123063219246006" transform="rotate(180 73.35666485350139 -15.123063219246006)" font-family="Helvetica Neue, Helvetica, Arial, sans-serif">PAYS</text></g></g><g class="layer nodes"><g class="node" aria-label="graph-node0" transform="translate(106.18766925006797,72.00545890592419)"><circle class="b-outline" cx="0" cy="0" r="40" fill="#DA7194" stroke="#cc3c6c" stroke-width="2px"/><text class="caption" text-anchor="middle" pointer-events="none" x="0" y="5" font-size="10px" fill="#FFFFFF" font-family="Helvetica Neue, Helvetica, Arial, sans-serif"> Alice</text></g><g class="node" aria-label="graph-node1" transform="translate(98.7941738576916,-99.50028219702115)"><circle class="b-outline" cx="0" cy="0" r="40" fill="#DA7194" stroke="#cc3c6c" stroke-width="2px"/><text class="caption" text-anchor="middle" pointer-events="none" x="0" y="5" font-size="10px" fill="#FFFFFF" font-family="Helvetica Neue, Helvetica, Arial, sans-serif"> Instrument Seller</text></g><g class="node" aria-label="graph-node2" transform="translate(-101.38418900661324,-89.58006199049815)"><circle class="b-outline" cx="0" cy="0" r="40" fill="#DA7194" stroke="#cc3c6c" stroke-width="2px"/><text class="caption" text-anchor="middle" pointer-events="none" x="0" y="5" font-size="10px" fill="#FFFFFF" font-family="Helvetica Neue, Helvetica, Arial, sans-serif"> Bob</text></g><g class="node" aria-label="graph-node3" transform="translate(-100.1453249545012,64.25141034943101)"><circle class="b-outline" cx="0" cy="0" r="40" fill="#DA7194" stroke="#cc3c6c" stroke-width="2px"/><text class="caption" text-anchor="middle" pointer-events="none" x="0" y="5" font-size="10px" fill="#FFFFFF" font-family="Helvetica Neue, Helvetica, Arial, sans-serif"> Carol</text></g></g></svg>