<?xml version="1.0" standalone="no"?>
<!DOCTYPE svg PUBLIC "-//W3C//DTD SVG 20010904//EN"
 "http://www.w3.org/TR/2001/REC-SVG-20010904/DTD/svg10.dtd">
<svg version="1.0" xmlns="http://www.w3.org/2000/svg"
 width="536.000000pt" height="98.000000pt" viewBox="0 0 536.000000 98.000000"
 preserveAspectRatio="xMidYMid meet">

<g transform="translate(0.000000,98.000000) scale(0.100000,-0.100000)"
fill="#000000" stroke="none">
<path d="M825 622 c-33 -50 -45 -94 -45 -161 0 -71 16 -122 53 -166 34 -41 49
-40 20 2 -31 44 -43 91 -43 167 1 74 17 135 44 165 18 20 20 31 6 31 -5 0 -21
-17 -35 -38z"/>
<path d="M1241 629 c64 -90 63 -255 -2 -338 -24 -30 -16 -41 11 -16 30 27 59
94 66 156 8 68 -14 154 -52 198 -34 40 -52 40 -23 0z"/>
<path d="M2285 622 c-33 -50 -45 -94 -45 -161 0 -71 16 -122 53 -166 34 -41
49 -40 20 2 -31 44 -43 91 -43 167 1 74 17 135 44 165 18 20 20 31 6 31 -5 0
-21 -17 -35 -38z"/>
<path d="M3381 629 c64 -90 63 -255 -2 -338 -24 -30 -16 -41 11 -16 30 27 59
94 66 156 8 68 -14 154 -52 198 -34 40 -52 40 -23 0z"/>
<path d="M4365 622 c-33 -50 -45 -94 -45 -161 0 -71 16 -122 53 -166 34 -41
49 -40 20 2 -31 44 -43 91 -43 167 1 74 17 135 44 165 18 20 20 31 6 31 -5 0
-21 -17 -35 -38z"/>
<path d="M4781 629 c64 -90 63 -255 -2 -338 -24 -30 -16 -41 11 -16 30 27 59
94 66 156 8 68 -14 154 -52 198 -34 40 -52 40 -23 0z"/>
<path d="M3545 638 c-22 -12 -35 -28 -35 -42 0 -5 8 -2 18 7 10 10 28 17 40
17 33 0 45 -34 38 -104 -7 -64 5 -61 19 4 4 19 16 52 27 73 11 22 17 41 14 44
-2 3 -12 -10 -21 -28 l-17 -33 -13 31 c-7 16 -20 33 -30 37 -20 7 -16 8 -40
-6z"/>
<path d="M3780 630 c0 -5 7 -10 15 -10 13 0 15 -20 15 -120 0 -100 -2 -120
-15 -120 -8 0 -15 -4 -15 -10 0 -5 20 -10 45 -10 25 0 45 5 45 10 0 6 -7 10
-15 10 -13 0 -15 21 -15 130 l0 130 -30 0 c-16 0 -30 -4 -30 -10z"/>
<path d="M298 614 c20 -14 22 -23 22 -119 0 -96 -2 -105 -22 -119 -21 -15 -19
-16 42 -16 61 0 63 1 42 16 -18 12 -22 25 -22 65 l0 49 43 0 c36 0 46 -4 55
-22 9 -20 11 -15 11 32 1 52 0 53 -15 32 -11 -16 -25 -22 -55 -22 l-40 0 3 48
c3 45 4 47 37 50 46 5 81 -5 81 -23 0 -8 5 -15 10 -15 6 0 10 11 10 25 0 27 9
32 28 13 8 -8 12 -48 12 -114 0 -95 -2 -104 -22 -119 -22 -15 -15 -15 91 -13
l115 3 7 29 c11 40 6 42 -25 11 -22 -22 -34 -26 -74 -23 l-47 3 -3 105 c-3 97
-1 106 19 123 20 16 14 17 -152 17 -160 0 -172 -1 -151 -16z"/>
<path d="M2423 616 c-46 -17 -51 -26 -14 -26 l32 0 -3 -102 c-3 -98 -4 -103
-25 -106 -49 -7 -20 -22 42 -22 37 0 65 4 65 10 0 6 -11 10 -25 10 l-25 0 0
125 c0 69 -3 124 -7 124 -5 -1 -22 -7 -40 -13z"/>
<path d="M4235 540 c-11 -4 -36 -5 -56 -2 -48 6 -84 -26 -75 -66 12 -51 11
-104 -1 -114 -39 -32 7 -78 77 -78 54 0 90 22 90 54 0 33 -25 50 -84 56 -34 3
-52 10 -54 20 -2 11 7 15 34 15 47 0 83 40 65 73 -13 24 6 44 20 21 6 -10 11
-11 19 -3 16 16 -10 33 -35 24z m-37 -63 c-2 -27 -7 -32 -28 -32 -20 0 -26 6
-28 28 -5 38 14 60 40 46 14 -8 18 -19 16 -42z m40 -144 c4 -28 -37 -47 -80
-37 -31 6 -44 25 -34 50 4 11 18 14 58 12 46 -3 53 -6 56 -25z"/>
<path d="M924 515 c-9 -13 -14 -30 -11 -37 3 -8 9 -2 15 14 14 35 32 45 32 18
0 -39 -43 -195 -56 -206 -23 -18 -16 -24 26 -24 37 0 55 13 29 22 -7 2 -9 15
-5 34 6 27 10 30 41 26 28 -3 40 2 64 25 72 73 33 187 -49 143 -13 -7 -21 -7
-25 0 -11 18 -44 10 -61 -15z m134 -21 c9 -72 -41 -145 -75 -111 -13 13 -13
21 1 70 22 77 67 102 74 41z"/>
<path d="M3064 515 c-9 -13 -14 -30 -11 -37 3 -8 9 -2 15 14 14 35 32 45 32
18 0 -39 -43 -195 -56 -206 -23 -18 -16 -24 26 -24 37 0 55 13 29 22 -7 2 -9
15 -5 34 6 27 10 30 41 26 28 -3 40 2 64 25 72 73 33 187 -49 143 -13 -7 -21
-7 -25 0 -11 18 -44 10 -61 -15z m134 -21 c9 -72 -41 -145 -75 -111 -13 13
-13 21 1 70 22 77 67 102 74 41z"/>
<path d="M3929 527 c-72 -55 -39 -167 49 -167 62 0 103 54 88 115 -14 55 -93
86 -137 52z m83 -14 c24 -21 25 -99 1 -125 -37 -41 -83 -8 -83 60 0 70 41 103
82 65z"/>
<path d="M4464 515 c-9 -13 -14 -30 -11 -37 3 -8 9 -2 15 14 14 35 32 45 32
18 0 -39 -43 -195 -56 -206 -23 -18 -16 -24 26 -24 37 0 55 13 29 22 -7 2 -9
15 -5 34 6 27 10 30 41 26 28 -3 40 2 64 25 72 73 33 187 -49 143 -13 -7 -21
-7 -25 0 -11 18 -44 10 -61 -15z m134 -21 c9 -72 -41 -145 -75 -111 -13 13
-13 21 1 70 22 77 67 102 74 41z"/>
<path d="M1480 500 c0 -6 52 -10 135 -10 83 0 135 4 135 10 0 6 -52 10 -135
10 -83 0 -135 -4 -135 -10z"/>
<path d="M1925 460 c4 -6 57 -10 126 -10 73 0 119 4 119 10 0 6 -49 10 -126
10 -81 0 -123 -4 -119 -10z"/>
<path d="M2675 460 c4 -6 57 -10 126 -10 73 0 119 4 119 10 0 6 -49 10 -126
10 -81 0 -123 -4 -119 -10z"/>
<path d="M1118 440 c-10 -11 -13 -20 -8 -20 6 0 10 -25 10 -55 0 -59 12 -74
48 -60 14 6 15 8 2 13 -22 7 -30 23 -30 59 0 20 7 36 18 42 15 9 15 10 0 11
-9 0 -18 7 -20 15 -2 13 -6 12 -20 -5z"/>
<path d="M3271 446 c-14 -17 -17 -88 -5 -128 6 -19 39 -24 49 -8 3 6 -1 10 -9
10 -24 0 -23 97 2 103 15 4 15 5 0 6 -9 0 -18 8 -20 18 -3 15 -4 15 -17 -1z"/>
<path d="M4671 446 c-14 -17 -17 -88 -5 -128 6 -19 39 -24 49 -8 3 6 -1 10 -9
10 -24 0 -23 97 2 103 15 4 15 5 0 6 -9 0 -18 8 -20 18 -3 15 -4 15 -17 -1z"/>
<path d="M1485 420 c4 -6 58 -10 130 -10 72 0 126 4 130 10 4 6 -42 10 -130
10 -88 0 -134 -4 -130 -10z"/>
<path d="M4929 394 c-9 -11 -9 -18 -1 -26 14 -14 42 -3 42 16 0 20 -27 27 -41
10z"/>
</g>
</svg>
