<svg xmlns="http://www.w3.org/2000/svg" width="556.1444702148438" height="253.34031677246094" viewBox="-265.347900390625 -12.014328002929688 556.1444702148438 253.34031677246094"><title>Neo4j Graph Visualization</title><desc>Created using Neo4j (http://www.neo4j.com/)</desc><g class="layer relationships"><g class="relationship" transform="translate(-236.3479100984808 112.70810861446174) rotate(358.7660011830824)"><path class="outline" fill="#A5ABB6" stroke="none" d="M 25 0.5 L 123.19703036043481 0.5 L 123.19703036043481 -0.5 L 25 -0.5 Z M 152.3103116104348 0.5 L 250.50734197086962 0.5 L 250.50734197086962 3.5 L 257.5073419708696 0 L 250.50734197086962 -3.5 L 250.50734197086962 -0.5 L 152.3103116104348 -0.5 Z"/><text text-anchor="middle" pointer-events="none" font-size="8px" fill="#000000" x="137.7536709854348" y="3" font-family="sans-serif">ROAD</text></g><g class="relationship" transform="translate(-236.3479100984808 112.70810861446174) rotate(329.32841000394603)"><path class="outline" fill="#A5ABB6" stroke="none" d="M 25 0.5 L 74.52806659305432 0.5 L 74.52806659305432 -0.5 L 25 -0.5 Z M 103.64134784305432 0.5 L 153.16941443610864 0.5 L 153.16941443610864 3.5 L 160.16941443610864 0 L 153.16941443610864 -3.5 L 153.16941443610864 -0.5 L 103.64134784305432 -0.5 Z"/><text text-anchor="middle" pointer-events="none" font-size="8px" fill="#000000" x="89.08470721805432" y="3" font-family="sans-serif">ROAD</text></g><g class="relationship" transform="translate(-236.3479100984808 112.70810861446174) rotate(391.40143587287497)"><path class="outline" fill="#A5ABB6" stroke="none" d="M 25 0.5 L 77.54024803781734 0.5 L 77.54024803781734 -0.5 L 25 -0.5 Z M 106.65352928781734 0.5 L 159.19377732563467 0.5 L 159.19377732563467 3.5 L 166.19377732563467 0 L 159.19377732563467 -3.5 L 159.19377732563467 -0.5 L 106.65352928781734 -0.5 Z"/><text text-anchor="middle" pointer-events="none" font-size="8px" fill="#000000" x="92.09688866281734" y="3" font-family="sans-serif">ROAD</text></g><g class="relationship" transform="translate(-73.1568054718229 212.3259978652161) rotate(318.4467475859425)"><path class="outline" fill="#A5ABB6" stroke="none" d="M 25 0.5 L 61.62023880427746 0.5 L 61.62023880427746 -0.5 L 25 -0.5 Z M 90.73352005427746 0.5 L 127.35375885855493 0.5 L 127.35375885855493 3.5 L 134.35375885855493 0 L 127.35375885855493 -3.5 L 127.35375885855493 -0.5 L 90.73352005427746 -0.5 Z"/><text text-anchor="middle" pointer-events="none" font-size="8px" fill="#000000" x="76.17687942927746" y="3" font-family="sans-serif">ROAD</text></g><g class="relationship" transform="translate(-77.08271208081743 18.250135192384633) rotate(359.7854480548949)"><path class="outline" fill="#A5ABB6" stroke="none" d="M 25 0.5 L 150.78014202814455 0.5 L 150.78014202814455 -0.5 L 25 -0.5 Z M 179.89342327814455 0.5 L 305.6735653062891 0.5 L 305.6735653062891 3.5 L 312.6735653062891 0 L 305.6735653062891 -3.5 L 305.6735653062891 -0.5 L 179.89342327814455 -0.5 Z"/><text text-anchor="middle" pointer-events="none" font-size="8px" fill="#000000" x="165.33678265314455" y="3" font-family="sans-serif">ROAD</text></g><g class="relationship" transform="translate(-77.08271208081743 18.250135192384633) rotate(395.6578299191215)"><path class="outline" fill="#A5ABB6" stroke="none" d="M 25 0.5 L 57.74316547918812 0.5 L 57.74316547918812 -0.5 L 25 -0.5 Z M 86.85644672918812 0.5 L 119.59961220837624 0.5 L 119.59961220837624 3.5 L 126.59961220837624 0 L 119.59961220837624 -3.5 L 119.59961220837624 -0.5 L 86.85644672918812 -0.5 Z"/><text text-anchor="middle" pointer-events="none" font-size="8px" fill="#000000" x="72.29980610418812" y="3" font-family="sans-serif">ROAD</text></g><g class="relationship" transform="translate(46.093912884867905 106.62412165782006) rotate(375.4758127478107)"><path class="outline" fill="#A5ABB6" stroke="none" d="M 25 0.5 L 93.85214759467239 0.5 L 93.85214759467239 -0.5 L 25 -0.5 Z M 122.96542884467239 0.5 L 191.81757643934478 0.5 L 191.81757643934478 3.5 L 198.81757643934478 0 L 191.81757643934478 -3.5 L 191.81757643934478 -0.5 L 122.96542884467239 -0.5 Z"/><text text-anchor="middle" pointer-events="none" font-size="8px" fill="#000000" x="108.40878821967239" y="3" font-family="sans-serif">ROAD</text></g><g class="relationship" transform="translate(46.093912884867905 106.62412165782006) rotate(337.319684684453)"><path class="outline" fill="#A5ABB6" stroke="none" d="M 25 0.5 L 98.17908245214234 0.5 L 98.17908245214234 -0.5 L 25 -0.5 Z M 127.29236370214234 0.5 L 200.47144615428468 0.5 L 200.47144615428468 3.5 L 207.47144615428468 0 L 200.47144615428468 -3.5 L 200.47144615428468 -0.5 L 127.29236370214234 -0.5 Z"/><text text-anchor="middle" pointer-events="none" font-size="8px" fill="#000000" x="112.73572307714234" y="3" font-family="sans-serif">ROAD</text></g><g class="relationship" transform="translate(260.5884857460778 16.98567293099527) rotate(449.5365764212679)"><path class="outline" fill="#A5ABB6" stroke="none" d="M 25 0.5 L 56.62582294947174 0.5 L 56.62582294947174 -0.5 L 25 -0.5 Z M 85.73910419947174 0.5 L 117.36492714894348 0.5 L 117.36492714894348 3.5 L 124.36492714894348 0 L 117.36492714894348 -3.5 L 117.36492714894348 -0.5 L 85.73910419947174 -0.5 Z"/><text text-anchor="middle" pointer-events="none" font-size="8px" fill="#000000" x="71.18246357447174" y="3" font-family="sans-serif">ROAD</text></g></g><g class="layer nodes"><g class="node" transform="translate(-236.3479100984808,112.70810861446174)"><circle class="outline" cx="0" cy="0" r="25" fill="#D9C8AE" stroke="#c0a378" stroke-width="2px"/><text text-anchor="middle" pointer-events="none" font-family="sans-serif" dy="1.5625" font-size="25" fill="#2A2C34"/><text text-anchor="middle" pointer-events="none" x="0" y="5" font-size="10px" fill="#2A2C34" font-family="sans-serif"> A</text></g><g class="node" transform="translate(-73.1568054718229,212.3259978652161)"><circle class="outline" cx="0" cy="0" r="25" fill="#D9C8AE" stroke="#c0a378" stroke-width="2px"/><text text-anchor="middle" pointer-events="none" font-family="sans-serif" dy="1.5625" font-size="25" fill="#2A2C34"/><text text-anchor="middle" pointer-events="none" x="0" y="5" font-size="10px" fill="#2A2C34" font-family="sans-serif"> B</text></g><g class="node" transform="translate(-77.08271208081743,18.250135192384633)"><circle class="outline" cx="0" cy="0" r="25" fill="#D9C8AE" stroke="#c0a378" stroke-width="2px"/><text text-anchor="middle" pointer-events="none" font-family="sans-serif" dy="1.5625" font-size="25" fill="#2A2C34"/><text text-anchor="middle" pointer-events="none" x="0" y="5" font-size="10px" fill="#2A2C34" font-family="sans-serif"> C</text></g><g class="node" transform="translate(46.093912884867905,106.62412165782006)"><circle class="outline" cx="0" cy="0" r="25" fill="#D9C8AE" stroke="#c0a378" stroke-width="2px"/><text text-anchor="middle" pointer-events="none" font-family="sans-serif" dy="1.5625" font-size="25" fill="#2A2C34"/><text text-anchor="middle" pointer-events="none" x="0" y="5" font-size="10px" fill="#2A2C34" font-family="sans-serif"> D</text></g><g class="node" transform="translate(260.5884857460778,16.98567293099527)"><circle class="outline" cx="0" cy="0" r="25" fill="#D9C8AE" stroke="#c0a378" stroke-width="2px"/><text text-anchor="middle" pointer-events="none" font-family="sans-serif" dy="1.5625" font-size="25" fill="#2A2C34"/><text text-anchor="middle" pointer-events="none" x="0" y="5" font-size="10px" fill="#2A2C34" font-family="sans-serif"> E</text></g><g class="node" transform="translate(261.7965760268283,166.34571437475876)"><circle class="outline" cx="0" cy="0" r="25" fill="#D9C8AE" stroke="#c0a378" stroke-width="2px"/><text text-anchor="middle" pointer-events="none" font-family="sans-serif" dy="1.5625" font-size="25" fill="#2A2C34"/><text text-anchor="middle" pointer-events="none" x="0" y="5" font-size="10px" fill="#2A2C34" font-family="sans-serif"> F</text></g></g></svg>