<svg xmlns="http://www.w3.org/2000/svg" width="404.27880859375" height="171.8470916748047" viewBox="-78.21339416503906 30.966922760009766 404.27880859375 171.8470916748047"><title>Neo4j Graph Visualization</title><desc>Created using Neo4j (http://www.neo4j.com/)</desc><g class="layer relationships"><g class="relationship" transform="translate(-49.213390483349286 111.0419311297533) rotate(390.4802009910805)"><path class="outline" fill="#A5ABB6" stroke="none" d="M 25 0.5 L 37.898524858454465 0.5 L 37.898524858454465 -0.5 L 25 -0.5 Z M 74.12118110845446 0.5 L 87.01970596690893 0.5 L 87.01970596690893 3.5 L 94.01970596690893 0 L 87.01970596690893 -3.5 L 87.01970596690893 -0.5 L 74.12118110845446 -0.5 Z"/><text text-anchor="middle" pointer-events="none" font-size="8px" fill="#000000" x="56.009852983454465" y="3" font-family="sans-serif">KNOWS</text></g><g class="relationship" transform="translate(-49.213390483349286 111.0419311297533) rotate(334.82638765529737)"><path class="outline" fill="#A5ABB6" stroke="none" d="M 25 0.5 L 38.425706886808236 0.5 L 38.425706886808236 -0.5 L 25 -0.5 Z M 74.64836313680823 0.5 L 88.07407002361647 0.5 L 88.07407002361647 3.5 L 95.07407002361647 0 L 88.07407002361647 -3.5 L 88.07407002361647 -0.5 L 74.64836313680823 -0.5 Z"/><text text-anchor="middle" pointer-events="none" font-size="8px" fill="#000000" x="56.537035011808236" y="3" font-family="sans-serif">KNOWS</text></g><g class="relationship" transform="translate(59.456410568439786 59.96692127756694) rotate(403.18133476648086)"><path class="outline" fill="#A5ABB6" stroke="none" d="M 25 0.5 L 61.07134020000905 0.5 L 61.07134020000905 -0.5 L 25 -0.5 Z M 97.29399645000905 0.5 L 133.3653366500181 0.5 L 133.3653366500181 3.5 L 140.3653366500181 0 L 133.3653366500181 -3.5 L 133.3653366500181 -0.5 L 97.29399645000905 -0.5 Z"/><text text-anchor="middle" pointer-events="none" font-size="8px" fill="#000000" x="79.18266832500905" y="3" font-family="sans-serif">KNOWS</text></g><g class="relationship" transform="translate(59.456410568439786 59.96692127756694) rotate(363.87132167698337)"><path class="outline" fill="#A5ABB6" stroke="none" d="M 25 0.5 L 39.809936559536 0.5 L 39.809936559536 -0.5 L 25 -0.5 Z M 76.032592809536 0.5 L 90.842529369072 0.5 L 90.842529369072 3.5 L 97.842529369072 0 L 90.842529369072 -3.5 L 90.842529369072 -0.5 L 76.032592809536 -0.5 Z"/><text text-anchor="middle" pointer-events="none" font-size="8px" fill="#000000" x="57.921264684536" y="3" font-family="sans-serif">KNOWS</text></g><g class="relationship" transform="translate(59.456410568439786 59.96692127756694) rotate(453.13195984692106)"><path class="outline" fill="#A5ABB6" stroke="none" d="M 25 0.5 L 34.19534539528887 0.5 L 34.19534539528887 -0.5 L 25 -0.5 Z M 70.41800164528887 0.5 L 79.61334704057774 0.5 L 79.61334704057774 3.5 L 86.61334704057774 0 L 79.61334704057774 -3.5 L 79.61334704057774 -0.5 L 70.41800164528887 -0.5 Z"/><text text-anchor="middle" pointer-events="none" font-size="8px" fill="#000000" x="52.30667352028887" y="3" transform="rotate(180 52.30667352028887 0)" font-family="sans-serif">KNOWS</text></g><g class="relationship" transform="translate(53.35832686046608 171.41355699480602) rotate(360.77537051608135)"><path class="outline" fill="#A5ABB6" stroke="none" d="M 25 0.5 L 41.73502080375722 0.5 L 41.73502080375722 -0.5 L 25 -0.5 Z M 77.95767705375722 0.5 L 94.69269785751445 0.5 L 94.69269785751445 3.5 L 101.69269785751445 0 L 94.69269785751445 -3.5 L 94.69269785751445 -0.5 L 77.95767705375722 -0.5 Z"/><text text-anchor="middle" pointer-events="none" font-size="8px" fill="#000000" x="59.84634892875722" y="3" font-family="sans-serif">KNOWS</text></g><g class="relationship" transform="translate(180.03942390938585 173.1280076058231) rotate(271.08124428863135)"><path class="outline" fill="#A5ABB6" stroke="none" d="M 25 0.5 L 30.831640302042047 0.5 L 30.831640302042047 -0.5 L 25 -0.5 Z M 67.05429655204205 0.5 L 72.8859368540841 0.5 L 72.8859368540841 3.5 L 79.8859368540841 0 L 72.8859368540841 -3.5 L 72.8859368540841 -0.5 L 67.05429655204205 -0.5 Z"/><text text-anchor="middle" pointer-events="none" font-size="8px" fill="#000000" x="48.94296842704205" y="3" font-family="sans-serif">KNOWS</text></g><g class="relationship" transform="translate(180.03942390938585 173.1280076058231) rotate(360.3358630901656)"><path class="outline" fill="#A5ABB6" stroke="none" d="M 25 0.5 L 36.90265838592428 0.5 L 36.90265838592428 -0.5 L 25 -0.5 Z M 73.12531463592428 0.5 L 85.02797302184857 0.5 L 85.02797302184857 3.5 L 92.02797302184857 0 L 85.02797302184857 -3.5 L 85.02797302184857 -0.5 L 73.12531463592428 -0.5 Z"/><text text-anchor="middle" pointer-events="none" font-size="8px" fill="#000000" x="55.01398651092428" y="3" font-family="sans-serif">KNOWS</text></g><g class="relationship" transform="translate(295.4462458988588 61.05646326442246) rotate(536.3657762757882)"><path class="outline" fill="#A5ABB6" stroke="none" d="M 25 0.5 L 35.21675478513677 0.5 L 35.21675478513677 -0.5 L 25 -0.5 Z M 71.43941103513677 0.5 L 81.65616582027354 0.5 L 81.65616582027354 3.5 L 88.65616582027354 0 L 81.65616582027354 -3.5 L 81.65616582027354 -0.5 L 71.43941103513677 -0.5 Z"/><text text-anchor="middle" pointer-events="none" font-size="8px" fill="#000000" x="53.32808291013677" y="3" transform="rotate(180 53.32808291013677 0)" font-family="sans-serif">KNOWS</text></g></g><g class="layer nodes"><g class="node" transform="translate(-49.213390483349286,111.0419311297533)"><circle class="outline" cx="0" cy="0" r="25" fill="#DA7194" stroke="#cc3c6c" stroke-width="2px"/><text text-anchor="middle" pointer-events="none" font-family="sans-serif" dy="1.5625" font-size="25" fill="#FFFFFF"/><text text-anchor="middle" pointer-events="none" x="0" y="5" font-size="10px" fill="#FFFFFF" font-family="sans-serif"> Dan</text></g><g class="node" transform="translate(59.456410568439786,59.96692127756694)"><circle class="outline" cx="0" cy="0" r="25" fill="#DA7194" stroke="#cc3c6c" stroke-width="2px"/><text text-anchor="middle" pointer-events="none" font-family="sans-serif" dy="1.5625" font-size="25" fill="#FFFFFF"/><text text-anchor="middle" pointer-events="none" x="0" y="5" font-size="10px" fill="#FFFFFF" font-family="sans-serif"> Annie</text></g><g class="node" transform="translate(53.35832686046608,171.41355699480602)"><circle class="outline" cx="0" cy="0" r="25" fill="#DA7194" stroke="#cc3c6c" stroke-width="2px"/><text text-anchor="middle" pointer-events="none" font-family="sans-serif" dy="1.5625" font-size="25" fill="#FFFFFF"/><text text-anchor="middle" pointer-events="none" x="0" y="5" font-size="10px" fill="#FFFFFF" font-family="sans-serif"> Matt</text></g><g class="node" transform="translate(182.01863756297368,68.26074644642993)"><circle class="outline" cx="0" cy="0" r="25" fill="#DA7194" stroke="#cc3c6c" stroke-width="2px"/><text text-anchor="middle" pointer-events="none" font-family="sans-serif" dy="1.5625" font-size="25" fill="#FFFFFF"/><text text-anchor="middle" pointer-events="none" x="0" y="5" font-size="10px" fill="#FFFFFF" font-family="sans-serif"> Jeff</text></g><g class="node" transform="translate(180.03942390938585,173.1280076058231)"><circle class="outline" cx="0" cy="0" r="25" fill="#DA7194" stroke="#cc3c6c" stroke-width="2px"/><text text-anchor="middle" pointer-events="none" font-family="sans-serif" dy="1.5625" font-size="25" fill="#FFFFFF"/><text text-anchor="middle" pointer-events="none" x="0" y="5" font-size="10px" fill="#FFFFFF" font-family="sans-serif"> Brie</text></g><g class="node" transform="translate(297.06538627540306,173.81401191341814)"><circle class="outline" cx="0" cy="0" r="25" fill="#DA7194" stroke="#cc3c6c" stroke-width="2px"/><text text-anchor="middle" pointer-events="none" font-family="sans-serif" dy="1.5625" font-size="25" fill="#FFFFFF"/><text text-anchor="middle" pointer-events="none" x="0" y="5" font-size="10px" fill="#FFFFFF" font-family="sans-serif"> Elsa</text></g><g class="node" transform="translate(295.4462458988588,61.05646326442246)"><circle class="outline" cx="0" cy="0" r="25" fill="#DA7194" stroke="#cc3c6c" stroke-width="2px"/><text text-anchor="middle" pointer-events="none" font-family="sans-serif" dy="1.5625" font-size="25" fill="#FFFFFF"/><text text-anchor="middle" pointer-events="none" x="0" y="5" font-size="10px" fill="#FFFFFF" font-family="sans-serif"> John</text></g></g></svg>