<svg xmlns="http://www.w3.org/2000/svg" width="463.6393737792969" height="272.7956848144531" viewBox="-465.6792907714844 -23.941614151000977 463.6393737792969 272.7956848144531"><title>Neo4j Graph Visualization</title><desc>Created using Neo4j (http://www.neo4j.com/)</desc><g class="layer relationships"><g class="relationship" transform="translate(-208.01330131644548 122.13565420748404) rotate(191.15329050135318)"><path class="outline" fill="#A5ABB6" stroke="none" d="M 25 0.5 L 94.92262816140979 0.5 L 94.92262816140979 -0.5 L 25 -0.5 Z M 131.1452844114098 0.5 L 201.06791257281958 0.5 L 201.06791257281958 3.5 L 208.06791257281958 0 L 201.06791257281958 -3.5 L 201.06791257281958 -0.5 L 131.1452844114098 -0.5 Z"/><text text-anchor="middle" pointer-events="none" font-size="8px" fill="#000000" x="113.03395628640979" y="3" transform="rotate(180 113.03395628640979 0)" font-family="sans-serif">KNOWS</text></g><g class="relationship" transform="translate(-208.01330131644548 122.13565420748404) rotate(240.71376992415827)"><path class="outline" fill="#A5ABB6" stroke="none" d="M 25 0.5 L 30.90863304976139 0.5 L 30.90863304976139 -0.5 L 25 -0.5 Z M 67.13128929976139 0.5 L 73.03992234952278 0.5 L 73.03992234952278 3.5 L 80.03992234952278 0 L 73.03992234952278 -3.5 L 73.03992234952278 -0.5 L 67.13128929976139 -0.5 Z"/><text text-anchor="middle" pointer-events="none" font-size="8px" fill="#000000" x="49.01996117476139" y="3" transform="rotate(180 49.01996117476139 0)" font-family="sans-serif">KNOWS</text></g><g class="relationship" transform="translate(-208.01330131644548 122.13565420748404) rotate(450.8459229702953)"><path class="outline" fill="#A5ABB6" stroke="none" d="M 25 0.5 L 27.25319942328887 0.5 L 27.25319942328887 -0.5 L 25 -0.5 Z M 63.47585567328887 0.5 L 65.72905509657774 0.5 L 65.72905509657774 3.5 L 72.72905509657774 0 L 65.72905509657774 -3.5 L 65.72905509657774 -0.5 L 63.47585567328887 -0.5 Z"/><text text-anchor="middle" pointer-events="none" font-size="8px" fill="#000000" x="45.36452754828887" y="3" transform="rotate(180 45.36452754828887 0)" font-family="sans-serif">KNOWS</text></g><g class="relationship" transform="translate(-209.45613445113776 219.85405801462448) rotate(212.14792212403768)"><path class="outline" fill="#A5ABB6" stroke="none" d="M 25 0.5 L 112.57391770576368 0.5 L 112.57391770576368 -0.5 L 25 -0.5 Z M 148.79657395576368 0.5 L 236.37049166152735 0.5 L 236.37049166152735 3.5 L 243.37049166152735 0 L 236.37049166152735 -3.5 L 236.37049166152735 -0.5 L 148.79657395576368 -0.5 Z"/><text text-anchor="middle" pointer-events="none" font-size="8px" fill="#000000" x="130.68524583076368" y="3" transform="rotate(180 130.68524583076368 0)" font-family="sans-serif">KNOWS</text></g><g class="relationship" transform="translate(-436.67930122331086 77.05226083869564) rotate(345.2934573590562)"><path class="outline" fill="#A5ABB6" stroke="none" d="M 25 0.5 L 70.03270383103329 0.5 L 70.03270383103329 -0.5 L 25 -0.5 Z M 106.25536008103329 0.5 L 151.28806391206658 0.5 L 151.28806391206658 3.5 L 158.28806391206658 0 L 151.28806391206658 -3.5 L 151.28806391206658 -0.5 L 106.25536008103329 -0.5 Z"/><text text-anchor="middle" pointer-events="none" font-size="8px" fill="#000000" x="88.14403195603329" y="3" font-family="sans-serif">KNOWS</text></g><g class="relationship" transform="translate(-436.67930122331086 77.05226083869564) rotate(370.15015205626423)"><path class="outline" fill="#A5ABB6" stroke="none" d="M 25 0.5 L 41.28938735177216 0.5 L 41.28938735177216 -0.5 L 25 -0.5 Z M 77.51204360177216 0.5 L 93.80143095354433 0.5 L 93.80143095354433 3.5 L 100.80143095354433 0 L 93.80143095354433 -3.5 L 93.80143095354433 -0.5 L 77.51204360177216 -0.5 Z"/><text text-anchor="middle" pointer-events="none" font-size="8px" fill="#000000" x="59.40071547677216" y="3" font-family="sans-serif">KNOWS</text></g><g class="relationship" transform="translate(-115.97088379791516 5.058386204832491) rotate(529.9329433111313)"><path class="outline" fill="#A5ABB6" stroke="none" d="M 25 0.5 L 51.22258183871129 0.5 L 51.22258183871129 -0.5 L 25 -0.5 Z M 87.44523808871129 0.5 L 113.66781992742258 0.5 L 113.66781992742258 3.5 L 120.66781992742258 0 L 113.66781992742258 -3.5 L 113.66781992742258 -0.5 L 87.44523808871129 -0.5 Z"/><text text-anchor="middle" pointer-events="none" font-size="8px" fill="#000000" x="69.33390996371129" y="3" transform="rotate(180 69.33390996371129 0)" font-family="sans-serif">KNOWS</text></g><g class="relationship" transform="translate(-31.039908936693422 206.03258912145336) rotate(535.5702831094477)"><path class="outline" fill="#A5ABB6" stroke="none" d="M 25 0.5 L 67.86406308563673 0.5 L 67.86406308563673 -0.5 L 25 -0.5 Z M 104.08671933563673 0.5 L 146.95078242127346 0.5 L 146.95078242127346 3.5 L 153.95078242127346 0 L 146.95078242127346 -3.5 L 146.95078242127346 -0.5 L 104.08671933563673 -0.5 Z"/><text text-anchor="middle" pointer-events="none" font-size="8px" fill="#000000" x="85.97539121063673" y="3" transform="rotate(180 85.97539121063673 0)" font-family="sans-serif">KNOWS</text></g><g class="relationship" transform="translate(-31.039908936693422 206.03258912145336) rotate(205.36400423305548)"><path class="outline" fill="#A5ABB6" stroke="none" d="M 25 0.5 L 76.31501830224664 0.5 L 76.31501830224664 -0.5 L 25 -0.5 Z M 112.53767455224664 0.5 L 163.85269285449328 0.5 L 163.85269285449328 3.5 L 170.85269285449328 0 L 163.85269285449328 -3.5 L 163.85269285449328 -0.5 L 112.53767455224664 -0.5 Z"/><text text-anchor="middle" pointer-events="none" font-size="8px" fill="#000000" x="94.42634642724664" y="3" transform="rotate(180 94.42634642724664 0)" font-family="sans-serif">KNOWS</text></g></g><g class="layer nodes"><g class="node" transform="translate(-208.01330131644548,122.13565420748404)"><circle class="outline" cx="0" cy="0" r="25" fill="#F79767" stroke="#f36924" stroke-width="2px"/><text text-anchor="middle" pointer-events="none" font-family="sans-serif" dy="1.5625" font-size="25" fill="#FFFFFF"/><text text-anchor="middle" pointer-events="none" x="0" y="5" font-size="10px" fill="#FFFFFF" font-family="sans-serif"> Annie</text></g><g class="node" transform="translate(-209.45613445113776,219.85405801462448)"><circle class="outline" cx="0" cy="0" r="25" fill="#F79767" stroke="#f36924" stroke-width="2px"/><text text-anchor="middle" pointer-events="none" font-family="sans-serif" dy="1.5625" font-size="25" fill="#FFFFFF"/><text text-anchor="middle" pointer-events="none" x="0" y="5" font-size="10px" fill="#FFFFFF" font-family="sans-serif"> Matt</text></g><g class="node" transform="translate(-259.3959797859601,30.52121407661682)"><circle class="outline" cx="0" cy="0" r="25" fill="#F79767" stroke="#f36924" stroke-width="2px"/><text text-anchor="middle" pointer-events="none" font-family="sans-serif" dy="1.5625" font-size="25" fill="#FFFFFF"/><text text-anchor="middle" pointer-events="none" x="0" y="5" font-size="10px" fill="#FFFFFF" font-family="sans-serif"> Jeff</text></g><g class="node" transform="translate(-436.67930122331086,77.05226083869564)"><circle class="outline" cx="0" cy="0" r="25" fill="#F79767" stroke="#f36924" stroke-width="2px"/><text text-anchor="middle" pointer-events="none" font-family="sans-serif" dy="1.5625" font-size="25" fill="#FFFFFF"/><text text-anchor="middle" pointer-events="none" x="0" y="5" font-size="10px" fill="#FFFFFF" font-family="sans-serif"> Brie</text></g><g class="node" transform="translate(-312.84675058701123,99.22204732543626)"><circle class="outline" cx="0" cy="0" r="25" fill="#F79767" stroke="#f36924" stroke-width="2px"/><text text-anchor="middle" pointer-events="none" font-family="sans-serif" dy="1.5625" font-size="25" fill="#FFFFFF"/><text text-anchor="middle" pointer-events="none" x="0" y="5" font-size="10px" fill="#FFFFFF" font-family="sans-serif"> Elsa</text></g><g class="node" transform="translate(-115.97088379791516,5.058386204832491)"><circle class="outline" cx="0" cy="0" r="25" fill="#F79767" stroke="#f36924" stroke-width="2px"/><text text-anchor="middle" pointer-events="none" font-family="sans-serif" dy="1.5625" font-size="25" fill="#FFFFFF"/><text text-anchor="middle" pointer-events="none" x="0" y="5" font-size="10px" fill="#FFFFFF" font-family="sans-serif"> John</text></g><g class="node" transform="translate(-31.039908936693422,206.03258912145336)"><circle class="outline" cx="0" cy="0" r="25" fill="#F79767" stroke="#f36924" stroke-width="2px"/><text text-anchor="middle" pointer-events="none" font-family="sans-serif" dy="1.5625" font-size="25" fill="#FFFFFF"/><text text-anchor="middle" pointer-events="none" x="0" y="5" font-size="10px" fill="#FFFFFF" font-family="sans-serif"> Dan</text></g></g></svg>