<svg xmlns="http://www.w3.org/2000/svg" width="591.3218994140625" height="312.5811767578125" viewBox="-322.4059143066406 -81.97369384765625 591.3218994140625 312.5811767578125"><title>Neo4j Graph Visualization</title><desc>Created using Neo4j (http://www.neo4j.com/)</desc><g class="layer relationships"><g class="relationship" transform="translate(-132.22433957302783 199.27924194767127) rotate(319.91134493357697)"><path class="outline" fill="#FFC454" stroke="none" d="M 23.759917089572927,-7.919364866996621 L 24.536374224880486,-5.021587388129416 A 659.3133517886479 659.3133517886479 0 0 1 148.03339092725548,-25.799344825878507 L 147.81886849128628,-28.791665016711363 A 662.3133517886479 662.3133517886479 0 0 0 23.759917089572927,-7.919364866996621 Z M 234.85034472000314,-29.2979709676257 L 234.6706512942793,-26.303357424486762 A 659.3133517886479 659.3133517886479 0 0 1 358.4010503614926,-6.963846437991593 L 357.6583603026889,-4.057231314423612 L 367.4922407615984,-6.189083823364392 L 359.88643047910006,-12.777076685127556 L 359.14374042029635,-9.870461561559575 A 662.3133517886479 662.3133517886479 0 0 0 234.85034472000314,-29.2979709676257"/><text text-anchor="middle" pointer-events="none" font-size="8px" fill="#000000" x="191.33500716819145" y="-25.975963281486315" font-family="sans-serif">KNOWS_PREDICTED</text></g><g class="relationship" transform="translate(-132.22433957302783 199.27924194767127) rotate(334.5177844151889)"><path class="outline" fill="#FFC454" stroke="none" d="M 23.759917089572927,-7.919364866996621 L 24.536374224880486,-5.021587388129416 A 699.1043751886124 699.1043751886124 0 0 1 158.28896809048484,-27.248567316096455 L 158.08647071832218,-30.24172531631416 A 702.1043751886124 702.1043751886124 0 0 0 23.759917089572927,-7.919364866996621 Z M 245.11381445104246,-30.72331497540074 L 244.9444553864353,-27.728099205671356 A 699.1043751886124 699.1043751886124 0 0 1 378.9348484216165,-6.9827484789858945 L 378.1905091489437,-4.076555256373726 L 388.0255977257894,-6.202827272273531 L 380.42352696696213,-12.795134924210231 L 379.67918769428934,-9.888941701598064 A 702.1043751886124 702.1043751886124 0 0 0 245.11381445104246,-30.72331497540074"/><text text-anchor="middle" pointer-events="none" font-size="8px" fill="#000000" x="201.6009740661809" y="-27.332264373504017" font-family="sans-serif">KNOWS_PREDICTED</text></g><g class="relationship" transform="translate(-132.22433957302783 199.27924194767127) rotate(224.24592769660626)"><path class="outline" fill="#FFC454" stroke="none" d="M 23.759917089572927,-7.919364866996621 L 24.536374224880486,-5.021587388129416 A 335.31293468533784 335.31293468533784 0 0 1 64.87375095950838,-13.214497176283942 L 64.45818694130483,-16.18557552374881 A 338.31293468533784 338.31293468533784 0 0 0 23.759917089572927,-7.919364866996621 Z M 151.49741523589284,-17.05313852313094 L 151.14115631115564,-14.074367034992747 A 335.31293468533784 335.31293468533784 0 0 1 191.6338280653765,-6.6871302827921575 L 190.91528661975573,-3.774451414306097 L 200.73113539364505,-5.987845380172937 L 193.070910956618,-12.51248801976428 L 192.35236951099725,-9.599809151278219 A 338.31293468533784 338.31293468533784 0 0 0 151.49741523589284,-17.05313852313094"/><text text-anchor="middle" pointer-events="none" font-size="8px" fill="#000000" x="107.96473358958755" y="-14.930368477931552" transform="rotate(180 107.96473358958755 -17.93036847793155)" font-family="sans-serif">KNOWS_PREDICTED</text></g><g class="relationship" transform="translate(-132.22433957302783 199.27924194767127) rotate(274.50952183650696)"><path class="outline" fill="#57C7E3" stroke="none" d="M 25 1 L 97.25118689487972 1 L 97.25118689487972 -1 L 25 -1 Z M 133.4738431448797 1 L 205.72503003975945 1 L 205.72503003975945 4 L 213.72503003975945 0 L 205.72503003975945 -4 L 205.72503003975945 -1 L 133.4738431448797 -1 Z"/><text text-anchor="middle" pointer-events="none" font-size="8px" fill="#000000" x="115.36251501987972" y="3" font-family="sans-serif">KNOWS</text></g><g class="relationship" transform="translate(-113.45463905468392 -38.706762493631416) rotate(357.0925530989199)"><path class="outline" fill="#FFC454" stroke="none" d="M 23.759917089572927,-7.919364866996621 L 24.536374224880486,-5.021587388129416 A 444.9289394926649 444.9289394926649 0 0 1 92.90175700542929,-17.71497407563737 L 92.5862637008303,-20.698338615004502 A 447.9289394926649 447.9289394926649 0 0 0 23.759917089572927,-7.919364866996621 Z M 179.63628595355326,-21.39763358943884 L 179.36876252551167,-18.409585528337914 A 444.9289394926649 444.9289394926649 0 0 1 247.92924745386304,-6.8161591703164435 L 247.1994446896659,-3.9062815224813594 L 257.02378177946684,-6.081689701642617 L 249.3888529822573,-12.63591446598661 L 248.65905021806017,-9.726036818151528 A 447.9289394926649 447.9289394926649 0 0 0 179.63628595355326,-21.39763358943884"/><text text-anchor="middle" pointer-events="none" font-size="8px" fill="#000000" x="136.10629595093064" y="-18.667769319848162" font-family="sans-serif">KNOWS_PREDICTED</text></g><g class="relationship" transform="translate(-113.45463905468392 -38.706762493631416) rotate(384.9931657060772)"><path class="outline" fill="#57C7E3" stroke="none" d="M 25 1 L 163.91495527782465 1 L 163.91495527782465 -1 L 25 -1 Z M 200.13761152782465 1 L 339.0525668056493 1 L 339.0525668056493 4 L 347.0525668056493 0 L 339.0525668056493 -4 L 339.0525668056493 -1 L 200.13761152782465 -1 Z"/><text text-anchor="middle" pointer-events="none" font-size="8px" fill="#000000" x="182.02628340282465" y="3" font-family="sans-serif">KNOWS</text></g><g class="relationship" transform="translate(-113.45463905468392 -38.706762493631416) rotate(515.7685163293243)"><path class="outline" fill="#57C7E3" stroke="none" d="M 25 1 L 76.55755812610207 1 L 76.55755812610207 -1 L 25 -1 Z M 112.78021437610207 1 L 164.33777250220413 1 L 164.33777250220413 4 L 172.33777250220413 0 L 164.33777250220413 -4 L 164.33777250220413 -1 L 112.78021437610207 -1 Z"/><text text-anchor="middle" pointer-events="none" font-size="8px" fill="#000000" x="94.66888625110207" y="3" transform="rotate(180 94.66888625110207 0)" font-family="sans-serif">KNOWS</text></g><g class="relationship" transform="translate(-113.45463905468392 -38.706762493631416) rotate(400.5187568453797)"><path class="outline" fill="#57C7E3" stroke="none" d="M 25 1 L 149.6255150085417 1 L 149.6255150085417 -1 L 25 -1 Z M 185.8481712585417 1 L 310.4736862670834 1 L 310.4736862670834 4 L 318.4736862670834 0 L 310.4736862670834 -4 L 310.4736862670834 -1 L 185.8481712585417 -1 Z"/><text text-anchor="middle" pointer-events="none" font-size="8px" fill="#000000" x="167.7368431335417" y="3" font-family="sans-serif">KNOWS</text></g><g class="relationship" transform="translate(147.65176142900657 184.44704272678032) rotate(274.7682524615298)"><path class="outline" fill="#57C7E3" stroke="none" d="M 25 1 L 97.0113128146038 1 L 97.0113128146038 -1 L 25 -1 Z M 133.2339690646038 1 L 205.2452818792076 1 L 205.2452818792076 4 L 213.2452818792076 0 L 205.2452818792076 -4 L 205.2452818792076 -1 L 133.2339690646038 -1 Z"/><text text-anchor="middle" pointer-events="none" font-size="8px" fill="#000000" x="115.1226409396038" y="3" font-family="sans-serif">KNOWS</text></g><g class="relationship" transform="translate(-293.4059135035847 42.28543021867924) rotate(386.81984000010476)"><path class="outline" fill="#FFC454" stroke="none" d="M 23.759917089572927,-7.919364866996621 L 24.536374224880486,-5.021587388129416 A 584.4649778277311 584.4649778277311 0 0 1 128.75722922280326,-23.039900196153326 L 128.51572726334874,-26.030163864056135 A 587.4649778277311 587.4649778277311 0 0 0 23.759917089572927,-7.919364866996621 Z M 215.55499775778048,-26.590530178129825 L 215.35201737132763,-23.597404894631723 A 584.4649778277311 584.4649778277311 0 0 1 319.7962303178808,-6.922495751824105 L 319.05714828166924,-4.014961101342821 L 328.88837528743045,-6.159016968429967 L 321.274394390304,-12.737565052786675 L 320.5353123540924,-9.83003040230539 A 587.4649778277311 587.4649778277311 0 0 0 215.55499775778048,-26.590530178129825"/><text text-anchor="middle" pointer-events="none" font-size="8px" fill="#000000" x="172.03462690702037" y="-23.424605130930672" font-family="sans-serif">KNOWS_PREDICTED</text></g><g class="relationship" transform="translate(-293.4059135035847 42.28543021867924) rotate(404.24592769660626)"><path class="outline" fill="#FFC454" stroke="none" d="M 23.759917089572927,-7.919364866996621 L 24.536374224880486,-5.021587388129416 A 335.31293468533784 335.31293468533784 0 0 1 64.87375095950838,-13.214497176283942 L 64.45818694130483,-16.18557552374881 A 338.31293468533784 338.31293468533784 0 0 0 23.759917089572927,-7.919364866996621 Z M 151.49741523589284,-17.05313852313094 L 151.14115631115564,-14.074367034992747 A 335.31293468533784 335.31293468533784 0 0 1 191.6338280653765,-6.6871302827921575 L 190.91528661975573,-3.774451414306097 L 200.73113539364505,-5.987845380172937 L 193.070910956618,-12.51248801976428 L 192.35236951099725,-9.599809151278219 A 338.31293468533784 338.31293468533784 0 0 0 151.49741523589284,-17.05313852313094"/><text text-anchor="middle" pointer-events="none" font-size="8px" fill="#000000" x="107.96473358958755" y="-14.930368477931552" font-family="sans-serif">KNOWS_PREDICTED</text></g><g class="relationship" transform="translate(-293.4059135035847 42.28543021867924) rotate(377.8651577783888)"><path class="outline" fill="#57C7E3" stroke="none" d="M 25 1 L 209.5898785441965 1 L 209.5898785441965 -1 L 25 -1 Z M 245.8125347941965 1 L 430.402413338393 1 L 430.402413338393 4 L 438.402413338393 0 L 430.402413338393 -4 L 430.402413338393 -1 L 245.8125347941965 -1 Z"/><text text-anchor="middle" pointer-events="none" font-size="8px" fill="#000000" x="227.7012066691965" y="3" font-family="sans-serif">KNOWS</text></g><g class="relationship" transform="translate(239.9159850730153 21.919181895237102) rotate(514.5177844151889)"><path class="outline" fill="#FFC454" stroke="none" d="M 23.759917089572927,-7.919364866996621 L 24.536374224880486,-5.021587388129416 A 699.1043751886124 699.1043751886124 0 0 1 158.28896809048484,-27.248567316096455 L 158.08647071832218,-30.24172531631416 A 702.1043751886124 702.1043751886124 0 0 0 23.759917089572927,-7.919364866996621 Z M 245.11381445104246,-30.72331497540074 L 244.9444553864353,-27.728099205671356 A 699.1043751886124 699.1043751886124 0 0 1 378.9348484216165,-6.9827484789858945 L 378.1905091489437,-4.076555256373726 L 388.0255977257894,-6.202827272273531 L 380.42352696696213,-12.795134924210231 L 379.67918769428934,-9.888941701598064 A 702.1043751886124 702.1043751886124 0 0 0 245.11381445104246,-30.72331497540074"/><text text-anchor="middle" pointer-events="none" font-size="8px" fill="#000000" x="201.6009740661809" y="-27.332264373504017" transform="rotate(180 201.6009740661809 -30.332264373504017)" font-family="sans-serif">KNOWS_PREDICTED</text></g><g class="relationship" transform="translate(239.9159850730153 21.919181895237102) rotate(537.8130780922754)"><path class="outline" fill="#57C7E3" stroke="none" d="M 25 1 L 244.74398453155993 1 L 244.74398453155993 -1 L 25 -1 Z M 280.96664078155993 1 L 500.71062531311986 1 L 500.71062531311986 4 L 508.71062531311986 0 L 500.71062531311986 -4 L 500.71062531311986 -1 L 280.96664078155993 -1 Z"/><text text-anchor="middle" pointer-events="none" font-size="8px" fill="#000000" x="262.85531265655993" y="3" transform="rotate(180 262.85531265655993 0)" font-family="sans-serif">KNOWS</text></g><g class="relationship" transform="translate(239.9159850730153 21.919181895237102) rotate(189.735158338789)"><path class="outline" fill="#57C7E3" stroke="none" d="M 25 1 L 157.155444541773 1 L 157.155444541773 -1 L 25 -1 Z M 193.378100791773 1 L 325.533545333546 1 L 325.533545333546 4 L 333.533545333546 0 L 325.533545333546 -4 L 325.533545333546 -1 L 193.378100791773 -1 Z"/><text text-anchor="middle" pointer-events="none" font-size="8px" fill="#000000" x="175.266772666773" y="3" transform="rotate(180 175.266772666773 0)" font-family="sans-serif">KNOWS</text></g><g class="relationship" transform="translate(21.726904353796186 201.60746094031788) rotate(206.81984000010476)"><path class="outline" fill="#FFC454" stroke="none" d="M 23.759917089572927,-7.919364866996621 L 24.536374224880486,-5.021587388129416 A 584.4649778277311 584.4649778277311 0 0 1 128.75722922280326,-23.039900196153326 L 128.51572726334874,-26.030163864056135 A 587.4649778277311 587.4649778277311 0 0 0 23.759917089572927,-7.919364866996621 Z M 215.55499775778048,-26.590530178129825 L 215.35201737132763,-23.597404894631723 A 584.4649778277311 584.4649778277311 0 0 1 319.7962303178808,-6.922495751824105 L 319.05714828166924,-4.014961101342821 L 328.88837528743045,-6.159016968429967 L 321.274394390304,-12.737565052786675 L 320.5353123540924,-9.83003040230539 A 587.4649778277311 587.4649778277311 0 0 0 215.55499775778048,-26.590530178129825"/><text text-anchor="middle" pointer-events="none" font-size="8px" fill="#000000" x="172.03462690702037" y="-23.424605130930672" transform="rotate(180 172.03462690702037 -26.424605130930672)" font-family="sans-serif">KNOWS_PREDICTED</text></g><g class="relationship" transform="translate(21.726904353796186 201.60746094031788) rotate(320.52704667174226)"><path class="outline" fill="#57C7E3" stroke="none" d="M 25 1 L 119.21661724611258 1 L 119.21661724611258 -1 L 25 -1 Z M 155.43927349611258 1 L 249.65589074222515 1 L 249.65589074222515 4 L 257.65589074222515 0 L 249.65589074222515 -4 L 249.65589074222515 -1 L 155.43927349611258 -1 Z"/><text text-anchor="middle" pointer-events="none" font-size="8px" fill="#000000" x="137.32794537111258" y="3" font-family="sans-serif">KNOWS</text></g><g class="relationship" transform="translate(21.726904353796186 201.60746094031788) rotate(240.64137843227377)"><path class="outline" fill="#57C7E3" stroke="none" d="M 25 1 L 115.75180659831977 1 L 115.75180659831977 -1 L 25 -1 Z M 151.97446284831977 1 L 242.72626944663955 1 L 242.72626944663955 4 L 250.72626944663955 0 L 242.72626944663955 -4 L 242.72626944663955 -1 L 151.97446284831977 -1 Z"/><text text-anchor="middle" pointer-events="none" font-size="8px" fill="#000000" x="133.86313472331977" y="3" transform="rotate(180 133.86313472331977 0)" font-family="sans-serif">KNOWS</text></g><g class="relationship" transform="translate(223.75825231081976 118.48922461669257) rotate(188.3821780071557)"><path class="outline" fill="#57C7E3" stroke="none" d="M 25 1 L 239.26282547629023 1 L 239.26282547629023 -1 L 25 -1 Z M 275.48548172629023 1 L 489.74830720258046 1 L 489.74830720258046 4 L 497.74830720258046 0 L 489.74830720258046 -4 L 489.74830720258046 -1 L 275.48548172629023 -1 Z"/><text text-anchor="middle" pointer-events="none" font-size="8px" fill="#000000" x="257.37415360129023" y="3" transform="rotate(180 257.37415360129023 0)" font-family="sans-serif">KNOWS</text></g><g class="relationship" transform="translate(167.45606123947624 -52.973689406536366) rotate(537.0925530989199)"><path class="outline" fill="#FFC454" stroke="none" d="M 23.759917089572927,-7.919364866996621 L 24.536374224880486,-5.021587388129416 A 444.9289394926649 444.9289394926649 0 0 1 92.90175700542929,-17.71497407563737 L 92.5862637008303,-20.698338615004502 A 447.9289394926649 447.9289394926649 0 0 0 23.759917089572927,-7.919364866996621 Z M 179.63628595355326,-21.39763358943884 L 179.36876252551167,-18.409585528337914 A 444.9289394926649 444.9289394926649 0 0 1 247.92924745386304,-6.8161591703164435 L 247.1994446896659,-3.9062815224813594 L 257.02378177946684,-6.081689701642617 L 249.3888529822573,-12.63591446598661 L 248.65905021806017,-9.726036818151528 A 447.9289394926649 447.9289394926649 0 0 0 179.63628595355326,-21.39763358943884"/><text text-anchor="middle" pointer-events="none" font-size="8px" fill="#000000" x="136.10629595093064" y="-18.667769319848162" transform="rotate(180 136.10629595093064 -21.667769319848162)" font-family="sans-serif">KNOWS_PREDICTED</text></g><g class="relationship" transform="translate(167.45606123947624 -52.973689406536366) rotate(499.91134493357697)"><path class="outline" fill="#FFC454" stroke="none" d="M 23.759917089572927,-7.919364866996621 L 24.536374224880486,-5.021587388129416 A 659.3133517886479 659.3133517886479 0 0 1 148.03339092725548,-25.799344825878507 L 147.81886849128628,-28.791665016711363 A 662.3133517886479 662.3133517886479 0 0 0 23.759917089572927,-7.919364866996621 Z M 234.85034472000314,-29.2979709676257 L 234.6706512942793,-26.303357424486762 A 659.3133517886479 659.3133517886479 0 0 1 358.4010503614926,-6.963846437991593 L 357.6583603026889,-4.057231314423612 L 367.4922407615984,-6.189083823364392 L 359.88643047910006,-12.777076685127556 L 359.14374042029635,-9.870461561559575 A 662.3133517886479 662.3133517886479 0 0 0 234.85034472000314,-29.2979709676257"/><text text-anchor="middle" pointer-events="none" font-size="8px" fill="#000000" x="191.33500716819145" y="-25.975963281486315" transform="rotate(180 191.33500716819145 -28.975963281486315)" font-family="sans-serif">KNOWS_PREDICTED</text></g><g class="relationship" transform="translate(167.45606123947624 -52.973689406536366) rotate(528.3215558093293)"><path class="outline" fill="#57C7E3" stroke="none" d="M 25 1 L 213.19063724920002 1 L 213.19063724920002 -1 L 25 -1 Z M 249.41329349920002 1 L 437.60393074840005 1 L 437.60393074840005 4 L 445.60393074840005 0 L 437.60393074840005 -4 L 437.60393074840005 -1 L 249.41329349920002 -1 Z"/><text text-anchor="middle" pointer-events="none" font-size="8px" fill="#000000" x="231.30196537420002" y="3" transform="rotate(180 231.30196537420002 0)" font-family="sans-serif">KNOWS</text></g></g><g class="layer nodes"><g class="node" transform="translate(-132.22433957302783,199.27924194767127)"><circle class="outline" cx="0" cy="0" r="25" fill="#DA7194" stroke="#cc3c6c" stroke-width="2px"/><text text-anchor="middle" pointer-events="none" font-family="sans-serif" dy="1.5625" font-size="25" fill="#FFFFFF"/><text text-anchor="middle" pointer-events="none" x="0" y="5" font-size="10px" fill="#FFFFFF" font-family="sans-serif"> Alice</text></g><g class="node" transform="translate(-113.45463905468392,-38.706762493631416)"><circle class="outline" cx="0" cy="0" r="25" fill="#DA7194" stroke="#cc3c6c" stroke-width="2px"/><text text-anchor="middle" pointer-events="none" font-family="sans-serif" dy="1.5625" font-size="25" fill="#FFFFFF"/><text text-anchor="middle" pointer-events="none" x="0" y="5" font-size="10px" fill="#FFFFFF" font-family="sans-serif"> Michael</text></g><g class="node" transform="translate(147.65176142900657,184.44704272678032)"><circle class="outline" cx="0" cy="0" r="25" fill="#DA7194" stroke="#cc3c6c" stroke-width="2px"/><text text-anchor="middle" pointer-events="none" font-family="sans-serif" dy="1.5625" font-size="25" fill="#FFFFFF"/><text text-anchor="middle" pointer-events="none" x="0" y="5" font-size="10px" fill="#FFFFFF" font-family="sans-serif"> Karin</text></g><g class="node" transform="translate(-293.4059135035847,42.28543021867924)"><circle class="outline" cx="0" cy="0" r="25" fill="#DA7194" stroke="#cc3c6c" stroke-width="2px"/><text text-anchor="middle" pointer-events="none" font-family="sans-serif" dy="1.5625" font-size="25" fill="#FFFFFF"/><text text-anchor="middle" pointer-events="none" x="0" y="5" font-size="10px" fill="#FFFFFF" font-family="sans-serif"> Chris</text></g><g class="node" transform="translate(239.9159850730153,21.919181895237102)"><circle class="outline" cx="0" cy="0" r="25" fill="#DA7194" stroke="#cc3c6c" stroke-width="2px"/><text text-anchor="middle" pointer-events="none" font-family="sans-serif" dy="1.5625" font-size="25" fill="#FFFFFF"/><text text-anchor="middle" pointer-events="none" x="0" y="5" font-size="10px" fill="#FFFFFF" font-family="sans-serif"> Will</text></g><g class="node" transform="translate(21.726904353796186,201.60746094031788)"><circle class="outline" cx="0" cy="0" r="25" fill="#DA7194" stroke="#cc3c6c" stroke-width="2px"/><text text-anchor="middle" pointer-events="none" font-family="sans-serif" dy="1.5625" font-size="25" fill="#FFFFFF"/><text text-anchor="middle" pointer-events="none" x="0" y="5" font-size="10px" fill="#FFFFFF" font-family="sans-serif"> Mark</text></g><g class="node" transform="translate(223.75825231081976,118.48922461669257)"><circle class="outline" cx="0" cy="0" r="25" fill="#DA7194" stroke="#cc3c6c" stroke-width="2px"/><text text-anchor="middle" pointer-events="none" font-family="sans-serif" dy="1.5625" font-size="25" fill="#FFFFFF"/><text text-anchor="middle" pointer-events="none" x="0" y="5" font-size="10px" fill="#FFFFFF" font-family="sans-serif"> Greg</text></g><g class="node" transform="translate(167.45606123947624,-52.973689406536366)"><circle class="outline" cx="0" cy="0" r="25" fill="#DA7194" stroke="#cc3c6c" stroke-width="2px"/><text text-anchor="middle" pointer-events="none" font-family="sans-serif" dy="1.5625" font-size="25" fill="#FFFFFF"/><text text-anchor="middle" pointer-events="none" x="0" y="5" font-size="10px" fill="#FFFFFF" font-family="sans-serif"> Veselin</text></g></g></svg>