<svg xmlns="http://www.w3.org/2000/svg" width="320.89678955078125" height="225.5562744140625" viewBox="-41.15337371826172 -25.15084457397461 320.89678955078125 225.5562744140625"><title>Neo4j Graph Visualization</title><desc>Created using Neo4j (http://www.neo4j.com/)</desc><g class="layer relationships"><g class="relationship" transform="translate(250.74338561373278 171.40542648284153) rotate(180.1250300778231)"><path class="outline" fill="#A5ABB6" stroke="none" d="M 25 0.5 L 53.75096064225835 0.5 L 53.75096064225835 -0.5 L 25 -0.5 Z M 77.53611689225835 0.5 L 106.2870775345167 0.5 L 106.2870775345167 3.5 L 113.2870775345167 0 L 106.2870775345167 -3.5 L 106.2870775345167 -0.5 L 77.53611689225835 -0.5 Z"/><text text-anchor="middle" pointer-events="none" font-size="8px" fill="#000000" x="65.64353876725835" y="3" transform="rotate(180 65.64353876725835 0)" font-family="sans-serif">LINK</text></g><g class="relationship" transform="translate(-7.767886878572847 56.990406524699424) rotate(452.2088352348316)"><path class="outline" fill="#A5ABB6" stroke="none" d="M 24.018736134675446,-6.953439040707552 L 24.277555179777966,-5.987513214418485 A 119.24003019869899 119.24003019869899 0 0 1 41.53395753972982,-9.27180562426075 L 41.419858370420656,-10.265274989446695 A 120.24003019869899 120.24003019869899 0 0 0 24.018736134675446,-6.953439040707552 Z M 65.26239342270382,-10.623612684195052 L 65.17820143213152,-9.62716313267552 A 119.24003019869899 119.24003019869899 0 0 1 82.5255089938596,-6.862941831710085 L 81.83648628023509,-3.9431391500020347 L 89.45321903678247,-5.741855946870906 L 83.44420594535895,-10.756012073987485 L 82.75518323173443,-7.836209392279434 A 120.24003019869899 120.24003019869899 0 0 0 65.26239342270382,-10.623612684195052"/><text text-anchor="middle" pointer-events="none" font-size="8px" fill="#000000" x="53.339734875663815" y="-7.536997495046535" transform="rotate(180 53.339734875663815 -10.536997495046535)" font-family="sans-serif">LINK</text></g><g class="relationship" transform="translate(-7.767886878572847 56.990406524699424) rotate(334.726982971594)"><path class="outline" fill="#A5ABB6" stroke="none" d="M 25 0.5 L 46.84361477564456 0.5 L 46.84361477564456 -0.5 L 25 -0.5 Z M 70.62877102564457 0.5 L 92.47238580128912 0.5 L 92.47238580128912 3.5 L 99.47238580128912 0 L 92.47238580128912 -3.5 L 92.47238580128912 -0.5 L 70.62877102564457 -0.5 Z"/><text text-anchor="middle" pointer-events="none" font-size="8px" fill="#000000" x="58.73619290064456" y="3" font-family="sans-serif">LINK</text></g><g class="relationship" transform="translate(-12.153373301852284 170.69077067983065) rotate(272.2088352348316)"><path class="outline" fill="#A5ABB6" stroke="none" d="M 24.018736134675446,-6.953439040707552 L 24.277555179777966,-5.987513214418485 A 119.24003019869899 119.24003019869899 0 0 1 41.53395753972982,-9.27180562426075 L 41.419858370420656,-10.265274989446695 A 120.24003019869899 120.24003019869899 0 0 0 24.018736134675446,-6.953439040707552 Z M 65.26239342270382,-10.623612684195052 L 65.17820143213152,-9.62716313267552 A 119.24003019869899 119.24003019869899 0 0 1 82.5255089938596,-6.862941831710085 L 81.83648628023509,-3.9431391500020347 L 89.45321903678247,-5.741855946870906 L 83.44420594535895,-10.756012073987485 L 82.75518323173443,-7.836209392279434 A 120.24003019869899 120.24003019869899 0 0 0 65.26239342270382,-10.623612684195052"/><text text-anchor="middle" pointer-events="none" font-size="8px" fill="#000000" x="53.339734875663815" y="-7.536997495046535" font-family="sans-serif">LINK</text></g><g class="relationship" transform="translate(185.25358887004333 81.36734071059554) rotate(223.93206913545953)"><path class="outline" fill="#A5ABB6" stroke="none" d="M 25 0.5 L 40.47195311140226 0.5 L 40.47195311140226 -0.5 L 25 -0.5 Z M 64.25710936140226 0.5 L 79.72906247280451 0.5 L 79.72906247280451 3.5 L 86.72906247280451 0 L 79.72906247280451 -3.5 L 79.72906247280451 -0.5 L 64.25710936140226 -0.5 Z"/><text text-anchor="middle" pointer-events="none" font-size="8px" fill="#000000" x="52.36453123640226" y="3" transform="rotate(180 52.36453123640226 0)" font-family="sans-serif">LINK</text></g><g class="relationship" transform="translate(185.25358887004333 81.36734071059554) rotate(413.96948331329463)"><path class="outline" fill="#A5ABB6" stroke="none" d="M 25 0.5 L 40.27556888713811 0.5 L 40.27556888713811 -0.5 L 25 -0.5 Z M 64.0607251371381 0.5 L 79.33629402427621 0.5 L 79.33629402427621 3.5 L 86.33629402427621 0 L 79.33629402427621 -3.5 L 79.33629402427621 -0.5 L 64.0607251371381 -0.5 Z"/><text text-anchor="middle" pointer-events="none" font-size="8px" fill="#000000" x="52.16814701213811" y="3" font-family="sans-serif">LINK</text></g><g class="relationship" transform="translate(185.25358887004333 81.36734071059554) rotate(489.05006204594633)"><path class="outline" fill="#A5ABB6" stroke="none" d="M 25 0.5 L 42.382855425066126 0.5 L 42.382855425066126 -0.5 L 25 -0.5 Z M 66.16801167506613 0.5 L 83.55086710013225 0.5 L 83.55086710013225 3.5 L 90.55086710013225 0 L 83.55086710013225 -3.5 L 83.55086710013225 -0.5 L 66.16801167506613 -0.5 Z"/><text text-anchor="middle" pointer-events="none" font-size="8px" fill="#000000" x="54.275433550066126" y="3" transform="rotate(180 54.275433550066126 0)" font-family="sans-serif">LINK</text></g></g><g class="layer nodes"><g class="node" transform="translate(112.45663733633131,171.10365852557393)"><circle class="outline" cx="0" cy="0" r="25" fill="#C990C0" stroke="#b261a5" stroke-width="2px"/><text text-anchor="middle" pointer-events="none" font-family="sans-serif" dy="1.5625" font-size="25" fill="#FFFFFF"/><text text-anchor="middle" pointer-events="none" x="0" y="5" font-size="10px" fill="#FFFFFF" font-family="sans-serif"> Bridget</text></g><g class="node" transform="translate(250.74338561373278,171.40542648284153)"><circle class="outline" cx="0" cy="0" r="25" fill="#C990C0" stroke="#b261a5" stroke-width="2px"/><text text-anchor="middle" pointer-events="none" font-family="sans-serif" dy="1.5625" font-size="25" fill="#FFFFFF"/><text text-anchor="middle" pointer-events="none" x="0" y="5" font-size="10px" fill="#FFFFFF" font-family="sans-serif"> Charles</text></g><g class="node" transform="translate(104.79046395059817,3.8491562036708675)"><circle class="outline" cx="0" cy="0" r="25" fill="#C990C0" stroke="#b261a5" stroke-width="2px"/><text text-anchor="middle" pointer-events="none" font-family="sans-serif" dy="1.5625" font-size="25" fill="#FFFFFF"/><text text-anchor="middle" pointer-events="none" x="0" y="5" font-size="10px" fill="#FFFFFF" font-family="sans-serif"> Doug</text></g><g class="node" transform="translate(-7.767886878572847,56.990406524699424)"><circle class="outline" cx="0" cy="0" r="25" fill="#C990C0" stroke="#b261a5" stroke-width="2px"/><text text-anchor="middle" pointer-events="none" font-family="sans-serif" dy="1.5625" font-size="25" fill="#FFFFFF"/><text text-anchor="middle" pointer-events="none" x="0" y="5" font-size="10px" fill="#FFFFFF" font-family="sans-serif"> Mark</text></g><g class="node" transform="translate(-12.153373301852284,170.69077067983065)"><circle class="outline" cx="0" cy="0" r="25" fill="#C990C0" stroke="#b261a5" stroke-width="2px"/><text text-anchor="middle" pointer-events="none" font-family="sans-serif" dy="1.5625" font-size="25" fill="#FFFFFF"/><text text-anchor="middle" pointer-events="none" x="0" y="5" font-size="10px" fill="#FFFFFF" font-family="sans-serif"> Michael</text></g><g class="node" transform="translate(185.25358887004333,81.36734071059554)"><circle class="outline" cx="0" cy="0" r="25" fill="#C990C0" stroke="#b261a5" stroke-width="2px"/><text text-anchor="middle" pointer-events="none" font-family="sans-serif" dy="1.5625" font-size="25" fill="#FFFFFF"/><text text-anchor="middle" pointer-events="none" x="0" y="5" font-size="10px" fill="#FFFFFF" font-family="sans-serif"> Alice</text></g></g></svg>