<svg xmlns="http://www.w3.org/2000/svg" width="448.250244140625" height="300.417236328125" viewBox="-148.80035400390625 -37.11601257324219 448.250244140625 300.417236328125"><title>Neo4j Graph Visualization</title><desc>Created using Neo4j (http://www.neo4j.com/)</desc><g class="layer relationships"><g class="relationship" transform="translate(142.30818899896911 113.7045110454261) rotate(250.33633329629134)"><path class="outline" fill="#A5ABB6" stroke="none" d="M 24.018736134675446,-6.953439040707552 L 24.277555179777966,-5.987513214418485 A 150.15339090305085 150.15339090305085 0 0 1 46.66283176128765,-10.197049607950106 L 46.55309544050378,-11.191010341531069 A 151.15339090305085 151.15339090305085 0 0 0 24.018736134675446,-6.953439040707552 Z M 75.7227887670985,-11.579236691360506 L 75.6395443472432,-10.58270753144447 A 150.15339090305085 150.15339090305085 0 0 1 98.12892345329114,-6.970418547488775 L 97.42986209722083,-4.053003043922449 L 105.05273652095761,-5.825511300585804 L 99.06100526138486,-10.860305885577208 L 98.36194390531456,-7.942890382010884 A 151.15339090305085 151.15339090305085 0 0 0 75.7227887670985,-11.579236691360506"/><text text-anchor="middle" pointer-events="none" font-size="8px" fill="#000000" x="61.13520837140018" y="-8.590524658867025" transform="rotate(180 61.13520837140018 -11.590524658867025)" font-family="sans-serif">LINKS</text></g><g class="relationship" transform="translate(142.30818899896911 113.7045110454261) rotate(454.68266690665246)"><path class="outline" fill="#A5ABB6" stroke="none" d="M 24.018736134675446,-6.953439040707552 L 24.277555179777966,-5.987513214418485 A 131.43122171440115 131.43122171440115 0 0 1 41.95191282667626,-9.445925387581752 L 41.827569878016824,-10.438164688919215 A 132.43122171440115 132.43122171440115 0 0 0 24.018736134675446,-6.953439040707552 Z M 70.99673976478205,-10.855339522655441 L 70.90082370269498,-9.859950096835718 A 131.43122171440115 131.43122171440115 0 0 1 88.66685600567075,-6.908403180458307 L 87.97358699860531,-3.9896058110195702 L 95.59292803553872,-5.777241725545388 L 89.59121468175802,-10.800133006376623 L 88.89794567469258,-7.881335636937886 A 132.43122171440115 132.43122171440115 0 0 0 70.99673976478205,-10.855339522655441"/><text text-anchor="middle" pointer-events="none" font-size="8px" fill="#000000" x="56.40778300581834" y="-7.952432652853247" transform="rotate(180 56.40778300581834 -10.952432652853247)" font-family="sans-serif">LINKS</text></g><g class="relationship" transform="translate(142.30818899896911 113.7045110454261) rotate(327.9433460687377)"><path class="outline" fill="#A5ABB6" stroke="none" d="M 24.018736134675446,-6.953439040707552 L 24.277555179777966,-5.987513214418485 A 187.03069349943365 187.03069349943365 0 0 1 55.99666797430079,-11.614440768773932 L 55.90744201684096,-12.61045217860584 A 188.03069349943365 188.03069349943365 0 0 0 24.018736134675446,-6.953439040707552 Z M 85.07485372423494,-12.951762517632005 L 85.00895920022145,-11.95393592362629 A 187.03069349943365 187.03069349943365 0 0 1 116.85105849031062,-7.070787044703118 L 116.142622933754,-4.155633693298373 L 123.77115556968113,-5.903629637971806 L 117.79563923238611,-10.957658179909444 L 117.08720367582949,-8.042504828504699 A 188.03069349943365 188.03069349943365 0 0 0 85.07485372423494,-12.951762517632005"/><text text-anchor="middle" pointer-events="none" font-size="8px" fill="#000000" x="70.49036988887212" y="-9.847591450571656" font-family="sans-serif">LINKS</text></g><g class="relationship" transform="translate(267.7960228226133 35.11837155608667) rotate(507.9433460687377)"><path class="outline" fill="#A5ABB6" stroke="none" d="M 24.018736134675446,-6.953439040707552 L 24.277555179777966,-5.987513214418485 A 187.03069349943365 187.03069349943365 0 0 1 55.99666797430079,-11.614440768773932 L 55.90744201684096,-12.61045217860584 A 188.03069349943365 188.03069349943365 0 0 0 24.018736134675446,-6.953439040707552 Z M 85.07485372423494,-12.951762517632005 L 85.00895920022145,-11.95393592362629 A 187.03069349943365 187.03069349943365 0 0 1 116.85105849031062,-7.070787044703118 L 116.142622933754,-4.155633693298373 L 123.77115556968113,-5.903629637971806 L 117.79563923238611,-10.957658179909444 L 117.08720367582949,-8.042504828504699 A 188.03069349943365 188.03069349943365 0 0 0 85.07485372423494,-12.951762517632005"/><text text-anchor="middle" pointer-events="none" font-size="8px" fill="#000000" x="70.49036988887212" y="-9.847591450571656" transform="rotate(180 70.49036988887212 -12.847591450571656)" font-family="sans-serif">LINKS</text></g><g class="relationship" transform="translate(98.77726050462738 -8.116014742940798) rotate(430.33633329629134)"><path class="outline" fill="#A5ABB6" stroke="none" d="M 24.018736134675446,-6.953439040707552 L 24.277555179777966,-5.987513214418485 A 150.15339090305085 150.15339090305085 0 0 1 46.66283176128765,-10.197049607950106 L 46.55309544050378,-11.191010341531069 A 151.15339090305085 151.15339090305085 0 0 0 24.018736134675446,-6.953439040707552 Z M 75.7227887670985,-11.579236691360506 L 75.6395443472432,-10.58270753144447 A 150.15339090305085 150.15339090305085 0 0 1 98.12892345329114,-6.970418547488775 L 97.42986209722083,-4.053003043922449 L 105.05273652095761,-5.825511300585804 L 99.06100526138486,-10.860305885577208 L 98.36194390531456,-7.942890382010884 A 151.15339090305085 151.15339090305085 0 0 0 75.7227887670985,-11.579236691360506"/><text text-anchor="middle" pointer-events="none" font-size="8px" fill="#000000" x="61.13520837140018" y="-8.590524658867025" font-family="sans-serif">LINKS</text></g><g class="relationship" transform="translate(132.51858664825286 233.22048558043028) rotate(204.5672404059561)"><path class="outline" fill="#A5ABB6" stroke="none" d="M 25 0.5 L 120.65642181350034 0.5 L 120.65642181350034 -0.5 L 25 -0.5 Z M 149.77751556350034 0.5 L 245.4339373770007 0.5 L 245.4339373770007 3.5 L 252.4339373770007 0 L 245.4339373770007 -3.5 L 245.4339373770007 -0.5 L 149.77751556350034 -0.5 Z"/><text text-anchor="middle" pointer-events="none" font-size="8px" fill="#000000" x="135.21696868850034" y="3" transform="rotate(180 135.21696868850034 0)" font-family="sans-serif">LINKS</text></g><g class="relationship" transform="translate(132.51858664825286 233.22048558043028) rotate(232.95293445816344)"><path class="outline" fill="#A5ABB6" stroke="none" d="M 25 0.5 L 113.12625577267619 0.5 L 113.12625577267619 -0.5 L 25 -0.5 Z M 142.2473495226762 0.5 L 230.37360529535238 0.5 L 230.37360529535238 3.5 L 237.37360529535238 0 L 230.37360529535238 -3.5 L 230.37360529535238 -0.5 L 142.2473495226762 -0.5 Z"/><text text-anchor="middle" pointer-events="none" font-size="8px" fill="#000000" x="127.68680264767619" y="3" transform="rotate(180 127.68680264767619 0)" font-family="sans-serif">LINKS</text></g><g class="relationship" transform="translate(132.51858664825286 233.22048558043028) rotate(539.6985262800563)"><path class="outline" fill="#A5ABB6" stroke="none" d="M 25 0.5 L 84.64024849742695 0.5 L 84.64024849742695 -0.5 L 25 -0.5 Z M 113.76134224742695 0.5 L 173.4015907448539 0.5 L 173.4015907448539 3.5 L 180.4015907448539 0 L 173.4015907448539 -3.5 L 173.4015907448539 -0.5 L 113.76134224742695 -0.5 Z"/><text text-anchor="middle" pointer-events="none" font-size="8px" fill="#000000" x="99.20079537242695" y="3" transform="rotate(180 99.20079537242695 0)" font-family="sans-serif">LINKS</text></g><g class="relationship" transform="translate(132.51858664825286 233.22048558043028) rotate(274.68266690665246)"><path class="outline" fill="#A5ABB6" stroke="none" d="M 24.018736134675446,-6.953439040707552 L 24.277555179777966,-5.987513214418485 A 131.43122171440115 131.43122171440115 0 0 1 41.95191282667626,-9.445925387581752 L 41.827569878016824,-10.438164688919215 A 132.43122171440115 132.43122171440115 0 0 0 24.018736134675446,-6.953439040707552 Z M 70.99673976478205,-10.855339522655441 L 70.90082370269498,-9.859950096835718 A 131.43122171440115 131.43122171440115 0 0 1 88.66685600567075,-6.908403180458307 L 87.97358699860531,-3.9896058110195702 L 95.59292803553872,-5.777241725545388 L 89.59121468175802,-10.800133006376623 L 88.89794567469258,-7.881335636937886 A 132.43122171440115 132.43122171440115 0 0 0 70.99673976478205,-10.855339522655441"/><text text-anchor="middle" pointer-events="none" font-size="8px" fill="#000000" x="56.40778300581834" y="-7.952432652853247" font-family="sans-serif">LINKS</text></g><g class="relationship" transform="translate(132.51858664825286 233.22048558043028) rotate(331.87832128139536)"><path class="outline" fill="#A5ABB6" stroke="none" d="M 25 0.5 L 60.13635626894656 0.5 L 60.13635626894656 -0.5 L 25 -0.5 Z M 89.25745001894656 0.5 L 124.39380628789311 0.5 L 124.39380628789311 3.5 L 131.3938062878931 0 L 124.39380628789311 -3.5 L 124.39380628789311 -0.5 L 89.25745001894656 -0.5 Z"/><text text-anchor="middle" pointer-events="none" font-size="8px" fill="#000000" x="74.69690314394656" y="3" font-family="sans-serif">LINKS</text></g><g class="relationship" transform="translate(-25.553864479323188 23.809385229466443) rotate(388.17037469856155)"><path class="outline" fill="#A5ABB6" stroke="none" d="M 25 0.5 L 77.14817468376303 0.5 L 77.14817468376303 -0.5 L 25 -0.5 Z M 106.26926843376303 0.5 L 158.41744311752606 0.5 L 158.41744311752606 3.5 L 165.41744311752606 0 L 158.41744311752606 -3.5 L 158.41744311752606 -0.5 L 106.26926843376303 -0.5 Z"/><text text-anchor="middle" pointer-events="none" font-size="8px" fill="#000000" x="91.70872155876303" y="3" font-family="sans-serif">LINKS</text></g><g class="relationship" transform="translate(-119.8003589769855 117.87431404849983) rotate(359.0885762282419)"><path class="outline" fill="#A5ABB6" stroke="none" d="M 25 0.5 L 113.0103100871292 0.5 L 113.0103100871292 -0.5 L 25 -0.5 Z M 142.1314038371292 0.5 L 230.1417139242584 0.5 L 230.1417139242584 3.5 L 237.1417139242584 0 L 230.1417139242584 -3.5 L 230.1417139242584 -0.5 L 142.1314038371292 -0.5 Z"/><text text-anchor="middle" pointer-events="none" font-size="8px" fill="#000000" x="127.5708569621292" y="3" font-family="sans-serif">LINKS</text></g><g class="relationship" transform="translate(-72.88016077188728 234.30124399651208) rotate(330.73267975177254)"><path class="outline" fill="#A5ABB6" stroke="none" d="M 25 0.5 L 105.2780094198383 0.5 L 105.2780094198383 -0.5 L 25 -0.5 Z M 134.3991031698383 0.5 L 214.6771125896766 0.5 L 214.6771125896766 3.5 L 221.6771125896766 0 L 214.6771125896766 -3.5 L 214.6771125896766 -0.5 L 134.3991031698383 -0.5 Z"/><text text-anchor="middle" pointer-events="none" font-size="8px" fill="#000000" x="119.8385562948383" y="3" font-family="sans-serif">LINKS</text></g><g class="relationship" transform="translate(270.449883347852 159.50495101693278) rotate(199.6679197632359)"><path class="outline" fill="#A5ABB6" stroke="none" d="M 25 0.5 L 49.979834760074084 0.5 L 49.979834760074084 -0.5 L 25 -0.5 Z M 79.10092851007408 0.5 L 104.08076327014817 0.5 L 104.08076327014817 3.5 L 111.08076327014817 0 L 104.08076327014817 -3.5 L 104.08076327014817 -0.5 L 79.10092851007408 -0.5 Z"/><text text-anchor="middle" pointer-events="none" font-size="8px" fill="#000000" x="64.54038163507408" y="3" transform="rotate(180 64.54038163507408 0)" font-family="sans-serif">LINKS</text></g></g><g class="layer nodes"><g class="node" transform="translate(142.30818899896911,113.7045110454261)"><circle class="outline" cx="0" cy="0" r="25" fill="#A5ABB6" stroke="#9AA1AC" stroke-width="2px"/><text text-anchor="middle" pointer-events="none" font-family="sans-serif" dy="1.5625" font-size="25" fill="#FFFFFF"/><text text-anchor="middle" pointer-events="none" y="5" font-size="10px" fill="#FFFFFF" font-family="sans-serif"> Home</text></g><g class="node" transform="translate(267.7960228226133,35.11837155608667)"><circle class="outline" cx="0" cy="0" r="25" fill="#A5ABB6" stroke="#9AA1AC" stroke-width="2px"/><text text-anchor="middle" pointer-events="none" font-family="sans-serif" dy="1.5625" font-size="25" fill="#FFFFFF"/><text text-anchor="middle" pointer-events="none" y="5" font-size="10px" fill="#FFFFFF" font-family="sans-serif"> About</text></g><g class="node" transform="translate(98.77726050462738,-8.116014742940798)"><circle class="outline" cx="0" cy="0" r="25" fill="#A5ABB6" stroke="#9AA1AC" stroke-width="2px"/><text text-anchor="middle" pointer-events="none" font-family="sans-serif" dy="1.5625" font-size="25" fill="#FFFFFF"/><text text-anchor="middle" pointer-events="none" y="5" font-size="10px" fill="#FFFFFF" font-family="sans-serif"> Product</text></g><g class="node" transform="translate(132.51858664825286,233.22048558043028)"><circle class="outline" cx="0" cy="0" r="25" fill="#A5ABB6" stroke="#9AA1AC" stroke-width="2px"/><text text-anchor="middle" pointer-events="none" font-family="sans-serif" dy="1.5625" font-size="25" fill="#FFFFFF"/><text text-anchor="middle" pointer-events="none" y="5" font-size="10px" fill="#FFFFFF" font-family="sans-serif"> Links</text></g><g class="node" transform="translate(-25.553864479323188,23.809385229466443)"><circle class="outline" cx="0" cy="0" r="25" fill="#A5ABB6" stroke="#9AA1AC" stroke-width="2px"/><text text-anchor="middle" pointer-events="none" font-family="sans-serif" dy="1.5625" font-size="25" fill="#FFFFFF"/><text text-anchor="middle" pointer-events="none" y="5" font-size="10px" fill="#FFFFFF" font-family="sans-serif"> Site A</text></g><g class="node" transform="translate(-119.8003589769855,117.87431404849983)"><circle class="outline" cx="0" cy="0" r="25" fill="#A5ABB6" stroke="#9AA1AC" stroke-width="2px"/><text text-anchor="middle" pointer-events="none" font-family="sans-serif" dy="1.5625" font-size="25" fill="#FFFFFF"/><text text-anchor="middle" pointer-events="none" y="5" font-size="10px" fill="#FFFFFF" font-family="sans-serif"> Site B</text></g><g class="node" transform="translate(-72.88016077188728,234.30124399651208)"><circle class="outline" cx="0" cy="0" r="25" fill="#A5ABB6" stroke="#9AA1AC" stroke-width="2px"/><text text-anchor="middle" pointer-events="none" font-family="sans-serif" dy="1.5625" font-size="25" fill="#FFFFFF"/><text text-anchor="middle" pointer-events="none" y="5" font-size="10px" fill="#FFFFFF" font-family="sans-serif"> Site C</text></g><g class="node" transform="translate(270.449883347852,159.50495101693278)"><circle class="outline" cx="0" cy="0" r="25" fill="#A5ABB6" stroke="#9AA1AC" stroke-width="2px"/><text text-anchor="middle" pointer-events="none" font-family="sans-serif" dy="1.5625" font-size="25" fill="#FFFFFF"/><text text-anchor="middle" pointer-events="none" y="5" font-size="10px" fill="#FFFFFF" font-family="sans-serif"> Site D</text></g></g></svg>