<?xml version="1.0" encoding="UTF-8" standalone="no"?>
<svg
   width="505.36566"
   height="389.65622"
   viewBox="0 0 505.36566 389.65622"
   fill="none"
   version="1.1"
   id="svg212"
   sodipodi:docname="algorithm-modes.svg"
   inkscape:version="1.1.2 (b8e25be8, 2022-02-05)"
   xmlns:inkscape="http://www.inkscape.org/namespaces/inkscape"
   xmlns:sodipodi="http://sodipodi.sourceforge.net/DTD/sodipodi-0.dtd"
   xmlns="http://www.w3.org/2000/svg"
   xmlns:svg="http://www.w3.org/2000/svg">
  <sodipodi:namedview
     id="namedview214"
     pagecolor="#ffffff"
     bordercolor="#666666"
     borderopacity="1.0"
     inkscape:pageshadow="2"
     inkscape:pageopacity="0.0"
     inkscape:pagecheckerboard="0"
     showgrid="false"
     inkscape:zoom="1.0132231"
     inkscape:cx="268.45026"
     inkscape:cy="298.55221"
     inkscape:window-width="1920"
     inkscape:window-height="1027"
     inkscape:window-x="0"
     inkscape:window-y="25"
     inkscape:window-maximized="1"
     inkscape:current-layer="svg212" />
  <path
     d="m 384.38076,303.11823 c -0.456,0 -0.888,-0.064 -1.296,-0.192 -0.408,-0.128 -0.744,-0.308 -1.008,-0.54 l 0.312,-0.684 c 0.288,0.232 0.604,0.404 0.948,0.516 0.352,0.104 0.708,0.156 1.068,0.156 0.456,0 0.8,-0.084 1.032,-0.252 0.232,-0.168 0.348,-0.396 0.348,-0.684 0,-0.224 -0.076,-0.4 -0.228,-0.528 -0.152,-0.136 -0.392,-0.24 -0.72,-0.312 l -1.092,-0.24 c -0.992,-0.216 -1.488,-0.728 -1.488,-1.536 0,-0.528 0.208,-0.952 0.624,-1.272 0.424,-0.32 0.976,-0.48 1.656,-0.48 0.4,0 0.78,0.064 1.14,0.192 0.368,0.12 0.672,0.3 0.912,0.54 l -0.324,0.684 c -0.232,-0.216 -0.504,-0.38 -0.816,-0.492 -0.304,-0.12 -0.608,-0.18 -0.912,-0.18 -0.448,0 -0.788,0.088 -1.02,0.264 -0.232,0.176 -0.348,0.408 -0.348,0.696 0,0.448 0.296,0.736 0.888,0.864 l 1.092,0.228 c 0.512,0.112 0.9,0.292 1.164,0.54 0.264,0.24 0.396,0.568 0.396,0.984 0,0.536 -0.212,0.96 -0.636,1.272 -0.424,0.304 -0.988,0.456 -1.692,0.456 z m 6.091,0 c -0.688,0 -1.204,-0.18 -1.548,-0.54 -0.344,-0.368 -0.516,-0.896 -0.516,-1.584 v -3.06 h -1.14 v -0.756 h 1.14 v -1.788 h 0.972 v 1.788 h 1.848 v 0.756 h -1.848 v 2.964 c 0,0.456 0.096,0.804 0.288,1.044 0.192,0.232 0.504,0.348 0.936,0.348 0.128,0 0.256,-0.016 0.384,-0.048 0.128,-0.032 0.244,-0.064 0.348,-0.096 l 0.168,0.744 c -0.104,0.056 -0.256,0.108 -0.456,0.156 -0.2,0.048 -0.392,0.072 -0.576,0.072 z m 1.855,-0.108 v -5.832 h 0.948 v 1.044 c 0.312,-0.704 0.952,-1.092 1.92,-1.164 l 0.348,-0.036 0.072,0.84 -0.612,0.072 c -0.552,0.048 -0.972,0.224 -1.26,0.528 -0.288,0.296 -0.432,0.704 -0.432,1.224 v 3.324 z m 6.859,0.108 c -0.92,0 -1.648,-0.268 -2.184,-0.804 -0.536,-0.544 -0.804,-1.28 -0.804,-2.208 0,-0.6 0.12,-1.128 0.36,-1.584 0.24,-0.464 0.568,-0.82 0.984,-1.068 0.424,-0.256 0.912,-0.384 1.464,-0.384 0.792,0 1.412,0.256 1.86,0.768 0.448,0.504 0.672,1.2 0.672,2.088 v 0.372 h -4.392 c 0.032,0.664 0.224,1.172 0.576,1.524 0.352,0.344 0.84,0.516 1.464,0.516 0.352,0 0.688,-0.052 1.008,-0.156 0.32,-0.112 0.624,-0.292 0.912,-0.54 l 0.336,0.684 c -0.264,0.248 -0.6,0.444 -1.008,0.588 -0.408,0.136 -0.824,0.204 -1.248,0.204 z m -0.156,-5.328 c -0.552,0 -0.988,0.172 -1.308,0.516 -0.32,0.344 -0.508,0.796 -0.564,1.356 h 3.54 c -0.024,-0.592 -0.18,-1.052 -0.468,-1.38 -0.28,-0.328 -0.68,-0.492 -1.2,-0.492 z m 5.75,5.328 c -0.4,0 -0.76,-0.076 -1.08,-0.228 -0.312,-0.16 -0.56,-0.376 -0.744,-0.648 -0.184,-0.272 -0.276,-0.576 -0.276,-0.912 0,-0.424 0.108,-0.76 0.324,-1.008 0.224,-0.248 0.588,-0.424 1.092,-0.528 0.512,-0.112 1.208,-0.168 2.088,-0.168 h 0.384 v -0.372 c 0,-0.496 -0.104,-0.852 -0.312,-1.068 -0.2,-0.224 -0.524,-0.336 -0.972,-0.336 -0.352,0 -0.692,0.052 -1.02,0.156 -0.328,0.096 -0.664,0.256 -1.008,0.48 l -0.336,-0.708 c 0.304,-0.216 0.672,-0.388 1.104,-0.516 0.44,-0.128 0.86,-0.192 1.26,-0.192 0.752,0 1.308,0.184 1.668,0.552 0.368,0.368 0.552,0.94 0.552,1.716 v 3.672 h -0.912 v -1.008 c -0.152,0.344 -0.388,0.616 -0.708,0.816 -0.312,0.2 -0.68,0.3 -1.104,0.3 z m 0.156,-0.732 c 0.48,0 0.872,-0.164 1.176,-0.492 0.304,-0.336 0.456,-0.76 0.456,-1.272 v -0.36 h -0.372 c -0.648,0 -1.16,0.032 -1.536,0.096 -0.368,0.056 -0.628,0.16 -0.78,0.312 -0.144,0.144 -0.216,0.344 -0.216,0.6 0,0.328 0.112,0.596 0.336,0.804 0.232,0.208 0.544,0.312 0.936,0.312 z m 4.396,0.624 v -5.832 h 0.948 v 0.984 c 0.176,-0.352 0.42,-0.62 0.732,-0.804 0.312,-0.192 0.676,-0.288 1.092,-0.288 0.912,0 1.496,0.396 1.752,1.188 0.176,-0.368 0.436,-0.656 0.78,-0.864 0.344,-0.216 0.74,-0.324 1.188,-0.324 1.296,0 1.944,0.768 1.944,2.304 v 3.636 h -0.972 v -3.588 c 0,-0.536 -0.096,-0.928 -0.288,-1.176 -0.184,-0.256 -0.492,-0.384 -0.924,-0.384 -0.472,0 -0.848,0.168 -1.128,0.504 -0.28,0.336 -0.42,0.784 -0.42,1.344 v 3.3 h -0.972 v -3.588 c 0,-0.536 -0.096,-0.928 -0.288,-1.176 -0.184,-0.256 -0.492,-0.384 -0.924,-0.384 -0.48,0 -0.86,0.168 -1.14,0.504 -0.272,0.336 -0.408,0.784 -0.408,1.344 v 3.3 z"
     fill="#151e29"
     id="path11" />
  <path
     d="m 393.74476,154.40323 c -0.285,-0.356 -0.506,-0.733 -0.661,-1.132 -0.155,-0.398 -0.225,-0.773 -0.209,-1.124 l 0.729,-0.184 c -0.001,0.369 0.063,0.724 0.19,1.062 0.139,0.34 0.321,0.65 0.546,0.931 0.286,0.356 0.566,0.572 0.842,0.648 0.277,0.076 0.527,0.024 0.752,-0.156 0.175,-0.14 0.264,-0.31 0.269,-0.508 0.011,-0.204 -0.058,-0.456 -0.207,-0.757 l -0.495,-1.003 c -0.452,-0.909 -0.362,-1.616 0.268,-2.121 0.412,-0.33 0.873,-0.433 1.383,-0.309 0.515,0.131 0.985,0.462 1.41,0.992 0.25,0.313 0.438,0.649 0.563,1.01 0.137,0.362 0.186,0.712 0.149,1.049 l -0.736,0.175 c 0.023,-0.316 -0.019,-0.631 -0.127,-0.944 -0.096,-0.312 -0.239,-0.587 -0.43,-0.824 -0.28,-0.35 -0.561,-0.56 -0.843,-0.631 -0.283,-0.071 -0.536,-0.017 -0.761,0.163 -0.35,0.281 -0.389,0.692 -0.119,1.234 l 0.505,0.994 c 0.233,0.47 0.335,0.885 0.306,1.246 -0.022,0.356 -0.195,0.665 -0.52,0.925 -0.418,0.335 -0.882,0.435 -1.39,0.299 -0.503,-0.141 -0.974,-0.486 -1.414,-1.035 z m 3.808,4.753 c -0.43,-0.537 -0.612,-1.053 -0.546,-1.546 0.072,-0.499 0.376,-0.963 0.913,-1.393 l 2.388,-1.914 -0.713,-0.889 0.59,-0.473 0.713,0.89 1.395,-1.119 0.608,0.759 -1.395,1.118 1.156,1.442 -0.59,0.473 -1.156,-1.442 -2.313,1.853 c -0.356,0.285 -0.567,0.578 -0.635,0.878 -0.061,0.295 0.044,0.611 0.314,0.948 0.08,0.1 0.173,0.19 0.278,0.27 0.105,0.079 0.202,0.15 0.292,0.211 l -0.475,0.596 c -0.109,-0.046 -0.245,-0.132 -0.407,-0.258 -0.163,-0.126 -0.301,-0.261 -0.417,-0.404 z m 1.245,1.38 4.551,-3.647 0.593,0.74 -0.815,0.653 c 0.745,-0.197 1.448,0.06 2.109,0.77 l 0.246,0.249 -0.611,0.582 -0.439,-0.433 c -0.382,-0.401 -0.782,-0.618 -1.2,-0.653 -0.411,-0.04 -0.819,0.103 -1.225,0.428 l -2.594,2.079 z m 4.204,5.42 c -0.575,-0.718 -0.821,-1.454 -0.738,-2.207 0.089,-0.759 0.496,-1.428 1.22,-2.009 0.469,-0.375 0.956,-0.611 1.462,-0.709 0.512,-0.103 0.995,-0.07 1.448,0.1 0.465,0.171 0.87,0.471 1.215,0.902 0.496,0.618 0.684,1.262 0.564,1.932 -0.113,0.665 -0.516,1.275 -1.209,1.83 l -0.29,0.233 -2.747,-3.428 c -0.498,0.44 -0.774,0.908 -0.829,1.403 -0.048,0.49 0.123,0.978 0.513,1.465 0.22,0.275 0.471,0.504 0.752,0.689 0.288,0.18 0.618,0.304 0.992,0.374 l -0.324,0.69 c -0.359,-0.051 -0.722,-0.191 -1.089,-0.419 -0.361,-0.233 -0.675,-0.516 -0.94,-0.846 z m 4.061,-3.454 c -0.346,-0.431 -0.752,-0.663 -1.221,-0.698 -0.469,-0.035 -0.939,0.101 -1.411,0.408 l 2.214,2.762 c 0.447,-0.389 0.708,-0.798 0.784,-1.228 0.081,-0.423 -0.041,-0.838 -0.366,-1.244 z m -0.562,7.82 c -0.25,-0.313 -0.416,-0.641 -0.498,-0.986 -0.07,-0.343 -0.056,-0.672 0.041,-0.986 0.097,-0.313 0.277,-0.575 0.539,-0.785 0.331,-0.265 0.661,-0.391 0.989,-0.378 0.334,0.02 0.699,0.194 1.095,0.522 0.408,0.33 0.887,0.838 1.437,1.525 l 0.24,0.299 0.29,-0.232 c 0.387,-0.311 0.6,-0.614 0.639,-0.912 0.049,-0.296 -0.066,-0.619 -0.346,-0.968 -0.22,-0.275 -0.473,-0.508 -0.76,-0.699 -0.28,-0.196 -0.615,-0.358 -1.004,-0.486 l 0.342,-0.705 c 0.359,0.102 0.723,0.282 1.093,0.539 0.375,0.263 0.688,0.551 0.938,0.863 0.47,0.587 0.674,1.136 0.612,1.647 -0.057,0.517 -0.388,1.018 -0.994,1.504 l -2.866,2.296 -0.57,-0.712 0.787,-0.63 c -0.364,0.096 -0.724,0.082 -1.08,-0.043 -0.351,-0.118 -0.659,-0.343 -0.924,-0.673 z m 0.669,-0.336 c 0.3,0.374 0.673,0.577 1.119,0.61 0.452,0.027 0.878,-0.12 1.278,-0.44 l 0.281,-0.225 -0.233,-0.29 c -0.405,-0.506 -0.75,-0.886 -1.035,-1.139 -0.274,-0.252 -0.518,-0.39 -0.732,-0.414 -0.202,-0.022 -0.403,0.047 -0.603,0.207 -0.256,0.205 -0.395,0.46 -0.417,0.765 -0.017,0.311 0.096,0.62 0.342,0.926 z m 2.261,3.82 4.551,-3.647 0.593,0.74 -0.768,0.615 c 0.385,-0.083 0.747,-0.06 1.085,0.068 0.345,0.124 0.648,0.348 0.908,0.672 0.57,0.712 0.626,1.416 0.168,2.111 0.398,-0.093 0.785,-0.07 1.162,0.068 0.384,0.133 0.716,0.375 0.996,0.724 0.81,1.012 0.616,1.998 -0.582,2.958 l -2.838,2.274 -0.608,-0.759 2.8,-2.243 c 0.419,-0.335 0.665,-0.656 0.738,-0.96 0.085,-0.304 -0.008,-0.624 -0.278,-0.962 -0.295,-0.368 -0.661,-0.556 -1.099,-0.565 -0.437,-0.008 -0.874,0.163 -1.311,0.513 l -2.575,2.064 -0.608,-0.759 2.8,-2.244 c 0.418,-0.335 0.664,-0.655 0.737,-0.96 0.085,-0.303 -0.008,-0.624 -0.278,-0.961 -0.3,-0.375 -0.669,-0.566 -1.106,-0.574 -0.432,-0.003 -0.867,0.171 -1.304,0.522 l -2.575,2.063 z"
     fill="#151e29"
     id="path13" />
  <path
     d="m 455.79376,308.71723 c 0.391,-0.39 0.391,-1.024 0,-1.414 l -6.364,-6.364 c -0.39,-0.391 -1.024,-0.391 -1.414,0 -0.391,0.39 -0.391,1.024 0,1.414 l 5.657,5.657 -5.657,5.657 c -0.391,0.39 -0.391,1.024 0,1.414 0.39,0.391 1.024,0.391 1.414,0 z m -104.707,0.293 h 104 v -2 h -104 z"
     fill="#151e29"
     id="path15" />
  <path
     d="m 113.06476,295.17023 v -7.992 h 0.948 v 1.044 c 0.176,-0.36 0.436,-0.64 0.78,-0.84 0.352,-0.208 0.76,-0.312 1.224,-0.312 0.52,0 0.972,0.124 1.356,0.372 0.392,0.24 0.692,0.588 0.9,1.044 0.216,0.448 0.324,0.984 0.324,1.608 0,0.616 -0.108,1.152 -0.324,1.608 -0.208,0.448 -0.508,0.796 -0.9,1.044 -0.384,0.248 -0.836,0.372 -1.356,0.372 -0.448,0 -0.848,-0.1 -1.2,-0.3 -0.352,-0.2 -0.612,-0.476 -0.78,-0.828 v 3.18 z m 2.748,-2.832 c 0.544,0 0.98,-0.192 1.308,-0.576 0.328,-0.392 0.492,-0.948 0.492,-1.668 0,-0.728 -0.164,-1.284 -0.492,-1.668 -0.328,-0.384 -0.764,-0.576 -1.308,-0.576 -0.544,0 -0.98,0.192 -1.308,0.576 -0.328,0.384 -0.492,0.94 -0.492,1.668 0,0.72 0.164,1.276 0.492,1.668 0.328,0.384 0.764,0.576 1.308,0.576 z m 4.249,0.672 v -5.832 h 0.948 v 1.044 c 0.312,-0.704 0.952,-1.092 1.92,-1.164 l 0.348,-0.036 0.072,0.84 -0.612,0.072 c -0.552,0.048 -0.972,0.224 -1.26,0.528 -0.288,0.296 -0.432,0.704 -0.432,1.224 v 3.324 z m 6.654,0.108 c -0.568,0 -1.06,-0.124 -1.476,-0.372 -0.416,-0.248 -0.74,-0.596 -0.972,-1.044 -0.224,-0.456 -0.336,-0.992 -0.336,-1.608 0,-0.616 0.112,-1.148 0.336,-1.596 0.232,-0.456 0.556,-0.808 0.972,-1.056 0.416,-0.248 0.908,-0.372 1.476,-0.372 0.56,0 1.048,0.124 1.464,0.372 0.424,0.248 0.748,0.6 0.972,1.056 0.232,0.448 0.348,0.98 0.348,1.596 0,0.616 -0.116,1.152 -0.348,1.608 -0.224,0.448 -0.548,0.796 -0.972,1.044 -0.416,0.248 -0.904,0.372 -1.464,0.372 z m 0,-0.78 c 0.544,0 0.98,-0.192 1.308,-0.576 0.328,-0.392 0.492,-0.948 0.492,-1.668 0,-0.728 -0.164,-1.284 -0.492,-1.668 -0.328,-0.384 -0.764,-0.576 -1.308,-0.576 -0.552,0 -0.992,0.192 -1.32,0.576 -0.32,0.384 -0.48,0.94 -0.48,1.668 0,0.72 0.16,1.276 0.48,1.668 0.328,0.384 0.768,0.576 1.32,0.576 z m 4.16,-6.612 v -1.092 h 1.2 v 1.092 z m -1.428,9.6 -0.072,-0.756 0.516,-0.048 c 0.736,-0.064 1.104,-0.508 1.104,-1.332 v -6.012 h 0.972 v 5.916 c 0,0.696 -0.164,1.224 -0.492,1.584 -0.328,0.36 -0.832,0.564 -1.512,0.612 z m 6.976,-2.208 c -0.92,0 -1.648,-0.268 -2.184,-0.804 -0.536,-0.544 -0.804,-1.28 -0.804,-2.208 0,-0.6 0.12,-1.128 0.36,-1.584 0.24,-0.464 0.568,-0.82 0.984,-1.068 0.424,-0.256 0.912,-0.384 1.464,-0.384 0.792,0 1.412,0.256 1.86,0.768 0.448,0.504 0.672,1.2 0.672,2.088 v 0.372 h -4.392 c 0.032,0.664 0.224,1.172 0.576,1.524 0.352,0.344 0.84,0.516 1.464,0.516 0.352,0 0.688,-0.052 1.008,-0.156 0.32,-0.112 0.624,-0.292 0.912,-0.54 l 0.336,0.684 c -0.264,0.248 -0.6,0.444 -1.008,0.588 -0.408,0.136 -0.824,0.204 -1.248,0.204 z m -0.156,-5.328 c -0.552,0 -0.988,0.172 -1.308,0.516 -0.32,0.344 -0.508,0.796 -0.564,1.356 h 3.54 c -0.024,-0.592 -0.18,-1.052 -0.468,-1.38 -0.28,-0.328 -0.68,-0.492 -1.2,-0.492 z m 6.387,5.328 c -0.584,0 -1.088,-0.124 -1.512,-0.372 -0.424,-0.256 -0.752,-0.612 -0.984,-1.068 -0.224,-0.464 -0.336,-1.004 -0.336,-1.62 0,-0.928 0.252,-1.656 0.756,-2.184 0.504,-0.536 1.196,-0.804 2.076,-0.804 0.36,0 0.716,0.064 1.068,0.192 0.352,0.128 0.644,0.308 0.876,0.54 l -0.336,0.708 c -0.232,-0.224 -0.488,-0.388 -0.768,-0.492 -0.272,-0.104 -0.532,-0.156 -0.78,-0.156 -0.608,0 -1.076,0.192 -1.404,0.576 -0.328,0.376 -0.492,0.92 -0.492,1.632 0,0.696 0.164,1.248 0.492,1.656 0.328,0.4 0.796,0.6 1.404,0.6 0.248,0 0.508,-0.052 0.78,-0.156 0.28,-0.104 0.536,-0.272 0.768,-0.504 l 0.336,0.708 c -0.232,0.232 -0.528,0.416 -0.888,0.552 -0.352,0.128 -0.704,0.192 -1.056,0.192 z m 5.422,0 c -0.688,0 -1.204,-0.18 -1.548,-0.54 -0.344,-0.368 -0.516,-0.896 -0.516,-1.584 v -3.06 h -1.14 v -0.756 h 1.14 v -1.788 h 0.972 v 1.788 h 1.848 v 0.756 h -1.848 v 2.964 c 0,0.456 0.096,0.804 0.288,1.044 0.192,0.232 0.504,0.348 0.936,0.348 0.128,0 0.256,-0.016 0.384,-0.048 0.128,-0.032 0.244,-0.064 0.348,-0.096 l 0.168,0.744 c -0.104,0.056 -0.256,0.108 -0.456,0.156 -0.2,0.048 -0.392,0.072 -0.576,0.072 z"
     fill="#151e29"
     id="path17" />
  <path
     d="m 118.69476,332.01023 -2.172,-5.832 h 1.02 l 1.644,4.692 1.704,-4.692 h 0.828 l 1.68,4.704 1.668,-4.704 h 0.972 l -2.184,5.832 h -0.924 l -1.644,-4.524 -1.656,4.524 z m 8.542,0 v -5.832 h 0.948 v 1.044 c 0.312,-0.704 0.952,-1.092 1.92,-1.164 l 0.348,-0.036 0.072,0.84 -0.612,0.072 c -0.552,0.048 -0.972,0.224 -1.26,0.528 -0.288,0.296 -0.432,0.704 -0.432,1.224 v 3.324 z m 4.181,-7.284 v -1.092 h 1.2 v 1.092 z m 0.12,7.284 v -5.832 h 0.972 v 5.832 z m 5.129,0.108 c -0.688,0 -1.204,-0.18 -1.548,-0.54 -0.344,-0.368 -0.516,-0.896 -0.516,-1.584 v -3.06 h -1.14 v -0.756 h 1.14 v -1.788 h 0.972 v 1.788 h 1.848 v 0.756 h -1.848 v 2.964 c 0,0.456 0.096,0.804 0.288,1.044 0.192,0.232 0.504,0.348 0.936,0.348 0.128,0 0.256,-0.016 0.384,-0.048 0.128,-0.032 0.244,-0.064 0.348,-0.096 l 0.168,0.744 c -0.104,0.056 -0.256,0.108 -0.456,0.156 -0.2,0.048 -0.392,0.072 -0.576,0.072 z m 4.425,0 c -0.92,0 -1.648,-0.268 -2.184,-0.804 -0.536,-0.544 -0.804,-1.28 -0.804,-2.208 0,-0.6 0.12,-1.128 0.36,-1.584 0.24,-0.464 0.568,-0.82 0.984,-1.068 0.424,-0.256 0.912,-0.384 1.464,-0.384 0.792,0 1.412,0.256 1.86,0.768 0.448,0.504 0.672,1.2 0.672,2.088 v 0.372 h -4.392 c 0.032,0.664 0.224,1.172 0.576,1.524 0.352,0.344 0.84,0.516 1.464,0.516 0.352,0 0.688,-0.052 1.008,-0.156 0.32,-0.112 0.624,-0.292 0.912,-0.54 l 0.336,0.684 c -0.264,0.248 -0.6,0.444 -1.008,0.588 -0.408,0.136 -0.824,0.204 -1.248,0.204 z m -0.156,-5.328 c -0.552,0 -0.988,0.172 -1.308,0.516 -0.32,0.344 -0.508,0.796 -0.564,1.356 h 3.54 c -0.024,-0.592 -0.18,-1.052 -0.468,-1.38 -0.28,-0.328 -0.68,-0.492 -1.2,-0.492 z"
     fill="#151e29"
     id="path19" />
  <path
     d="m 176.30621,298.30323 c 0.35184,0.39 0.35184,1.024 0,1.414 l -5.72657,6.364 c -0.35094,0.391 -0.92144,0.391 -1.27238,0 -0.35183,-0.39 -0.35183,-1.024 0,-1.414 l 5.09039,-5.657 -5.09039,-5.657 c -0.35183,-0.39 -0.35183,-1.024 0,-1.414 0.35094,-0.391 0.92144,-0.391 1.27238,0 z m -94.219455,-0.293 h 93.583275 v 2 H 82.086755 Z"
     fill="#151e29"
     id="path21"
     style="stroke-width:0.948599" />
  <path
     d="m 471.97276,265.00323 c 0.549,0.063 1.044,-0.33 1.107,-0.879 l 1.027,-8.941 c 0.063,-0.549 -0.33,-1.045 -0.879,-1.108 -0.549,-0.063 -1.045,0.331 -1.108,0.88 l -0.912,7.947 -7.948,-0.912 c -0.549,-0.063 -1.045,0.33 -1.108,0.879 -0.063,0.549 0.331,1.045 0.88,1.108 z m -158.669,-199.371204 158,199.000204 1.566,-1.244 -158,-198.999804 z"
     fill="#151e29"
     id="path23" />
  <path
     d="m 119.46176,175.43923 -5.856,-2.107 0.659,-0.779 4.644,1.774 -2.483,-4.331 0.535,-0.632 4.677,1.754 -2.515,-4.31 0.627,-0.743 3.044,5.434 -0.597,0.705 -4.516,-1.665 2.385,4.185 z m 5.515,-6.523 -4.453,-3.765 0.612,-0.724 0.797,0.674 c -0.336,-0.693 -0.219,-1.432 0.351,-2.218 l 0.197,-0.289 0.688,0.487 -0.34,0.514 c -0.32,0.453 -0.457,0.887 -0.411,1.303 0.04,0.411 0.259,0.785 0.656,1.121 l 2.538,2.146 z m -2.863,-7.895 -0.834,-0.705 0.775,-0.917 0.834,0.705 z m 5.64,4.611 -4.454,-3.766 0.628,-0.742 4.453,3.766 z m 3.394,-3.847 c -0.444,0.525 -0.915,0.803 -1.412,0.833 -0.503,0.025 -1.017,-0.184 -1.543,-0.628 l -2.336,-1.976 -0.736,0.871 -0.578,-0.489 0.736,-0.87 -1.365,-1.155 0.628,-0.742 1.365,1.155 1.193,-1.412 0.577,0.489 -1.193,1.411 2.264,1.913 c 0.348,0.295 0.676,0.446 0.983,0.455 0.301,0.003 0.591,-0.161 0.87,-0.49 0.083,-0.098 0.153,-0.206 0.211,-0.325 0.058,-0.118 0.109,-0.227 0.152,-0.327 l 0.676,0.352 c -0.024,0.115 -0.083,0.265 -0.175,0.449 -0.093,0.183 -0.198,0.345 -0.317,0.486 z m 2.857,-3.379 c -0.594,0.703 -1.269,1.086 -2.024,1.149 -0.762,0.058 -1.497,-0.213 -2.205,-0.812 -0.459,-0.387 -0.784,-0.82 -0.978,-1.297 -0.199,-0.483 -0.259,-0.964 -0.18,-1.441 0.078,-0.49 0.296,-0.945 0.652,-1.366 0.512,-0.605 1.107,-0.913 1.788,-0.925 0.674,-0.017 1.35,0.262 2.028,0.835 l 0.284,0.24 -2.836,3.354 c 0.528,0.404 1.04,0.586 1.536,0.544 0.49,-0.046 0.936,-0.308 1.339,-0.784 0.227,-0.269 0.405,-0.559 0.532,-0.871 0.121,-0.317 0.18,-0.665 0.176,-1.045 l 0.74,0.185 c 0.019,0.362 -0.049,0.745 -0.202,1.149 -0.16,0.4 -0.376,0.761 -0.65,1.085 z m -4.169,-3.321 c -0.357,0.422 -0.507,0.866 -0.451,1.332 0.056,0.467 0.28,0.902 0.671,1.306 l 2.286,-2.703 c -0.468,-0.364 -0.92,-0.542 -1.356,-0.533 -0.431,0.002 -0.815,0.201 -1.15,0.598 z"
     fill="#151e29"
     id="path25" />
  <path
     d="m 55.091655,264.10923 c 0.0547,0.55 0.5445,0.951 1.094,0.896 l 8.9559,-0.891 c 0.5495,-0.054 0.9508,-0.544 0.8961,-1.094 -0.0546,-0.549 -0.5445,-0.95 -1.094,-0.896 l -7.9608,0.792 -0.7917,-7.961 c -0.0546,-0.549 -0.5444,-0.951 -1.094,-0.896 -0.5496,0.055 -0.9508,0.545 -0.8961,1.094 z M 218.31276,64.376526 55.313155,263.37623 l 1.5472,1.268 L 219.86076,65.643926 Z"
     fill="#151e29"
     id="path27" />
  <path
     d="m 80.352126,317.71723 c -0.353795,-0.39 -0.353795,-1.024 0,-1.414 l 5.765815,-6.364 c 0.353795,-0.391 0.927386,-0.391 1.281272,0 0.353795,0.39 0.353795,1.024 0,1.414 l -5.125179,5.657 5.125179,5.657 c 0.353795,0.39 0.353795,1.024 0,1.414 -0.353886,0.391 -0.927477,0.391 -1.281272,0 z m 0.640636,-1.707 h 94.224508 v 2 H 80.992762 Z"
     fill="#151e29"
     id="path29"
     style="stroke-width:0.951843" />
  <path
     d="m 227.09333,86.010226 4.354,-9.87 h 0.98 l 4.354,9.87 h -1.19 l -1.092,-2.52 h -5.138 l -1.078,2.52 z m 4.83,-8.526 -2.142,5.04 h 4.312 l -2.142,-5.04 z m 8.254,8.652 c -0.691,0 -1.214,-0.2007 -1.568,-0.602 -0.346,-0.4107 -0.518,-1.0033 -0.518,-1.778 v -7.616 h 1.134 v 7.532 c 0,0.9987 0.396,1.498 1.19,1.498 0.233,0 0.443,-0.028 0.63,-0.084 l -0.028,0.952 c -0.29,0.0653 -0.57,0.098 -0.84,0.098 z m 4.998,2.52 c -0.588,0 -1.144,-0.0793 -1.666,-0.238 -0.514,-0.1493 -0.971,-0.378 -1.372,-0.686 l 0.378,-0.826 c 0.42,0.2987 0.835,0.5133 1.246,0.644 0.42,0.1307 0.872,0.196 1.358,0.196 1.344,0 2.016,-0.6907 2.016,-2.072 v -1.204 c -0.196,0.4293 -0.504,0.77 -0.924,1.022 -0.411,0.2427 -0.882,0.364 -1.414,0.364 -0.626,0 -1.167,-0.1447 -1.624,-0.434 -0.458,-0.2893 -0.812,-0.686 -1.064,-1.19 -0.243,-0.5133 -0.364,-1.106 -0.364,-1.778 0,-0.672 0.121,-1.26 0.364,-1.764 0.252,-0.5133 0.606,-0.91 1.064,-1.19 0.457,-0.28 0.998,-0.42 1.624,-0.42 0.532,0 1.003,0.1213 1.414,0.364 0.42,0.2427 0.728,0.574 0.924,0.994 v -1.232 h 1.106 v 6.314 c 0,1.0453 -0.262,1.8293 -0.784,2.352 -0.514,0.5227 -1.274,0.784 -2.282,0.784 z m -0.168,-3.724 c 0.653,0 1.171,-0.224 1.554,-0.672 0.382,-0.448 0.574,-1.05 0.574,-1.806 0,-0.756 -0.192,-1.3533 -0.574,-1.792 -0.383,-0.448 -0.901,-0.672 -1.554,-0.672 -0.644,0 -1.158,0.224 -1.54,0.672 -0.383,0.4387 -0.574,1.036 -0.574,1.792 0,0.756 0.191,1.358 0.574,1.806 0.382,0.448 0.896,0.672 1.54,0.672 z m 8.189,1.204 c -0.663,0 -1.237,-0.1447 -1.722,-0.434 -0.485,-0.2893 -0.863,-0.6953 -1.134,-1.218 -0.261,-0.532 -0.392,-1.1573 -0.392,-1.876 0,-0.7187 0.131,-1.3393 0.392,-1.862 0.271,-0.532 0.649,-0.9427 1.134,-1.232 0.485,-0.2893 1.059,-0.434 1.722,-0.434 0.653,0 1.223,0.1447 1.708,0.434 0.495,0.2893 0.873,0.7 1.134,1.232 0.271,0.5227 0.406,1.1433 0.406,1.862 0,0.7187 -0.135,1.344 -0.406,1.876 -0.261,0.5227 -0.639,0.9287 -1.134,1.218 -0.485,0.2893 -1.055,0.434 -1.708,0.434 z m 0,-0.91 c 0.635,0 1.143,-0.224 1.526,-0.672 0.383,-0.4573 0.574,-1.106 0.574,-1.946 0,-0.8493 -0.191,-1.498 -0.574,-1.946 -0.383,-0.448 -0.891,-0.672 -1.526,-0.672 -0.644,0 -1.157,0.224 -1.54,0.672 -0.373,0.448 -0.56,1.0967 -0.56,1.946 0,0.84 0.187,1.4887 0.56,1.946 0.383,0.448 0.896,0.672 1.54,0.672 z m 4.951,0.784 v -6.804 h 1.106 v 1.218 c 0.364,-0.8213 1.111,-1.274 2.24,-1.358 l 0.406,-0.042 0.084,0.98 -0.714,0.084 c -0.644,0.056 -1.134,0.2613 -1.47,0.616 -0.336,0.3453 -0.504,0.8213 -0.504,1.428 v 3.878 z m 4.878,-8.498 v -1.274 h 1.4 v 1.274 z m 0.14,8.498 v -6.804 h 1.134 v 6.804 z m 5.984,0.126 c -0.803,0 -1.405,-0.21 -1.806,-0.63 -0.402,-0.4293 -0.602,-1.0453 -0.602,-1.848 v -3.57 h -1.33 v -0.882 h 1.33 v -2.086 h 1.134 v 2.086 h 2.156 v 0.882 h -2.156 v 3.458 c 0,0.532 0.112,0.938 0.336,1.218 0.224,0.2707 0.588,0.406 1.092,0.406 0.149,0 0.298,-0.0187 0.448,-0.056 0.149,-0.0373 0.284,-0.0747 0.406,-0.112 l 0.196,0.868 c -0.122,0.0653 -0.299,0.126 -0.532,0.182 -0.234,0.056 -0.458,0.084 -0.672,0.084 z m 2.164,-0.126 v -9.87 h 1.134 v 4.186 c 0.224,-0.4107 0.537,-0.7187 0.938,-0.924 0.411,-0.2147 0.868,-0.322 1.372,-0.322 1.615,0 2.422,0.896 2.422,2.688 v 4.242 h -1.134 v -4.172 c 0,-0.6347 -0.126,-1.0967 -0.378,-1.386 -0.242,-0.2987 -0.634,-0.448 -1.176,-0.448 -0.625,0 -1.124,0.196 -1.498,0.588 -0.364,0.3827 -0.546,0.896 -0.546,1.54 v 3.878 z m 7.985,0 v -6.804 h 1.106 v 1.148 c 0.206,-0.4107 0.49,-0.7233 0.854,-0.938 0.364,-0.224 0.789,-0.336 1.274,-0.336 1.064,0 1.746,0.462 2.044,1.386 0.206,-0.4293 0.509,-0.7653 0.91,-1.008 0.402,-0.252 0.864,-0.378 1.386,-0.378 1.512,0 2.268,0.896 2.268,2.688 v 4.242 h -1.134 v -4.186 c 0,-0.6253 -0.112,-1.0827 -0.336,-1.372 -0.214,-0.2987 -0.574,-0.448 -1.078,-0.448 -0.55,0 -0.989,0.196 -1.316,0.588 -0.326,0.392 -0.49,0.9147 -0.49,1.568 v 3.85 h -1.134 v -4.186 c 0,-0.6253 -0.112,-1.0827 -0.336,-1.372 -0.214,-0.2987 -0.574,-0.448 -1.078,-0.448 -0.56,0 -1.003,0.196 -1.33,0.588 -0.317,0.392 -0.476,0.9147 -0.476,1.568 v 3.85 z m 14.258,0.126 c -0.532,0 -1.036,-0.0747 -1.512,-0.224 -0.476,-0.1493 -0.868,-0.3593 -1.176,-0.63 l 0.364,-0.798 c 0.336,0.2707 0.705,0.4713 1.106,0.602 0.411,0.1213 0.826,0.182 1.246,0.182 0.532,0 0.934,-0.098 1.204,-0.294 0.271,-0.196 0.406,-0.462 0.406,-0.798 0,-0.2613 -0.088,-0.4667 -0.266,-0.616 -0.177,-0.1587 -0.457,-0.28 -0.84,-0.364 l -1.274,-0.28 c -1.157,-0.252 -1.736,-0.8493 -1.736,-1.792 0,-0.616 0.243,-1.1107 0.728,-1.484 0.495,-0.3733 1.139,-0.56 1.932,-0.56 0.467,0 0.91,0.0747 1.33,0.224 0.43,0.14 0.784,0.35 1.064,0.63 l -0.378,0.798 c -0.27,-0.252 -0.588,-0.4433 -0.952,-0.574 -0.354,-0.14 -0.709,-0.21 -1.064,-0.21 -0.522,0 -0.919,0.1027 -1.19,0.308 -0.27,0.2053 -0.406,0.476 -0.406,0.812 0,0.5227 0.346,0.8587 1.036,1.008 l 1.274,0.266 c 0.598,0.1307 1.05,0.3407 1.358,0.63 0.308,0.28 0.462,0.6627 0.462,1.148 0,0.6253 -0.247,1.12 -0.742,1.484 -0.494,0.3547 -1.152,0.532 -1.974,0.532 z"
     fill="#151e29"
     id="path31" />
  <g
     id="g198"
     transform="translate(-13.483929)">
    <path
       d="m 267.79376,98.303226 c -0.39,-0.391 -1.024,-0.391 -1.414,0 l -6.364,6.364004 c -0.391,0.39 -0.391,1.024 0,1.414 0.39,0.391 1.024,0.391 1.414,0 l 5.657,-5.657 5.657,5.657 c 0.39,0.391 1.024,0.391 1.414,0 0.391,-0.39 0.391,-1.024 0,-1.414 z m 0.293,107.707004 V 99.010226 h -2 V 206.01023 Z"
       fill="#151e29"
       id="path37" />
    <g
       id="g191">
      <path
         d="m 284.37976,206.71723 c 0.39,0.391 1.024,0.391 1.414,0 l 6.364,-6.364 c 0.391,-0.39 0.391,-1.024 0,-1.414 -0.39,-0.391 -1.024,-0.391 -1.414,0 l -5.657,5.657 -5.657,-5.657 c -0.39,-0.391 -1.024,-0.391 -1.414,0 -0.391,0.39 -0.391,1.024 0,1.414 z m 1.707,-0.707 V 99.010226 h -2 V 206.01023 Z"
         fill="#151e29"
         id="path35" />
      <path
         d="m 260.08676,163.08623 h -5.832 v -0.948 h 1.044 c -0.704,-0.312 -1.092,-0.952 -1.164,-1.92 l -0.036,-0.348 0.84,-0.072 0.072,0.612 c 0.048,0.552 0.224,0.972 0.528,1.26 0.296,0.288 0.704,0.432 1.224,0.432 h 3.324 z m 0.108,-6.858 c 0,0.92 -0.268,1.648 -0.804,2.184 -0.544,0.536 -1.28,0.804 -2.208,0.804 -0.6,0 -1.128,-0.12 -1.584,-0.36 -0.464,-0.24 -0.82,-0.568 -1.068,-0.984 -0.256,-0.424 -0.384,-0.912 -0.384,-1.464 0,-0.792 0.256,-1.412 0.768,-1.86 0.504,-0.448 1.2,-0.672 2.088,-0.672 h 0.372 v 4.392 c 0.664,-0.032 1.172,-0.224 1.524,-0.576 0.344,-0.352 0.516,-0.84 0.516,-1.464 0,-0.352 -0.052,-0.688 -0.156,-1.008 -0.112,-0.32 -0.292,-0.624 -0.54,-0.912 l 0.684,-0.336 c 0.248,0.264 0.444,0.6 0.588,1.008 0.136,0.408 0.204,0.824 0.204,1.248 z m -5.328,0.156 c 0,0.552 0.172,0.988 0.516,1.308 0.344,0.32 0.796,0.508 1.356,0.564 v -3.54 c -0.592,0.024 -1.052,0.18 -1.38,0.468 -0.328,0.28 -0.492,0.68 -0.492,1.2 z m 5.328,-5.751 c 0,0.4 -0.076,0.76 -0.228,1.08 -0.16,0.312 -0.376,0.56 -0.648,0.744 -0.272,0.184 -0.576,0.276 -0.912,0.276 -0.424,0 -0.76,-0.108 -1.008,-0.324 -0.248,-0.224 -0.424,-0.588 -0.528,-1.092 -0.112,-0.512 -0.168,-1.208 -0.168,-2.088 v -0.384 h -0.372 c -0.496,0 -0.852,0.104 -1.068,0.312 -0.224,0.2 -0.336,0.524 -0.336,0.972 0,0.352 0.052,0.692 0.156,1.02 0.096,0.328 0.256,0.664 0.48,1.008 l -0.708,0.336 c -0.216,-0.304 -0.388,-0.672 -0.516,-1.104 -0.128,-0.44 -0.192,-0.86 -0.192,-1.26 0,-0.752 0.184,-1.308 0.552,-1.668 0.368,-0.368 0.94,-0.552 1.716,-0.552 h 3.672 v 0.912 h -1.008 c 0.344,0.152 0.616,0.388 0.816,0.708 0.2,0.312 0.3,0.68 0.3,1.104 z m -0.732,-0.156 c 0,-0.48 -0.164,-0.872 -0.492,-1.176 -0.336,-0.304 -0.76,-0.456 -1.272,-0.456 h -0.36 v 0.372 c 0,0.648 0.032,1.16 0.096,1.536 0.056,0.368 0.16,0.628 0.312,0.78 0.144,0.144 0.344,0.216 0.6,0.216 0.328,0 0.596,-0.112 0.804,-0.336 0.208,-0.232 0.312,-0.544 0.312,-0.936 z m 0.732,-6.591 c 0,0.52 -0.124,0.976 -0.372,1.368 -0.248,0.384 -0.596,0.684 -1.044,0.9 -0.456,0.208 -0.992,0.312 -1.608,0.312 -0.624,0 -1.16,-0.104 -1.608,-0.312 -0.456,-0.216 -0.804,-0.516 -1.044,-0.9 -0.248,-0.392 -0.372,-0.848 -0.372,-1.368 0,-0.456 0.1,-0.856 0.3,-1.2 0.2,-0.352 0.476,-0.612 0.828,-0.78 h -3.648 v -0.972 h 8.46 v 0.948 h -1.068 c 0.368,0.168 0.656,0.428 0.864,0.78 0.208,0.352 0.312,0.76 0.312,1.224 z m -0.78,-0.204 c 0,-0.544 -0.192,-0.98 -0.576,-1.308 -0.392,-0.328 -0.948,-0.492 -1.668,-0.492 -0.728,0 -1.284,0.164 -1.668,0.492 -0.384,0.328 -0.576,0.764 -0.576,1.308 0,0.552 0.192,0.992 0.576,1.32 0.384,0.32 0.94,0.48 1.668,0.48 0.72,0 1.276,-0.16 1.668,-0.48 0.384,-0.328 0.576,-0.768 0.576,-1.32 z"
         fill="#151e29"
         id="path39" />
      <path
         d="m 291.08676,134.40323 h 5.832 v 0.948 h -0.984 c 0.352,0.176 0.62,0.42 0.804,0.732 0.192,0.312 0.288,0.676 0.288,1.092 0,0.912 -0.396,1.496 -1.188,1.752 0.368,0.176 0.656,0.436 0.864,0.78 0.216,0.344 0.324,0.74 0.324,1.188 0,1.296 -0.768,1.944 -2.304,1.944 h -3.636 v -0.972 h 3.588 c 0.536,0 0.928,-0.096 1.176,-0.288 0.256,-0.184 0.384,-0.492 0.384,-0.924 0,-0.472 -0.168,-0.848 -0.504,-1.128 -0.336,-0.28 -0.784,-0.42 -1.344,-0.42 h -3.3 v -0.972 h 3.588 c 0.536,0 0.928,-0.096 1.176,-0.288 0.256,-0.184 0.384,-0.492 0.384,-0.924 0,-0.48 -0.168,-0.86 -0.504,-1.14 -0.336,-0.272 -0.784,-0.408 -1.344,-0.408 h -3.3 z m -0.108,12.317 c 0,-1.4 0.772,-2.1 2.316,-2.1 h 3.624 v 0.972 h -3.612 c -0.52,0 -0.904,0.104 -1.152,0.312 -0.248,0.216 -0.372,0.552 -0.372,1.008 0,0.496 0.164,0.9 0.492,1.212 0.336,0.312 0.78,0.468 1.332,0.468 h 3.312 v 0.972 h -5.832 v -0.948 h 0.984 c -0.352,-0.184 -0.624,-0.444 -0.816,-0.78 -0.184,-0.328 -0.276,-0.7 -0.276,-1.116 z m 0,7.003 c 0,-0.688 0.18,-1.204 0.54,-1.548 0.368,-0.344 0.896,-0.516 1.584,-0.516 h 3.06 v -1.14 h 0.756 v 1.14 h 1.788 v 0.972 h -1.788 v 1.848 h -0.756 v -1.848 h -2.964 c -0.456,0 -0.804,0.096 -1.044,0.288 -0.232,0.192 -0.348,0.504 -0.348,0.936 0,0.128 0.016,0.256 0.048,0.384 0.032,0.128 0.064,0.244 0.096,0.348 l -0.744,0.168 c -0.056,-0.104 -0.108,-0.256 -0.156,-0.456 -0.048,-0.2 -0.072,-0.392 -0.072,-0.576 z m 0,3.691 c 0,-0.4 0.076,-0.76 0.228,-1.08 0.16,-0.312 0.376,-0.56 0.648,-0.744 0.272,-0.184 0.576,-0.276 0.912,-0.276 0.424,0 0.76,0.108 1.008,0.324 0.248,0.224 0.424,0.588 0.528,1.092 0.112,0.512 0.168,1.208 0.168,2.088 v 0.384 h 0.372 c 0.496,0 0.852,-0.104 1.068,-0.312 0.224,-0.2 0.336,-0.524 0.336,-0.972 0,-0.352 -0.052,-0.692 -0.156,-1.02 -0.096,-0.328 -0.256,-0.664 -0.48,-1.008 l 0.708,-0.336 c 0.216,0.304 0.388,0.672 0.516,1.104 0.128,0.44 0.192,0.86 0.192,1.26 0,0.752 -0.184,1.308 -0.552,1.668 -0.368,0.368 -0.94,0.552 -1.716,0.552 h -3.672 v -0.912 h 1.008 c -0.344,-0.152 -0.616,-0.388 -0.816,-0.708 -0.2,-0.312 -0.3,-0.68 -0.3,-1.104 z m 0.732,0.156 c 0,0.48 0.164,0.872 0.492,1.176 0.336,0.304 0.76,0.456 1.272,0.456 h 0.36 v -0.372 c 0,-0.648 -0.032,-1.16 -0.096,-1.536 -0.056,-0.368 -0.16,-0.628 -0.312,-0.78 -0.144,-0.144 -0.344,-0.216 -0.6,-0.216 -0.328,0 -0.596,0.112 -0.804,0.336 -0.208,0.232 -0.312,0.544 -0.312,0.936 z m -0.732,6.712 c 0,-0.688 0.18,-1.204 0.54,-1.548 0.368,-0.344 0.896,-0.516 1.584,-0.516 h 3.06 v -1.14 h 0.756 v 1.14 h 1.788 v 0.972 h -1.788 v 1.848 h -0.756 v -1.848 h -2.964 c -0.456,0 -0.804,0.096 -1.044,0.288 -0.232,0.192 -0.348,0.504 -0.348,0.936 0,0.128 0.016,0.256 0.048,0.384 0.032,0.128 0.064,0.244 0.096,0.348 l -0.744,0.168 c -0.056,-0.104 -0.108,-0.256 -0.156,-0.456 -0.048,-0.2 -0.072,-0.392 -0.072,-0.576 z m 0,4.424 c 0,-0.92 0.268,-1.648 0.804,-2.184 0.544,-0.536 1.28,-0.804 2.208,-0.804 0.6,0 1.128,0.12 1.584,0.36 0.464,0.24 0.82,0.568 1.068,0.984 0.256,0.424 0.384,0.912 0.384,1.464 0,0.792 -0.256,1.412 -0.768,1.86 -0.504,0.448 -1.2,0.672 -2.088,0.672 h -0.372 v -4.392 c -0.664,0.032 -1.172,0.224 -1.524,0.576 -0.344,0.352 -0.516,0.84 -0.516,1.464 0,0.352 0.052,0.688 0.156,1.008 0.112,0.32 0.292,0.624 0.54,0.912 l -0.684,0.336 c -0.248,-0.264 -0.444,-0.6 -0.588,-1.008 -0.136,-0.408 -0.204,-0.824 -0.204,-1.248 z m 5.328,-0.156 c 0,-0.552 -0.172,-0.988 -0.516,-1.308 -0.344,-0.32 -0.796,-0.508 -1.356,-0.564 v 3.54 c 0.592,-0.024 1.052,-0.18 1.38,-0.468 0.328,-0.28 0.492,-0.68 0.492,-1.2 z"
         fill="#151e29"
         id="path41" />
    </g>
  </g>
  <path
     d="m 16.858455,343.01023 v -9.87 h 0.896 l 5.95,7.938 v -7.938 h 1.064 v 9.87 h -0.868 l -5.964,-7.966 v 7.966 z m 13.2753,0.126 c -1.0733,0 -1.9227,-0.313 -2.548,-0.938 -0.6253,-0.635 -0.938,-1.493 -0.938,-2.576 0,-0.7 0.14,-1.316 0.42,-1.848 0.28,-0.541 0.6627,-0.957 1.148,-1.246 0.4947,-0.299 1.064,-0.448 1.708,-0.448 0.924,0 1.6473,0.299 2.17,0.896 0.5227,0.588 0.784,1.4 0.784,2.436 v 0.434 h -5.124 c 0.0373,0.775 0.2613,1.367 0.672,1.778 0.4107,0.401 0.98,0.602 1.708,0.602 0.4107,0 0.8027,-0.061 1.176,-0.182 0.3733,-0.131 0.728,-0.341 1.064,-0.63 l 0.392,0.798 c -0.308,0.289 -0.7,0.518 -1.176,0.686 -0.476,0.159 -0.9613,0.238 -1.456,0.238 z m -0.182,-6.216 c -0.644,0 -1.1527,0.201 -1.526,0.602 -0.3733,0.401 -0.5927,0.929 -0.658,1.582 h 4.13 c -0.028,-0.691 -0.21,-1.227 -0.546,-1.61 -0.3267,-0.383 -0.7933,-0.574 -1.4,-0.574 z m 7.3952,6.216 c -0.6627,0 -1.2367,-0.145 -1.722,-0.434 -0.4854,-0.289 -0.8634,-0.695 -1.134,-1.218 -0.2614,-0.532 -0.392,-1.157 -0.392,-1.876 0,-0.719 0.1306,-1.339 0.392,-1.862 0.2706,-0.532 0.6486,-0.943 1.134,-1.232 0.4853,-0.289 1.0593,-0.434 1.722,-0.434 0.6533,0 1.2226,0.145 1.708,0.434 0.4946,0.289 0.8726,0.7 1.134,1.232 0.2706,0.523 0.406,1.143 0.406,1.862 0,0.719 -0.1354,1.344 -0.406,1.876 -0.2614,0.523 -0.6394,0.929 -1.134,1.218 -0.4854,0.289 -1.0547,0.434 -1.708,0.434 z m 0,-0.91 c 0.6346,0 1.1433,-0.224 1.526,-0.672 0.3826,-0.457 0.574,-1.106 0.574,-1.946 0,-0.849 -0.1914,-1.498 -0.574,-1.946 -0.3827,-0.448 -0.8914,-0.672 -1.526,-0.672 -0.644,0 -1.1574,0.224 -1.54,0.672 -0.3734,0.448 -0.56,1.097 -0.56,1.946 0,0.84 0.1866,1.489 0.56,1.946 0.3826,0.448 0.896,0.672 1.54,0.672 z m 9.1653,0.784 v -2.114 h -4.55 v -0.868 l 4.746,-6.888 h 0.966 v 6.776 h 1.47 v 0.98 h -1.47 v 2.114 z m 0,-3.094 v -4.886 l -3.36,4.886 z m 4.0825,-5.404 v -1.274 h 1.4 v 1.274 z m -1.666,11.2 -0.084,-0.882 0.602,-0.056 c 0.8587,-0.075 1.288,-0.593 1.288,-1.554 v -7.014 h 1.134 v 6.902 c 0,0.812 -0.1913,1.428 -0.574,1.848 -0.3827,0.42 -0.9707,0.658 -1.764,0.714 z m -38.0288,17.424 c -0.6067,0 -1.1387,-0.145 -1.596,-0.434 -0.44802,-0.289 -0.79802,-0.695 -1.05002,-1.218 -0.24267,-0.532 -0.364,-1.157 -0.364,-1.876 0,-0.728 0.12133,-1.353 0.364,-1.876 0.252,-0.532 0.602,-0.938 1.05002,-1.218 0.4573,-0.289 0.9893,-0.434 1.596,-0.434 0.532,0 0.9986,0.117 1.4,0.35 0.4106,0.233 0.714,0.555 0.91,0.966 v -4.256 h 1.134 v 9.87 h -1.106 v -1.246 c -0.196,0.429 -0.4994,0.765 -0.91,1.008 -0.4107,0.243 -0.8867,0.364 -1.428,0.364 z m 0.238,-0.91 c 0.6346,0 1.1433,-0.224 1.526,-0.672 0.3826,-0.457 0.574,-1.106 0.574,-1.946 0,-0.849 -0.1914,-1.498 -0.574,-1.946 -0.3827,-0.448 -0.8914,-0.672 -1.526,-0.672 -0.644,0 -1.1574,0.224 -1.54,0.672 -0.3734,0.448 -0.56002,1.097 -0.56002,1.946 0,0.84 0.18662,1.489 0.56002,1.946 0.3826,0.448 0.896,0.672 1.54,0.672 z m 7.4761,0.91 c -0.4667,0 -0.8867,-0.089 -1.26,-0.266 -0.364,-0.187 -0.6533,-0.439 -0.868,-0.756 -0.2147,-0.317 -0.322,-0.672 -0.322,-1.064 0,-0.495 0.126,-0.887 0.378,-1.176 0.2613,-0.289 0.686,-0.495 1.274,-0.616 0.5973,-0.131 1.4093,-0.196 2.436,-0.196 h 0.448 v -0.434 c 0,-0.579 -0.1213,-0.994 -0.364,-1.246 -0.2333,-0.261 -0.6113,-0.392 -1.134,-0.392 -0.4107,0 -0.8073,0.061 -1.19,0.182 -0.3827,0.112 -0.7747,0.299 -1.176,0.56 l -0.392,-0.826 c 0.3547,-0.252 0.784,-0.453 1.288,-0.602 0.5133,-0.149 1.0033,-0.224 1.47,-0.224 0.8773,0 1.526,0.215 1.946,0.644 0.4293,0.429 0.644,1.097 0.644,2.002 v 4.284 h -1.064 v -1.176 c -0.1773,0.401 -0.4527,0.719 -0.826,0.952 -0.364,0.233 -0.7933,0.35 -1.288,0.35 z m 0.182,-0.854 c 0.56,0 1.0173,-0.191 1.372,-0.574 0.3547,-0.392 0.532,-0.887 0.532,-1.484 v -0.42 h -0.434 c -0.756,0 -1.3533,0.037 -1.792,0.112 -0.4293,0.065 -0.7327,0.187 -0.91,0.364 -0.168,0.168 -0.252,0.401 -0.252,0.7 0,0.383 0.1307,0.695 0.392,0.938 0.2707,0.243 0.6347,0.364 1.092,0.364 z m 7.8298,0.854 c -0.8026,0 -1.4046,-0.21 -1.806,-0.63 -0.4013,-0.429 -0.602,-1.045 -0.602,-1.848 v -3.57 h -1.33 v -0.882 h 1.33 v -2.086 h 1.134 v 2.086 h 2.156 v 0.882 h -2.156 v 3.458 c 0,0.532 0.112,0.938 0.336,1.218 0.224,0.271 0.588,0.406 1.092,0.406 0.1494,0 0.2987,-0.019 0.448,-0.056 0.1494,-0.037 0.2847,-0.075 0.406,-0.112 l 0.196,0.868 c -0.1213,0.065 -0.2986,0.126 -0.532,0.182 -0.2333,0.056 -0.4573,0.084 -0.672,0.084 z m 4.3065,0 c -0.4666,0 -0.8866,-0.089 -1.26,-0.266 -0.364,-0.187 -0.6533,-0.439 -0.868,-0.756 -0.2146,-0.317 -0.322,-0.672 -0.322,-1.064 0,-0.495 0.126,-0.887 0.378,-1.176 0.2614,-0.289 0.686,-0.495 1.274,-0.616 0.5974,-0.131 1.4094,-0.196 2.436,-0.196 h 0.448 v -0.434 c 0,-0.579 -0.1213,-0.994 -0.364,-1.246 -0.2333,-0.261 -0.6113,-0.392 -1.134,-0.392 -0.4106,0 -0.8073,0.061 -1.19,0.182 -0.3826,0.112 -0.7746,0.299 -1.176,0.56 l -0.392,-0.826 c 0.3547,-0.252 0.784,-0.453 1.288,-0.602 0.5134,-0.149 1.0034,-0.224 1.47,-0.224 0.8774,0 1.526,0.215 1.946,0.644 0.4294,0.429 0.644,1.097 0.644,2.002 v 4.284 h -1.064 v -1.176 c -0.1773,0.401 -0.4526,0.719 -0.826,0.952 -0.364,0.233 -0.7933,0.35 -1.288,0.35 z m 0.182,-0.854 c 0.56,0 1.0174,-0.191 1.372,-0.574 0.3547,-0.392 0.532,-0.887 0.532,-1.484 v -0.42 h -0.434 c -0.756,0 -1.3533,0.037 -1.792,0.112 -0.4293,0.065 -0.7326,0.187 -0.91,0.364 -0.168,0.168 -0.252,0.401 -0.252,0.7 0,0.383 0.1307,0.695 0.392,0.938 0.2707,0.243 0.6347,0.364 1.092,0.364 z m 8.5439,0.854 c -0.5414,0 -1.0174,-0.121 -1.428,-0.364 -0.4014,-0.243 -0.7047,-0.574 -0.91,-0.994 v 1.232 h -1.106 v -9.87 h 1.134 v 4.242 c 0.196,-0.401 0.4993,-0.719 0.91,-0.952 0.4106,-0.233 0.8773,-0.35 1.4,-0.35 0.6066,0 1.134,0.145 1.582,0.434 0.4573,0.28 0.8073,0.686 1.05,1.218 0.252,0.523 0.378,1.148 0.378,1.876 0,0.719 -0.126,1.344 -0.378,1.876 -0.2427,0.523 -0.5927,0.929 -1.05,1.218 -0.448,0.289 -0.9754,0.434 -1.582,0.434 z m -0.238,-0.91 c 0.6346,0 1.1433,-0.224 1.526,-0.672 0.3826,-0.457 0.574,-1.106 0.574,-1.946 0,-0.849 -0.1914,-1.498 -0.574,-1.946 -0.3827,-0.448 -0.8914,-0.672 -1.526,-0.672 -0.6347,0 -1.1434,0.224 -1.526,0.672 -0.3827,0.448 -0.574,1.097 -0.574,1.946 0,0.84 0.1913,1.489 0.574,1.946 0.3826,0.448 0.8913,0.672 1.526,0.672 z m 7.0981,0.91 c -0.4667,0 -0.8867,-0.089 -1.26,-0.266 -0.364,-0.187 -0.6533,-0.439 -0.868,-0.756 -0.2147,-0.317 -0.322,-0.672 -0.322,-1.064 0,-0.495 0.126,-0.887 0.378,-1.176 0.2613,-0.289 0.686,-0.495 1.274,-0.616 0.5973,-0.131 1.4093,-0.196 2.436,-0.196 h 0.448 v -0.434 c 0,-0.579 -0.1213,-0.994 -0.364,-1.246 -0.2333,-0.261 -0.6113,-0.392 -1.134,-0.392 -0.4107,0 -0.8073,0.061 -1.19,0.182 -0.3827,0.112 -0.7747,0.299 -1.176,0.56 l -0.392,-0.826 c 0.3547,-0.252 0.784,-0.453 1.288,-0.602 0.5133,-0.149 1.0033,-0.224 1.47,-0.224 0.8773,0 1.526,0.215 1.946,0.644 0.4293,0.429 0.644,1.097 0.644,2.002 v 4.284 h -1.064 v -1.176 c -0.1773,0.401 -0.4527,0.719 -0.826,0.952 -0.364,0.233 -0.7933,0.35 -1.288,0.35 z m 0.182,-0.854 c 0.56,0 1.0173,-0.191 1.372,-0.574 0.3547,-0.392 0.532,-0.887 0.532,-1.484 v -0.42 h -0.434 c -0.756,0 -1.3533,0.037 -1.792,0.112 -0.4293,0.065 -0.7327,0.187 -0.91,0.364 -0.168,0.168 -0.252,0.401 -0.252,0.7 0,0.383 0.1307,0.695 0.392,0.938 0.2707,0.243 0.6347,0.364 1.092,0.364 z m 7.3958,0.854 c -0.532,0 -1.036,-0.075 -1.512,-0.224 -0.476,-0.149 -0.868,-0.359 -1.176,-0.63 l 0.364,-0.798 c 0.336,0.271 0.7047,0.471 1.106,0.602 0.4107,0.121 0.826,0.182 1.246,0.182 0.532,0 0.9333,-0.098 1.204,-0.294 0.2707,-0.196 0.406,-0.462 0.406,-0.798 0,-0.261 -0.0887,-0.467 -0.266,-0.616 -0.1773,-0.159 -0.4573,-0.28 -0.84,-0.364 l -1.274,-0.28 c -1.1573,-0.252 -1.736,-0.849 -1.736,-1.792 0,-0.616 0.2427,-1.111 0.728,-1.484 0.4947,-0.373 1.1387,-0.56 1.932,-0.56 0.4667,0 0.91,0.075 1.33,0.224 0.4293,0.14 0.784,0.35 1.064,0.63 l -0.378,0.798 c -0.2707,-0.252 -0.588,-0.443 -0.952,-0.574 -0.3547,-0.14 -0.7093,-0.21 -1.064,-0.21 -0.5227,0 -0.9193,0.103 -1.19,0.308 -0.2707,0.205 -0.406,0.476 -0.406,0.812 0,0.523 0.3453,0.859 1.036,1.008 l 1.274,0.266 c 0.5973,0.131 1.05,0.341 1.358,0.63 0.308,0.28 0.462,0.663 0.462,1.148 0,0.625 -0.2473,1.12 -0.742,1.484 -0.4947,0.355 -1.1527,0.532 -1.974,0.532 z m 7.5102,0 c -1.0733,0 -1.9226,-0.313 -2.548,-0.938 -0.6253,-0.635 -0.938,-1.493 -0.938,-2.576 0,-0.7 0.14,-1.316 0.42,-1.848 0.28,-0.541 0.6627,-0.957 1.148,-1.246 0.4947,-0.299 1.064,-0.448 1.708,-0.448 0.924,0 1.6474,0.299 2.17,0.896 0.5227,0.588 0.784,1.4 0.784,2.436 v 0.434 h -5.124 c 0.0374,0.775 0.2614,1.367 0.672,1.778 0.4107,0.401 0.98,0.602 1.708,0.602 0.4107,0 0.8027,-0.061 1.176,-0.182 0.3734,-0.131 0.728,-0.341 1.064,-0.63 l 0.392,0.798 c -0.308,0.289 -0.7,0.518 -1.176,0.686 -0.476,0.159 -0.9613,0.238 -1.456,0.238 z m -0.182,-6.216 c -0.644,0 -1.1526,0.201 -1.526,0.602 -0.3733,0.401 -0.5926,0.929 -0.658,1.582 h 4.13 c -0.028,-0.691 -0.21,-1.227 -0.546,-1.61 -0.3266,-0.383 -0.7933,-0.574 -1.4,-0.574 z"
     fill="#151e29"
     id="path63" />
  <circle
     cx="482.58676"
     cy="283.44821"
     r="10.9375"
     stroke="#151e29"
     stroke-width="3.125"
     id="circle83" />
  <mask
     id="path-39-inside-1_34_311"
     fill="#ffffff">
    <path
       d="m 518.688,329.625 c 3.451,0 6.331,-2.846 5.421,-6.176 -0.259,-0.948 -0.578,-1.881 -0.956,-2.793 -1.177,-2.844 -2.904,-5.427 -5.08,-7.604 -2.177,-2.176 -4.76,-3.903 -7.604,-5.08 -2.843,-1.178 -5.891,-1.785 -8.969,-1.784 -3.078,0 -6.126,0.606 -8.969,1.784 -2.844,1.177 -5.427,2.904 -7.604,5.08 -2.176,2.177 -3.903,4.76 -5.08,7.604 -0.378,0.912 -0.697,1.845 -0.956,2.793 -0.91,3.33 1.97,6.176 5.422,6.176 H 501.5 Z"
       id="path85" />
  </mask>
  <path
     d="m 518.688,329.625 c 3.451,0 6.331,-2.846 5.421,-6.176 -0.259,-0.948 -0.578,-1.881 -0.956,-2.793 -1.177,-2.844 -2.904,-5.427 -5.08,-7.604 -2.177,-2.176 -4.76,-3.903 -7.604,-5.08 -2.843,-1.178 -5.891,-1.785 -8.969,-1.784 -3.078,0 -6.126,0.606 -8.969,1.784 -2.844,1.177 -5.427,2.904 -7.604,5.08 -2.176,2.177 -3.903,4.76 -5.08,7.604 -0.378,0.912 -0.697,1.845 -0.956,2.793 -0.91,3.33 1.97,6.176 5.422,6.176 H 501.5 Z"
     stroke="#151e29"
     stroke-width="6.25"
     mask="url(#path-39-inside-1_34_311)"
     id="path88"
     transform="translate(-18.913245,-3.9897744)" />
  <path
     d="m 473.32476,342.25723 c -1.297,-0.031 -2.273,-0.395 -2.928,-1.092 -0.656,-0.706 -0.968,-1.717 -0.936,-3.033 l 0.142,-5.962 1.147,0.027 -0.14,5.906 c -0.049,2.044 0.864,3.088 2.74,3.133 1.857,0.044 2.809,-0.956 2.858,-2.999 l 0.141,-5.906 1.147,0.027 -0.142,5.962 c -0.031,1.316 -0.391,2.311 -1.079,2.985 -0.679,0.666 -1.662,0.983 -2.95,0.952 z m 8.434,0.201 c -0.532,-0.012 -1.034,-0.099 -1.507,-0.26 -0.472,-0.16 -0.859,-0.38 -1.16,-0.657 l 0.383,-0.79 c 0.329,0.279 0.693,0.488 1.091,0.629 0.408,0.131 0.821,0.201 1.241,0.211 0.532,0.013 0.936,-0.076 1.211,-0.265 0.275,-0.19 0.417,-0.452 0.425,-0.788 0.006,-0.261 -0.078,-0.469 -0.251,-0.622 -0.174,-0.163 -0.451,-0.291 -0.832,-0.384 l -1.267,-0.31 c -1.151,-0.28 -1.715,-0.891 -1.692,-1.833 0.014,-0.616 0.269,-1.105 0.763,-1.467 0.503,-0.361 1.152,-0.532 1.945,-0.513 0.466,0.011 0.908,0.096 1.324,0.255 0.426,0.15 0.775,0.369 1.049,0.655 l -0.397,0.789 c -0.265,-0.258 -0.578,-0.457 -0.938,-0.596 -0.352,-0.149 -0.705,-0.227 -1.059,-0.236 -0.523,-0.012 -0.922,0.081 -1.197,0.28 -0.276,0.199 -0.417,0.466 -0.425,0.802 -0.013,0.523 0.324,0.867 1.011,1.032 l 1.268,0.297 c 0.594,0.145 1.041,0.365 1.342,0.662 0.302,0.287 0.446,0.673 0.435,1.159 -0.015,0.625 -0.274,1.113 -0.777,1.465 -0.503,0.343 -1.165,0.505 -1.986,0.485 z m 7.508,0.179 c -1.073,-0.025 -1.915,-0.358 -2.525,-0.998 -0.61,-0.65 -0.902,-1.515 -0.877,-2.598 0.017,-0.7 0.172,-1.312 0.464,-1.837 0.293,-0.535 0.686,-0.941 1.178,-1.219 0.501,-0.286 1.074,-0.422 1.718,-0.407 0.924,0.022 1.64,0.338 2.148,0.948 0.508,0.6 0.75,1.418 0.726,2.454 l -0.011,0.433 -5.122,-0.122 c 0.019,0.776 0.228,1.374 0.629,1.794 0.401,0.411 0.966,0.625 1.693,0.642 0.411,0.01 0.804,-0.041 1.18,-0.153 0.377,-0.122 0.736,-0.324 1.079,-0.605 l 0.373,0.807 c -0.315,0.282 -0.712,0.501 -1.192,0.658 -0.48,0.147 -0.967,0.215 -1.461,0.203 z m -0.034,-6.218 c -0.644,-0.016 -1.157,0.173 -1.54,0.565 -0.383,0.392 -0.615,0.914 -0.696,1.566 l 4.129,0.098 c -0.011,-0.691 -0.18,-1.232 -0.507,-1.622 -0.318,-0.391 -0.78,-0.593 -1.386,-0.607 z m 4.421,6.197 0.162,-6.802 1.105,0.026 -0.029,1.218 c 0.384,-0.813 1.141,-1.248 2.272,-1.305 l 0.407,-0.032 0.061,0.982 -0.716,0.067 c -0.645,0.04 -1.14,0.234 -1.484,0.581 -0.345,0.337 -0.524,0.809 -0.538,1.415 l -0.093,3.877 z"
     fill="#151e29"
     id="path90" />
  <path
     d="m 61.765955,273.88823 c 0.4915,0 0.89,0.398 0.89,0.89 v 15.959 l -1.7801,-0.675 v -15.284 c 0,-0.492 0.3985,-0.89 0.8901,-0.89 z"
     fill="#151e29"
     id="path112" />
  <path
     d="m 31.642155,322.31123 c -8.4349,0 -16.0047,-0.682 -21.4884,-1.808 -2.73445,-0.561 -4.99841,-1.243 -6.60047,-2.032 -0.79948,-0.394 -1.48049,-0.836 -1.97298,-1.342 -0.49636,-0.509 -0.85423997,-1.14 -0.85423997,-1.878 v -39.483 c 0,-0.492 0.39847997,-0.89 0.89003997,-0.89 0.49155,0 0.89003,0.398 0.89003,0.89 v 39.483 c 0,0.126 0.05574,0.335 0.34879,0.636 0.29694,0.304 0.78114,0.641 1.48487,0.987 1.40433,0.692 3.4987,1.337 6.17206,1.886 5.3317,1.095 12.7749,1.771 21.1303,1.771 3.0201,0 5.9244,-0.089 8.6548,-0.253 l 1.5503,1.682 c -3.1859,0.228 -6.6195,0.351 -10.2051,0.351 z"
     fill="#151e29"
     id="path114" />
  <path
     d="m 61.765955,273.88823 c 0.4915,0 0.89,0.398 0.89,0.89 v 15.959 l -1.7801,-0.675 v -15.284 c 0,-0.492 0.3985,-0.89 0.8901,-0.89 z"
     stroke="#151e29"
     stroke-width="1.25689"
     stroke-miterlimit="10"
     stroke-linecap="round"
     stroke-linejoin="round"
     id="path116" />
  <path
     d="m 31.642155,322.31123 c -8.4349,0 -16.0047,-0.682 -21.4884,-1.808 -2.73445,-0.561 -4.99841,-1.243 -6.60047,-2.032 -0.79948,-0.394 -1.48049,-0.836 -1.97298,-1.342 -0.49636,-0.509 -0.85423997,-1.14 -0.85423997,-1.878 v -39.483 c 0,-0.492 0.39847997,-0.89 0.89003997,-0.89 0.49155,0 0.89003,0.398 0.89003,0.89 v 39.483 c 0,0.126 0.05574,0.335 0.34879,0.636 0.29694,0.304 0.78114,0.641 1.48487,0.987 1.40433,0.692 3.4987,1.337 6.17206,1.886 5.3317,1.095 12.7749,1.771 21.1303,1.771 3.0201,0 5.9244,-0.089 8.6548,-0.253 l 1.5503,1.682 c -3.1859,0.228 -6.6195,0.351 -10.2051,0.351 z"
     stroke="#151e29"
     stroke-width="1.25689"
     stroke-miterlimit="10"
     stroke-linecap="round"
     stroke-linejoin="round"
     id="path118" />
  <path
     fill-rule="evenodd"
     clip-rule="evenodd"
     d="m 2.760115,274.16423 c -0.30112,0.301 -0.35161,0.504 -0.35161,0.614 0,0.11 0.05049,0.313 0.35161,0.614 0.30348,0.304 0.79775,0.64 1.51353,0.987 1.42765,0.691 3.55077,1.338 6.24651,1.89 5.3767,1.101 12.845,1.789 21.1221,1.789 8.2771,0 15.7454,-0.688 21.1221,-1.789 2.6957,-0.552 4.8189,-1.199 6.2465,-1.89 0.7158,-0.347 1.2101,-0.683 1.5135,-0.987 0.3012,-0.301 0.3516,-0.504 0.3516,-0.614 0,-0.11 -0.0504,-0.313 -0.3516,-0.614 -0.3034,-0.304 -0.7977,-0.64 -1.5135,-0.986 -1.4276,-0.692 -3.5508,-1.339 -6.2465,-1.891 -5.3767,-1.101 -12.845,-1.789 -21.1221,-1.789 -8.2771,0 -15.7454,0.688 -21.1221,1.789 -2.69574,0.552 -4.81886,1.199 -6.24651,1.891 -0.71578,0.346 -1.21005,0.682 -1.51353,0.986 z m 7.40284,-4.62 c 5.5259,-1.132 13.1195,-1.826 21.4793,-1.826 8.3598,0 15.9534,0.694 21.4793,1.826 2.7557,0.564 5.0441,1.247 6.6651,2.032 0.8086,0.391 1.4979,0.83 1.997,1.33 0.5014,0.502 0.8724,1.13 0.8724,1.872 0,0.742 -0.371,1.371 -0.8724,1.873 -0.4991,0.499 -1.1884,0.938 -1.997,1.33 -1.621,0.785 -3.9094,1.467 -6.6651,2.032 -5.5259,1.131 -13.1195,1.825 -21.4793,1.825 -8.3598,0 -15.9534,-0.694 -21.4793,-1.825 -2.75565,-0.565 -5.04406,-1.247 -6.6651,-2.032 -0.80857,-0.392 -1.49793,-0.831 -1.997,-1.33 -0.50142997,-0.502 -0.87240997,-1.131 -0.87240997,-1.873 0,-0.742 0.37098,-1.37 0.87240997,-1.872 0.49907,-0.5 1.18843,-0.939 1.997,-1.33 1.62104,-0.785 3.90945,-1.468 6.6651,-2.032 z"
     fill="#151e29"
     stroke="#151e29"
     stroke-width="1.25689"
     stroke-miterlimit="10"
     stroke-linecap="round"
     stroke-linejoin="round"
     id="path120" />
  <path
     d="m 1.616105,292.89123 c 0.49155,0 0.89003,0.398 0.89003,0.89 0,0.126 0.05574,0.335 0.34879,0.636 0.29694,0.304 0.78114,0.64 1.48487,0.987 1.40433,0.692 3.49871,1.337 6.17206,1.886 5.3317,1.095 12.7749,1.771 21.1303,1.771 1.1279,0 2.2397,-0.013 3.3323,-0.037 l -0.5166,1.791 c -0.9267,0.017 -1.8659,0.026 -2.8157,0.026 -8.4349,0 -16.0047,-0.682 -21.4884,-1.808 -2.73445,-0.561 -4.99841,-1.243 -6.60047,-2.032 -0.79948,-0.394 -1.48049,-0.837 -1.97298,-1.342 -0.49636,-0.509 -0.85423997,-1.14 -0.85423997,-1.878 0,-0.492 0.39847997,-0.89 0.89003997,-0.89 z"
     fill="#151e29"
     stroke="#151e29"
     stroke-width="1.25689"
     stroke-miterlimit="10"
     stroke-linecap="round"
     stroke-linejoin="round"
     id="path122" />
  <path
     d="m 52.136255,324.62923 c 10.2276,0 18.5187,-8.287 18.5187,-18.509 0,-10.223 -8.2911,-18.509 -18.5187,-18.509 -10.2276,0 -18.5187,8.286 -18.5187,18.509 0,10.222 8.2911,18.509 18.5187,18.509 z"
     stroke="#151e29"
     stroke-width="1.25689"
     stroke-miterlimit="10"
     stroke-linecap="round"
     stroke-linejoin="round"
     id="path124" />
  <path
     fill-rule="evenodd"
     clip-rule="evenodd"
     d="m 52.136255,288.50023 c -9.7364,0 -17.6286,7.889 -17.6286,17.619 0,9.731 7.8922,17.62 17.6286,17.62 9.7365,0 17.6287,-7.889 17.6287,-17.62 0,-9.73 -7.8922,-17.619 -17.6287,-17.619 z m -19.4087,17.619 c 0,-10.714 8.69,-19.399 19.4087,-19.399 10.7188,0 19.4088,8.685 19.4088,19.399 0,10.715 -8.69,19.4 -19.4088,19.4 -10.7187,0 -19.4087,-8.685 -19.4087,-19.4 z"
     fill="#151e29"
     stroke="#151e29"
     stroke-width="1.25689"
     stroke-miterlimit="10"
     stroke-linecap="round"
     stroke-linejoin="round"
     id="path126" />
  <path
     d="m 55.210255,297.01023 c -4.2444,0 -7.0928,2.258 -7.0928,6.637 v 3.122 c 0.431,-0.193 0.9039,-0.296 1.3841,-0.3 0.481,0 0.9558,0.1 1.388,0.293 v -3.13 c 0,-2.84 1.7171,-4.299 4.3328,-4.299 2.6156,0 4.3086,1.459 4.3086,4.299 v 6.824 h 2.7641 v -6.824 c 0.008,-4.405 -2.8403,-6.622 -7.0848,-6.622 z"
     fill="#151e29"
     id="path128" />
  <path
     d="m 49.381155,307.27123 c -0.5133,10e-4 -1.0123,0.156 -1.4201,0.44 l -2.5997,-1.623 c 0.0579,-0.19 0.0876,-0.386 0.0883,-0.583 0.0056,-0.428 -0.1282,-0.847 -0.3842,-1.206 -0.2561,-0.358 -0.6229,-0.639 -1.0539,-0.806 -0.431,-0.167 -0.9068,-0.214 -1.3669,-0.134 -0.4601,0.08 -0.8837,0.283 -1.2172,0.584 -0.3334,0.3 -0.5616,0.684 -0.6555,1.104 -0.0939,0.419 -0.0494,0.854 0.128,1.25 0.1774,0.396 0.4796,0.735 0.8682,0.974 0.3886,0.238 0.8462,0.366 1.3146,0.367 0.5134,0 1.0127,-0.154 1.4201,-0.44 l 2.5916,1.635 c -0.1177,0.382 -0.1177,0.787 0,1.169 l -2.5996,1.623 c -0.4053,-0.284 -0.9014,-0.438 -1.4121,-0.439 -0.4685,-0.001 -0.9267,0.125 -1.3166,0.362 -0.3898,0.238 -0.6938,0.575 -0.8735,0.971 -0.1796,0.395 -0.2268,0.83 -0.1356,1.25 0.0912,0.419 0.3167,0.805 0.648,1.108 0.3312,0.302 0.7533,0.508 1.2129,0.592 0.4595,0.083 0.9357,0.04 1.3684,-0.124 0.4327,-0.164 0.8023,-0.442 1.0621,-0.798 0.2597,-0.356 0.398,-0.775 0.3972,-1.203 -1e-4,-0.194 -0.0285,-0.388 -0.0843,-0.575 l 2.5997,-1.624 c 0.4078,0.285 0.9068,0.439 1.4201,0.44 0.5971,-0.039 1.1558,-0.283 1.5636,-0.683 0.4079,-0.4 0.6347,-0.927 0.6347,-1.474 0,-0.547 -0.2268,-1.073 -0.6347,-1.473 -0.4078,-0.4 -0.9665,-0.645 -1.5636,-0.684 z"
     fill="#151e29"
     id="path130" />
  <g
     clip-path="url(#clip0_34_311)"
     id="g164"
     transform="translate(-23.429092,-3.9897744)">
    <path
       d="m 271.878,30.5769 1.716,9.4365"
       stroke="#151e29"
       stroke-width="2"
       id="path132" />
    <path
       d="m 255.559,23.4935 10.944,2.0501"
       stroke="#151e29"
       stroke-width="2"
       id="path134" />
    <path
       d="m 270.449,13.3022 0.376,8.2773"
       stroke="#151e29"
       stroke-width="2"
       id="path136" />
    <path
       d="m 271.665,39.61 c 0.263,0.2901 0.584,0.5219 0.942,0.6805 0.359,0.1586 0.746,0.2406 1.138,0.2406 0.392,0 0.779,-0.082 1.137,-0.2406 0.358,-0.1586 0.679,-0.3904 0.943,-0.6805 l 1.351,-1.5009 c 0.385,-0.4354 0.898,-0.7392 1.465,-0.8688 0.567,-0.1296 1.16,-0.0785 1.697,0.1461 0.537,0.2246 0.989,0.6114 1.295,1.1063 0.306,0.4949 0.449,1.073 0.41,1.6534 v 1.9941 c -0.022,0.3915 0.039,0.7831 0.179,1.1494 0.14,0.3662 0.356,0.6988 0.633,0.976 0.277,0.2773 0.61,0.4929 0.976,0.6328 0.366,0.14 0.758,0.2011 1.149,0.1794 l 2.016,-0.1072 c 0.578,-0.027 1.15,0.1252 1.639,0.4358 0.488,0.3106 0.868,0.7644 1.089,1.2994 0.22,0.535 0.27,1.1251 0.143,1.6895 -0.128,0.5645 -0.426,1.0758 -0.855,1.4641 l -1.501,1.3294 c -0.297,0.2722 -0.532,0.6039 -0.691,0.9734 -0.159,0.3696 -0.238,0.7686 -0.231,1.1708 -0.009,0.4026 0.068,0.8024 0.227,1.1724 0.159,0.37 0.396,0.7014 0.695,0.9718 l 1.501,1.3509 c 0.428,0.3887 0.725,0.9 0.852,1.4641 0.126,0.5641 0.076,1.1535 -0.145,1.6879 -0.221,0.5323 -0.601,0.9831 -1.089,1.2903 -0.488,0.3072 -1.058,0.4557 -1.634,0.425 h -2.016 c -0.391,-0.0217 -0.783,0.0394 -1.149,0.1794 -0.366,0.1399 -0.699,0.3555 -0.976,0.6328 -0.277,0.2772 -0.493,0.6098 -0.633,0.976 -0.14,0.3663 -0.201,0.7579 -0.179,1.1494 v 1.9941 c 0.034,0.5785 -0.113,1.1534 -0.42,1.6446 -0.308,0.4912 -0.761,0.8743 -1.296,1.096 -0.536,0.2218 -1.127,0.2711 -1.692,0.1411 -0.565,-0.1299 -1.075,-0.4327 -1.459,-0.8661 l -1.351,-1.4795 c -0.264,-0.2901 -0.585,-0.5219 -0.943,-0.6805 -0.358,-0.1586 -0.745,-0.2406 -1.137,-0.2406 -0.392,0 -0.779,0.082 -1.138,0.2406 -0.358,0.1586 -0.679,0.3904 -0.942,0.6805 l -1.351,1.4795 c -0.385,0.4334 -0.895,0.7362 -1.46,0.8661 -0.565,0.13 -1.156,0.0807 -1.691,-0.1411 -0.536,-0.2217 -0.989,-0.6048 -1.296,-1.096 -0.308,-0.4912 -0.455,-1.0661 -0.42,-1.6446 V 64.633 c 0.021,-0.3915 -0.04,-0.7831 -0.18,-1.1494 -0.14,-0.3662 -0.355,-0.6988 -0.632,-0.976 -0.278,-0.2773 -0.61,-0.4929 -0.977,-0.6328 -0.366,-0.14 -0.757,-0.2011 -1.149,-0.1794 h -2.015 c -0.576,0.0307 -1.147,-0.1178 -1.635,-0.425 -0.487,-0.3072 -0.868,-0.758 -1.089,-1.2903 -0.22,-0.5344 -0.271,-1.1238 -0.144,-1.6879 0.126,-0.5641 0.424,-1.0754 0.852,-1.4641 l 1.501,-1.3509 c 0.298,-0.2704 0.535,-0.6018 0.694,-0.9718 0.159,-0.37 0.237,-0.7698 0.228,-1.1724 0.006,-0.4022 -0.073,-0.8012 -0.232,-1.1708 -0.159,-0.3695 -0.394,-0.7012 -0.69,-0.9734 l -1.501,-1.3294 c -0.429,-0.3883 -0.728,-0.8996 -0.855,-1.4641 -0.128,-0.5644 -0.078,-1.1545 0.143,-1.6895 0.22,-0.535 0.601,-0.9888 1.089,-1.2994 0.488,-0.3106 1.06,-0.4628 1.639,-0.4358 l 2.015,0.1072 c 0.392,0.0217 0.783,-0.0394 1.149,-0.1794 0.367,-0.1399 0.699,-0.3555 0.977,-0.6328 0.277,-0.2772 0.492,-0.6098 0.632,-0.976 0.14,-0.3663 0.201,-0.7579 0.18,-1.1494 v -1.9941 c -0.04,-0.5804 0.104,-1.1585 0.409,-1.6534 0.306,-0.4949 0.759,-0.8817 1.296,-1.1063 0.536,-0.2246 1.13,-0.2757 1.697,-0.1461 0.567,0.1296 1.079,0.4334 1.465,0.8688 z"
       stroke="#151e29"
       stroke-width="2"
       stroke-linecap="round"
       stroke-linejoin="round"
       id="path138" />
    <path
       d="m 277.897,53.3749 c 0,2.2934 -1.859,4.1526 -4.153,4.1526 -2.293,0 -4.152,-1.8592 -4.152,-4.1526 0,-2.2934 1.859,-4.1525 4.152,-4.1525 2.294,0 4.153,1.8591 4.153,4.1525 z"
       stroke="#151e29"
       stroke-width="2"
       id="path140" />
    <path
       d="m 268.391,22.5596 c 1.892,-1.2954 4.477,-0.8113 5.772,1.0813 1.295,1.8925 0.811,4.4768 -1.081,5.7721 -1.893,1.2954 -4.477,0.8113 -5.772,-1.0812 -1.296,-1.8926 -0.812,-4.4769 1.081,-5.7722 z"
       stroke="#151e29"
       stroke-width="2"
       id="path142" />
    <circle
       cx="252.46899"
       cy="22.738501"
       r="2.93467"
       transform="rotate(-124.39,252.469,22.7385)"
       stroke="#151e29"
       stroke-width="2"
       id="circle144" />
    <circle
       cx="270.52499"
       cy="9.7525396"
       transform="rotate(-124.39,270.525,9.75254)"
       stroke="#151e29"
       stroke-width="2"
       id="ellipse146"
       r="4.7677698" />
    <path
       d="m 297.753,43.337 3.093,13.4953"
       stroke="#151e29"
       stroke-width="2"
       id="path148" />
    <path
       d="m 314.03,53.1417 -9.658,5.5395"
       stroke="#151e29"
       stroke-width="2"
       id="path150" />
    <path
       d="m 313.124,64.9203 -8.675,-3.7174"
       stroke="#151e29"
       stroke-width="2"
       id="path152" />
    <path
       d="m 296.221,24.5435 c 0.183,0.2006 0.405,0.361 0.652,0.4707 0.248,0.1097 0.516,0.1663 0.787,0.1663 0.271,0 0.539,-0.0566 0.787,-0.1663 0.247,-0.1097 0.469,-0.2701 0.652,-0.4707 l 0.934,-1.0381 c 0.267,-0.3011 0.621,-0.5112 1.013,-0.6008 0.392,-0.0897 0.803,-0.0544 1.174,0.101 0.371,0.1553 0.684,0.4228 0.896,0.7651 0.211,0.3423 0.31,0.7422 0.283,1.1436 v 1.3792 c -0.015,0.2707 0.027,0.5416 0.124,0.7949 0.097,0.2533 0.246,0.4833 0.438,0.6751 0.192,0.1917 0.422,0.3408 0.675,0.4376 0.253,0.0968 0.524,0.1391 0.795,0.1241 l 1.394,-0.0742 c 0.4,-0.0187 0.796,0.0866 1.133,0.3014 0.338,0.2148 0.601,0.5287 0.754,0.8987 0.152,0.3701 0.187,0.7782 0.099,1.1686 -0.089,0.3904 -0.295,0.744 -0.592,1.0126 l -1.038,0.9194 c -0.205,0.1883 -0.368,0.4177 -0.478,0.6733 -0.11,0.2556 -0.164,0.5315 -0.16,0.8097 -0.006,0.2785 0.048,0.555 0.158,0.8109 0.11,0.2559 0.273,0.4851 0.48,0.6721 l 1.038,0.9343 c 0.296,0.2688 0.502,0.6225 0.589,1.0126 0.088,0.3902 0.053,0.7979 -0.1,1.1674 -0.152,0.3682 -0.416,0.68 -0.753,0.8925 -0.337,0.2125 -0.732,0.3152 -1.13,0.2939 h -1.394 c -0.271,-0.015 -0.542,0.0273 -0.795,0.1241 -0.253,0.0968 -0.483,0.2459 -0.675,0.4376 -0.192,0.1918 -0.341,0.4218 -0.438,0.6751 -0.097,0.2533 -0.139,0.5242 -0.124,0.7949 v 1.3792 c 0.024,0.4002 -0.078,0.7977 -0.29,1.1375 -0.213,0.3397 -0.526,0.6047 -0.897,0.758 -0.37,0.1534 -0.779,0.1875 -1.17,0.0976 -0.39,-0.0899 -0.743,-0.2993 -1.009,-0.5991 l -0.934,-1.0232 c -0.183,-0.2006 -0.405,-0.361 -0.652,-0.4707 -0.248,-0.1097 -0.516,-0.1663 -0.787,-0.1663 -0.271,0 -0.539,0.0566 -0.787,0.1663 -0.247,0.1097 -0.469,0.2701 -0.652,0.4707 l -0.934,1.0232 c -0.266,0.2998 -0.619,0.5092 -1.009,0.5991 -0.391,0.0899 -0.8,0.0558 -1.17,-0.0976 -0.371,-0.1533 -0.684,-0.4183 -0.897,-0.758 -0.212,-0.3398 -0.314,-0.7373 -0.29,-1.1375 v -1.3792 c 0.015,-0.2707 -0.027,-0.5416 -0.124,-0.7949 -0.097,-0.2533 -0.246,-0.4833 -0.438,-0.6751 -0.192,-0.1917 -0.422,-0.3408 -0.675,-0.4376 -0.253,-0.0968 -0.524,-0.1391 -0.795,-0.1241 h -1.394 c -0.398,0.0213 -0.793,-0.0814 -1.13,-0.2939 -0.337,-0.2125 -0.601,-0.5243 -0.753,-0.8925 -0.153,-0.3695 -0.188,-0.7772 -0.1,-1.1674 0.087,-0.3901 0.293,-0.7438 0.589,-1.0126 l 1.038,-0.9343 c 0.207,-0.187 0.37,-0.4162 0.48,-0.6721 0.11,-0.2559 0.164,-0.5324 0.158,-0.8109 0.004,-0.2782 -0.05,-0.5541 -0.16,-0.8097 -0.11,-0.2556 -0.273,-0.485 -0.478,-0.6733 l -1.038,-0.9194 c -0.297,-0.2686 -0.503,-0.6222 -0.592,-1.0126 -0.088,-0.3904 -0.053,-0.7985 0.099,-1.1686 0.153,-0.37 0.416,-0.6839 0.754,-0.8987 0.337,-0.2148 0.733,-0.3201 1.133,-0.3014 l 1.394,0.0742 c 0.271,0.015 0.542,-0.0273 0.795,-0.1241 0.253,-0.0968 0.483,-0.2459 0.675,-0.4376 0.192,-0.1918 0.341,-0.4218 0.438,-0.6751 0.097,-0.2533 0.139,-0.5242 0.124,-0.7949 v -1.3792 c -0.027,-0.4014 0.072,-0.8013 0.283,-1.1436 0.212,-0.3423 0.525,-0.6098 0.896,-0.7651 0.371,-0.1554 0.782,-0.1907 1.174,-0.101 0.392,0.0896 0.746,0.2997 1.013,0.6008 z"
       stroke="#151e29"
       stroke-width="2"
       stroke-linecap="round"
       stroke-linejoin="round"
       id="path154" />
    <path
       d="m 305.088,59.7162 c -0.015,1.7651 -1.458,3.184 -3.223,3.169 -1.765,-0.0149 -3.184,-1.4579 -3.169,-3.2231 0.015,-1.7651 1.458,-3.1839 3.223,-3.169 1.765,0.0149 3.184,1.458 3.169,3.2231 z"
       stroke="#151e29"
       stroke-width="2"
       id="path156" />
    <path
       d="m 319.977,51.1068 c -0.015,1.7651 -1.458,3.184 -3.223,3.169 -1.765,-0.0149 -3.184,-1.4579 -3.169,-3.2231 0.015,-1.7651 1.458,-3.1839 3.223,-3.169 1.765,0.0149 3.184,1.458 3.169,3.2231 z"
       stroke="#151e29"
       stroke-width="2"
       id="path158" />
    <circle
       cx="316.724"
       cy="66.872704"
       r="3.96034"
       transform="rotate(0.484626,316.724,66.8727)"
       stroke="#151e29"
       stroke-width="2"
       id="circle160" />
    <path
       d="m 300.224,34.0641 c 0,1.4158 -1.148,2.5636 -2.564,2.5636 -1.416,0 -2.564,-1.1478 -2.564,-2.5636 0,-1.4159 1.148,-2.5637 2.564,-2.5637 1.416,0 2.564,1.1478 2.564,2.5637 z"
       stroke="#151e29"
       stroke-width="2"
       id="path162" />
  </g>
  <g
     id="g186"
     transform="translate(-16.403931)">
    <circle
       cx="278.08676"
       cy="293.01022"
       r="79"
       fill="#b2b7bd"
       id="circle9" />
    <path
       d="m 223.17576,387.13623 c -1.586,0 -2.795,-0.448 -3.626,-1.344 -0.83,-0.896 -1.246,-2.133 -1.246,-3.71 0,-1.045 0.187,-1.946 0.56,-2.702 0.374,-0.756 0.91,-1.339 1.61,-1.75 0.7,-0.411 1.545,-0.616 2.534,-0.616 0.7,0 1.344,0.107 1.932,0.322 0.588,0.205 1.088,0.509 1.498,0.91 l -0.448,0.924 c -0.448,-0.392 -0.91,-0.677 -1.386,-0.854 -0.476,-0.177 -1.012,-0.266 -1.61,-0.266 -1.12,0 -1.978,0.355 -2.576,1.064 -0.597,0.7 -0.896,1.689 -0.896,2.968 0,1.307 0.308,2.305 0.924,2.996 0.616,0.691 1.536,1.036 2.758,1.036 0.794,0 1.554,-0.135 2.282,-0.406 v -2.926 h -2.506 v -0.91 h 3.5 v 4.564 c -0.261,0.14 -0.578,0.261 -0.952,0.364 -0.364,0.103 -0.751,0.182 -1.162,0.238 -0.41,0.065 -0.807,0.098 -1.19,0.098 z m 5.65,-0.126 v -9.87 h 3.332 c 1.596,0 2.828,0.425 3.696,1.274 0.868,0.84 1.302,2.058 1.302,3.654 0,1.596 -0.434,2.819 -1.302,3.668 -0.868,0.849 -2.1,1.274 -3.696,1.274 z m 1.148,-0.98 h 2.1 c 2.576,0 3.864,-1.321 3.864,-3.962 0,-2.632 -1.288,-3.948 -3.864,-3.948 h -2.1 z m 12.435,1.106 c -0.775,0 -1.475,-0.098 -2.1,-0.294 -0.625,-0.205 -1.167,-0.499 -1.624,-0.882 l 0.406,-0.924 c 0.476,0.364 0.975,0.635 1.498,0.812 0.523,0.177 1.129,0.266 1.82,0.266 0.84,0 1.461,-0.154 1.862,-0.462 0.411,-0.317 0.616,-0.733 0.616,-1.246 0,-0.411 -0.149,-0.737 -0.448,-0.98 -0.289,-0.243 -0.779,-0.434 -1.47,-0.574 l -1.456,-0.294 c -0.877,-0.187 -1.535,-0.49 -1.974,-0.91 -0.429,-0.429 -0.644,-0.999 -0.644,-1.708 0,-0.588 0.149,-1.101 0.448,-1.54 0.308,-0.439 0.733,-0.779 1.274,-1.022 0.541,-0.243 1.167,-0.364 1.876,-0.364 0.663,0 1.279,0.107 1.848,0.322 0.569,0.205 1.05,0.504 1.442,0.896 l -0.406,0.896 c -0.42,-0.383 -0.863,-0.658 -1.33,-0.826 -0.467,-0.177 -0.989,-0.266 -1.568,-0.266 -0.737,0 -1.325,0.173 -1.764,0.518 -0.439,0.336 -0.658,0.784 -0.658,1.344 0,0.448 0.135,0.803 0.406,1.064 0.28,0.261 0.733,0.453 1.358,0.574 l 1.456,0.308 c 0.943,0.196 1.638,0.495 2.086,0.896 0.457,0.392 0.686,0.929 0.686,1.61 0,0.551 -0.149,1.036 -0.448,1.456 -0.289,0.42 -0.709,0.747 -1.26,0.98 -0.541,0.233 -1.185,0.35 -1.932,0.35 z m 11.873,2.52 c -0.588,0 -1.143,-0.079 -1.666,-0.238 -0.513,-0.149 -0.971,-0.378 -1.372,-0.686 l 0.378,-0.826 c 0.42,0.299 0.835,0.513 1.246,0.644 0.42,0.131 0.873,0.196 1.358,0.196 1.344,0 2.016,-0.691 2.016,-2.072 v -1.204 c -0.196,0.429 -0.504,0.77 -0.924,1.022 -0.411,0.243 -0.882,0.364 -1.414,0.364 -0.625,0 -1.167,-0.145 -1.624,-0.434 -0.457,-0.289 -0.812,-0.686 -1.064,-1.19 -0.243,-0.513 -0.364,-1.106 -0.364,-1.778 0,-0.672 0.121,-1.26 0.364,-1.764 0.252,-0.513 0.607,-0.91 1.064,-1.19 0.457,-0.28 0.999,-0.42 1.624,-0.42 0.532,0 1.003,0.121 1.414,0.364 0.42,0.243 0.728,0.574 0.924,0.994 v -1.232 h 1.106 v 6.314 c 0,1.045 -0.261,1.829 -0.784,2.352 -0.513,0.523 -1.274,0.784 -2.282,0.784 z m -0.168,-3.724 c 0.653,0 1.171,-0.224 1.554,-0.672 0.383,-0.448 0.574,-1.05 0.574,-1.806 0,-0.756 -0.191,-1.353 -0.574,-1.792 -0.383,-0.448 -0.901,-0.672 -1.554,-0.672 -0.644,0 -1.157,0.224 -1.54,0.672 -0.383,0.439 -0.574,1.036 -0.574,1.792 0,0.756 0.191,1.358 0.574,1.806 0.383,0.448 0.896,0.672 1.54,0.672 z m 5.361,1.078 v -6.804 h 1.106 v 1.218 c 0.364,-0.821 1.111,-1.274 2.24,-1.358 l 0.406,-0.042 0.084,0.98 -0.714,0.084 c -0.644,0.056 -1.134,0.261 -1.47,0.616 -0.336,0.345 -0.504,0.821 -0.504,1.428 v 3.878 z m 7.091,0.126 c -0.466,0 -0.886,-0.089 -1.26,-0.266 -0.364,-0.187 -0.653,-0.439 -0.868,-0.756 -0.214,-0.317 -0.322,-0.672 -0.322,-1.064 0,-0.495 0.126,-0.887 0.378,-1.176 0.262,-0.289 0.686,-0.495 1.274,-0.616 0.598,-0.131 1.41,-0.196 2.436,-0.196 h 0.448 v -0.434 c 0,-0.579 -0.121,-0.994 -0.364,-1.246 -0.233,-0.261 -0.611,-0.392 -1.134,-0.392 -0.41,0 -0.807,0.061 -1.19,0.182 -0.382,0.112 -0.774,0.299 -1.176,0.56 l -0.392,-0.826 c 0.355,-0.252 0.784,-0.453 1.288,-0.602 0.514,-0.149 1.004,-0.224 1.47,-0.224 0.878,0 1.526,0.215 1.946,0.644 0.43,0.429 0.644,1.097 0.644,2.002 v 4.284 h -1.064 v -1.176 c -0.177,0.401 -0.452,0.719 -0.826,0.952 -0.364,0.233 -0.793,0.35 -1.288,0.35 z m 0.182,-0.854 c 0.56,0 1.018,-0.191 1.372,-0.574 0.355,-0.392 0.532,-0.887 0.532,-1.484 v -0.42 h -0.434 c -0.756,0 -1.353,0.037 -1.792,0.112 -0.429,0.065 -0.732,0.187 -0.91,0.364 -0.168,0.168 -0.252,0.401 -0.252,0.7 0,0.383 0.131,0.695 0.392,0.938 0.271,0.243 0.635,0.364 1.092,0.364 z m 5.1,3.248 v -9.324 h 1.106 v 1.218 c 0.206,-0.42 0.509,-0.747 0.91,-0.98 0.411,-0.243 0.887,-0.364 1.428,-0.364 0.607,0 1.134,0.145 1.582,0.434 0.458,0.28 0.808,0.686 1.05,1.218 0.252,0.523 0.378,1.148 0.378,1.876 0,0.719 -0.126,1.344 -0.378,1.876 -0.242,0.523 -0.592,0.929 -1.05,1.218 -0.448,0.289 -0.975,0.434 -1.582,0.434 -0.522,0 -0.989,-0.117 -1.4,-0.35 -0.41,-0.233 -0.714,-0.555 -0.91,-0.966 v 3.71 z m 3.206,-3.304 c 0.635,0 1.144,-0.224 1.526,-0.672 0.383,-0.457 0.574,-1.106 0.574,-1.946 0,-0.849 -0.191,-1.498 -0.574,-1.946 -0.382,-0.448 -0.891,-0.672 -1.526,-0.672 -0.634,0 -1.143,0.224 -1.526,0.672 -0.382,0.448 -0.574,1.097 -0.574,1.946 0,0.84 0.192,1.489 0.574,1.946 0.383,0.448 0.892,0.672 1.526,0.672 z m 4.956,0.784 v -9.87 h 1.134 v 4.186 c 0.224,-0.411 0.537,-0.719 0.938,-0.924 0.411,-0.215 0.868,-0.322 1.372,-0.322 1.615,0 2.422,0.896 2.422,2.688 v 4.242 h -1.134 v -4.172 c 0,-0.635 -0.126,-1.097 -0.378,-1.386 -0.242,-0.299 -0.634,-0.448 -1.176,-0.448 -0.625,0 -1.124,0.196 -1.498,0.588 -0.364,0.383 -0.546,0.896 -0.546,1.54 v 3.878 z m 14.437,0.126 c -0.681,0 -1.269,-0.145 -1.764,-0.434 -0.495,-0.299 -0.877,-0.714 -1.148,-1.246 -0.261,-0.541 -0.392,-1.171 -0.392,-1.89 0,-1.083 0.294,-1.932 0.882,-2.548 0.588,-0.625 1.395,-0.938 2.422,-0.938 0.42,0 0.835,0.075 1.246,0.224 0.411,0.149 0.751,0.359 1.022,0.63 l -0.392,0.826 c -0.271,-0.261 -0.569,-0.453 -0.896,-0.574 -0.317,-0.121 -0.621,-0.182 -0.91,-0.182 -0.709,0 -1.255,0.224 -1.638,0.672 -0.383,0.439 -0.574,1.073 -0.574,1.904 0,0.812 0.191,1.456 0.574,1.932 0.383,0.467 0.929,0.7 1.638,0.7 0.289,0 0.593,-0.061 0.91,-0.182 0.327,-0.121 0.625,-0.317 0.896,-0.588 l 0.392,0.826 c -0.271,0.271 -0.616,0.485 -1.036,0.644 -0.411,0.149 -0.821,0.224 -1.232,0.224 z m 5.684,0 c -0.467,0 -0.887,-0.089 -1.26,-0.266 -0.364,-0.187 -0.653,-0.439 -0.868,-0.756 -0.215,-0.317 -0.322,-0.672 -0.322,-1.064 0,-0.495 0.126,-0.887 0.378,-1.176 0.261,-0.289 0.686,-0.495 1.274,-0.616 0.597,-0.131 1.409,-0.196 2.436,-0.196 h 0.448 v -0.434 c 0,-0.579 -0.121,-0.994 -0.364,-1.246 -0.233,-0.261 -0.611,-0.392 -1.134,-0.392 -0.411,0 -0.807,0.061 -1.19,0.182 -0.383,0.112 -0.775,0.299 -1.176,0.56 l -0.392,-0.826 c 0.355,-0.252 0.784,-0.453 1.288,-0.602 0.513,-0.149 1.003,-0.224 1.47,-0.224 0.877,0 1.526,0.215 1.946,0.644 0.429,0.429 0.644,1.097 0.644,2.002 v 4.284 h -1.064 v -1.176 c -0.177,0.401 -0.453,0.719 -0.826,0.952 -0.364,0.233 -0.793,0.35 -1.288,0.35 z m 0.182,-0.854 c 0.56,0 1.017,-0.191 1.372,-0.574 0.355,-0.392 0.532,-0.887 0.532,-1.484 v -0.42 h -0.434 c -0.756,0 -1.353,0.037 -1.792,0.112 -0.429,0.065 -0.733,0.187 -0.91,0.364 -0.168,0.168 -0.252,0.401 -0.252,0.7 0,0.383 0.131,0.695 0.392,0.938 0.271,0.243 0.635,0.364 1.092,0.364 z m 7.83,0.854 c -0.803,0 -1.405,-0.21 -1.806,-0.63 -0.402,-0.429 -0.602,-1.045 -0.602,-1.848 v -3.57 h -1.33 v -0.882 h 1.33 v -2.086 h 1.134 v 2.086 h 2.156 v 0.882 h -2.156 v 3.458 c 0,0.532 0.112,0.938 0.336,1.218 0.224,0.271 0.588,0.406 1.092,0.406 0.149,0 0.298,-0.019 0.448,-0.056 0.149,-0.037 0.284,-0.075 0.406,-0.112 l 0.196,0.868 c -0.122,0.065 -0.299,0.126 -0.532,0.182 -0.234,0.056 -0.458,0.084 -0.672,0.084 z m 4.306,0 c -0.466,0 -0.886,-0.089 -1.26,-0.266 -0.364,-0.187 -0.653,-0.439 -0.868,-0.756 -0.214,-0.317 -0.322,-0.672 -0.322,-1.064 0,-0.495 0.126,-0.887 0.378,-1.176 0.262,-0.289 0.686,-0.495 1.274,-0.616 0.598,-0.131 1.41,-0.196 2.436,-0.196 h 0.448 v -0.434 c 0,-0.579 -0.121,-0.994 -0.364,-1.246 -0.233,-0.261 -0.611,-0.392 -1.134,-0.392 -0.41,0 -0.807,0.061 -1.19,0.182 -0.382,0.112 -0.774,0.299 -1.176,0.56 l -0.392,-0.826 c 0.355,-0.252 0.784,-0.453 1.288,-0.602 0.514,-0.149 1.004,-0.224 1.47,-0.224 0.878,0 1.526,0.215 1.946,0.644 0.43,0.429 0.644,1.097 0.644,2.002 v 4.284 h -1.064 v -1.176 c -0.177,0.401 -0.452,0.719 -0.826,0.952 -0.364,0.233 -0.793,0.35 -1.288,0.35 z m 0.182,-0.854 c 0.56,0 1.018,-0.191 1.372,-0.574 0.355,-0.392 0.532,-0.887 0.532,-1.484 v -0.42 h -0.434 c -0.756,0 -1.353,0.037 -1.792,0.112 -0.429,0.065 -0.732,0.187 -0.91,0.364 -0.168,0.168 -0.252,0.401 -0.252,0.7 0,0.383 0.131,0.695 0.392,0.938 0.271,0.243 0.635,0.364 1.092,0.364 z m 7.186,0.854 c -0.691,0 -1.213,-0.201 -1.568,-0.602 -0.345,-0.411 -0.518,-1.003 -0.518,-1.778 v -7.616 h 1.134 v 7.532 c 0,0.999 0.397,1.498 1.19,1.498 0.233,0 0.443,-0.028 0.63,-0.084 l -0.028,0.952 c -0.289,0.065 -0.569,0.098 -0.84,0.098 z m 4.816,0 c -0.662,0 -1.236,-0.145 -1.722,-0.434 -0.485,-0.289 -0.863,-0.695 -1.134,-1.218 -0.261,-0.532 -0.392,-1.157 -0.392,-1.876 0,-0.719 0.131,-1.339 0.392,-1.862 0.271,-0.532 0.649,-0.943 1.134,-1.232 0.486,-0.289 1.06,-0.434 1.722,-0.434 0.654,0 1.223,0.145 1.708,0.434 0.495,0.289 0.873,0.7 1.134,1.232 0.271,0.523 0.406,1.143 0.406,1.862 0,0.719 -0.135,1.344 -0.406,1.876 -0.261,0.523 -0.639,0.929 -1.134,1.218 -0.485,0.289 -1.054,0.434 -1.708,0.434 z m 0,-0.91 c 0.635,0 1.144,-0.224 1.526,-0.672 0.383,-0.457 0.574,-1.106 0.574,-1.946 0,-0.849 -0.191,-1.498 -0.574,-1.946 -0.382,-0.448 -0.891,-0.672 -1.526,-0.672 -0.644,0 -1.157,0.224 -1.54,0.672 -0.373,0.448 -0.56,1.097 -0.56,1.946 0,0.84 0.187,1.489 0.56,1.946 0.383,0.448 0.896,0.672 1.54,0.672 z m 7.962,3.43 c -0.588,0 -1.144,-0.079 -1.666,-0.238 -0.514,-0.149 -0.971,-0.378 -1.372,-0.686 l 0.378,-0.826 c 0.42,0.299 0.835,0.513 1.246,0.644 0.42,0.131 0.872,0.196 1.358,0.196 1.344,0 2.016,-0.691 2.016,-2.072 v -1.204 c -0.196,0.429 -0.504,0.77 -0.924,1.022 -0.411,0.243 -0.882,0.364 -1.414,0.364 -0.626,0 -1.167,-0.145 -1.624,-0.434 -0.458,-0.289 -0.812,-0.686 -1.064,-1.19 -0.243,-0.513 -0.364,-1.106 -0.364,-1.778 0,-0.672 0.121,-1.26 0.364,-1.764 0.252,-0.513 0.606,-0.91 1.064,-1.19 0.457,-0.28 0.998,-0.42 1.624,-0.42 0.532,0 1.003,0.121 1.414,0.364 0.42,0.243 0.728,0.574 0.924,0.994 v -1.232 h 1.106 v 6.314 c 0,1.045 -0.262,1.829 -0.784,2.352 -0.514,0.523 -1.274,0.784 -2.282,0.784 z m -0.168,-3.724 c 0.653,0 1.171,-0.224 1.554,-0.672 0.382,-0.448 0.574,-1.05 0.574,-1.806 0,-0.756 -0.192,-1.353 -0.574,-1.792 -0.383,-0.448 -0.901,-0.672 -1.554,-0.672 -0.644,0 -1.158,0.224 -1.54,0.672 -0.383,0.439 -0.574,1.036 -0.574,1.792 0,0.756 0.191,1.358 0.574,1.806 0.382,0.448 0.896,0.672 1.54,0.672 z"
       fill="#151e29"
       id="path33" />
    <path
       d="m 323.61876,287.82223 2.226,-26.348 -25.377,5.547 21.37,22.65"
       stroke="#151e29"
       stroke-width="3"
       stroke-linecap="square"
       stroke-linejoin="round"
       id="path166" />
    <circle
       cx="295.76776"
       cy="266.23624"
       r="4.13937"
       stroke="#151e29"
       stroke-width="3"
       id="circle168" />
    <circle
       cx="324.90475"
       cy="294.37122"
       r="4.13937"
       stroke="#151e29"
       stroke-width="3"
       id="circle170" />
    <path
       d="m 331.86376,256.64923 c 0,2.286 -1.853,4.14 -4.14,4.14 -2.286,0 -4.139,-1.854 -4.139,-4.14 0,-2.286 1.853,-4.139 4.139,-4.139 2.287,0 4.14,1.853 4.14,4.139 z"
       stroke="#151e29"
       stroke-width="3"
       id="path172" />
    <path
       fill-rule="evenodd"
       clip-rule="evenodd"
       d="m 278.66876,328.42123 c 0.444,0.377 0.476,1.019 0.071,1.433 l -6.447,6.596 c -0.405,0.414 -1.094,0.444 -1.538,0.066 -0.445,-0.378 -0.477,-1.02 -0.072,-1.434 l 6.448,-6.595 c 0.405,-0.414 1.094,-0.444 1.538,-0.066 z"
       fill="#151e29"
       stroke="#151e29"
       stroke-width="0.848809"
       stroke-miterlimit="10"
       stroke-linecap="round"
       stroke-linejoin="round"
       id="path174" />
    <path
       fill-rule="evenodd"
       clip-rule="evenodd"
       d="m 273.65876,314.00523 c 0.421,-0.376 1.014,-0.268 1.325,0.242 l 3.855,6.328 c 0.311,0.51 0.222,1.229 -0.199,1.606 -0.421,0.377 -1.015,0.269 -1.325,-0.242 l -3.855,-6.327 c -0.311,-0.511 -0.222,-1.23 0.199,-1.607 z"
       fill="#151e29"
       stroke="#151e29"
       stroke-width="0.848809"
       stroke-miterlimit="10"
       stroke-linecap="round"
       stroke-linejoin="round"
       id="path176" />
    <path
       fill-rule="evenodd"
       clip-rule="evenodd"
       d="m 294.04576,314.09023 c 0.405,0.422 0.417,1.12 0.026,1.558 l -6.587,7.379 c -0.391,0.438 -1.036,0.451 -1.441,0.028 -0.405,-0.422 -0.416,-1.12 -0.025,-1.558 l 6.586,-7.379 c 0.391,-0.438 1.036,-0.451 1.441,-0.028 z"
       fill="#151e29"
       stroke="#151e29"
       stroke-width="0.848809"
       stroke-miterlimit="10"
       stroke-linecap="round"
       stroke-linejoin="round"
       id="path178" />
    <path
       fill-rule="evenodd"
       clip-rule="evenodd"
       d="m 265.12876,335.10523 c -4.896,0 -8.864,3.968 -8.864,8.863 0,4.896 3.968,8.864 8.864,8.864 4.895,0 8.863,-3.968 8.863,-8.864 0,-4.895 -3.968,-8.863 -8.863,-8.863 z m -11.021,8.863 c 0,-6.086 4.934,-11.02 11.021,-11.02 6.086,0 11.02,4.934 11.02,11.02 0,6.087 -4.934,11.021 -11.02,11.021 -6.087,0 -11.021,-4.934 -11.021,-11.021 z"
       fill="#151e29"
       stroke="#151e29"
       stroke-width="0.848809"
       stroke-miterlimit="10"
       stroke-linecap="round"
       stroke-linejoin="round"
       id="path180" />
    <path
       fill-rule="evenodd"
       clip-rule="evenodd"
       d="m 271.94376,310.25423 c -1.154,0 -2.09,0.935 -2.09,2.089 0,1.155 0.936,2.09 2.09,2.09 1.154,0 2.09,-0.936 2.09,-2.09 0,-1.154 -0.936,-2.089 -2.09,-2.089 z m -4.313,2.089 c 0,-2.381 1.931,-4.312 4.313,-4.312 2.382,0 4.312,1.931 4.312,4.312 0,2.382 -1.93,4.313 -4.312,4.313 -2.382,0 -4.313,-1.931 -4.313,-4.313 z"
       fill="#151e29"
       stroke="#151e29"
       stroke-width="0.848809"
       stroke-miterlimit="10"
       stroke-linecap="round"
       stroke-linejoin="round"
       id="path182" />
    <path
       fill-rule="evenodd"
       clip-rule="evenodd"
       d="m 295.79476,310.25423 c -1.154,0 -2.09,0.935 -2.09,2.089 0,1.155 0.936,2.09 2.09,2.09 1.154,0 2.09,-0.935 2.09,-2.09 0,-1.154 -0.936,-2.089 -2.09,-2.089 z m -4.312,2.089 c 0,-2.381 1.931,-4.312 4.312,-4.312 2.382,0 4.313,1.931 4.313,4.312 0,2.382 -1.931,4.313 -4.313,4.313 -2.381,0 -4.312,-1.931 -4.312,-4.313 z"
       fill="#151e29"
       stroke="#151e29"
       stroke-width="0.848809"
       stroke-miterlimit="10"
       stroke-linecap="round"
       stroke-linejoin="round"
       id="path184" />
    <path
       fill-rule="evenodd"
       clip-rule="evenodd"
       d="m 282.37876,321.75223 c -2.214,0 -4.008,1.794 -4.008,4.008 0,2.213 1.794,4.008 4.008,4.008 2.213,0 4.007,-1.795 4.007,-4.008 0,-2.214 -1.794,-4.008 -4.007,-4.008 z m -6.23,4.008 c 0,-3.44 2.789,-6.229 6.23,-6.229 3.44,0 6.229,2.789 6.229,6.229 0,3.44 -2.789,6.229 -6.229,6.229 -3.441,0 -6.23,-2.789 -6.23,-6.229 z"
       fill="#151e29"
       stroke="#151e29"
       stroke-width="0.848809"
       stroke-miterlimit="10"
       stroke-linecap="round"
       stroke-linejoin="round"
       id="path186" />
    <g
       clip-path="url(#clip1_34_311)"
       id="g202"
       transform="translate(-0.91324497,-3.9897744)">
      <path
         d="m 216.531,297.871 c 0,0.603 0.119,1.201 0.35,1.758 0.231,0.557 0.569,1.064 0.996,1.49 0.426,0.427 0.933,0.765 1.49,0.996 0.557,0.231 1.155,0.35 1.758,0.35 0.603,0 1.201,-0.119 1.758,-0.35 0.557,-0.231 1.064,-0.569 1.49,-0.996 0.427,-0.426 0.765,-0.933 0.996,-1.49 0.231,-0.557 0.35,-1.155 0.35,-1.758 0,-0.603 -0.119,-1.201 -0.35,-1.758 -0.231,-0.557 -0.569,-1.064 -0.996,-1.49 -0.426,-0.427 -0.933,-0.765 -1.49,-0.996 -0.557,-0.231 -1.155,-0.35 -1.758,-0.35 -0.603,0 -1.201,0.119 -1.758,0.35 -0.557,0.231 -1.064,0.569 -1.49,0.996 -0.427,0.426 -0.765,0.933 -0.996,1.49 -0.231,0.557 -0.35,1.155 -0.35,1.758 z"
         stroke="#151e29"
         stroke-width="3"
         stroke-linecap="round"
         stroke-linejoin="round"
         id="path188" />
      <path
         d="m 227.25,273.371 c 0,0.603 0.119,1.201 0.35,1.758 0.231,0.557 0.569,1.064 0.995,1.49 0.427,0.427 0.933,0.765 1.491,0.996 0.557,0.231 1.154,0.35 1.758,0.35 0.603,0 1.2,-0.119 1.758,-0.35 0.557,-0.231 1.063,-0.569 1.49,-0.996 0.427,-0.426 0.765,-0.933 0.996,-1.49 0.231,-0.557 0.35,-1.155 0.35,-1.758 0,-0.603 -0.119,-1.201 -0.35,-1.758 -0.231,-0.557 -0.569,-1.064 -0.996,-1.49 -0.427,-0.427 -0.933,-0.765 -1.49,-0.996 -0.558,-0.231 -1.155,-0.35 -1.758,-0.35 -0.604,0 -1.201,0.119 -1.758,0.35 -0.558,0.231 -1.064,0.569 -1.491,0.996 -0.426,0.426 -0.764,0.933 -0.995,1.49 -0.231,0.557 -0.35,1.155 -0.35,1.758 z"
         stroke="#151e29"
         stroke-width="3"
         stroke-linecap="round"
         stroke-linejoin="round"
         id="path190" />
      <path
         d="m 242.563,285.621 c 0,1.218 0.483,2.387 1.345,3.248 0.861,0.862 2.03,1.346 3.248,1.346 1.219,0 2.387,-0.484 3.249,-1.346 0.861,-0.861 1.345,-2.03 1.345,-3.248 0,-1.218 -0.484,-2.387 -1.345,-3.248 -0.862,-0.862 -2.03,-1.346 -3.249,-1.346 -1.218,0 -2.387,0.484 -3.248,1.346 -0.862,0.861 -1.345,2.03 -1.345,3.248 z"
         stroke="#151e29"
         stroke-width="3"
         stroke-linecap="round"
         stroke-linejoin="round"
         id="path192" />
      <path
         d="m 253.281,261.121 c 0,1.218 0.484,2.387 1.346,3.248 0.861,0.862 2.03,1.346 3.248,1.346 1.218,0 2.387,-0.484 3.248,-1.346 0.862,-0.861 1.346,-2.03 1.346,-3.248 0,-1.218 -0.484,-2.387 -1.346,-3.248 -0.861,-0.862 -2.03,-1.346 -3.248,-1.346 -1.218,0 -2.387,0.484 -3.248,1.346 -0.862,0.861 -1.346,2.03 -1.346,3.248 z"
         stroke="#151e29"
         stroke-width="3"
         stroke-linecap="round"
         stroke-linejoin="round"
         id="path194" />
      <path
         d="m 222.967,293.661 7.035,-16.08"
         stroke="#151e29"
         stroke-width="3"
         stroke-linecap="round"
         stroke-linejoin="round"
         id="path196" />
      <path
         d="m 235.431,276.242 8.138,6.51"
         stroke="#151e29"
         stroke-width="3"
         stroke-linecap="round"
         stroke-linejoin="round"
         id="path198" />
      <path
         d="m 256.033,265.331 -7.035,16.08"
         stroke="#151e29"
         stroke-width="3"
         stroke-linecap="round"
         stroke-linejoin="round"
         id="path200" />
    </g>
  </g>
  <defs
     id="defs210">
    <clipPath
       id="clip0_34_311">
      <rect
         width="75"
         height="75"
         fill="#ffffff"
         transform="translate(247)"
         id="rect204"
         x="0"
         y="0" />
    </clipPath>
    <clipPath
       id="clip1_34_311">
      <rect
         width="49"
         height="49"
         fill="#ffffff"
         transform="translate(215,255)"
         id="rect207"
         x="0"
         y="0" />
    </clipPath>
  </defs>
</svg>
