<svg xmlns="http://www.w3.org/2000/svg" width="278.4380187988281" height="322.217041015625" viewBox="-204.3589324951172 -184.11712646484375 278.4380187988281 322.217041015625"><title>Neo4j Graph Visualization</title><desc>Created using Neo4j (http://www.neo4j.com/)</desc><g class="layer relationships"><g class="relationship" transform="translate(-68.28604858373035 -155.11712169905596) rotate(492.73543254757413)"><path class="outline" fill="#F16667" stroke="none" d="M 24.018736134675446,-6.953439040707552 L 24.277555179777966,-5.987513214418485 A 206.1242990437407 206.1242990437407 0 0 1 61.737853507554874,-12.397748939498285 L 61.66077091226232,-13.39477365007619 A 207.1242990437407 207.1242990437407 0 0 0 24.018736134675446,-6.953439040707552 Z M 89.04121821498806,-13.69625114431497 L 88.98610749723557,-12.697770894741268 A 206.1242990437407 206.1242990437407 0 0 1 126.57846898030773,-7.113916403158731 L 125.86600538756245,-4.199744886412937 L 133.49694645150547,-5.937196606210698 L 127.52842043730145,-10.999478425486457 L 126.81595684455617,-8.085306908740662 A 207.1242990437407 207.1242990437407 0 0 0 89.04121821498806,-13.69625114431497"/><text text-anchor="middle" pointer-events="none" font-size="8px" fill="#000000" x="75.35151215327973" y="-10.498504456199953" transform="rotate(180 75.35151215327973 -13.498504456199953)" font-family="sans-serif">NEXT</text></g><g class="relationship" transform="translate(-175.35892880237662 -39.227234110115205) rotate(358.5786360721945)"><path class="outline" fill="#F16667" stroke="none" d="M 25 0.5 L 93.08496171649554 0.5 L 93.08496171649554 -0.5 L 25 -0.5 Z M 120.42089921649554 0.5 L 188.50586093299108 0.5 L 188.50586093299108 3.5 L 195.50586093299108 0 L 188.50586093299108 -3.5 L 188.50586093299108 -0.5 L 120.42089921649554 -0.5 Z"/><text text-anchor="middle" pointer-events="none" font-size="8px" fill="#000000" x="106.75293046649554" y="3" font-family="sans-serif">NEXT</text></g><g class="relationship" transform="translate(45.07908473474393 -44.69686788285226) rotate(505.0916420978649)"><path class="outline" fill="#F16667" stroke="none" d="M 25 0.5 L 117.20740140187843 0.5 L 117.20740140187843 -0.5 L 25 -0.5 Z M 144.54333890187843 0.5 L 236.75074030375686 0.5 L 236.75074030375686 3.5 L 243.75074030375686 0 L 236.75074030375686 -3.5 L 236.75074030375686 -0.5 L 144.54333890187843 -0.5 Z"/><text text-anchor="middle" pointer-events="none" font-size="8px" fill="#000000" x="130.87537015187843" y="3" transform="rotate(180 130.87537015187843 0)" font-family="sans-serif">NEXT</text></g><g class="relationship" transform="translate(-68.28604858373035 -155.11712169905596) rotate(404.24606592843105)"><path class="outline" fill="#A5ABB6" stroke="none" d="M 25 0.5 L 64.8456826859545 0.5 L 64.8456826859545 -0.5 L 25 -0.5 Z M 86.4081826859545 0.5 L 126.253865371909 0.5 L 126.253865371909 3.5 L 133.253865371909 0 L 126.253865371909 -3.5 L 126.253865371909 -0.5 L 86.4081826859545 -0.5 Z"/><text text-anchor="middle" pointer-events="none" font-size="8px" fill="#000000" x="75.6269326859545" y="3" font-family="sans-serif">REL</text></g><g class="relationship" transform="translate(-68.28604858373035 -155.11712169905596) rotate(492.73543254757413)"><path class="outline" fill="#A5ABB6" stroke="none" d="M 24.018736134675446,6.953439040707552 L 24.277555179777966,5.987513214418485 A 206.1242990437407 206.1242990437407 0 0 0 64.61047596959682,12.599663041542385 L 64.54732973442952,13.597667326595428 A 207.1242990437407 207.1242990437407 0 0 1 24.018736134675446,6.953439040707552 Z M 86.15089175770963,13.835537353823298 L 86.10973559029537,12.836384627818035 A 206.1242990437407 206.1242990437407 0 0 0 126.57846898030773,7.113916403158731 L 125.86600538756245,4.199744886412937 L 133.49694645150547,5.937196606210698 L 127.52842043730145,10.999478425486457 L 126.81595684455617,8.085306908740662 A 207.1242990437407 207.1242990437407 0 0 1 86.15089175770963,13.835537353823298"/><text text-anchor="middle" pointer-events="none" font-size="8px" fill="#000000" x="75.35151215327973" y="16.498504456199953" transform="rotate(180 75.35151215327973 13.498504456199953)" font-family="sans-serif">REL</text></g><g class="relationship" transform="translate(-175.35892880237662 -39.227234110115205) rotate(449.9829951242565)"><path class="outline" fill="#A5ABB6" stroke="none" d="M 25 0.5 L 59.88232547971266 0.5 L 59.88232547971266 -0.5 L 25 -0.5 Z M 81.44482547971266 0.5 L 116.32715095942532 0.5 L 116.32715095942532 3.5 L 123.32715095942532 0 L 116.32715095942532 -3.5 L 116.32715095942532 -0.5 L 81.44482547971266 -0.5 Z"/><text text-anchor="middle" pointer-events="none" font-size="8px" fill="#000000" x="70.66357547971266" y="3" font-family="sans-serif">REL</text></g></g><g class="layer nodes"><g class="node" aria-label="graph-node0" transform="translate(-68.28604858373035,-155.11712169905596)"><circle class="outline" cx="0" cy="0" r="25" fill="#D9C8AE" stroke="#c0a378" stroke-width="2px"/><text class="caption" text-anchor="middle" pointer-events="none" x="0" y="5" font-size="10px" fill="#2A2C34" font-family="sans-serif"> A</text></g><g class="node" aria-label="graph-node4" transform="translate(-175.31490662908817,109.0999103166161)"><circle class="outline" cx="0" cy="0" r="25" fill="#D9C8AE" stroke="#c0a378" stroke-width="2px"/><text class="caption" text-anchor="middle" pointer-events="none" x="0" y="5" font-size="10px" fill="#2A2C34" font-family="sans-serif"> E</text></g><g class="node" aria-label="graph-node1" transform="translate(-175.35892880237662,-39.227234110115205)"><circle class="outline" cx="0" cy="0" r="25" fill="#D9C8AE" stroke="#c0a378" stroke-width="2px"/><text class="caption" text-anchor="middle" pointer-events="none" x="0" y="5" font-size="10px" fill="#2A2C34" font-family="sans-serif"> B</text></g><g class="node" aria-label="graph-node2" transform="translate(45.07908473474393,-44.69686788285226)"><circle class="outline" cx="0" cy="0" r="25" fill="#D9C8AE" stroke="#c0a378" stroke-width="2px"/><text class="caption" text-anchor="middle" pointer-events="none" x="0" y="5" font-size="10px" fill="#2A2C34" font-family="sans-serif"> C</text></g></g></svg>