<svg xmlns="http://www.w3.org/2000/svg" width="245.87692260742188" height="298.54876708984375" viewBox="-190.88677978515625 -192.0996551513672 245.87692260742188 298.54876708984375"><title>Neo4j Graph Visualization</title><desc>Created using Neo4j (http://www.neo4j.com/)</desc><g class="layer relationships"><g class="relationship" transform="translate(-64.8312565121388 -163.09964893397785) rotate(492.1355527902726)"><path class="outline" fill="#F16667" stroke="none" d="M 24.018736134675446,-6.953439040707552 L 24.277555179777966,-5.987513214418485 A 178.17186509146742 178.17186509146742 0 0 1 54.635465568110035,-11.360509720062822 L 54.547032068294065,-12.356591803081244 A 179.17186509146742 179.17186509146742 0 0 0 24.018736134675446,-6.953439040707552 Z M 81.93075053167264,-12.686624676317876 L 81.86634910704666,-11.688700602800168 A 178.17186509146742 178.17186509146742 0 0 1 112.34493511579994,-7.04891510100214 L 111.63854230915716,-4.133266081877352 L 119.26584829486491,-5.886606722023128 L 113.28679219132364,-10.936447126501857 L 112.58039938468086,-8.02079810737707 A 179.17186509146742 179.17186509146742 0 0 0 81.93075053167264,-12.686624676317876"/><text text-anchor="middle" pointer-events="none" font-size="8px" fill="#000000" x="68.23860218049293" y="-9.54559726433942" transform="rotate(180 68.23860218049293 -12.54559726433942)" font-family="sans-serif">NEXT</text></g><g class="relationship" transform="translate(-161.14574056586125 -56.63917198505244) rotate(359.3276332060932)"><path class="outline" fill="#F16667" stroke="none" d="M 25 0.5 L 76.28588298113452 0.5 L 76.28588298113452 -0.5 L 25 -0.5 Z M 103.62182048113452 0.5 L 154.90770346226904 0.5 L 154.90770346226904 3.5 L 161.90770346226904 0 L 154.90770346226904 -3.5 L 154.90770346226904 -0.5 L 103.62182048113452 -0.5 Z"/><text text-anchor="middle" pointer-events="none" font-size="8px" fill="#000000" x="89.95385173113452" y="3" font-family="sans-serif">NEXT</text></g><g class="relationship" transform="translate(25.749093461706586 -58.832486223226454) rotate(504.0087658513012)"><path class="outline" fill="#F16667" stroke="none" d="M 25 0.5 L 98.78449283118985 0.5 L 98.78449283118985 -0.5 L 25 -0.5 Z M 126.12043033118985 0.5 L 199.9049231623797 0.5 L 199.9049231623797 3.5 L 206.9049231623797 0 L 199.9049231623797 -3.5 L 199.9049231623797 -0.5 L 126.12043033118985 -0.5 Z"/><text text-anchor="middle" pointer-events="none" font-size="8px" fill="#000000" x="112.45246158118985" y="3" transform="rotate(180 112.45246158118985 0)" font-family="sans-serif">NEXT</text></g><g class="relationship" transform="translate(-161.88678277632442 77.44910217130149) rotate(358.77077522786715)"><path class="outline" fill="#F16667" stroke="none" d="M 25 0.5 L 76.79211750173461 0.5 L 76.79211750173461 -0.5 L 25 -0.5 Z M 104.12805500173461 0.5 L 155.92017250346922 0.5 L 155.92017250346922 3.5 L 162.92017250346922 0 L 155.92017250346922 -3.5 L 155.92017250346922 -0.5 L 104.12805500173461 -0.5 Z"/><text text-anchor="middle" pointer-events="none" font-size="8px" fill="#000000" x="90.46008625173461" y="3" font-family="sans-serif">NEXT</text></g><g class="relationship" transform="translate(-64.8312565121388 -163.09964893397785) rotate(409.01806833553303)"><path class="outline" fill="#A5ABB6" stroke="none" d="M 25 0.5 L 54.77749495879327 0.5 L 54.77749495879327 -0.5 L 25 -0.5 Z M 76.33999495879327 0.5 L 106.11748991758654 0.5 L 106.11748991758654 3.5 L 113.11748991758654 0 L 106.11748991758654 -3.5 L 106.11748991758654 -0.5 L 76.33999495879327 -0.5 Z"/><text text-anchor="middle" pointer-events="none" font-size="8px" fill="#000000" x="65.55874495879327" y="3" font-family="sans-serif">REL</text></g><g class="relationship" transform="translate(-64.8312565121388 -163.09964893397785) rotate(492.1355527902726)"><path class="outline" fill="#A5ABB6" stroke="none" d="M 24.018736134675446,6.953439040707552 L 24.277555179777966,5.987513214418485 A 178.17186509146742 178.17186509146742 0 0 0 57.504759456091946,11.591904078372494 L 57.43243003582024,12.589284875742862 A 179.17186509146742 179.17186509146742 0 0 1 24.018736134675446,6.953439040707552 Z M 79.04058258414037,12.849709722003013 L 78.99231186143042,11.850875432779304 A 178.17186509146742 178.17186509146742 0 0 0 112.34493511579994,7.04891510100214 L 111.63854230915716,4.133266081877352 L 119.26584829486491,5.886606722023128 L 113.28679219132364,10.936447126501857 L 112.58039938468086,8.02079810737707 A 179.17186509146742 179.17186509146742 0 0 1 79.04058258414037,12.849709722003013"/><text text-anchor="middle" pointer-events="none" font-size="8px" fill="#000000" x="68.23860218049292" y="15.54559726433942" transform="rotate(180 68.23860218049292 12.54559726433942)" font-family="sans-serif">REL</text></g><g class="relationship" transform="translate(-161.14574056586125 -56.63917198505244) rotate(450.31664333896526)"><path class="outline" fill="#A5ABB6" stroke="none" d="M 25 0.5 L 52.7639109174503 0.5 L 52.7639109174503 -0.5 L 25 -0.5 Z M 74.3264109174503 0.5 L 102.0903218349006 0.5 L 102.0903218349006 3.5 L 109.0903218349006 0 L 102.0903218349006 -3.5 L 102.0903218349006 -0.5 L 74.3264109174503 -0.5 Z"/><text text-anchor="middle" pointer-events="none" font-size="8px" fill="#000000" x="63.5451609174503" y="3" transform="rotate(180 63.5451609174503 0)" font-family="sans-serif">REL</text></g><g class="relationship" transform="translate(25.749093461706586 -58.832486223226454) rotate(449.89556800345025)"><path class="outline" fill="#A5ABB6" stroke="none" d="M 25 0.5 L 51.843987147398494 0.5 L 51.843987147398494 -0.5 L 25 -0.5 Z M 73.4064871473985 0.5 L 100.25047429479699 0.5 L 100.25047429479699 3.5 L 107.25047429479699 0 L 100.25047429479699 -3.5 L 100.25047429479699 -0.5 L 73.4064871473985 -0.5 Z"/><text text-anchor="middle" pointer-events="none" font-size="8px" fill="#000000" x="62.625237147398494" y="3" font-family="sans-serif">REL</text></g></g><g class="layer nodes"><g class="node" aria-label="graph-node0" transform="translate(-64.8312565121388,-163.09964893397785)"><circle class="outline" cx="0" cy="0" r="25" fill="#D9C8AE" stroke="#c0a378" stroke-width="2px"/><text class="caption" text-anchor="middle" pointer-events="none" x="0" y="5" font-size="10px" fill="#2A2C34" font-family="sans-serif"> A</text></g><g class="node" aria-label="graph-node3" transform="translate(25.99014391159047,73.41776839232946)"><circle class="outline" cx="0" cy="0" r="25" fill="#D9C8AE" stroke="#c0a378" stroke-width="2px"/><text class="caption" text-anchor="middle" pointer-events="none" x="0" y="5" font-size="10px" fill="#2A2C34" font-family="sans-serif"> D</text></g><g class="node" aria-label="graph-node1" transform="translate(-161.14574056586125,-56.63917198505244)"><circle class="outline" cx="0" cy="0" r="25" fill="#D9C8AE" stroke="#c0a378" stroke-width="2px"/><text class="caption" text-anchor="middle" pointer-events="none" x="0" y="5" font-size="10px" fill="#2A2C34" font-family="sans-serif"> B</text></g><g class="node" aria-label="graph-node2" transform="translate(25.749093461706586,-58.832486223226454)"><circle class="outline" cx="0" cy="0" r="25" fill="#D9C8AE" stroke="#c0a378" stroke-width="2px"/><text class="caption" text-anchor="middle" pointer-events="none" x="0" y="5" font-size="10px" fill="#2A2C34" font-family="sans-serif"> C</text></g><g class="node" aria-label="graph-node4" transform="translate(-161.88678277632442,77.44910217130149)"><circle class="outline" cx="0" cy="0" r="25" fill="#D9C8AE" stroke="#c0a378" stroke-width="2px"/><text class="caption" text-anchor="middle" pointer-events="none" x="0" y="5" font-size="10px" fill="#2A2C34" font-family="sans-serif"> E</text></g></g></svg>