<svg xmlns="http://www.w3.org/2000/svg" width="258.26953125" height="304.5584716796875" viewBox="-216.09512329101562 -197.1343536376953 258.26953125 304.5584716796875"><title>Neo4j Graph Visualization</title><desc>Created using Neo4j (http://www.neo4j.com/)</desc><g class="layer relationships"><g class="relationship" transform="translate(-90.74924451182628 -168.13434644993433) rotate(402.6144344531811)"><path class="outline" fill="#F16667" stroke="none" d="M 24.018736134675446,-6.953439040707552 L 24.277555179777966,-5.987513214418485 A 170.4273263971214 170.4273263971214 0 0 1 52.67270109323756,-11.068630087612547 L 52.5804935095347,-12.06436989374049 A 171.4273263971214 171.4273263971214 0 0 0 24.018736134675446,-6.953439040707552 Z M 79.96508991141447,-12.403274923128265 L 79.89755285593162,-11.40555815663754 A 170.4273263971214 170.4273263971214 0 0 1 108.40974818680998,-7.028712541407681 L 107.70524223740087,-4.112607027670709 L 115.33141204376443,-5.870882911742586 L 109.3490894526888,-10.91685322639031 L 108.64458350327969,-8.000747712653338 A 171.4273263971214 171.4273263971214 0 0 0 79.96508991141447,-12.403274923128265"/><text text-anchor="middle" pointer-events="none" font-size="8px" fill="#000000" x="66.27220048258297" y="-9.28159548876431" font-family="sans-serif">NEXT</text></g><g class="relationship" transform="translate(12.009864411334057 -73.59471288833511) rotate(449.5089465149368)"><path class="outline" fill="#F16667" stroke="none" d="M 24.018736134675446,-6.953439040707552 L 24.277555179777966,-5.987513214418485 A 163.02326965890376 163.02326965890376 0 0 1 50.79863023813881,-10.787302020949937 L 50.70249395061962,-11.782670201183777 A 164.02326965890376 164.02326965890376 0 0 0 24.018736134675446,-6.953439040707552 Z M 78.08789098883341,-12.130503943424145 L 78.0170668377809,-11.133015126630823 A 163.02326965890376 163.02326965890376 0 0 1 104.651494888973,-7.008377297149859 L 103.94888820945164,-4.091813590680901 L 111.5739113173208,-5.855055662678137 L 105.58830379500151,-10.897128905775137 L 104.88569711548014,-7.980565199306178 A 164.02326965890376 164.02326965890376 0 0 0 78.08789098883341,-12.130503943424145"/><text text-anchor="middle" pointer-events="none" font-size="8px" fill="#000000" x="64.39427008364565" y="-9.029207712510782" font-family="sans-serif">NEXT</text></g><g class="relationship" transform="translate(13.17439778803859 62.27890563562601) rotate(213.58808487730812)"><path class="outline" fill="#F16667" stroke="none" d="M 25 0.5 L 102.22032390707587 0.5 L 102.22032390707587 -0.5 L 25 -0.5 Z M 129.55626140707585 0.5 L 206.77658531415173 0.5 L 206.77658531415173 3.5 L 213.77658531415173 0 L 206.77658531415173 -3.5 L 206.77658531415173 -0.5 L 129.55626140707585 -0.5 Z"/><text text-anchor="middle" pointer-events="none" font-size="8px" fill="#000000" x="115.88829265707587" y="3" transform="rotate(180 115.88829265707587 0)" font-family="sans-serif">NEXT</text></g><g class="relationship" transform="translate(-185.73516655444843 -69.81667683164802) rotate(450.5256136738382)"><path class="outline" fill="#F16667" stroke="none" d="M 24.018736134675446,-6.953439040707552 L 24.277555179777966,-5.987513214418485 A 187.3904913254164 187.3904913254164 0 0 1 56.974864989649774,-11.705158641670579 L 56.89053350567484,-12.701596397283339 A 188.3904913254164 188.3904913254164 0 0 0 24.018736134675446,-6.953439040707552 Z M 84.27317818762923,-13.021643680732438 L 84.21215921102994,-12.02350707460343 A 187.3904913254164 187.3904913254164 0 0 1 117.03417376236324,-7.071648956019978 L 116.3256577073048,-4.156515168399857 L 123.95423860931993,-5.904300458820311 L 117.9788618357745,-10.958494006180139 L 117.27034578071606,-8.043360218560018 A 188.3904913254164 188.3904913254164 0 0 0 84.27317818762923,-13.021643680732438"/><text text-anchor="middle" pointer-events="none" font-size="8px" fill="#000000" x="70.58187645333852" y="-9.85985696960094" transform="rotate(180 70.58187645333852 -12.85985696960094)" font-family="sans-serif">NEXT</text></g><g class="relationship" transform="translate(-90.74924451182628 -168.13434644993433) rotate(402.6144344531811)"><path class="outline" fill="#A5ABB6" stroke="none" d="M 24.018736134675446,6.953439040707552 L 24.277555179777966,5.987513214418485 A 170.4273263971214 170.4273263971214 0 0 0 55.54081835831434,11.309815348858393 L 55.46543974990381,12.306970334502097 A 171.4273263971214 171.4273263971214 0 0 1 24.018736134675446,6.953439040707552 Z M 77.0750234411131,12.574405227039875 L 77.02434522914746,11.575690193192912 A 170.4273263971214 170.4273263971214 0 0 0 108.40974818680998,7.028712541407681 L 107.70524223740087,4.112607027670709 L 115.33141204376443,5.870882911742586 L 109.3490894526888,10.91685322639031 L 108.64458350327969,8.000747712653338 A 171.4273263971214 171.4273263971214 0 0 1 77.0750234411131,12.574405227039875"/><text text-anchor="middle" pointer-events="none" font-size="8px" fill="#000000" x="66.27220048258302" y="15.28159548876431" font-family="sans-serif">REL</text></g><g class="relationship" transform="translate(-90.74924451182628 -168.13434644993433) rotate(494.01255753755265)"><path class="outline" fill="#A5ABB6" stroke="none" d="M 25 0.5 L 54.0720409695239 0.5 L 54.0720409695239 -0.5 L 25 -0.5 Z M 75.6345409695239 0.5 L 104.7065819390478 0.5 L 104.7065819390478 3.5 L 111.7065819390478 0 L 104.7065819390478 -3.5 L 104.7065819390478 -0.5 L 75.6345409695239 -0.5 Z"/><text text-anchor="middle" pointer-events="none" font-size="8px" fill="#000000" x="64.8532909695239" y="3" transform="rotate(180 64.8532909695239 0)" font-family="sans-serif">REL</text></g><g class="relationship" transform="translate(-185.73516655444843 -69.81667683164802) rotate(450.5256136738382)"><path class="outline" fill="#A5ABB6" stroke="none" d="M 24.018736134675446,6.953439040707552 L 24.277555179777966,5.987513214418485 A 187.3904913254164 187.3904913254164 0 0 0 59.84539821133548,11.925905231111244 L 59.77638518456391,12.92352098987601 A 188.3904913254164 188.3904913254164 0 0 1 24.018736134675446,6.953439040707552 Z M 81.38292788100742,13.176057418516905 L 81.33725071007086,12.177101165192852 A 187.3904913254164 187.3904913254164 0 0 0 117.03417376236324,7.071648956019978 L 116.3256577073048,4.156515168399857 L 123.95423860931993,5.904300458820311 L 117.9788618357745,10.958494006180139 L 117.27034578071606,8.043360218560018 A 188.3904913254164 188.3904913254164 0 0 1 81.38292788100742,13.176057418516905"/><text text-anchor="middle" pointer-events="none" font-size="8px" fill="#000000" x="70.58187645333854" y="15.85985696960094" transform="rotate(180 70.58187645333854 12.85985696960094)" font-family="sans-serif">REL</text></g><g class="relationship" transform="translate(12.009864411334057 -73.59471288833511) rotate(449.5089465149368)"><path class="outline" fill="#A5ABB6" stroke="none" d="M 24.018736134675446,6.953439040707552 L 24.277555179777966,5.987513214418485 A 163.02326965890376 163.02326965890376 0 0 0 53.66548569784875,11.038673741358679 L 53.586934970143865,12.035583859261493 A 164.02326965890376 164.02326965890376 0 0 1 24.018736134675446,6.953439040707552 Z M 75.19795679727942,12.310074770796632 L 75.14475169624075,11.311491165271548 A 163.02326965890376 163.02326965890376 0 0 0 104.651494888973,7.008377297149859 L 103.94888820945164,4.091813590680901 L 111.5739113173208,5.855055662678137 L 105.58830379500151,10.897128905775137 L 104.88569711548014,7.980565199306178 A 164.02326965890376 164.02326965890376 0 0 1 75.19795679727942,12.310074770796632"/><text text-anchor="middle" pointer-events="none" font-size="8px" fill="#000000" x="64.39427008364567" y="15.029207712510782" font-family="sans-serif">REL</text></g></g><g class="layer nodes"><g class="node" aria-label="graph-node0" transform="translate(-90.74924451182628,-168.13434644993433)"><circle class="outline" cx="0" cy="0" r="25" fill="#D9C8AE" stroke="#c0a378" stroke-width="2px"/><text class="caption" text-anchor="middle" pointer-events="none" x="0" y="5" font-size="10px" fill="#2A2C34" font-family="sans-serif"> A</text></g><g class="node" aria-label="graph-node4" transform="translate(-187.09511956761537,78.42410540428985)"><circle class="outline" cx="0" cy="0" r="25" fill="#D9C8AE" stroke="#c0a378" stroke-width="2px"/><text class="caption" text-anchor="middle" pointer-events="none" x="0" y="5" font-size="10px" fill="#2A2C34" font-family="sans-serif"> E</text></g><g class="node" aria-label="graph-node2" transform="translate(12.009864411334057,-73.59471288833511)"><circle class="outline" cx="0" cy="0" r="25" fill="#D9C8AE" stroke="#c0a378" stroke-width="2px"/><text class="caption" text-anchor="middle" pointer-events="none" x="0" y="5" font-size="10px" fill="#2A2C34" font-family="sans-serif"> C</text></g><g class="node" aria-label="graph-node3" transform="translate(13.17439778803859,62.27890563562601)"><circle class="outline" cx="0" cy="0" r="25" fill="#D9C8AE" stroke="#c0a378" stroke-width="2px"/><text class="caption" text-anchor="middle" pointer-events="none" x="0" y="5" font-size="10px" fill="#2A2C34" font-family="sans-serif"> D</text></g><g class="node" aria-label="graph-node1" transform="translate(-185.73516655444843,-69.81667683164802)"><circle class="outline" cx="0" cy="0" r="25" fill="#D9C8AE" stroke="#c0a378" stroke-width="2px"/><text class="caption" text-anchor="middle" pointer-events="none" x="0" y="5" font-size="10px" fill="#2A2C34" font-family="sans-serif"> B</text></g></g></svg>