<svg width="569" height="670" viewBox="0 0 569 670" fill="none" xmlns="http://www.w3.org/2000/svg">
<path d="M0 317C0 281.654 28.6538 253 64 253C99.3462 253 128 281.654 128 317C128 352.346 99.3462 381 64 381C28.6538 381 0 352.346 0 317Z" fill="#014063"/>
<path d="M60.6407 322V311.878H63.8957C65.1277 311.878 66.0587 312.104 66.6887 312.557C67.3234 313.01 67.6407 313.663 67.6407 314.517C67.6407 315.054 67.5007 315.513 67.2207 315.896C66.9454 316.279 66.46 316.594 65.7647 316.841C66.1614 316.925 66.495 317.046 66.7657 317.205C67.041 317.364 67.2604 317.55 67.4237 317.765C67.5917 317.975 67.7107 318.208 67.7807 318.465C67.8554 318.722 67.8927 318.992 67.8927 319.277C67.8927 320.192 67.566 320.875 66.9127 321.328C66.264 321.776 65.2934 322 64.0007 322H60.6407ZM61.9357 320.922H63.9867C64.8314 320.922 65.473 320.784 65.9117 320.509C66.355 320.229 66.5767 319.8 66.5767 319.221C66.5767 318.796 66.467 318.453 66.2477 318.192C66.033 317.926 65.7414 317.732 65.3727 317.611C65.004 317.49 64.5934 317.429 64.1407 317.429H61.9357V320.922ZM61.9357 316.33H64.1407C64.4067 316.33 64.6704 316.304 64.9317 316.253C65.193 316.202 65.4334 316.113 65.6527 315.987C65.872 315.861 66.0494 315.693 66.1847 315.483C66.32 315.268 66.3877 315 66.3877 314.678C66.3877 314.09 66.1614 313.656 65.7087 313.376C65.2607 313.091 64.6774 312.949 63.9587 312.949H61.9357V316.33Z" fill="white"/>
<path d="M220 64C220 28.6538 248.654 0 284 0C319.346 0 348 28.6538 348 64C348 99.3462 319.346 128 284 128C248.654 128 220 99.3462 220 64Z" fill="#014063"/>
<path d="M279.611 69L283.272 58.878H284.735L288.396 69H287.073L286.079 66.228H281.928L280.927 69H279.611ZM282.271 65.038H285.722L284 60.145L282.271 65.038Z" fill="white"/>
<path d="M441 606C441 570.654 469.654 542 505 542C540.346 542 569 570.654 569 606C569 641.346 540.346 670 505 670C469.654 670 441 641.346 441 606Z" fill="#014063"/>
<path d="M501.483 611V600.878C501.516 600.878 501.614 600.88 501.777 600.885C501.945 600.885 502.148 600.885 502.386 600.885C502.624 600.88 502.872 600.88 503.128 600.885C503.385 600.885 503.621 600.887 503.835 600.892C505.077 600.911 506.082 601.114 506.852 601.501C507.627 601.884 508.194 602.441 508.553 603.174C508.917 603.907 509.099 604.807 509.099 605.876C509.099 606.996 508.903 607.936 508.511 608.697C508.124 609.458 507.531 610.032 506.733 610.419C505.94 610.806 504.93 611 503.702 611H501.483ZM502.813 609.887H503.702C504.538 609.887 505.256 609.759 505.858 609.502C506.46 609.241 506.922 608.818 507.244 608.235C507.571 607.652 507.734 606.872 507.734 605.897C507.734 604.922 507.576 604.149 507.258 603.58C506.946 603.011 506.493 602.605 505.9 602.362C505.308 602.115 504.594 601.991 503.758 601.991H502.813V609.887Z" fill="white"/>
<path d="M130.724 359.88C130.183 359.993 129.836 360.523 129.949 361.063L131.783 369.874C131.896 370.415 132.426 370.762 132.966 370.649C133.507 370.537 133.854 370.007 133.741 369.467L132.111 361.635L139.943 360.004C140.483 359.891 140.83 359.362 140.718 358.821C140.605 358.28 140.076 357.933 139.535 358.046L130.724 359.88ZM146.25 370.901L146.798 370.064L146.25 370.901ZM201.75 407.271L201.202 408.108V408.108L201.75 407.271ZM248.25 437.744L248.798 436.908V436.908L248.25 437.744ZM251.144 440.836C251.606 441.139 252.226 441.01 252.529 440.548C252.831 440.086 252.702 439.466 252.24 439.164L251.692 440L251.144 440.836ZM317.856 482.164C317.394 481.861 316.775 481.99 316.472 482.452C316.169 482.914 316.298 483.534 316.76 483.836L317.308 483L317.856 482.164ZM320.75 485.256L321.298 484.419V484.419L320.75 485.256ZM130.928 360.859L130.38 361.696L145.702 371.737L146.25 370.901L146.798 370.064L131.476 360.023L130.928 360.859ZM146.25 370.901L145.702 371.737L201.202 408.108L201.75 407.271L202.298 406.435L146.798 370.064L146.25 370.901ZM201.75 407.271L201.202 408.108L247.702 438.581L248.25 437.744L248.798 436.908L202.298 406.435L201.75 407.271ZM248.25 437.744L247.702 438.581L251.144 440.836L251.692 440L252.24 439.164L248.798 436.908L248.25 437.744ZM317.308 483L316.76 483.836L320.202 486.092L320.75 485.256L321.298 484.419L317.856 482.164L317.308 483ZM320.75 485.256L320.202 486.092L437.525 562.977L438.073 562.14L438.621 561.304L321.298 484.419L320.75 485.256Z" fill="#FFAA97"/>
<path d="M258.916 468.5L258.916 454.04L261.296 454.04L268.376 464.37L268.376 454.04L270.806 454.04L270.806 468.5L268.616 468.5L261.346 457.89L261.346 468.5L258.916 468.5ZM274.307 468.5L274.307 454.04L283.867 454.04L283.857 456.13L276.757 456.13L276.757 460.18L283.027 460.18L283.027 462.24L276.737 462.24L276.737 466.38L284.007 466.39L284.007 468.5L274.307 468.5ZM286.205 468.5L291.055 461.14L286.365 454.04L289.365 454.04L292.575 459.1L295.765 454.04L298.385 454.04L293.855 460.85L298.925 468.5L295.905 468.5L292.345 462.94L288.845 468.5L286.205 468.5ZM304.625 468.5L304.625 456.23L300.125 456.23L300.125 454.04L311.405 454.04L311.405 456.23L307.065 456.23L307.065 468.5L304.625 468.5Z" fill="#961200"/>
<path d="M0 606C0 570.654 28.6538 542 64 542C99.3462 542 128 570.654 128 606C128 641.346 99.3462 670 64 670C28.6538 670 0 641.346 0 606Z" fill="#014063"/>
<path d="M60.9962 611V600.878H67.3802L67.3732 602.019H62.2982V605.323H66.8692V606.457H62.2912V609.831L67.5132 609.845V611H60.9962Z" fill="white"/>
<path d="M441 317C441 281.654 469.654 253 505 253C540.346 253 569 281.654 569 317C569 352.346 540.346 381 505 381C469.654 381 441 352.346 441 317Z" fill="#014063"/>
<path d="M505.242 322.14C504.332 322.14 503.555 321.932 502.911 321.517C502.271 321.102 501.781 320.504 501.441 319.725C501.105 318.946 500.937 318.005 500.937 316.904C500.937 315.807 501.105 314.874 501.441 314.104C501.777 313.334 502.264 312.748 502.904 312.347C503.548 311.941 504.327 311.738 505.242 311.738C505.956 311.738 506.588 311.887 507.139 312.186C507.689 312.48 508.133 312.874 508.469 313.369C508.805 313.864 509.003 314.407 509.064 315H507.685C507.61 314.603 507.468 314.244 507.258 313.922C507.048 313.6 506.772 313.343 506.432 313.152C506.091 312.961 505.683 312.865 505.207 312.865C504.595 312.865 504.077 313.01 503.653 313.299C503.233 313.584 502.913 314.025 502.694 314.622C502.479 315.219 502.372 315.985 502.372 316.918C502.372 318.327 502.612 319.363 503.093 320.026C503.578 320.684 504.283 321.013 505.207 321.013C505.683 321.013 506.091 320.913 506.432 320.712C506.772 320.511 507.048 320.243 507.258 319.907C507.468 319.571 507.61 319.207 507.685 318.815H509.064C509.012 319.244 508.896 319.66 508.714 320.061C508.536 320.458 508.291 320.812 507.979 321.125C507.666 321.438 507.281 321.685 506.824 321.867C506.371 322.049 505.844 322.14 505.242 322.14Z" fill="white"/>
<path d="M494.11 229.143C494.661 229.169 495.129 228.742 495.154 228.19L495.567 219.2C495.592 218.648 495.165 218.18 494.614 218.155C494.062 218.129 493.594 218.556 493.569 219.108L493.202 227.099L485.211 226.733C484.659 226.708 484.191 227.134 484.166 227.686C484.141 228.238 484.567 228.705 485.119 228.731L494.11 229.143ZM480.101 212.739L480.84 212.065V212.065L480.101 212.739ZM479.427 212L478.688 212.674V212.674L479.427 212ZM464.101 195.2L464.839 194.526V194.526L464.101 195.2ZM448.203 176.289C447.831 175.881 447.198 175.852 446.79 176.225C446.382 176.597 446.353 177.229 446.725 177.637L447.464 176.963L448.203 176.289ZM407.497 134.637C407.869 135.045 408.502 135.074 408.91 134.702C409.318 134.33 409.347 133.697 408.975 133.289L408.236 133.963L407.497 134.637ZM391.601 115.728L390.862 116.402V116.402L391.601 115.728ZM366.749 88.4873L367.488 87.8134V87.8134L366.749 88.4873ZM494.155 228.144L494.894 227.47L480.84 212.065L480.101 212.739L479.362 213.413L493.417 228.818L494.155 228.144ZM480.101 212.739L480.84 212.065L480.166 211.326L479.427 212L478.688 212.674L479.362 213.413L480.101 212.739ZM479.427 212L480.166 211.326L464.839 194.526L464.101 195.2L463.362 195.874L478.688 212.674L479.427 212ZM464.101 195.2L464.839 194.526L448.203 176.289L447.464 176.963L446.725 177.637L463.362 195.874L464.101 195.2ZM408.236 133.963L408.975 133.289L392.339 115.055L391.601 115.728L390.862 116.402L407.497 134.637L408.236 133.963ZM391.601 115.728L392.339 115.055L367.488 87.8134L366.749 88.4873L366.01 89.1613L390.862 116.402L391.601 115.728ZM366.749 88.4873L367.488 87.8134L362.284 82.1088L361.545 82.7827L360.806 83.4567L366.01 89.1613L366.749 88.4873Z" fill="#FFAA97"/>
<path d="M402.268 162.463L402.268 148.003L404.648 148.003L411.728 158.333L411.728 148.003L414.158 148.003L414.158 162.463L411.968 162.463L404.698 151.853L404.698 162.463L402.268 162.463ZM417.658 162.463L417.658 148.003L427.218 148.003L427.208 150.093L420.108 150.093L420.108 154.143L426.378 154.143L426.378 156.203L420.088 156.203L420.088 160.343L427.358 160.353L427.358 162.463L417.658 162.463ZM429.557 162.463L434.407 155.103L429.717 148.003L432.717 148.003L435.927 153.063L439.117 148.003L441.737 148.003L437.207 154.813L442.277 162.463L439.257 162.463L435.697 156.903L432.197 162.463L429.557 162.463ZM447.977 162.463L447.977 150.193L443.477 150.193L443.477 148.003L454.757 148.003L454.757 150.193L450.417 150.193L450.417 162.463L447.977 162.463Z" fill="#961200"/>
<path d="M470.957 435.608C470.957 436.16 471.405 436.608 471.957 436.608C472.509 436.608 472.957 436.16 472.957 435.608L471.957 435.608L470.957 435.608ZM472.957 478.608C472.957 478.055 472.509 477.608 471.957 477.608C471.405 477.608 470.957 478.055 470.957 478.608L471.957 478.608L472.957 478.608ZM471.25 522.125C471.64 522.515 472.274 522.515 472.664 522.125L479.028 515.761C479.419 515.37 479.419 514.737 479.028 514.347C478.638 513.956 478.004 513.956 477.614 514.347L471.957 520.004L466.3 514.347C465.91 513.956 465.276 513.956 464.886 514.347C464.495 514.737 464.495 515.37 464.886 515.761L471.25 522.125ZM471.957 401.558L470.957 401.558L470.957 435.608L471.957 435.608L472.957 435.608L472.957 401.558L471.957 401.558ZM471.957 478.608L470.957 478.608L470.957 521.418L471.957 521.418L472.957 521.418L472.957 478.608L471.957 478.608Z" fill="#1A1B1D"/>
<path d="M454.732 464.107L454.732 449.647L460.602 449.647C461.709 449.647 462.619 449.821 463.332 450.167C464.052 450.507 464.586 450.991 464.932 451.617C465.279 452.237 465.452 452.964 465.452 453.797C465.452 454.571 465.326 455.221 465.072 455.747C464.819 456.267 464.489 456.694 464.082 457.027C463.682 457.354 463.252 457.621 462.792 457.827L465.552 464.107L463.012 464.107L460.522 458.237L457.162 458.237L457.162 464.107L454.732 464.107ZM457.162 456.307L460.052 456.307C460.972 456.307 461.689 456.094 462.202 455.667C462.722 455.241 462.982 454.647 462.982 453.887C462.982 453.141 462.742 452.564 462.262 452.157C461.782 451.751 461.149 451.547 460.362 451.547L457.162 451.547L457.162 456.307ZM468.463 464.107L468.463 449.647L478.023 449.647L478.013 451.737L470.913 451.737L470.913 455.787L477.183 455.787L477.183 457.847L470.893 457.847L470.893 461.987L478.163 461.997L478.163 464.107L468.463 464.107ZM481.139 464.107L481.149 449.647L483.609 449.647L483.609 462.007L490.139 462.007L490.139 464.107L481.139 464.107Z" fill="black" fill-opacity="0.8"/>
<path d="M529.957 435.608C529.957 436.16 530.405 436.608 530.957 436.608C531.509 436.608 531.957 436.16 531.957 435.608L530.957 435.608L529.957 435.608ZM531.957 478.608C531.957 478.055 531.509 477.608 530.957 477.608C530.405 477.608 529.957 478.055 529.957 478.608L530.957 478.608L531.957 478.608ZM530.25 522.125C530.64 522.515 531.274 522.515 531.664 522.125L538.028 515.761C538.419 515.37 538.419 514.737 538.028 514.347C537.638 513.956 537.004 513.956 536.614 514.347L530.957 520.004L525.3 514.347C524.91 513.956 524.276 513.956 523.886 514.347C523.495 514.737 523.495 515.37 523.886 515.761L530.25 522.125ZM530.957 401.558L529.957 401.558L529.957 435.608L530.957 435.608L531.957 435.608L531.957 401.558L530.957 401.558ZM530.957 478.608L529.957 478.608L529.957 521.418L530.957 521.418L531.957 521.418L531.957 478.608L530.957 478.608Z" fill="#FFAA97"/>
<path d="M505.373 464.108L505.373 449.648L507.753 449.648L514.833 459.978L514.833 449.648L517.263 449.648L517.263 464.108L515.073 464.108L507.803 453.498L507.803 464.108L505.373 464.108ZM520.764 464.108L520.764 449.648L530.324 449.648L530.314 451.738L523.214 451.738L523.214 455.788L529.484 455.788L529.484 457.848L523.194 457.848L523.194 461.988L530.464 461.998L530.464 464.108L520.764 464.108ZM532.662 464.108L537.512 456.748L532.822 449.648L535.822 449.648L539.032 454.708L542.222 449.648L544.842 449.648L540.312 456.458L545.382 464.108L542.362 464.108L538.802 458.548L535.302 464.108L532.662 464.108ZM551.082 464.108L551.082 451.838L546.582 451.838L546.582 449.648L557.862 449.648L557.862 451.838L553.522 451.838L553.522 464.108L551.082 464.108Z" fill="#961200"/>
<path d="M31.75 435.049C31.75 435.602 32.1977 436.049 32.75 436.049C33.3023 436.049 33.75 435.602 33.75 435.049L32.75 435.049L31.75 435.049ZM33.75 478.049C33.75 477.497 33.3023 477.049 32.75 477.049C32.1977 477.049 31.75 477.497 31.75 478.049L32.75 478.049L33.75 478.049ZM32.0429 521.567C32.4334 521.957 33.0666 521.957 33.4571 521.567L39.8211 515.203C40.2116 514.812 40.2116 514.179 39.8211 513.789C39.4306 513.398 38.7974 513.398 38.4069 513.789L32.75 519.445L27.0932 513.789C26.7026 513.398 26.0695 513.398 25.6789 513.789C25.2884 514.179 25.2884 514.812 25.6789 515.203L32.0429 521.567ZM32.75 401L31.75 401L31.75 435.049L32.75 435.049L33.75 435.049L33.75 401L32.75 401ZM32.75 478.049L31.75 478.049L31.75 520.86L32.75 520.86L33.75 520.86L33.75 478.049L32.75 478.049Z" fill="#1A1B1D"/>
<path d="M15.5254 463.549L15.5254 449.089L21.3954 449.089C22.5021 449.089 23.4121 449.263 24.1254 449.609C24.8454 449.949 25.3787 450.433 25.7254 451.059C26.0721 451.679 26.2454 452.406 26.2454 453.239C26.2454 454.013 26.1187 454.663 25.8654 455.189C25.6121 455.709 25.2821 456.136 24.8754 456.469C24.4754 456.796 24.0454 457.063 23.5854 457.269L26.3454 463.549L23.8054 463.549L21.3154 457.679L17.9554 457.679L17.9554 463.549L15.5254 463.549ZM17.9554 455.749L20.8454 455.749C21.7654 455.749 22.4821 455.536 22.9954 455.109C23.5154 454.683 23.7754 454.089 23.7754 453.329C23.7754 452.583 23.5354 452.006 23.0554 451.599C22.5754 451.193 21.9421 450.989 21.1554 450.989L17.9554 450.989L17.9554 455.749ZM29.2559 463.549L29.2559 449.089L38.8159 449.089L38.8059 451.179L31.7059 451.179L31.7059 455.229L37.9759 455.229L37.9759 457.289L31.6859 457.289L31.6859 461.429L38.9559 461.439L38.9559 463.549L29.2559 463.549ZM41.9316 463.549L41.9416 449.089L44.4016 449.089L44.4016 461.449L50.9316 461.449L50.9316 463.549L41.9316 463.549Z" fill="black" fill-opacity="0.8"/>
<path d="M90.75 435.049C90.75 435.602 91.1977 436.049 91.75 436.049C92.3023 436.049 92.75 435.602 92.75 435.049L91.75 435.049L90.75 435.049ZM92.75 478.049C92.75 477.497 92.3023 477.049 91.75 477.049C91.1977 477.049 90.75 477.497 90.75 478.049L91.75 478.049L92.75 478.049ZM91.0429 521.567C91.4334 521.957 92.0666 521.957 92.4571 521.567L98.8211 515.203C99.2116 514.812 99.2116 514.179 98.8211 513.789C98.4306 513.398 97.7974 513.398 97.4069 513.789L91.75 519.445L86.0932 513.789C85.7026 513.398 85.0695 513.398 84.6789 513.789C84.2884 514.179 84.2884 514.812 84.6789 515.203L91.0429 521.567ZM91.75 401L90.75 401L90.75 435.049L91.75 435.049L92.75 435.049L92.75 401L91.75 401ZM91.75 478.049L90.75 478.049L90.75 520.86L91.75 520.86L92.75 520.86L92.75 478.049L91.75 478.049Z" fill="#FFAA97"/>
<path d="M66.166 463.549L66.166 449.089L68.546 449.089L75.626 459.419L75.626 449.089L78.056 449.089L78.056 463.549L75.866 463.549L68.596 452.939L68.596 463.549L66.166 463.549ZM81.5566 463.549L81.5566 449.089L91.1166 449.089L91.1066 451.179L84.0066 451.179L84.0066 455.229L90.2766 455.229L90.2766 457.289L83.9866 457.289L83.9866 461.429L91.2566 461.439L91.2566 463.549L81.5566 463.549ZM93.4554 463.549L98.3054 456.189L93.6154 449.089L96.6154 449.089L99.8254 454.149L103.015 449.089L105.635 449.089L101.105 455.899L106.175 463.549L103.155 463.549L99.5954 457.989L96.0954 463.549L93.4554 463.549ZM111.875 463.549L111.875 451.279L107.375 451.279L107.375 449.089L118.655 449.089L118.655 451.279L114.315 451.279L114.315 463.549L111.875 463.549Z" fill="#961200"/>
<path d="M120.952 250.428C120.99 250.979 121.468 251.395 122.019 251.356L130.997 250.73C131.548 250.692 131.963 250.214 131.925 249.663C131.887 249.112 131.409 248.696 130.858 248.735L122.877 249.292L122.32 241.311C122.282 240.76 121.804 240.345 121.253 240.383C120.702 240.422 120.287 240.899 120.325 241.45L120.952 250.428ZM146.25 222.412L145.496 221.756V221.756L146.25 222.412ZM154.649 212.755L153.894 212.098L153.894 212.098L154.649 212.755ZM156.059 212.656C156.422 212.239 156.378 211.608 155.961 211.245C155.544 210.883 154.913 210.927 154.55 211.344L155.305 212L156.059 212.656ZM191.941 168.344C191.579 168.761 191.623 169.392 192.04 169.755C192.457 170.117 193.088 170.073 193.451 169.656L192.696 169L191.941 168.344ZM201.75 158.587L200.996 157.931V157.931L201.75 158.587ZM223.163 133.963L223.917 134.62L223.917 134.62L223.163 133.963ZM121.949 250.359L122.704 251.015L147.005 223.069L146.25 222.412L145.496 221.756L121.195 249.703L121.949 250.359ZM146.25 222.412L147.005 223.069L155.403 213.411L154.649 212.755L153.894 212.098L145.496 221.756L146.25 222.412ZM154.649 212.755L155.403 213.411L156.059 212.656L155.305 212L154.55 211.344L153.894 212.098L154.649 212.755ZM192.696 169L193.451 169.656L202.505 159.244L201.75 158.587L200.996 157.931L191.941 168.344L192.696 169ZM201.75 158.587L202.505 159.244L223.917 134.62L223.163 133.963L222.408 133.307L200.996 157.931L201.75 158.587ZM223.163 133.963L223.917 134.62L226.806 131.297L226.052 130.641L225.297 129.985L222.408 133.307L223.163 133.963Z" fill="#1A1B1D"/>
<path d="M156.775 197.5L156.775 183.04L162.645 183.04C163.752 183.04 164.662 183.213 165.375 183.56C166.095 183.9 166.629 184.383 166.975 185.01C167.322 185.63 167.495 186.357 167.495 187.19C167.495 187.963 167.369 188.613 167.115 189.14C166.862 189.66 166.532 190.087 166.125 190.42C165.725 190.747 165.295 191.013 164.835 191.22L167.595 197.5L165.055 197.5L162.565 191.63L159.205 191.63L159.205 197.5L156.775 197.5ZM159.205 189.7L162.095 189.7C163.015 189.7 163.732 189.487 164.245 189.06C164.765 188.633 165.025 188.04 165.025 187.28C165.025 186.533 164.785 185.957 164.305 185.55C163.825 185.143 163.192 184.94 162.405 184.94L159.205 184.94L159.205 189.7ZM170.506 197.5L170.506 183.04L180.066 183.04L180.056 185.13L172.956 185.13L172.956 189.18L179.226 189.18L179.226 191.24L172.936 191.24L172.936 195.38L180.206 195.39L180.206 197.5L170.506 197.5ZM183.182 197.5L183.192 183.04L185.652 183.04L185.652 195.4L192.182 195.4L192.182 197.5L183.182 197.5Z" fill="black" fill-opacity="0.8"/>
<path d="M446.724 251.362C447.275 251.399 447.752 250.982 447.789 250.431L448.396 241.452C448.433 240.901 448.016 240.424 447.465 240.387C446.914 240.349 446.437 240.766 446.4 241.317L445.861 249.299L437.879 248.76C437.328 248.723 436.852 249.139 436.814 249.69C436.777 250.241 437.194 250.718 437.745 250.755L446.724 251.362ZM422.249 222.268L423.002 221.61V221.61L422.249 222.268ZM414.033 211.342C413.67 210.926 413.038 210.883 412.622 211.247C412.206 211.61 412.164 212.242 412.527 212.658L413.28 212L414.033 211.342ZM375.623 170.411C375.987 170.827 376.618 170.869 377.034 170.506C377.45 170.143 377.493 169.511 377.13 169.095L376.377 169.753L375.623 170.411ZM375.719 169L374.966 169.658L374.966 169.658L375.719 169ZM366.749 158.732L367.502 158.074V158.074L366.749 158.732ZM345.114 133.963L344.36 134.621L345.114 133.963ZM446.792 250.364L447.545 249.706L423.002 221.61L422.249 222.268L421.496 222.926L446.039 251.022L446.792 250.364ZM422.249 222.268L423.002 221.61L414.033 211.342L413.28 212L412.527 212.658L421.496 222.926L422.249 222.268ZM376.377 169.753L377.13 169.095L376.472 168.342L375.719 169L374.966 169.658L375.623 170.411L376.377 169.753ZM375.719 169L376.472 168.342L367.502 158.074L366.749 158.732L365.996 159.39L374.966 169.658L375.719 169ZM366.749 158.732L367.502 158.074L345.867 133.305L345.114 133.963L344.36 134.621L365.996 159.39L366.749 158.732ZM345.114 133.963L345.867 133.305L342.96 129.978L342.207 130.636L341.454 131.294L344.36 134.621L345.114 133.963Z" fill="#1A1B1D"/>
<path d="M377.275 197.5L377.275 183.04L383.145 183.04C384.252 183.04 385.162 183.213 385.875 183.56C386.595 183.9 387.129 184.383 387.475 185.01C387.822 185.63 387.995 186.357 387.995 187.19C387.995 187.963 387.869 188.613 387.615 189.14C387.362 189.66 387.032 190.087 386.625 190.42C386.225 190.747 385.795 191.013 385.335 191.22L388.095 197.5L385.555 197.5L383.065 191.63L379.705 191.63L379.705 197.5L377.275 197.5ZM379.705 189.7L382.595 189.7C383.515 189.7 384.232 189.487 384.745 189.06C385.265 188.633 385.525 188.04 385.525 187.28C385.525 186.533 385.285 185.957 384.805 185.55C384.325 185.143 383.692 184.94 382.905 184.94L379.705 184.94L379.705 189.7ZM391.006 197.5L391.006 183.04L400.566 183.04L400.556 185.13L393.456 185.13L393.456 189.18L399.726 189.18L399.726 191.24L393.436 191.24L393.436 195.38L400.706 195.39L400.706 197.5L391.006 197.5ZM403.682 197.5L403.692 183.04L406.152 183.04L406.152 195.4L412.682 195.4L412.682 197.5L403.682 197.5Z" fill="black" fill-opacity="0.8"/>
</svg>
