<svg xmlns="http://www.w3.org/2000/svg" width="179.37576293945312" height="305.146484375" viewBox="-124.15573120117188 -173.8084259033203 179.37576293945312 305.146484375"><title>Neo4j Graph Visualization</title><desc>Created using Neo4j (http://www.neo4j.com/)</desc><g class="layer relationships"><g class="relationship" transform="translate(-95.15572986416353 -144.8084259190363) rotate(400.1844632421729)"><path class="outline" fill="#F16667" stroke="none" d="M 24.018736134675446,-6.953439040707552 L 24.277555179777966,-5.987513214418485 A 199.91102053785403 199.91102053785403 0 0 1 60.15692926511112,-12.169082229285095 L 60.07758693914495,-13.165929657586076 A 200.91102053785403 200.91102053785403 0 0 0 24.018736134675446,-6.953439040707552 Z M 87.45875993292239,-13.473326968206521 L 87.40181718641979,-12.474949522737745 A 199.91102053785403 199.91102053785403 0 0 1 123.41092663567322,-7.100443320999543 L 122.69972134212848,-4.185964460133685 L 130.32991152661768,-5.926710779539468 L 124.35920036039953,-10.986415135487352 L 123.64799506685479,-8.071936274621494 A 200.91102053785403 200.91102053785403 0 0 0 87.45875993292239,-13.473326968206521"/><text text-anchor="middle" pointer-events="none" font-size="8px" fill="#000000" x="73.76854324685397" y="-10.286687705755014" font-family="sans-serif">NEXT</text></g><g class="relationship" transform="translate(22.96735834707126 -45.041570180135736) rotate(448.73568858946874)"><path class="outline" fill="#F16667" stroke="none" d="M 24.018736134675446,-6.953439040707552 L 24.277555179777966,-5.987513214418485 A 185.75487478158297 185.75487478158297 0 0 1 56.55956898301153,-11.644212983177852 L 56.47453818352675,-12.640591306476267 A 186.75487478158297 186.75487478158297 0 0 0 24.018736134675446,-6.953439040707552 Z M 83.85737466780523,-12.96236685872097 L 83.79578098685113,-11.964265552005799 A 185.75487478158297 185.75487478158297 0 0 1 116.20180597849527,-7.067714550843918 L 115.49365737885017,-4.152491478621025 L 123.12201791362287,-5.901238330375833 L 117.14600411135541,-10.954678647141108 L 116.43785551171031,-8.039455574918215 A 186.75487478158297 186.75487478158297 0 0 0 83.85737466780523,-12.96236685872097"/><text text-anchor="middle" pointer-events="none" font-size="8px" fill="#000000" x="70.16592564097853" y="-9.804098834338788" font-family="sans-serif">NEXT</text></g><g class="relationship" transform="translate(-95.15572986416353 -144.8084259190363) rotate(400.1844632421729)"><path class="outline" fill="#A5ABB6" stroke="none" d="M 24.018736134675446,6.953439040707552 L 24.277555179777966,5.987513214418485 A 199.91102053785403 199.91102053785403 0 0 0 63.028914273693914,12.376869354128075 L 62.963938264306265,13.37475618047867 A 200.91102053785403 200.91102053785403 0 0 1 24.018736134675446,6.953439040707552 Z M 84.56844785653567,13.61730123680016 L 84.52589114056862,12.618207184207478 A 199.91102053785403 199.91102053785403 0 0 0 123.41092663567322,7.100443320999543 L 122.69972134212848,4.185964460133685 L 130.32991152661768,5.926710779539468 L 124.35920036039953,10.986415135487352 L 123.64799506685479,8.071936274621494 A 200.91102053785403 200.91102053785403 0 0 1 84.56844785653567,13.61730123680016"/><text text-anchor="middle" pointer-events="none" font-size="8px" fill="#000000" x="73.76854324685395" y="16.286687705755014" font-family="sans-serif">REL</text></g><g class="relationship" transform="translate(22.96735834707126 -45.041570180135736) rotate(448.73568858946874)"><path class="outline" fill="#A5ABB6" stroke="none" d="M 24.018736134675446,6.953439040707552 L 24.277555179777966,5.987513214418485 A 185.75487478158297 185.75487478158297 0 0 0 59.42989383555708,11.8667752743481 L 59.36031525424919,12.864351748120015 A 186.75487478158297 186.75487478158297 0 0 1 24.018736134675446,6.953439040707552 Z M 80.96713636786117,13.118253377342228 L 80.92101879323803,12.119317358714994 A 185.75487478158297 185.75487478158297 0 0 0 116.20180597849527,7.067714550843918 L 115.49365737885017,4.152491478621025 L 123.12201791362287,5.901238330375833 L 117.14600411135541,10.954678647141108 L 116.43785551171031,8.039455574918215 A 186.75487478158297 186.75487478158297 0 0 1 80.96713636786117,13.118253377342228"/><text text-anchor="middle" pointer-events="none" font-size="8px" fill="#000000" x="70.16592564097859" y="15.804098834338788" font-family="sans-serif">REL</text></g></g><g class="layer nodes"><g class="node" aria-label="graph-node0" transform="translate(-95.15572986416353,-144.8084259190363)"><circle class="outline" cx="0" cy="0" r="25" fill="#D9C8AE" stroke="#c0a378" stroke-width="2px"/><text class="caption" text-anchor="middle" pointer-events="none" x="0" y="5" font-size="10px" fill="#2A2C34" font-family="sans-serif"> A</text></g><g class="node" aria-label="graph-node3" transform="translate(26.220024254339393,102.33808457064784)"><circle class="outline" cx="0" cy="0" r="25" fill="#D9C8AE" stroke="#c0a378" stroke-width="2px"/><text class="caption" text-anchor="middle" pointer-events="none" x="0" y="5" font-size="10px" fill="#2A2C34" font-family="sans-serif"> D</text></g><g class="node" aria-label="graph-node2" transform="translate(22.96735834707126,-45.041570180135736)"><circle class="outline" cx="0" cy="0" r="25" fill="#D9C8AE" stroke="#c0a378" stroke-width="2px"/><text class="caption" text-anchor="middle" pointer-events="none" x="0" y="5" font-size="10px" fill="#2A2C34" font-family="sans-serif"> C</text></g></g></svg>