<svg xmlns="http://www.w3.org/2000/svg" width="245.63436889648438" height="161.4657440185547" viewBox="-206.96311950683594 -113.64222717285156 245.63436889648438 161.4657440185547"><title>Neo4j Graph Visualization</title><desc>Created using Neo4j (http://www.neo4j.com/)</desc><g class="layer relationships"><g class="relationship" transform="translate(-86.66371215908296 -84.6422263067116) rotate(407.043989816939)"><path class="outline" fill="#F16667" stroke="none" d="M 24.018736134675446,-6.953439040707552 L 24.277555179777966,-5.987513214418485 A 173.8529150265516 173.8529150265516 0 0 1 53.54057388695122,-11.198018275256686 L 53.45007539432666,-12.193914867696236 A 174.8529150265516 174.8529150265516 0 0 0 24.018736134675446,-6.953439040707552 Z M 80.83428736184338,-12.528838702675557 L 80.76817301239231,-11.53102664983362 A 173.8529150265516 173.8529150265516 0 0 1 110.14987390964689,-7.037778467320056 L 109.4445212280166,-4.121877646901611 L 117.07120127089497,-5.877939013585782 L 111.09034415182062,-10.925646227877982 L 110.38499147019033,-8.009745407459537 A 174.8529150265516 174.8529150265516 0 0 0 80.83428736184338,-12.528838702675557"/><text text-anchor="middle" pointer-events="none" font-size="8px" fill="#000000" x="67.14172894673003" y="-9.398368706428073" font-family="sans-serif">NEXT</text></g><g class="relationship" transform="translate(9.67124240364004 18.823513884171597) rotate(180.6204779487988)"><path class="outline" fill="#F16667" stroke="none" d="M 25 0.5 L 76.65471460166286 0.5 L 76.65471460166286 -0.5 L 25 -0.5 Z M 103.99065210166286 0.5 L 155.64536670332572 0.5 L 155.64536670332572 3.5 L 162.64536670332572 0 L 155.64536670332572 -3.5 L 155.64536670332572 -0.5 L 103.99065210166286 -0.5 Z"/><text text-anchor="middle" pointer-events="none" font-size="8px" fill="#000000" x="90.32268335166286" y="3" transform="rotate(180 90.32268335166286 0)" font-family="sans-serif">NEXT</text></g><g class="relationship" transform="translate(-86.66371215908296 -84.6422263067116) rotate(407.043989816939)"><path class="outline" fill="#A5ABB6" stroke="none" d="M 24.018736134675446,6.953439040707552 L 24.277555179777966,5.987513214418485 A 173.8529150265516 173.8529150265516 0 0 0 56.40922829971922,11.434770392144287 L 56.33523027481664,12.432028780081197 A 174.8529150265516 174.8529150265516 0 0 1 24.018736134675446,6.953439040707552 Z M 77.94417185646414,12.696317911094155 L 77.8945863450078,11.69754802916259 A 173.8529150265516 173.8529150265516 0 0 0 110.14987390964689,7.037778467320056 L 109.4445212280166,4.121877646901611 L 117.07120127089497,5.877939013585782 L 111.09034415182062,10.925646227877982 L 110.38499147019033,8.009745407459537 A 174.8529150265516 174.8529150265516 0 0 1 77.94417185646414,12.696317911094155"/><text text-anchor="middle" pointer-events="none" font-size="8px" fill="#000000" x="67.14172894673007" y="15.398368706428073" font-family="sans-serif">REL</text></g><g class="relationship" transform="translate(-86.66371215908296 -84.6422263067116) rotate(491.99004678977553)"><path class="outline" fill="#A5ABB6" stroke="none" d="M 25 0.5 L 53.95432881095206 0.5 L 53.95432881095206 -0.5 L 25 -0.5 Z M 75.51682881095206 0.5 L 104.47115762190413 0.5 L 104.47115762190413 3.5 L 111.47115762190413 0 L 104.47115762190413 -3.5 L 104.47115762190413 -0.5 L 75.51682881095206 -0.5 Z"/><text text-anchor="middle" pointer-events="none" font-size="8px" fill="#000000" x="64.73557881095206" y="3" transform="rotate(180 64.73557881095206 0)" font-family="sans-serif">REL</text></g></g><g class="layer nodes"><g class="node" aria-label="graph-node0" transform="translate(-86.66371215908296,-84.6422263067116)"><circle class="outline" cx="0" cy="0" r="25" fill="#D9C8AE" stroke="#c0a378" stroke-width="2px"/><text class="caption" text-anchor="middle" pointer-events="none" x="0" y="5" font-size="10px" fill="#2A2C34" font-family="sans-serif"> A</text></g><g class="node" aria-label="graph-node1" transform="translate(-177.9631213014344,16.791470031931752)"><circle class="outline" cx="0" cy="0" r="25" fill="#D9C8AE" stroke="#c0a378" stroke-width="2px"/><text class="caption" text-anchor="middle" pointer-events="none" x="0" y="5" font-size="10px" fill="#2A2C34" font-family="sans-serif"> B</text></g><g class="node" aria-label="graph-node2" transform="translate(9.67124240364004,18.823513884171597)"><circle class="outline" cx="0" cy="0" r="25" fill="#D9C8AE" stroke="#c0a378" stroke-width="2px"/><text class="caption" text-anchor="middle" pointer-events="none" x="0" y="5" font-size="10px" fill="#2A2C34" font-family="sans-serif"> C</text></g></g></svg>