<svg xmlns="http://www.w3.org/2000/svg" width="414.56903076171875" height="289.125732421875" viewBox="-194.34814453125 -215.95004272460938 414.56903076171875 289.125732421875"><title>Neo4j Graph Visualization</title><desc>Created using Neo4j (http://www.neo4j.com/)</desc><g class="layer relationships"><g class="relationship" transform="translate(-165.34814981433047 -186.95003950066703) rotate(360.4981559613995)"><path class="b-outline" fill="#A5ABB6" stroke="none" d="M 25 0.5 L 53.543546327335974 0.5 L 53.543546327335974 -0.5 L 25 -0.5 Z M 89.76620257733597 0.5 L 118.30974890467195 0.5 L 118.30974890467195 3.5 L 125.30974890467195 0 L 118.30974890467195 -3.5 L 118.30974890467195 -0.5 L 89.76620257733597 -0.5 Z"/><text text-anchor="middle" pointer-events="none" font-size="8px" fill="#000000" x="71.65487445233597" y="3" font-family="Helvetica Neue, Helvetica, Arial, sans-serif">KNOWS</text></g><g class="relationship" transform="translate(-15.044082106235589 -185.64319360846883) rotate(490.147413281265)"><path class="b-outline" fill="#A5ABB6" stroke="none" d="M 25 0.5 L 94.4899067658209 0.5 L 94.4899067658209 -0.5 L 25 -0.5 Z M 130.7125630158209 0.5 L 200.2024697816418 0.5 L 200.2024697816418 3.5 L 207.2024697816418 0 L 200.2024697816418 -3.5 L 200.2024697816418 -0.5 L 130.7125630158209 -0.5 Z"/><text text-anchor="middle" pointer-events="none" font-size="8px" fill="#000000" x="112.6012348908209" y="3" transform="rotate(180 112.6012348908209 0)" font-family="Helvetica Neue, Helvetica, Arial, sans-serif">KNOWS</text></g><g class="relationship" transform="translate(-15.044082106235589 -185.64319360846883) rotate(443.5361167167905)"><path class="b-outline" fill="#A5ABB6" stroke="none" d="M 25 0.5 L 94.03326044873279 0.5 L 94.03326044873279 -0.5 L 25 -0.5 Z M 130.2559166987328 0.5 L 199.28917714746558 0.5 L 199.28917714746558 3.5 L 206.28917714746558 0 L 199.28917714746558 -3.5 L 199.28917714746558 -0.5 L 130.2559166987328 -0.5 Z"/><text text-anchor="middle" pointer-events="none" font-size="8px" fill="#000000" x="112.14458857373279" y="3" font-family="Helvetica Neue, Helvetica, Arial, sans-serif">KNOWS</text></g><g class="relationship" transform="translate(-15.044082106235589 -185.64319360846883) rotate(414.34318853850533)"><path class="b-outline" fill="#A5ABB6" stroke="none" d="M 25 0.5 L 65.2013615311484 0.5 L 65.2013615311484 -0.5 L 25 -0.5 Z M 101.4240177811484 0.5 L 141.6253793122968 0.5 L 141.6253793122968 3.5 L 148.6253793122968 0 L 141.6253793122968 -3.5 L 141.6253793122968 -0.5 L 101.4240177811484 -0.5 Z"/><text text-anchor="middle" pointer-events="none" font-size="8px" fill="#000000" x="83.3126896561484" y="3" font-family="Helvetica Neue, Helvetica, Arial, sans-serif">KNOWS</text></g><g class="relationship" transform="translate(191.22086745376177 -24.894106651153507) rotate(217.9304636204198)"><path class="b-outline" fill="#A5ABB6" stroke="none" d="M 25 0.5 L 109.14177735876927 0.5 L 109.14177735876927 -0.5 L 25 -0.5 Z M 145.36443360876927 0.5 L 229.50621096753855 0.5 L 229.50621096753855 3.5 L 236.50621096753855 0 L 229.50621096753855 -3.5 L 229.50621096753855 -0.5 L 145.36443360876927 -0.5 Z"/><text text-anchor="middle" pointer-events="none" font-size="8px" fill="#000000" x="127.25310548376927" y="3" transform="rotate(180 127.25310548376927 0)" font-family="Helvetica Neue, Helvetica, Arial, sans-serif">KNOWS</text></g><g class="relationship" transform="translate(191.22086745376177 -24.894106651153507) rotate(519.0312961745149)"><path class="b-outline" fill="#A5ABB6" stroke="none" d="M 25 0.5 L 74.89314778714424 0.5 L 74.89314778714424 -0.5 L 25 -0.5 Z M 111.11580403714424 0.5 L 161.0089518242885 0.5 L 161.0089518242885 3.5 L 168.0089518242885 0 L 161.0089518242885 -3.5 L 161.0089518242885 -0.5 L 111.11580403714424 -0.5 Z"/><text text-anchor="middle" pointer-events="none" font-size="8px" fill="#000000" x="93.00447591214424" y="3" transform="rotate(180 93.00447591214424 0)" font-family="Helvetica Neue, Helvetica, Arial, sans-serif">KNOWS</text></g><g class="relationship" transform="translate(156.85760760558873 -183.13643139100628) rotate(180.83545843019795)"><path class="b-outline" fill="#A5ABB6" stroke="none" d="M 25 0.5 L 64.34865498137808 0.5 L 64.34865498137808 -0.5 L 25 -0.5 Z M 100.57131123137808 0.5 L 139.91996621275615 0.5 L 139.91996621275615 3.5 L 146.91996621275615 0 L 139.91996621275615 -3.5 L 139.91996621275615 -0.5 L 100.57131123137808 -0.5 Z"/><text text-anchor="middle" pointer-events="none" font-size="8px" fill="#000000" x="82.45998310637808" y="3" transform="rotate(180 82.45998310637808 0)" font-family="Helvetica Neue, Helvetica, Arial, sans-serif">KNOWS</text></g><g class="relationship" transform="translate(156.85760760558873 -183.13643139100628) rotate(437.7481040596733)"><path class="b-outline" fill="#A5ABB6" stroke="none" d="M 25 0.5 L 59.35389120785008 0.5 L 59.35389120785008 -0.5 L 25 -0.5 Z M 95.57654745785008 0.5 L 129.93043866570017 0.5 L 129.93043866570017 3.5 L 136.93043866570017 0 L 129.93043866570017 -3.5 L 129.93043866570017 -0.5 L 95.57654745785008 -0.5 Z"/><text text-anchor="middle" pointer-events="none" font-size="8px" fill="#000000" x="77.46521933285008" y="3" font-family="Helvetica Neue, Helvetica, Arial, sans-serif">KNOWS</text></g><g class="relationship" transform="translate(86.16717127015781 -44.56855190657248) rotate(490.2672575556611)"><path class="b-outline" fill="#A5ABB6" stroke="none" d="M 25 0.5 L 36.54059530045442 0.5 L 36.54059530045442 -0.5 L 25 -0.5 Z M 72.76325155045441 0.5 L 84.30384685090884 0.5 L 84.30384685090884 3.5 L 91.30384685090884 0 L 84.30384685090884 -3.5 L 84.30384685090884 -0.5 L 72.76325155045441 -0.5 Z"/><text text-anchor="middle" pointer-events="none" font-size="8px" fill="#000000" x="54.65192342545442" y="3" transform="rotate(180 54.65192342545442 0)" font-family="Helvetica Neue, Helvetica, Arial, sans-serif">KNOWS</text></g><g class="relationship" transform="translate(-63.66306533824776 -47.61080416718215) rotate(410.8759686774525)"><path class="b-outline" fill="#A5ABB6" stroke="none" d="M 25 0.5 L 37.546081990189705 0.5 L 37.546081990189705 -0.5 L 25 -0.5 Z M 73.7687382401897 0.5 L 86.31482023037941 0.5 L 86.31482023037941 3.5 L 93.31482023037941 0 L 86.31482023037941 -3.5 L 86.31482023037941 -0.5 L 73.7687382401897 -0.5 Z"/><text text-anchor="middle" pointer-events="none" font-size="8px" fill="#000000" x="55.657410115189705" y="3" font-family="Helvetica Neue, Helvetica, Arial, sans-serif">KNOWS</text></g><g class="relationship" transform="translate(-164.75810949592395 -8.150385372602774) rotate(338.67781160245886)"><path class="b-outline" fill="#A5ABB6" stroke="none" d="M 25 0.5 L 32.65038168193036 0.5 L 32.65038168193036 -0.5 L 25 -0.5 Z M 68.87303793193036 0.5 L 76.52341961386072 0.5 L 76.52341961386072 3.5 L 83.52341961386072 0 L 76.52341961386072 -3.5 L 76.52341961386072 -0.5 L 68.87303793193036 -0.5 Z"/><text text-anchor="middle" pointer-events="none" font-size="8px" fill="#000000" x="50.76170980693036" y="3" font-family="Helvetica Neue, Helvetica, Arial, sans-serif">KNOWS</text></g><g class="relationship" transform="translate(10.993733618669491 44.17568206937358) rotate(196.57968905133316)"><path class="b-outline" fill="#A5ABB6" stroke="none" d="M 25 0.5 L 70.07663140638957 0.5 L 70.07663140638957 -0.5 L 25 -0.5 Z M 106.29928765638957 0.5 L 151.37591906277913 0.5 L 151.37591906277913 3.5 L 158.37591906277913 0 L 151.37591906277913 -3.5 L 151.37591906277913 -0.5 L 106.29928765638957 -0.5 Z"/><text text-anchor="middle" pointer-events="none" font-size="8px" fill="#000000" x="88.18795953138957" y="3" transform="rotate(180 88.18795953138957 0)" font-family="Helvetica Neue, Helvetica, Arial, sans-serif">KNOWS</text></g></g><g class="layer nodes"><g class="node" aria-label="graph-node3500" transform="translate(-165.34814981433047,-186.95003950066703)"><circle class="b-outline" cx="0" cy="0" r="25" fill="#F79767" stroke="#f36924" stroke-width="2px"/><text class="caption" text-anchor="middle" pointer-events="none" x="0" y="5" font-size="10px" fill="#FFFFFF" font-family="Helvetica Neue, Helvetica, Arial, sans-serif"> Alice</text></g><g class="node" aria-label="graph-node3501" transform="translate(-15.044082106235589,-185.64319360846883)"><circle class="b-outline" cx="0" cy="0" r="25" fill="#F79767" stroke="#f36924" stroke-width="2px"/><text class="caption" text-anchor="middle" pointer-events="none" x="0" y="5" font-size="10px" fill="#FFFFFF" font-family="Helvetica Neue, Helvetica, Arial, sans-serif"> Michael</text></g><g class="node" aria-label="graph-node3502" transform="translate(-164.75810949592395,-8.150385372602774)"><circle class="b-outline" cx="0" cy="0" r="25" fill="#F79767" stroke="#f36924" stroke-width="2px"/><text class="caption" text-anchor="middle" pointer-events="none" x="0" y="5" font-size="10px" fill="#FFFFFF" font-family="Helvetica Neue, Helvetica, Arial, sans-serif"> Karin</text></g><g class="node" aria-label="graph-node3503" transform="translate(10.993733618669491,44.17568206937358)"><circle class="b-outline" cx="0" cy="0" r="25" fill="#F79767" stroke="#f36924" stroke-width="2px"/><text class="caption" text-anchor="middle" pointer-events="none" x="0" y="5" font-size="10px" fill="#FFFFFF" font-family="Helvetica Neue, Helvetica, Arial, sans-serif"> Chris</text></g><g class="node" aria-label="graph-node3504" transform="translate(191.22086745376177,-24.894106651153507)"><circle class="b-outline" cx="0" cy="0" r="25" fill="#F79767" stroke="#f36924" stroke-width="2px"/><text class="caption" text-anchor="middle" pointer-events="none" x="0" y="5" font-size="10px" fill="#FFFFFF" font-family="Helvetica Neue, Helvetica, Arial, sans-serif"> Will</text></g><g class="node" aria-label="graph-node3505" transform="translate(156.85760760558873,-183.13643139100628)"><circle class="b-outline" cx="0" cy="0" r="25" fill="#F79767" stroke="#f36924" stroke-width="2px"/><text class="caption" text-anchor="middle" pointer-events="none" x="0" y="5" font-size="10px" fill="#FFFFFF" font-family="Helvetica Neue, Helvetica, Arial, sans-serif"> Mark</text></g><g class="node" aria-label="graph-node3506" transform="translate(86.16717127015781,-44.56855190657248)"><circle class="b-outline" cx="0" cy="0" r="25" fill="#F79767" stroke="#f36924" stroke-width="2px"/><text class="caption" text-anchor="middle" pointer-events="none" x="0" y="5" font-size="10px" fill="#FFFFFF" font-family="Helvetica Neue, Helvetica, Arial, sans-serif"> Greg</text></g><g class="node" aria-label="graph-node3507" transform="translate(-63.66306533824776,-47.61080416718215)"><circle class="b-outline" cx="0" cy="0" r="25" fill="#F79767" stroke="#f36924" stroke-width="2px"/><text class="caption" text-anchor="middle" pointer-events="none" x="0" y="5" font-size="10px" fill="#FFFFFF" font-family="Helvetica Neue, Helvetica, Arial, sans-serif"> Veselin</text></g></g></svg>