<svg width="430" height="303" viewBox="0 0 430 303" fill="none" xmlns="http://www.w3.org/2000/svg">
<path d="M3.14136 211V203.392H0.0693623V202.54H7.20936V203.392H4.13736V211H3.14136ZM7.23805 211V205.168H8.18605V206.212C8.49805 205.508 9.13805 205.12 10.1061 205.048L10.454 205.012L10.5261 205.852L9.91405 205.924C9.36205 205.972 8.94205 206.148 8.65405 206.452C8.36605 206.748 8.22205 207.156 8.22205 207.676V211H7.23805ZM13.3162 211.108C12.9162 211.108 12.5562 211.032 12.2362 210.88C11.9242 210.72 11.6762 210.504 11.4922 210.232C11.3082 209.96 11.2162 209.656 11.2162 209.32C11.2162 208.896 11.3242 208.56 11.5402 208.312C11.7642 208.064 12.1282 207.888 12.6322 207.784C13.1442 207.672 13.8402 207.616 14.7202 207.616H15.1042V207.244C15.1042 206.748 15.0002 206.392 14.7922 206.176C14.5922 205.952 14.2682 205.84 13.8202 205.84C13.4682 205.84 13.1282 205.892 12.8002 205.996C12.4722 206.092 12.1362 206.252 11.7922 206.476L11.4562 205.768C11.7602 205.552 12.1282 205.38 12.5602 205.252C13.0002 205.124 13.4202 205.06 13.8202 205.06C14.5722 205.06 15.1282 205.244 15.4882 205.612C15.8562 205.98 16.0402 206.552 16.0402 207.328V211H15.1282V209.992C14.9762 210.336 14.7402 210.608 14.4202 210.808C14.1082 211.008 13.7402 211.108 13.3162 211.108ZM13.4722 210.376C13.9522 210.376 14.3442 210.212 14.6482 209.884C14.9522 209.548 15.1042 209.124 15.1042 208.612V208.252H14.7322C14.0842 208.252 13.5722 208.284 13.1962 208.348C12.8282 208.404 12.5682 208.508 12.4162 208.66C12.2722 208.804 12.2002 209.004 12.2002 209.26C12.2002 209.588 12.3122 209.856 12.5362 210.064C12.7682 210.272 13.0802 210.376 13.4722 210.376ZM17.7235 203.716V202.624H18.9235V203.716H17.7235ZM17.8435 211V205.168H18.8155V211H17.8435ZM20.6326 211V205.168H21.5806V206.164C21.7726 205.796 22.0446 205.52 22.3966 205.336C22.7486 205.152 23.1446 205.06 23.5846 205.06C24.9686 205.06 25.6606 205.828 25.6606 207.364V211H24.6886V207.424C24.6886 206.88 24.5806 206.484 24.3646 206.236C24.1566 205.98 23.8206 205.852 23.3566 205.852C22.8206 205.852 22.3926 206.02 22.0726 206.356C21.7606 206.684 21.6046 207.124 21.6046 207.676V211H20.6326ZM27.3329 203.716V202.624H28.5329V203.716H27.3329ZM27.4529 211V205.168H28.4249V211H27.4529ZM30.242 211V205.168H31.19V206.164C31.382 205.796 31.654 205.52 32.006 205.336C32.358 205.152 32.754 205.06 33.194 205.06C34.578 205.06 35.27 205.828 35.27 207.364V211H34.298V207.424C34.298 206.88 34.19 206.484 33.974 206.236C33.766 205.98 33.43 205.852 32.966 205.852C32.43 205.852 32.002 206.02 31.682 206.356C31.37 206.684 31.214 207.124 31.214 207.676V211H30.242ZM39.6423 213.268C39.1383 213.268 38.6623 213.2 38.2143 213.064C37.7743 212.936 37.3823 212.74 37.0383 212.476L37.3623 211.768C37.7223 212.024 38.0783 212.208 38.4303 212.32C38.7903 212.432 39.1783 212.488 39.5943 212.488C40.7463 212.488 41.3223 211.896 41.3223 210.712V209.68C41.1543 210.048 40.8903 210.34 40.5303 210.556C40.1783 210.764 39.7743 210.868 39.3183 210.868C38.7823 210.868 38.3183 210.744 37.9263 210.496C37.5343 210.248 37.2303 209.908 37.0143 209.476C36.8063 209.036 36.7023 208.528 36.7023 207.952C36.7023 207.376 36.8063 206.872 37.0143 206.44C37.2303 206 37.5343 205.66 37.9263 205.42C38.3183 205.18 38.7823 205.06 39.3183 205.06C39.7743 205.06 40.1783 205.164 40.5303 205.372C40.8903 205.58 41.1543 205.864 41.3223 206.224V205.168H42.2703V210.58C42.2703 211.476 42.0463 212.148 41.5983 212.596C41.1583 213.044 40.5063 213.268 39.6423 213.268ZM39.4983 210.076C40.0583 210.076 40.5023 209.884 40.8303 209.5C41.1583 209.116 41.3223 208.6 41.3223 207.952C41.3223 207.304 41.1583 206.792 40.8303 206.416C40.5023 206.032 40.0583 205.84 39.4983 205.84C38.9463 205.84 38.5063 206.032 38.1783 206.416C37.8503 206.792 37.6863 207.304 37.6863 207.952C37.6863 208.6 37.8503 209.116 38.1783 209.5C38.5063 209.884 38.9463 210.076 39.4983 210.076ZM47.1755 213.16V205.168H48.1235V206.212C48.2995 205.852 48.5595 205.572 48.9035 205.372C49.2555 205.164 49.6635 205.06 50.1276 205.06C50.6476 205.06 51.0996 205.184 51.4836 205.432C51.8756 205.672 52.1756 206.02 52.3836 206.476C52.5996 206.924 52.7075 207.46 52.7075 208.084C52.7075 208.7 52.5996 209.236 52.3836 209.692C52.1756 210.14 51.8756 210.488 51.4836 210.736C51.0996 210.984 50.6476 211.108 50.1276 211.108C49.6795 211.108 49.2795 211.008 48.9276 210.808C48.5755 210.608 48.3155 210.332 48.1475 209.98V213.16H47.1755ZM49.9235 210.328C50.4676 210.328 50.9036 210.136 51.2316 209.752C51.5596 209.36 51.7235 208.804 51.7235 208.084C51.7235 207.356 51.5596 206.8 51.2316 206.416C50.9036 206.032 50.4676 205.84 49.9235 205.84C49.3795 205.84 48.9435 206.032 48.6155 206.416C48.2875 206.8 48.1235 207.356 48.1235 208.084C48.1235 208.804 48.2875 209.36 48.6155 209.752C48.9435 210.136 49.3795 210.328 49.9235 210.328ZM54.0516 203.716V202.624H55.2516V203.716H54.0516ZM54.1716 211V205.168H55.1436V211H54.1716ZM56.9607 213.16V205.168H57.9087V206.212C58.0847 205.852 58.3447 205.572 58.6887 205.372C59.0407 205.164 59.4487 205.06 59.9127 205.06C60.4327 205.06 60.8847 205.184 61.2687 205.432C61.6607 205.672 61.9607 206.02 62.1687 206.476C62.3847 206.924 62.4927 207.46 62.4927 208.084C62.4927 208.7 62.3847 209.236 62.1687 209.692C61.9607 210.14 61.6607 210.488 61.2687 210.736C60.8847 210.984 60.4327 211.108 59.9127 211.108C59.4647 211.108 59.0647 211.008 58.7127 210.808C58.3607 210.608 58.1007 210.332 57.9327 209.98V213.16H56.9607ZM59.7087 210.328C60.2527 210.328 60.6887 210.136 61.0167 209.752C61.3447 209.36 61.5087 208.804 61.5087 208.084C61.5087 207.356 61.3447 206.8 61.0167 206.416C60.6887 206.032 60.2527 205.84 59.7087 205.84C59.1647 205.84 58.7287 206.032 58.4007 206.416C58.0727 206.8 57.9087 207.356 57.9087 208.084C57.9087 208.804 58.0727 209.36 58.4007 209.752C58.7287 210.136 59.1647 210.328 59.7087 210.328ZM66.5848 211.108C65.6648 211.108 64.9368 210.84 64.4008 210.304C63.8648 209.76 63.5968 209.024 63.5968 208.096C63.5968 207.496 63.7168 206.968 63.9568 206.512C64.1968 206.048 64.5248 205.692 64.9408 205.444C65.3648 205.188 65.8528 205.06 66.4048 205.06C67.1968 205.06 67.8168 205.316 68.2648 205.828C68.7128 206.332 68.9368 207.028 68.9368 207.916V208.288H64.5448C64.5768 208.952 64.7688 209.46 65.1208 209.812C65.4728 210.156 65.9608 210.328 66.5848 210.328C66.9368 210.328 67.2728 210.276 67.5928 210.172C67.9128 210.06 68.2168 209.88 68.5048 209.632L68.8408 210.316C68.5768 210.564 68.2408 210.76 67.8328 210.904C67.4248 211.04 67.0088 211.108 66.5848 211.108ZM66.4288 205.78C65.8768 205.78 65.4408 205.952 65.1208 206.296C64.8008 206.64 64.6128 207.092 64.5568 207.652H68.0968C68.0728 207.06 67.9168 206.6 67.6288 206.272C67.3488 205.944 66.9488 205.78 66.4288 205.78ZM72.1315 211.108C71.5395 211.108 71.0915 210.936 70.7875 210.592C70.4915 210.24 70.3435 209.732 70.3435 209.068V202.54H71.3155V208.996C71.3155 209.852 71.6555 210.28 72.3355 210.28C72.5355 210.28 72.7155 210.256 72.8755 210.208L72.8515 211.024C72.6035 211.08 72.3635 211.108 72.1315 211.108ZM73.7743 203.716V202.624H74.9743V203.716H73.7743ZM73.8943 211V205.168H74.8663V211H73.8943ZM76.6834 211V205.168H77.6314V206.164C77.8234 205.796 78.0954 205.52 78.4474 205.336C78.7994 205.152 79.1954 205.06 79.6354 205.06C81.0194 205.06 81.7114 205.828 81.7114 207.364V211H80.7394V207.424C80.7394 206.88 80.6314 206.484 80.4154 206.236C80.2074 205.98 79.8714 205.852 79.4074 205.852C78.8714 205.852 78.4434 206.02 78.1234 206.356C77.8114 206.684 77.6554 207.124 77.6554 207.676V211H76.6834ZM86.1317 211.108C85.2117 211.108 84.4837 210.84 83.9477 210.304C83.4117 209.76 83.1437 209.024 83.1437 208.096C83.1437 207.496 83.2637 206.968 83.5037 206.512C83.7437 206.048 84.0717 205.692 84.4877 205.444C84.9117 205.188 85.3997 205.06 85.9517 205.06C86.7437 205.06 87.3637 205.316 87.8117 205.828C88.2597 206.332 88.4837 207.028 88.4837 207.916V208.288H84.0917C84.1237 208.952 84.3157 209.46 84.6677 209.812C85.0197 210.156 85.5077 210.328 86.1317 210.328C86.4837 210.328 86.8197 210.276 87.1397 210.172C87.4597 210.06 87.7637 209.88 88.0517 209.632L88.3877 210.316C88.1237 210.564 87.7877 210.76 87.3797 210.904C86.9717 211.04 86.5557 211.108 86.1317 211.108ZM85.9757 205.78C85.4237 205.78 84.9877 205.952 84.6677 206.296C84.3477 206.64 84.1597 207.092 84.1037 207.652H87.6437C87.6197 207.06 87.4637 206.6 87.1757 206.272C86.8957 205.944 86.4957 205.78 85.9757 205.78Z" fill="#006FD6"/>
<path d="M173.407 197V188.54H176.755C177.667 188.54 178.363 188.76 178.843 189.2C179.331 189.64 179.575 190.268 179.575 191.084C179.575 191.892 179.331 192.52 178.843 192.968C178.363 193.408 177.667 193.628 176.755 193.628H174.391V197H173.407ZM174.391 192.8H176.635C177.947 192.8 178.603 192.228 178.603 191.084C178.603 189.932 177.947 189.356 176.635 189.356H174.391V192.8ZM180.749 189.716V188.624H181.949V189.716H180.749ZM180.869 197V191.168H181.841V197H180.869ZM183.658 199.16V191.168H184.606V192.212C184.782 191.852 185.042 191.572 185.386 191.372C185.738 191.164 186.146 191.06 186.61 191.06C187.13 191.06 187.582 191.184 187.966 191.432C188.358 191.672 188.658 192.02 188.866 192.476C189.082 192.924 189.19 193.46 189.19 194.084C189.19 194.7 189.082 195.236 188.866 195.692C188.658 196.14 188.358 196.488 187.966 196.736C187.582 196.984 187.13 197.108 186.61 197.108C186.162 197.108 185.762 197.008 185.41 196.808C185.058 196.608 184.798 196.332 184.63 195.98V199.16H183.658ZM186.406 196.328C186.95 196.328 187.386 196.136 187.714 195.752C188.042 195.36 188.206 194.804 188.206 194.084C188.206 193.356 188.042 192.8 187.714 192.416C187.386 192.032 186.95 191.84 186.406 191.84C185.862 191.84 185.426 192.032 185.098 192.416C184.77 192.8 184.606 193.356 184.606 194.084C184.606 194.804 184.77 195.36 185.098 195.752C185.426 196.136 185.862 196.328 186.406 196.328ZM193.282 197.108C192.362 197.108 191.634 196.84 191.098 196.304C190.562 195.76 190.294 195.024 190.294 194.096C190.294 193.496 190.414 192.968 190.654 192.512C190.894 192.048 191.222 191.692 191.638 191.444C192.062 191.188 192.55 191.06 193.102 191.06C193.894 191.06 194.514 191.316 194.962 191.828C195.41 192.332 195.634 193.028 195.634 193.916V194.288H191.242C191.274 194.952 191.466 195.46 191.818 195.812C192.17 196.156 192.658 196.328 193.282 196.328C193.634 196.328 193.97 196.276 194.29 196.172C194.61 196.06 194.914 195.88 195.202 195.632L195.538 196.316C195.274 196.564 194.938 196.76 194.53 196.904C194.122 197.04 193.706 197.108 193.282 197.108ZM193.126 191.78C192.574 191.78 192.138 191.952 191.818 192.296C191.498 192.64 191.31 193.092 191.254 193.652H194.794C194.77 193.06 194.614 192.6 194.326 192.272C194.046 191.944 193.646 191.78 193.126 191.78ZM198.829 197.108C198.237 197.108 197.789 196.936 197.485 196.592C197.189 196.24 197.041 195.732 197.041 195.068V188.54H198.013V194.996C198.013 195.852 198.353 196.28 199.033 196.28C199.233 196.28 199.413 196.256 199.573 196.208L199.549 197.024C199.301 197.08 199.061 197.108 198.829 197.108ZM200.472 189.716V188.624H201.672V189.716H200.472ZM200.592 197V191.168H201.564V197H200.592ZM203.381 197V191.168H204.329V192.164C204.521 191.796 204.793 191.52 205.145 191.336C205.497 191.152 205.893 191.06 206.333 191.06C207.717 191.06 208.409 191.828 208.409 193.364V197H207.437V193.424C207.437 192.88 207.329 192.484 207.113 192.236C206.905 191.98 206.569 191.852 206.105 191.852C205.569 191.852 205.141 192.02 204.821 192.356C204.509 192.684 204.353 193.124 204.353 193.676V197H203.381ZM212.829 197.108C211.909 197.108 211.181 196.84 210.645 196.304C210.109 195.76 209.841 195.024 209.841 194.096C209.841 193.496 209.961 192.968 210.201 192.512C210.441 192.048 210.769 191.692 211.185 191.444C211.609 191.188 212.097 191.06 212.649 191.06C213.441 191.06 214.061 191.316 214.509 191.828C214.957 192.332 215.181 193.028 215.181 193.916V194.288H210.789C210.821 194.952 211.013 195.46 211.365 195.812C211.717 196.156 212.205 196.328 212.829 196.328C213.181 196.328 213.517 196.276 213.837 196.172C214.157 196.06 214.461 195.88 214.749 195.632L215.085 196.316C214.821 196.564 214.485 196.76 214.077 196.904C213.669 197.04 213.253 197.108 212.829 197.108ZM212.673 191.78C212.121 191.78 211.685 191.952 211.365 192.296C211.045 192.64 210.857 193.092 210.801 193.652H214.341C214.317 193.06 214.161 192.6 213.873 192.272C213.593 191.944 213.193 191.78 212.673 191.78ZM219.694 197V191.168H220.642V192.152C220.818 191.8 221.062 191.532 221.374 191.348C221.686 191.156 222.05 191.06 222.466 191.06C223.378 191.06 223.962 191.456 224.218 192.248C224.394 191.88 224.654 191.592 224.998 191.384C225.342 191.168 225.738 191.06 226.186 191.06C227.482 191.06 228.13 191.828 228.13 193.364V197H227.158V193.412C227.158 192.876 227.062 192.484 226.87 192.236C226.686 191.98 226.378 191.852 225.946 191.852C225.474 191.852 225.098 192.02 224.818 192.356C224.538 192.692 224.398 193.14 224.398 193.7V197H223.426V193.412C223.426 192.876 223.33 192.484 223.138 192.236C222.954 191.98 222.646 191.852 222.214 191.852C221.734 191.852 221.354 192.02 221.074 192.356C220.802 192.692 220.666 193.14 220.666 193.7V197H219.694ZM232.371 197.108C231.803 197.108 231.311 196.984 230.895 196.736C230.479 196.488 230.155 196.14 229.923 195.692C229.699 195.236 229.587 194.7 229.587 194.084C229.587 193.468 229.699 192.936 229.923 192.488C230.155 192.032 230.479 191.68 230.895 191.432C231.311 191.184 231.803 191.06 232.371 191.06C232.931 191.06 233.419 191.184 233.835 191.432C234.259 191.68 234.583 192.032 234.807 192.488C235.039 192.936 235.155 193.468 235.155 194.084C235.155 194.7 235.039 195.236 234.807 195.692C234.583 196.14 234.259 196.488 233.835 196.736C233.419 196.984 232.931 197.108 232.371 197.108ZM232.371 196.328C232.915 196.328 233.351 196.136 233.679 195.752C234.007 195.36 234.171 194.804 234.171 194.084C234.171 193.356 234.007 192.8 233.679 192.416C233.351 192.032 232.915 191.84 232.371 191.84C231.819 191.84 231.379 192.032 231.051 192.416C230.731 192.8 230.571 193.356 230.571 194.084C230.571 194.804 230.731 195.36 231.051 195.752C231.379 196.136 231.819 196.328 232.371 196.328ZM238.835 197.108C238.315 197.108 237.859 196.984 237.467 196.736C237.083 196.488 236.783 196.14 236.567 195.692C236.359 195.236 236.255 194.7 236.255 194.084C236.255 193.46 236.359 192.924 236.567 192.476C236.783 192.02 237.083 191.672 237.467 191.432C237.859 191.184 238.315 191.06 238.835 191.06C239.291 191.06 239.691 191.16 240.035 191.36C240.387 191.56 240.647 191.836 240.815 192.188V188.54H241.787V197H240.839V195.932C240.671 196.3 240.411 196.588 240.059 196.796C239.707 197.004 239.299 197.108 238.835 197.108ZM239.039 196.328C239.583 196.328 240.019 196.136 240.347 195.752C240.675 195.36 240.839 194.804 240.839 194.084C240.839 193.356 240.675 192.8 240.347 192.416C240.019 192.032 239.583 191.84 239.039 191.84C238.487 191.84 238.047 192.032 237.719 192.416C237.399 192.8 237.239 193.356 237.239 194.084C237.239 194.804 237.399 195.36 237.719 195.752C238.047 196.136 238.487 196.328 239.039 196.328ZM246.239 197.108C245.319 197.108 244.591 196.84 244.055 196.304C243.519 195.76 243.251 195.024 243.251 194.096C243.251 193.496 243.371 192.968 243.611 192.512C243.851 192.048 244.179 191.692 244.595 191.444C245.019 191.188 245.507 191.06 246.059 191.06C246.851 191.06 247.471 191.316 247.919 191.828C248.367 192.332 248.591 193.028 248.591 193.916V194.288H244.199C244.231 194.952 244.423 195.46 244.775 195.812C245.127 196.156 245.615 196.328 246.239 196.328C246.591 196.328 246.927 196.276 247.247 196.172C247.567 196.06 247.871 195.88 248.159 195.632L248.495 196.316C248.231 196.564 247.895 196.76 247.487 196.904C247.079 197.04 246.663 197.108 246.239 197.108ZM246.083 191.78C245.531 191.78 245.095 191.952 244.775 192.296C244.455 192.64 244.267 193.092 244.211 193.652H247.751C247.727 193.06 247.571 192.6 247.283 192.272C247.003 191.944 246.603 191.78 246.083 191.78ZM251.786 197.108C251.194 197.108 250.746 196.936 250.442 196.592C250.146 196.24 249.998 195.732 249.998 195.068V188.54H250.97V194.996C250.97 195.852 251.31 196.28 251.99 196.28C252.19 196.28 252.37 196.256 252.53 196.208L252.506 197.024C252.258 197.08 252.018 197.108 251.786 197.108Z" fill="#151E29"/>
<path d="M8.27222 77V69.392H5.20022V68.54H12.3402V69.392H9.26822V77H8.27222ZM12.3689 77V71.168H13.3169V72.212C13.6289 71.508 14.2689 71.12 15.2369 71.048L15.5849 71.012L15.6569 71.852L15.0449 71.924C14.4929 71.972 14.0729 72.148 13.7849 72.452C13.4969 72.748 13.3529 73.156 13.3529 73.676V77H12.3689ZM18.4471 77.108C18.0471 77.108 17.6871 77.032 17.3671 76.88C17.0551 76.72 16.8071 76.504 16.6231 76.232C16.4391 75.96 16.3471 75.656 16.3471 75.32C16.3471 74.896 16.4551 74.56 16.6711 74.312C16.8951 74.064 17.2591 73.888 17.7631 73.784C18.2751 73.672 18.9711 73.616 19.8511 73.616H20.2351V73.244C20.2351 72.748 20.1311 72.392 19.9231 72.176C19.7231 71.952 19.3991 71.84 18.9511 71.84C18.5991 71.84 18.2591 71.892 17.9311 71.996C17.6031 72.092 17.2671 72.252 16.9231 72.476L16.5871 71.768C16.8911 71.552 17.2591 71.38 17.6911 71.252C18.1311 71.124 18.5511 71.06 18.9511 71.06C19.7031 71.06 20.2591 71.244 20.6191 71.612C20.9871 71.98 21.1711 72.552 21.1711 73.328V77H20.2591V75.992C20.1071 76.336 19.8711 76.608 19.5511 76.808C19.2391 77.008 18.8711 77.108 18.4471 77.108ZM18.6031 76.376C19.0831 76.376 19.4751 76.212 19.7791 75.884C20.0831 75.548 20.2351 75.124 20.2351 74.612V74.252H19.8631C19.2151 74.252 18.7031 74.284 18.3271 74.348C17.9591 74.404 17.6991 74.508 17.5471 74.66C17.4031 74.804 17.3311 75.004 17.3311 75.26C17.3311 75.588 17.4431 75.856 17.6671 76.064C17.8991 76.272 18.2111 76.376 18.6031 76.376ZM22.8544 69.716V68.624H24.0544V69.716H22.8544ZM22.9744 77V71.168H23.9464V77H22.9744ZM25.7634 77V71.168H26.7114V72.164C26.9034 71.796 27.1754 71.52 27.5274 71.336C27.8794 71.152 28.2754 71.06 28.7154 71.06C30.0994 71.06 30.7914 71.828 30.7914 73.364V77H29.8194V73.424C29.8194 72.88 29.7114 72.484 29.4954 72.236C29.2874 71.98 28.9514 71.852 28.4874 71.852C27.9514 71.852 27.5234 72.02 27.2034 72.356C26.8914 72.684 26.7354 73.124 26.7354 73.676V77H25.7634ZM32.4638 69.716V68.624H33.6638V69.716H32.4638ZM32.5838 77V71.168H33.5558V77H32.5838ZM35.3728 77V71.168H36.3208V72.164C36.5128 71.796 36.7848 71.52 37.1368 71.336C37.4888 71.152 37.8848 71.06 38.3248 71.06C39.7088 71.06 40.4008 71.828 40.4008 73.364V77H39.4288V73.424C39.4288 72.88 39.3208 72.484 39.1048 72.236C38.8968 71.98 38.5608 71.852 38.0968 71.852C37.5608 71.852 37.1328 72.02 36.8128 72.356C36.5008 72.684 36.3448 73.124 36.3448 73.676V77H35.3728ZM44.7731 79.268C44.2691 79.268 43.7931 79.2 43.3451 79.064C42.9051 78.936 42.5131 78.74 42.1691 78.476L42.4931 77.768C42.8531 78.024 43.2091 78.208 43.5611 78.32C43.9211 78.432 44.3091 78.488 44.7251 78.488C45.8771 78.488 46.4531 77.896 46.4531 76.712V75.68C46.2851 76.048 46.0211 76.34 45.6611 76.556C45.3091 76.764 44.9051 76.868 44.4491 76.868C43.9131 76.868 43.4491 76.744 43.0571 76.496C42.6651 76.248 42.3611 75.908 42.1451 75.476C41.9371 75.036 41.8331 74.528 41.8331 73.952C41.8331 73.376 41.9371 72.872 42.1451 72.44C42.3611 72 42.6651 71.66 43.0571 71.42C43.4491 71.18 43.9131 71.06 44.4491 71.06C44.9051 71.06 45.3091 71.164 45.6611 71.372C46.0211 71.58 46.2851 71.864 46.4531 72.224V71.168H47.4011V76.58C47.4011 77.476 47.1771 78.148 46.7291 78.596C46.2891 79.044 45.6371 79.268 44.7731 79.268ZM44.6291 76.076C45.1891 76.076 45.6331 75.884 45.9611 75.5C46.2891 75.116 46.4531 74.6 46.4531 73.952C46.4531 73.304 46.2891 72.792 45.9611 72.416C45.6331 72.032 45.1891 71.84 44.6291 71.84C44.0771 71.84 43.6371 72.032 43.3091 72.416C42.9811 72.792 42.8171 73.304 42.8171 73.952C42.8171 74.6 42.9811 75.116 43.3091 75.5C43.6371 75.884 44.0771 76.076 44.6291 76.076ZM54.8864 79.268C54.3824 79.268 53.9064 79.2 53.4584 79.064C53.0184 78.936 52.6264 78.74 52.2824 78.476L52.6064 77.768C52.9664 78.024 53.3224 78.208 53.6744 78.32C54.0344 78.432 54.4224 78.488 54.8384 78.488C55.9904 78.488 56.5664 77.896 56.5664 76.712V75.68C56.3984 76.048 56.1344 76.34 55.7744 76.556C55.4224 76.764 55.0184 76.868 54.5624 76.868C54.0264 76.868 53.5624 76.744 53.1704 76.496C52.7784 76.248 52.4744 75.908 52.2584 75.476C52.0504 75.036 51.9464 74.528 51.9464 73.952C51.9464 73.376 52.0504 72.872 52.2584 72.44C52.4744 72 52.7784 71.66 53.1704 71.42C53.5624 71.18 54.0264 71.06 54.5624 71.06C55.0184 71.06 55.4224 71.164 55.7744 71.372C56.1344 71.58 56.3984 71.864 56.5664 72.224V71.168H57.5144V76.58C57.5144 77.476 57.2904 78.148 56.8424 78.596C56.4024 79.044 55.7504 79.268 54.8864 79.268ZM54.7424 76.076C55.3024 76.076 55.7464 75.884 56.0744 75.5C56.4024 75.116 56.5664 74.6 56.5664 73.952C56.5664 73.304 56.4024 72.792 56.0744 72.416C55.7464 72.032 55.3024 71.84 54.7424 71.84C54.1904 71.84 53.7504 72.032 53.4224 72.416C53.0944 72.792 52.9304 73.304 52.9304 73.952C52.9304 74.6 53.0944 75.116 53.4224 75.5C53.7504 75.884 54.1904 76.076 54.7424 76.076ZM59.3377 77V71.168H60.2857V72.212C60.5977 71.508 61.2377 71.12 62.2057 71.048L62.5537 71.012L62.6257 71.852L62.0137 71.924C61.4617 71.972 61.0417 72.148 60.7537 72.452C60.4657 72.748 60.3217 73.156 60.3217 73.676V77H59.3377ZM65.4158 77.108C65.0158 77.108 64.6558 77.032 64.3358 76.88C64.0238 76.72 63.7758 76.504 63.5918 76.232C63.4078 75.96 63.3158 75.656 63.3158 75.32C63.3158 74.896 63.4238 74.56 63.6398 74.312C63.8638 74.064 64.2278 73.888 64.7318 73.784C65.2438 73.672 65.9398 73.616 66.8198 73.616H67.2038V73.244C67.2038 72.748 67.0998 72.392 66.8918 72.176C66.6918 71.952 66.3678 71.84 65.9198 71.84C65.5678 71.84 65.2278 71.892 64.8998 71.996C64.5718 72.092 64.2358 72.252 63.8918 72.476L63.5558 71.768C63.8598 71.552 64.2278 71.38 64.6598 71.252C65.0998 71.124 65.5198 71.06 65.9198 71.06C66.6718 71.06 67.2278 71.244 67.5878 71.612C67.9558 71.98 68.1398 72.552 68.1398 73.328V77H67.2278V75.992C67.0758 76.336 66.8398 76.608 66.5198 76.808C66.2078 77.008 65.8398 77.108 65.4158 77.108ZM65.5718 76.376C66.0518 76.376 66.4438 76.212 66.7478 75.884C67.0518 75.548 67.2038 75.124 67.2038 74.612V74.252H66.8318C66.1838 74.252 65.6718 74.284 65.2958 74.348C64.9278 74.404 64.6678 74.508 64.5158 74.66C64.3718 74.804 64.2998 75.004 64.2998 75.26C64.2998 75.588 64.4118 75.856 64.6358 76.064C64.8678 76.272 65.1798 76.376 65.5718 76.376ZM69.9431 79.16V71.168H70.8911V72.212C71.0671 71.852 71.3271 71.572 71.6711 71.372C72.0231 71.164 72.4311 71.06 72.8951 71.06C73.4151 71.06 73.8671 71.184 74.2511 71.432C74.6431 71.672 74.9431 72.02 75.1511 72.476C75.3671 72.924 75.4751 73.46 75.4751 74.084C75.4751 74.7 75.3671 75.236 75.1511 75.692C74.9431 76.14 74.6431 76.488 74.2511 76.736C73.8671 76.984 73.4151 77.108 72.8951 77.108C72.4471 77.108 72.0471 77.008 71.6951 76.808C71.3431 76.608 71.0831 76.332 70.9151 75.98V79.16H69.9431ZM72.6911 76.328C73.2351 76.328 73.6711 76.136 73.9991 75.752C74.3271 75.36 74.4911 74.804 74.4911 74.084C74.4911 73.356 74.3271 72.8 73.9991 72.416C73.6711 72.032 73.2351 71.84 72.6911 71.84C72.1471 71.84 71.7111 72.032 71.3831 72.416C71.0551 72.8 70.8911 73.356 70.8911 74.084C70.8911 74.804 71.0551 75.36 71.3831 75.752C71.7111 76.136 72.1471 76.328 72.6911 76.328ZM76.9392 77V68.54H77.9112V72.128C78.1032 71.776 78.3712 71.512 78.7152 71.336C79.0672 71.152 79.4592 71.06 79.8912 71.06C81.2752 71.06 81.9672 71.828 81.9672 73.364V77H80.9952V73.424C80.9952 72.88 80.8872 72.484 80.6712 72.236C80.4632 71.98 80.1272 71.852 79.6632 71.852C79.1272 71.852 78.6992 72.02 78.3792 72.356C78.0672 72.684 77.9112 73.124 77.9112 73.676V77H76.9392Z" fill="#006FD6"/>
<path d="M325.323 297V288.54H328.671C329.583 288.54 330.279 288.76 330.759 289.2C331.247 289.64 331.491 290.268 331.491 291.084C331.491 291.892 331.247 292.52 330.759 292.968C330.279 293.408 329.583 293.628 328.671 293.628H326.307V297H325.323ZM326.307 292.8H328.551C329.863 292.8 330.519 292.228 330.519 291.084C330.519 289.932 329.863 289.356 328.551 289.356H326.307V292.8ZM332.668 297V291.168H333.616V292.212C333.928 291.508 334.568 291.12 335.536 291.048L335.884 291.012L335.956 291.852L335.344 291.924C334.792 291.972 334.372 292.148 334.084 292.452C333.796 292.748 333.652 293.156 333.652 293.676V297H332.668ZM339.526 297.108C338.606 297.108 337.878 296.84 337.342 296.304C336.806 295.76 336.538 295.024 336.538 294.096C336.538 293.496 336.658 292.968 336.898 292.512C337.138 292.048 337.466 291.692 337.882 291.444C338.306 291.188 338.794 291.06 339.346 291.06C340.138 291.06 340.758 291.316 341.206 291.828C341.654 292.332 341.878 293.028 341.878 293.916V294.288H337.486C337.518 294.952 337.71 295.46 338.062 295.812C338.414 296.156 338.902 296.328 339.526 296.328C339.878 296.328 340.214 296.276 340.534 296.172C340.854 296.06 341.158 295.88 341.446 295.632L341.782 296.316C341.518 296.564 341.182 296.76 340.774 296.904C340.366 297.04 339.95 297.108 339.526 297.108ZM339.37 291.78C338.818 291.78 338.382 291.952 338.062 292.296C337.742 292.64 337.554 293.092 337.498 293.652H341.038C341.014 293.06 340.858 292.6 340.57 292.272C340.29 291.944 339.89 291.78 339.37 291.78ZM345.505 297.108C344.985 297.108 344.529 296.984 344.137 296.736C343.753 296.488 343.453 296.14 343.237 295.692C343.029 295.236 342.925 294.7 342.925 294.084C342.925 293.46 343.029 292.924 343.237 292.476C343.453 292.02 343.753 291.672 344.137 291.432C344.529 291.184 344.985 291.06 345.505 291.06C345.961 291.06 346.361 291.16 346.705 291.36C347.057 291.56 347.317 291.836 347.485 292.188V288.54H348.457V297H347.509V295.932C347.341 296.3 347.081 296.588 346.729 296.796C346.377 297.004 345.969 297.108 345.505 297.108ZM345.709 296.328C346.253 296.328 346.689 296.136 347.017 295.752C347.345 295.36 347.509 294.804 347.509 294.084C347.509 293.356 347.345 292.8 347.017 292.416C346.689 292.032 346.253 291.84 345.709 291.84C345.157 291.84 344.717 292.032 344.389 292.416C344.069 292.8 343.909 293.356 343.909 294.084C343.909 294.804 344.069 295.36 344.389 295.752C344.717 296.136 345.157 296.328 345.709 296.328ZM350.161 289.716V288.624H351.361V289.716H350.161ZM350.281 297V291.168H351.253V297H350.281ZM355.542 297.108C354.958 297.108 354.454 296.984 354.03 296.736C353.606 296.48 353.278 296.124 353.046 295.668C352.822 295.204 352.71 294.664 352.71 294.048C352.71 293.12 352.962 292.392 353.466 291.864C353.97 291.328 354.662 291.06 355.542 291.06C355.902 291.06 356.258 291.124 356.61 291.252C356.962 291.38 357.254 291.56 357.486 291.792L357.15 292.5C356.918 292.276 356.662 292.112 356.382 292.008C356.11 291.904 355.85 291.852 355.602 291.852C354.994 291.852 354.526 292.044 354.198 292.428C353.87 292.804 353.706 293.348 353.706 294.06C353.706 294.756 353.87 295.308 354.198 295.716C354.526 296.116 354.994 296.316 355.602 296.316C355.85 296.316 356.11 296.264 356.382 296.16C356.662 296.056 356.918 295.888 357.15 295.656L357.486 296.364C357.254 296.596 356.958 296.78 356.598 296.916C356.246 297.044 355.894 297.108 355.542 297.108ZM360.965 297.108C360.277 297.108 359.761 296.928 359.417 296.568C359.073 296.2 358.901 295.672 358.901 294.984V291.924H357.761V291.168H358.901V289.38H359.873V291.168H361.721V291.924H359.873V294.888C359.873 295.344 359.969 295.692 360.161 295.932C360.353 296.164 360.665 296.28 361.097 296.28C361.225 296.28 361.353 296.264 361.481 296.232C361.609 296.2 361.725 296.168 361.829 296.136L361.997 296.88C361.893 296.936 361.741 296.988 361.541 297.036C361.341 297.084 361.149 297.108 360.965 297.108ZM362.7 289.716V288.624H363.9V289.716H362.7ZM362.82 297V291.168H363.792V297H362.82ZM368.033 297.108C367.465 297.108 366.973 296.984 366.557 296.736C366.141 296.488 365.817 296.14 365.585 295.692C365.361 295.236 365.249 294.7 365.249 294.084C365.249 293.468 365.361 292.936 365.585 292.488C365.817 292.032 366.141 291.68 366.557 291.432C366.973 291.184 367.465 291.06 368.033 291.06C368.593 291.06 369.081 291.184 369.497 291.432C369.921 291.68 370.245 292.032 370.469 292.488C370.701 292.936 370.817 293.468 370.817 294.084C370.817 294.7 370.701 295.236 370.469 295.692C370.245 296.14 369.921 296.488 369.497 296.736C369.081 296.984 368.593 297.108 368.033 297.108ZM368.033 296.328C368.577 296.328 369.013 296.136 369.341 295.752C369.669 295.36 369.833 294.804 369.833 294.084C369.833 293.356 369.669 292.8 369.341 292.416C369.013 292.032 368.577 291.84 368.033 291.84C367.481 291.84 367.041 292.032 366.713 292.416C366.393 292.8 366.233 293.356 366.233 294.084C366.233 294.804 366.393 295.36 366.713 295.752C367.041 296.136 367.481 296.328 368.033 296.328ZM372.277 297V291.168H373.225V292.164C373.417 291.796 373.689 291.52 374.041 291.336C374.393 291.152 374.789 291.06 375.229 291.06C376.613 291.06 377.305 291.828 377.305 293.364V297H376.333V293.424C376.333 292.88 376.225 292.484 376.009 292.236C375.801 291.98 375.465 291.852 375.001 291.852C374.465 291.852 374.037 292.02 373.717 292.356C373.405 292.684 373.249 293.124 373.249 293.676V297H372.277ZM384.76 299.268C384.256 299.268 383.78 299.2 383.332 299.064C382.892 298.936 382.5 298.74 382.156 298.476L382.48 297.768C382.84 298.024 383.196 298.208 383.548 298.32C383.908 298.432 384.296 298.488 384.712 298.488C385.864 298.488 386.44 297.896 386.44 296.712V295.68C386.272 296.048 386.008 296.34 385.648 296.556C385.296 296.764 384.892 296.868 384.436 296.868C383.9 296.868 383.436 296.744 383.044 296.496C382.652 296.248 382.348 295.908 382.132 295.476C381.924 295.036 381.82 294.528 381.82 293.952C381.82 293.376 381.924 292.872 382.132 292.44C382.348 292 382.652 291.66 383.044 291.42C383.436 291.18 383.9 291.06 384.436 291.06C384.892 291.06 385.296 291.164 385.648 291.372C386.008 291.58 386.272 291.864 386.44 292.224V291.168H387.388V296.58C387.388 297.476 387.164 298.148 386.716 298.596C386.276 299.044 385.624 299.268 384.76 299.268ZM384.616 296.076C385.176 296.076 385.62 295.884 385.948 295.5C386.276 295.116 386.44 294.6 386.44 293.952C386.44 293.304 386.276 292.792 385.948 292.416C385.62 292.032 385.176 291.84 384.616 291.84C384.064 291.84 383.624 292.032 383.296 292.416C382.968 292.792 382.804 293.304 382.804 293.952C382.804 294.6 382.968 295.116 383.296 295.5C383.624 295.884 384.064 296.076 384.616 296.076ZM389.211 297V291.168H390.159V292.212C390.471 291.508 391.111 291.12 392.079 291.048L392.427 291.012L392.499 291.852L391.887 291.924C391.335 291.972 390.915 292.148 390.627 292.452C390.339 292.748 390.195 293.156 390.195 293.676V297H389.211ZM395.289 297.108C394.889 297.108 394.529 297.032 394.209 296.88C393.897 296.72 393.649 296.504 393.465 296.232C393.281 295.96 393.189 295.656 393.189 295.32C393.189 294.896 393.297 294.56 393.513 294.312C393.737 294.064 394.101 293.888 394.605 293.784C395.117 293.672 395.813 293.616 396.693 293.616H397.077V293.244C397.077 292.748 396.973 292.392 396.765 292.176C396.565 291.952 396.241 291.84 395.793 291.84C395.441 291.84 395.101 291.892 394.773 291.996C394.445 292.092 394.109 292.252 393.765 292.476L393.429 291.768C393.733 291.552 394.101 291.38 394.533 291.252C394.973 291.124 395.393 291.06 395.793 291.06C396.545 291.06 397.101 291.244 397.461 291.612C397.829 291.98 398.013 292.552 398.013 293.328V297H397.101V295.992C396.949 296.336 396.713 296.608 396.393 296.808C396.081 297.008 395.713 297.108 395.289 297.108ZM395.445 296.376C395.925 296.376 396.317 296.212 396.621 295.884C396.925 295.548 397.077 295.124 397.077 294.612V294.252H396.705C396.057 294.252 395.545 294.284 395.169 294.348C394.801 294.404 394.541 294.508 394.389 294.66C394.245 294.804 394.173 295.004 394.173 295.26C394.173 295.588 394.285 295.856 394.509 296.064C394.741 296.272 395.053 296.376 395.445 296.376ZM399.816 299.16V291.168H400.764V292.212C400.94 291.852 401.2 291.572 401.544 291.372C401.896 291.164 402.304 291.06 402.768 291.06C403.288 291.06 403.74 291.184 404.124 291.432C404.516 291.672 404.816 292.02 405.024 292.476C405.24 292.924 405.348 293.46 405.348 294.084C405.348 294.7 405.24 295.236 405.024 295.692C404.816 296.14 404.516 296.488 404.124 296.736C403.74 296.984 403.288 297.108 402.768 297.108C402.32 297.108 401.92 297.008 401.568 296.808C401.216 296.608 400.956 296.332 400.788 295.98V299.16H399.816ZM402.564 296.328C403.108 296.328 403.544 296.136 403.872 295.752C404.2 295.36 404.364 294.804 404.364 294.084C404.364 293.356 404.2 292.8 403.872 292.416C403.544 292.032 403.108 291.84 402.564 291.84C402.02 291.84 401.584 292.032 401.256 292.416C400.928 292.8 400.764 293.356 400.764 294.084C400.764 294.804 400.928 295.36 401.256 295.752C401.584 296.136 402.02 296.328 402.564 296.328ZM406.812 297V288.54H407.784V292.128C407.976 291.776 408.244 291.512 408.588 291.336C408.94 291.152 409.332 291.06 409.764 291.06C411.148 291.06 411.84 291.828 411.84 293.364V297H410.868V293.424C410.868 292.88 410.76 292.484 410.544 292.236C410.336 291.98 410 291.852 409.536 291.852C409 291.852 408.572 292.02 408.252 292.356C407.94 292.684 407.784 293.124 407.784 293.676V297H406.812Z" fill="#151E29"/>
<path d="M157.707 154.707C158.098 154.317 158.098 153.683 157.707 153.293L151.343 146.929C150.952 146.538 150.319 146.538 149.929 146.929C149.538 147.319 149.538 147.953 149.929 148.343L155.586 154L149.929 159.657C149.538 160.047 149.538 160.681 149.929 161.071C150.319 161.462 150.952 161.462 151.343 161.071L157.707 154.707ZM91.9999 155H157V153H91.9999V155Z" fill="#006FD6"/>
<path d="M324.547 59.5416C324.595 58.9914 324.188 58.5064 323.638 58.4583L314.672 57.6739C314.122 57.6257 313.637 58.0327 313.589 58.5829C313.54 59.1331 313.947 59.6181 314.498 59.6663L322.467 60.3635L321.77 68.3331C321.722 68.8832 322.129 69.3683 322.679 69.4164C323.229 69.4645 323.714 69.0576 323.762 68.5074L324.547 59.5416ZM264.355 110.431L324.193 60.2205L322.908 58.6884L263.07 108.899L264.355 110.431Z" fill="#151E29"/>
<path d="M321.883 253.212C321.902 253.764 321.47 254.227 320.918 254.246L311.924 254.56C311.372 254.58 310.909 254.148 310.889 253.596C310.87 253.044 311.302 252.581 311.854 252.562L319.849 252.282L319.57 244.287C319.55 243.735 319.982 243.272 320.534 243.253C321.086 243.234 321.549 243.666 321.568 244.217L321.883 253.212ZM267.682 202.269L321.565 252.516L320.201 253.978L266.318 203.731L267.682 202.269Z" fill="#151E29"/>
<path d="M274.888 189.083C274.336 189.102 273.905 189.565 273.924 190.117L274.238 199.111C274.257 199.663 274.72 200.095 275.272 200.076C275.824 200.057 276.256 199.593 276.237 199.042L275.958 191.046L283.953 190.767C284.505 190.748 284.937 190.285 284.917 189.733C284.898 189.181 284.435 188.749 283.883 188.768L274.888 189.083ZM274.241 190.813L323.395 236.649L324.759 235.187L275.605 189.351L274.241 190.813Z" fill="#151E29"/>
<path d="M345.707 154.707C346.098 154.317 346.098 153.683 345.707 153.293L339.343 146.929C338.953 146.538 338.319 146.538 337.929 146.929C337.538 147.319 337.538 147.953 337.929 148.343L343.586 154L337.929 159.657C337.538 160.047 337.538 160.681 337.929 161.071C338.319 161.462 338.953 161.462 339.343 161.071L345.707 154.707ZM267 155H345V153H267V155Z" fill="#151E29"/>
<path d="M108.658 145.108C107.97 145.108 107.454 144.928 107.11 144.568C106.766 144.2 106.594 143.672 106.594 142.984V139.924H105.454V139.168H106.594V137.38H107.566V139.168H109.414V139.924H107.566V142.888C107.566 143.344 107.662 143.692 107.854 143.932C108.046 144.164 108.358 144.28 108.79 144.28C108.918 144.28 109.046 144.264 109.174 144.232C109.302 144.2 109.418 144.168 109.522 144.136L109.69 144.88C109.586 144.936 109.434 144.988 109.234 145.036C109.034 145.084 108.842 145.108 108.658 145.108ZM110.513 145V139.168H111.461V140.212C111.773 139.508 112.413 139.12 113.381 139.048L113.729 139.012L113.801 139.852L113.189 139.924C112.637 139.972 112.217 140.148 111.929 140.452C111.641 140.748 111.497 141.156 111.497 141.676V145H110.513ZM116.592 145.108C116.192 145.108 115.832 145.032 115.512 144.88C115.2 144.72 114.952 144.504 114.768 144.232C114.584 143.96 114.492 143.656 114.492 143.32C114.492 142.896 114.6 142.56 114.816 142.312C115.04 142.064 115.404 141.888 115.908 141.784C116.42 141.672 117.116 141.616 117.996 141.616H118.38V141.244C118.38 140.748 118.276 140.392 118.068 140.176C117.868 139.952 117.544 139.84 117.096 139.84C116.744 139.84 116.404 139.892 116.076 139.996C115.748 140.092 115.412 140.252 115.068 140.476L114.732 139.768C115.036 139.552 115.404 139.38 115.836 139.252C116.276 139.124 116.696 139.06 117.096 139.06C117.848 139.06 118.404 139.244 118.764 139.612C119.132 139.98 119.316 140.552 119.316 141.328V145H118.404V143.992C118.252 144.336 118.016 144.608 117.696 144.808C117.384 145.008 117.016 145.108 116.592 145.108ZM116.748 144.376C117.228 144.376 117.62 144.212 117.924 143.884C118.228 143.548 118.38 143.124 118.38 142.612V142.252H118.008C117.36 142.252 116.848 142.284 116.472 142.348C116.104 142.404 115.844 142.508 115.692 142.66C115.548 142.804 115.476 143.004 115.476 143.26C115.476 143.588 115.588 143.856 115.812 144.064C116.044 144.272 116.356 144.376 116.748 144.376ZM120.999 137.716V136.624H122.199V137.716H120.999ZM121.119 145V139.168H122.091V145H121.119ZM123.908 145V139.168H124.856V140.164C125.048 139.796 125.32 139.52 125.672 139.336C126.024 139.152 126.42 139.06 126.86 139.06C128.244 139.06 128.936 139.828 128.936 141.364V145H127.964V141.424C127.964 140.88 127.856 140.484 127.64 140.236C127.432 139.98 127.096 139.852 126.632 139.852C126.096 139.852 125.668 140.02 125.348 140.356C125.036 140.684 124.88 141.124 124.88 141.676V145H123.908ZM132.696 145.108C132.24 145.108 131.808 145.044 131.4 144.916C130.992 144.788 130.656 144.608 130.392 144.376L130.704 143.692C130.992 143.924 131.308 144.096 131.652 144.208C132.004 144.312 132.36 144.364 132.72 144.364C133.176 144.364 133.52 144.28 133.752 144.112C133.984 143.944 134.1 143.716 134.1 143.428C134.1 143.204 134.024 143.028 133.872 142.9C133.72 142.764 133.48 142.66 133.152 142.588L132.06 142.348C131.068 142.132 130.572 141.62 130.572 140.812C130.572 140.284 130.78 139.86 131.196 139.54C131.62 139.22 132.172 139.06 132.852 139.06C133.252 139.06 133.632 139.124 133.992 139.252C134.36 139.372 134.664 139.552 134.904 139.792L134.58 140.476C134.348 140.26 134.076 140.096 133.764 139.984C133.46 139.864 133.156 139.804 132.852 139.804C132.404 139.804 132.064 139.892 131.832 140.068C131.6 140.244 131.484 140.476 131.484 140.764C131.484 141.212 131.78 141.5 132.372 141.628L133.464 141.856C133.976 141.968 134.364 142.148 134.628 142.396C134.892 142.636 135.024 142.964 135.024 143.38C135.024 143.916 134.812 144.34 134.388 144.652C133.964 144.956 133.4 145.108 132.696 145.108Z" fill="#006FD6"/>
<path d="M43.4263 120.574C43.7431 120.89 44.2567 120.89 44.5734 120.574L49.7353 115.412C50.052 115.095 50.052 114.581 49.7353 114.265C49.4185 113.948 48.905 113.948 48.5882 114.265L43.9999 118.853L39.4116 114.265C39.0948 113.948 38.5812 113.948 38.2645 114.265C37.9477 114.581 37.9477 115.095 38.2645 115.412L43.4263 120.574ZM43.1888 88L43.1888 120L44.811 120L44.811 88L43.1888 88Z" fill="#006FD6"/>
<path d="M50 87.035L55.832 87.035L55.832 87.983L54.788 87.983C55.492 88.295 55.88 88.935 55.952 89.903L55.988 90.251L55.148 90.323L55.076 89.711C55.028 89.159 54.852 88.739 54.548 88.451C54.252 88.163 53.844 88.019 53.324 88.019L50 88.019L50 87.035ZM49.892 93.8935C49.892 92.9735 50.16 92.2455 50.696 91.7095C51.24 91.1735 51.976 90.9055 52.904 90.9055C53.504 90.9055 54.032 91.0255 54.488 91.2655C54.952 91.5055 55.308 91.8335 55.556 92.2495C55.812 92.6735 55.94 93.1615 55.94 93.7135C55.94 94.5055 55.684 95.1255 55.172 95.5735C54.668 96.0215 53.972 96.2455 53.084 96.2455L52.712 96.2455L52.712 91.8535C52.048 91.8855 51.54 92.0775 51.188 92.4295C50.844 92.7815 50.672 93.2695 50.672 93.8935C50.672 94.2455 50.724 94.5815 50.828 94.9015C50.94 95.2215 51.12 95.5255 51.368 95.8135L50.684 96.1495C50.436 95.8855 50.24 95.5495 50.096 95.1415C49.96 94.7335 49.892 94.3175 49.892 93.8935ZM55.22 93.7375C55.22 93.1855 55.048 92.7495 54.704 92.4295C54.36 92.1095 53.908 91.9215 53.348 91.8655L53.348 95.4055C53.94 95.3815 54.4 95.2255 54.728 94.9375C55.056 94.6575 55.22 94.2575 55.22 93.7375ZM49.892 99.4882C49.892 99.0882 49.968 98.7282 50.12 98.4082C50.28 98.0962 50.496 97.8482 50.768 97.6642C51.04 97.4802 51.344 97.3882 51.68 97.3882C52.104 97.3882 52.44 97.4962 52.688 97.7122C52.936 97.9362 53.112 98.3002 53.216 98.8042C53.328 99.3162 53.384 100.012 53.384 100.892L53.384 101.276L53.756 101.276C54.252 101.276 54.608 101.172 54.824 100.964C55.048 100.764 55.16 100.44 55.16 99.9922C55.16 99.6402 55.108 99.3002 55.004 98.9722C54.908 98.6442 54.748 98.3082 54.524 97.9642L55.232 97.6282C55.448 97.9322 55.62 98.3002 55.748 98.7322C55.876 99.1722 55.94 99.5922 55.94 99.9922C55.94 100.744 55.756 101.3 55.388 101.66C55.02 102.028 54.448 102.212 53.672 102.212L50 102.212L50 101.3L51.008 101.3C50.664 101.148 50.392 100.912 50.192 100.592C49.992 100.28 49.892 99.9122 49.892 99.4882ZM50.624 99.6442C50.624 100.124 50.788 100.516 51.116 100.82C51.452 101.124 51.876 101.276 52.388 101.276L52.748 101.276L52.748 100.904C52.748 100.256 52.716 99.7442 52.652 99.3682C52.596 99.0002 52.492 98.7402 52.34 98.5882C52.196 98.4442 51.996 98.3722 51.74 98.3722C51.412 98.3722 51.144 98.4842 50.936 98.7082C50.728 98.9402 50.624 99.2522 50.624 99.6442ZM49.892 106.236C49.892 105.716 50.016 105.26 50.264 104.868C50.512 104.484 50.86 104.184 51.308 103.968C51.764 103.76 52.3 103.656 52.916 103.656C53.54 103.656 54.076 103.76 54.524 103.968C54.98 104.184 55.328 104.484 55.568 104.868C55.816 105.26 55.94 105.716 55.94 106.236C55.94 106.692 55.84 107.092 55.64 107.436C55.44 107.788 55.164 108.048 54.812 108.216L58.46 108.216L58.46 109.188L50 109.188L50 108.24L51.068 108.24C50.7 108.072 50.412 107.812 50.204 107.46C49.996 107.108 49.892 106.7 49.892 106.236ZM50.672 106.44C50.672 106.984 50.864 107.42 51.248 107.748C51.64 108.076 52.196 108.24 52.916 108.24C53.644 108.24 54.2 108.076 54.584 107.748C54.968 107.42 55.16 106.984 55.16 106.44C55.16 105.888 54.968 105.448 54.584 105.12C54.2 104.8 53.644 104.64 52.916 104.64C52.196 104.64 51.64 104.8 51.248 105.12C50.864 105.448 50.672 105.888 50.672 106.44ZM49.892 112.98C49.892 112.524 49.956 112.092 50.084 111.684C50.212 111.276 50.392 110.94 50.624 110.676L51.308 110.988C51.076 111.276 50.904 111.592 50.792 111.936C50.688 112.288 50.636 112.644 50.636 113.004C50.636 113.46 50.72 113.804 50.888 114.036C51.056 114.268 51.284 114.384 51.572 114.384C51.796 114.384 51.972 114.308 52.1 114.156C52.236 114.004 52.34 113.764 52.412 113.436L52.652 112.344C52.868 111.352 53.38 110.856 54.188 110.856C54.716 110.856 55.14 111.064 55.46 111.48C55.78 111.904 55.94 112.456 55.94 113.136C55.94 113.536 55.876 113.916 55.748 114.276C55.628 114.644 55.448 114.948 55.208 115.188L54.524 114.864C54.74 114.632 54.904 114.36 55.016 114.048C55.136 113.744 55.196 113.44 55.196 113.136C55.196 112.688 55.108 112.348 54.932 112.116C54.756 111.884 54.524 111.768 54.236 111.768C53.788 111.768 53.5 112.064 53.372 112.656L53.144 113.748C53.032 114.26 52.852 114.648 52.604 114.912C52.364 115.176 52.036 115.308 51.62 115.308C51.084 115.308 50.66 115.096 50.348 114.672C50.044 114.248 49.892 113.684 49.892 112.98Z" fill="#006FD6"/>
<path d="M273.294 93.5797C272.945 93.8728 272.573 94.1015 272.178 94.2657C271.783 94.4299 271.41 94.508 271.059 94.4999L270.858 93.7754C271.228 93.768 271.58 93.6967 271.916 93.5613C272.252 93.4147 272.558 93.2257 272.834 92.9943C273.184 92.7012 273.393 92.4158 273.463 92.1379C273.533 91.8601 273.475 91.6109 273.29 91.3903C273.146 91.2187 272.974 91.1327 272.776 91.1324C272.572 91.1259 272.321 91.2005 272.024 91.3562L271.033 91.8742C270.134 92.3464 269.425 92.273 268.906 91.6541C268.566 91.2496 268.453 90.7911 268.566 90.2785C268.685 89.7609 269.005 89.2835 269.526 88.8464C269.832 88.5893 270.165 88.394 270.523 88.2607C270.882 88.1161 271.23 88.0585 271.568 88.0881L271.76 88.8204C271.443 88.804 271.13 88.8532 270.819 88.968C270.509 89.0715 270.237 89.2209 270.004 89.4163C269.661 89.7043 269.457 89.9903 269.393 90.2742C269.328 90.5582 269.388 90.8104 269.573 91.0311C269.861 91.3742 270.273 91.4046 270.809 91.1221L271.792 90.5949C272.256 90.3516 272.669 90.24 273.031 90.2603C273.387 90.2745 273.699 90.4409 273.967 90.7596C274.311 91.1702 274.421 91.6312 274.297 92.1428C274.168 92.6482 273.833 93.1272 273.294 93.5797ZM277.96 89.6646C277.433 90.1069 276.922 90.3007 276.427 90.246C275.927 90.1852 275.456 89.8913 275.013 89.3643L273.047 87.0202L272.173 87.753L271.687 87.1738L272.561 86.441L271.411 85.0714L272.156 84.4466L273.305 85.8163L274.721 84.6284L275.207 85.2075L273.791 86.3954L275.696 88.6659C275.989 89.0153 276.287 89.2201 276.588 89.2806C276.884 89.3349 277.198 89.2232 277.529 88.9455C277.627 88.8632 277.715 88.7687 277.792 88.6619C277.87 88.5551 277.938 88.456 277.997 88.3647L278.604 88.8266C278.56 88.9364 278.477 89.0739 278.355 89.2392C278.232 89.4046 278.101 89.5464 277.96 89.6646ZM279.312 88.3893L275.563 83.9218L276.289 83.3124L276.96 84.1122C276.747 83.3723 276.988 82.6637 277.683 81.9863L277.926 81.7351L278.521 82.3323L278.099 82.7808C277.707 83.1724 277.498 83.5772 277.473 83.9952C277.443 84.407 277.595 84.8122 277.929 85.2105L280.066 87.7568L279.312 88.3893ZM284.635 84.0635C283.93 84.6549 283.2 84.9175 282.445 84.8515C281.685 84.7793 281.007 84.3877 280.41 83.6769C280.024 83.2172 279.777 82.7356 279.668 82.232C279.553 81.7223 279.576 81.2388 279.735 80.7814C279.895 80.3127 280.187 79.901 280.61 79.5462C281.216 79.0371 281.856 78.8347 282.528 78.9389C283.195 79.037 283.814 79.4262 284.385 80.1065L284.624 80.3914L281.26 83.2146C281.711 83.7027 282.185 83.9684 282.68 84.0118C283.171 84.049 283.656 83.8671 284.134 83.466C284.403 83.2398 284.627 82.9839 284.806 82.6986C284.979 82.4071 285.096 82.0738 285.157 81.6987L285.854 82.0067C285.811 82.3664 285.68 82.7325 285.46 83.1051C285.235 83.4715 284.96 83.791 284.635 84.0635ZM281.091 80.0823C280.668 80.4371 280.444 80.8492 280.42 81.3184C280.396 81.7876 280.543 82.2547 280.86 82.7197L283.572 80.4442C283.173 80.0061 282.758 79.754 282.326 79.6879C281.901 79.6166 281.489 79.7481 281.091 80.0823ZM288.921 80.4673C288.614 80.7244 288.29 80.8976 287.947 80.9869C287.605 81.0648 287.276 81.0588 286.96 80.9687C286.645 80.8786 286.379 80.7049 286.163 80.4475C285.89 80.1227 285.757 79.7959 285.763 79.467C285.775 79.1331 285.941 78.7643 286.26 78.3606C286.58 77.9457 287.078 77.4555 287.752 76.8898L288.046 76.643L287.807 76.358C287.488 75.9781 287.179 75.7722 286.881 75.7404C286.584 75.6974 286.264 75.8199 285.921 76.1078C285.651 76.3341 285.424 76.5925 285.24 76.883C285.05 77.1673 284.896 77.5059 284.776 77.8986L284.064 77.5722C284.158 77.2113 284.329 76.843 284.578 76.4673C284.832 76.0864 285.113 75.7674 285.419 75.5103C285.995 75.0269 286.54 74.8105 287.052 74.861C287.57 74.9064 288.079 75.2263 288.578 75.8207L290.938 78.6336L290.239 79.2198L289.592 78.4477C289.696 78.8089 289.69 79.169 289.574 79.5279C289.463 79.8816 289.246 80.1948 288.921 80.4673ZM288.57 79.8063C288.938 79.4978 289.132 79.1202 289.154 78.6735C289.171 78.2207 289.015 77.7982 288.686 77.406L288.455 77.1302L288.17 77.3693C287.673 77.7858 287.302 78.1394 287.055 78.4302C286.809 78.7096 286.677 78.9564 286.658 79.1705C286.64 79.3734 286.714 79.5729 286.878 79.769C287.089 80.0203 287.347 80.1536 287.652 80.1689C287.964 80.1791 288.27 80.0583 288.57 79.8063ZM292.338 77.4591L288.589 72.9915L289.315 72.3821L289.948 73.1359C289.856 72.7531 289.871 72.391 289.992 72.0495C290.107 71.7019 290.325 71.3944 290.643 71.127C291.342 70.5407 292.044 70.4687 292.749 70.9109C292.647 70.5158 292.661 70.1281 292.791 69.7476C292.916 69.361 293.15 69.0238 293.493 68.7358C294.486 67.9027 295.476 68.0745 296.463 69.2512L298.8 72.0365L298.056 72.6613L295.749 69.9127C295.405 69.5021 295.079 69.2636 294.773 69.197C294.467 69.1192 294.149 69.2191 293.818 69.4968C293.457 69.8002 293.277 70.1705 293.278 70.6079C293.279 71.0453 293.46 71.4785 293.82 71.9075L295.941 74.4354L295.197 75.0602L292.89 72.3116C292.546 71.901 292.22 71.6624 291.914 71.5959C291.608 71.518 291.29 71.618 290.959 71.8957C290.592 72.2042 290.408 72.5771 290.41 73.0145C290.418 73.4467 290.601 73.8774 290.961 74.3063L293.082 76.8343L292.338 77.4591ZM301.769 69.6861C301.42 69.9792 301.048 70.2078 300.653 70.372C300.258 70.5363 299.885 70.6143 299.534 70.6063L299.333 69.8818C299.703 69.8744 300.056 69.803 300.391 69.6677C300.728 69.5211 301.034 69.3321 301.31 69.1007C301.659 68.8076 301.868 68.5221 301.938 68.2443C302.008 67.9665 301.95 67.7173 301.765 67.4966C301.621 67.3251 301.45 67.2391 301.251 67.2387C301.047 67.2323 300.796 67.3069 300.499 67.4625L299.508 67.9806C298.609 68.4528 297.9 68.3794 297.381 67.7604C297.042 67.356 296.928 66.8975 297.041 66.3849C297.16 65.8672 297.48 65.3899 298.001 64.9528C298.308 64.6956 298.64 64.5004 298.998 64.3671C299.357 64.2224 299.706 64.1649 300.044 64.1945L300.235 64.9267C299.919 64.9104 299.605 64.9596 299.294 65.0744C298.984 65.1778 298.712 65.3273 298.48 65.5227C298.136 65.8107 297.932 66.0966 297.868 66.3806C297.803 66.6645 297.864 66.9168 298.049 67.1374C298.337 67.4806 298.749 67.511 299.284 67.2285L300.267 66.7012C300.732 66.4579 301.145 66.3464 301.506 66.3667C301.863 66.3809 302.175 66.5473 302.442 66.8659C302.787 67.2765 302.897 67.7376 302.772 68.2492C302.643 68.7546 302.309 69.2336 301.769 69.6861Z" fill="#151E29"/>
<path d="M346.298 197V188.54H347.066L352.166 195.344V188.54H353.078V197H352.334L347.222 190.172V197H346.298ZM357.677 197.108C356.757 197.108 356.029 196.84 355.493 196.304C354.957 195.76 354.689 195.024 354.689 194.096C354.689 193.496 354.809 192.968 355.049 192.512C355.289 192.048 355.617 191.692 356.033 191.444C356.457 191.188 356.945 191.06 357.497 191.06C358.289 191.06 358.909 191.316 359.357 191.828C359.805 192.332 360.029 193.028 360.029 193.916V194.288H355.637C355.669 194.952 355.861 195.46 356.213 195.812C356.565 196.156 357.053 196.328 357.677 196.328C358.029 196.328 358.365 196.276 358.685 196.172C359.005 196.06 359.309 195.88 359.597 195.632L359.933 196.316C359.669 196.564 359.333 196.76 358.925 196.904C358.517 197.04 358.101 197.108 357.677 197.108ZM357.521 191.78C356.969 191.78 356.533 191.952 356.213 192.296C355.893 192.64 355.705 193.092 355.649 193.652H359.189C359.165 193.06 359.009 192.6 358.721 192.272C358.441 191.944 358.041 191.78 357.521 191.78ZM363.859 197.108C363.291 197.108 362.799 196.984 362.383 196.736C361.967 196.488 361.643 196.14 361.411 195.692C361.187 195.236 361.075 194.7 361.075 194.084C361.075 193.468 361.187 192.936 361.411 192.488C361.643 192.032 361.967 191.68 362.383 191.432C362.799 191.184 363.291 191.06 363.859 191.06C364.419 191.06 364.907 191.184 365.323 191.432C365.747 191.68 366.071 192.032 366.295 192.488C366.527 192.936 366.643 193.468 366.643 194.084C366.643 194.7 366.527 195.236 366.295 195.692C366.071 196.14 365.747 196.488 365.323 196.736C364.907 196.984 364.419 197.108 363.859 197.108ZM363.859 196.328C364.403 196.328 364.839 196.136 365.167 195.752C365.495 195.36 365.659 194.804 365.659 194.084C365.659 193.356 365.495 192.8 365.167 192.416C364.839 192.032 364.403 191.84 363.859 191.84C363.307 191.84 362.867 192.032 362.539 192.416C362.219 192.8 362.059 193.356 362.059 194.084C362.059 194.804 362.219 195.36 362.539 195.752C362.867 196.136 363.307 196.328 363.859 196.328ZM371.715 197V195.188H367.815V194.444L371.883 188.54H372.711V194.348H373.971V195.188H372.711V197H371.715ZM371.715 194.348V190.16L368.835 194.348H371.715ZM375.215 189.716V188.624H376.415V189.716H375.215ZM373.787 199.316L373.715 198.56L374.231 198.512C374.967 198.448 375.335 198.004 375.335 197.18V191.168H376.307V197.084C376.307 197.78 376.143 198.308 375.815 198.668C375.487 199.028 374.983 199.232 374.303 199.28L373.787 199.316ZM383.437 197.108C382.917 197.108 382.461 196.984 382.069 196.736C381.685 196.488 381.385 196.14 381.169 195.692C380.961 195.236 380.857 194.7 380.857 194.084C380.857 193.46 380.961 192.924 381.169 192.476C381.385 192.02 381.685 191.672 382.069 191.432C382.461 191.184 382.917 191.06 383.437 191.06C383.893 191.06 384.293 191.16 384.637 191.36C384.989 191.56 385.249 191.836 385.417 192.188V188.54H386.389V197H385.441V195.932C385.273 196.3 385.013 196.588 384.661 196.796C384.309 197.004 383.901 197.108 383.437 197.108ZM383.641 196.328C384.185 196.328 384.621 196.136 384.949 195.752C385.277 195.36 385.441 194.804 385.441 194.084C385.441 193.356 385.277 192.8 384.949 192.416C384.621 192.032 384.185 191.84 383.641 191.84C383.089 191.84 382.649 192.032 382.321 192.416C382.001 192.8 381.841 193.356 381.841 194.084C381.841 194.804 382.001 195.36 382.321 195.752C382.649 196.136 383.089 196.328 383.641 196.328ZM390.049 197.108C389.649 197.108 389.289 197.032 388.969 196.88C388.657 196.72 388.409 196.504 388.225 196.232C388.041 195.96 387.949 195.656 387.949 195.32C387.949 194.896 388.057 194.56 388.273 194.312C388.497 194.064 388.861 193.888 389.365 193.784C389.877 193.672 390.573 193.616 391.453 193.616H391.837V193.244C391.837 192.748 391.733 192.392 391.525 192.176C391.325 191.952 391.001 191.84 390.553 191.84C390.201 191.84 389.861 191.892 389.533 191.996C389.205 192.092 388.869 192.252 388.525 192.476L388.189 191.768C388.493 191.552 388.861 191.38 389.293 191.252C389.733 191.124 390.153 191.06 390.553 191.06C391.305 191.06 391.861 191.244 392.221 191.612C392.589 191.98 392.773 192.552 392.773 193.328V197H391.861V195.992C391.709 196.336 391.473 196.608 391.153 196.808C390.841 197.008 390.473 197.108 390.049 197.108ZM390.205 196.376C390.685 196.376 391.077 196.212 391.381 195.884C391.685 195.548 391.837 195.124 391.837 194.612V194.252H391.465C390.817 194.252 390.305 194.284 389.929 194.348C389.561 194.404 389.301 194.508 389.149 194.66C389.005 194.804 388.933 195.004 388.933 195.26C388.933 195.588 389.045 195.856 389.269 196.064C389.501 196.272 389.813 196.376 390.205 196.376ZM396.916 197.108C396.228 197.108 395.712 196.928 395.368 196.568C395.024 196.2 394.852 195.672 394.852 194.984V191.924H393.712V191.168H394.852V189.38H395.824V191.168H397.672V191.924H395.824V194.888C395.824 195.344 395.92 195.692 396.112 195.932C396.304 196.164 396.616 196.28 397.048 196.28C397.176 196.28 397.304 196.264 397.432 196.232C397.56 196.2 397.676 196.168 397.78 196.136L397.948 196.88C397.844 196.936 397.692 196.988 397.492 197.036C397.292 197.084 397.1 197.108 396.916 197.108ZM400.607 197.108C400.207 197.108 399.847 197.032 399.527 196.88C399.215 196.72 398.967 196.504 398.783 196.232C398.599 195.96 398.507 195.656 398.507 195.32C398.507 194.896 398.615 194.56 398.831 194.312C399.055 194.064 399.419 193.888 399.923 193.784C400.435 193.672 401.131 193.616 402.011 193.616H402.395V193.244C402.395 192.748 402.291 192.392 402.083 192.176C401.883 191.952 401.559 191.84 401.111 191.84C400.759 191.84 400.419 191.892 400.091 191.996C399.763 192.092 399.427 192.252 399.083 192.476L398.747 191.768C399.051 191.552 399.419 191.38 399.851 191.252C400.291 191.124 400.711 191.06 401.111 191.06C401.863 191.06 402.419 191.244 402.779 191.612C403.147 191.98 403.331 192.552 403.331 193.328V197H402.419V195.992C402.267 196.336 402.031 196.608 401.711 196.808C401.399 197.008 401.031 197.108 400.607 197.108ZM400.763 196.376C401.243 196.376 401.635 196.212 401.939 195.884C402.243 195.548 402.395 195.124 402.395 194.612V194.252H402.023C401.375 194.252 400.863 194.284 400.487 194.348C400.119 194.404 399.859 194.508 399.707 194.66C399.563 194.804 399.491 195.004 399.491 195.26C399.491 195.588 399.603 195.856 399.827 196.064C400.059 196.272 400.371 196.376 400.763 196.376ZM408.087 197.108C407.623 197.108 407.215 197.004 406.863 196.796C406.519 196.588 406.259 196.304 406.083 195.944V197H405.135V188.54H406.107V192.176C406.275 191.832 406.535 191.56 406.887 191.36C407.239 191.16 407.639 191.06 408.087 191.06C408.607 191.06 409.059 191.184 409.443 191.432C409.835 191.672 410.135 192.02 410.343 192.476C410.559 192.924 410.667 193.46 410.667 194.084C410.667 194.7 410.559 195.236 410.343 195.692C410.135 196.14 409.835 196.488 409.443 196.736C409.059 196.984 408.607 197.108 408.087 197.108ZM407.883 196.328C408.427 196.328 408.863 196.136 409.191 195.752C409.519 195.36 409.683 194.804 409.683 194.084C409.683 193.356 409.519 192.8 409.191 192.416C408.863 192.032 408.427 191.84 407.883 191.84C407.339 191.84 406.903 192.032 406.575 192.416C406.247 192.8 406.083 193.356 406.083 194.084C406.083 194.804 406.247 195.36 406.575 195.752C406.903 196.136 407.339 196.328 407.883 196.328ZM413.967 197.108C413.567 197.108 413.207 197.032 412.887 196.88C412.575 196.72 412.327 196.504 412.143 196.232C411.959 195.96 411.867 195.656 411.867 195.32C411.867 194.896 411.975 194.56 412.191 194.312C412.415 194.064 412.779 193.888 413.283 193.784C413.795 193.672 414.491 193.616 415.371 193.616H415.755V193.244C415.755 192.748 415.651 192.392 415.443 192.176C415.243 191.952 414.919 191.84 414.471 191.84C414.119 191.84 413.779 191.892 413.451 191.996C413.123 192.092 412.787 192.252 412.443 192.476L412.107 191.768C412.411 191.552 412.779 191.38 413.211 191.252C413.651 191.124 414.071 191.06 414.471 191.06C415.223 191.06 415.779 191.244 416.139 191.612C416.507 191.98 416.691 192.552 416.691 193.328V197H415.779V195.992C415.627 196.336 415.391 196.608 415.071 196.808C414.759 197.008 414.391 197.108 413.967 197.108ZM414.123 196.376C414.603 196.376 414.995 196.212 415.299 195.884C415.603 195.548 415.755 195.124 415.755 194.612V194.252H415.383C414.735 194.252 414.223 194.284 413.847 194.348C413.479 194.404 413.219 194.508 413.067 194.66C412.923 194.804 412.851 195.004 412.851 195.26C412.851 195.588 412.963 195.856 413.187 196.064C413.419 196.272 413.731 196.376 414.123 196.376ZM420.462 197.108C420.006 197.108 419.574 197.044 419.166 196.916C418.758 196.788 418.422 196.608 418.158 196.376L418.47 195.692C418.758 195.924 419.074 196.096 419.418 196.208C419.77 196.312 420.126 196.364 420.486 196.364C420.942 196.364 421.286 196.28 421.518 196.112C421.75 195.944 421.866 195.716 421.866 195.428C421.866 195.204 421.79 195.028 421.638 194.9C421.486 194.764 421.246 194.66 420.918 194.588L419.826 194.348C418.834 194.132 418.338 193.62 418.338 192.812C418.338 192.284 418.546 191.86 418.962 191.54C419.386 191.22 419.938 191.06 420.618 191.06C421.018 191.06 421.398 191.124 421.758 191.252C422.126 191.372 422.43 191.552 422.67 191.792L422.346 192.476C422.114 192.26 421.842 192.096 421.53 191.984C421.226 191.864 420.922 191.804 420.618 191.804C420.17 191.804 419.83 191.892 419.598 192.068C419.366 192.244 419.25 192.476 419.25 192.764C419.25 193.212 419.546 193.5 420.138 193.628L421.23 193.856C421.742 193.968 422.13 194.148 422.394 194.396C422.658 194.636 422.79 194.964 422.79 195.38C422.79 195.916 422.578 196.34 422.154 196.652C421.73 196.956 421.166 197.108 420.462 197.108ZM426.899 197.108C425.979 197.108 425.251 196.84 424.715 196.304C424.179 195.76 423.911 195.024 423.911 194.096C423.911 193.496 424.031 192.968 424.271 192.512C424.511 192.048 424.839 191.692 425.255 191.444C425.679 191.188 426.167 191.06 426.719 191.06C427.511 191.06 428.131 191.316 428.579 191.828C429.027 192.332 429.251 193.028 429.251 193.916V194.288H424.859C424.891 194.952 425.083 195.46 425.435 195.812C425.787 196.156 426.275 196.328 426.899 196.328C427.251 196.328 427.587 196.276 427.907 196.172C428.227 196.06 428.531 195.88 428.819 195.632L429.155 196.316C428.891 196.564 428.555 196.76 428.147 196.904C427.739 197.04 427.323 197.108 426.899 197.108ZM426.743 191.78C426.191 191.78 425.755 191.952 425.435 192.296C425.115 192.64 424.927 193.092 424.871 193.652H428.411C428.387 193.06 428.231 192.6 427.943 192.272C427.663 191.944 427.263 191.78 426.743 191.78Z" fill="#151E29"/>
<path d="M355.782 77.108C354.67 77.108 353.826 76.816 353.25 76.232C352.674 75.64 352.386 74.78 352.386 73.652V68.54H353.37V73.604C353.37 75.356 354.174 76.232 355.782 76.232C357.374 76.232 358.17 75.356 358.17 73.604V68.54H359.154V73.652C359.154 74.78 358.866 75.64 358.29 76.232C357.722 76.816 356.886 77.108 355.782 77.108ZM363.013 77.108C362.557 77.108 362.125 77.044 361.717 76.916C361.309 76.788 360.973 76.608 360.709 76.376L361.021 75.692C361.309 75.924 361.625 76.096 361.969 76.208C362.321 76.312 362.677 76.364 363.037 76.364C363.493 76.364 363.837 76.28 364.069 76.112C364.301 75.944 364.417 75.716 364.417 75.428C364.417 75.204 364.341 75.028 364.189 74.9C364.037 74.764 363.797 74.66 363.469 74.588L362.377 74.348C361.385 74.132 360.889 73.62 360.889 72.812C360.889 72.284 361.097 71.86 361.513 71.54C361.937 71.22 362.489 71.06 363.169 71.06C363.569 71.06 363.949 71.124 364.309 71.252C364.677 71.372 364.981 71.552 365.221 71.792L364.897 72.476C364.665 72.26 364.393 72.096 364.081 71.984C363.777 71.864 363.473 71.804 363.169 71.804C362.721 71.804 362.381 71.892 362.149 72.068C361.917 72.244 361.801 72.476 361.801 72.764C361.801 73.212 362.097 73.5 362.689 73.628L363.781 73.856C364.293 73.968 364.681 74.148 364.945 74.396C365.209 74.636 365.341 74.964 365.341 75.38C365.341 75.916 365.129 76.34 364.705 76.652C364.281 76.956 363.717 77.108 363.013 77.108ZM369.45 77.108C368.53 77.108 367.802 76.84 367.266 76.304C366.73 75.76 366.462 75.024 366.462 74.096C366.462 73.496 366.582 72.968 366.822 72.512C367.062 72.048 367.39 71.692 367.806 71.444C368.23 71.188 368.718 71.06 369.27 71.06C370.062 71.06 370.682 71.316 371.13 71.828C371.578 72.332 371.802 73.028 371.802 73.916V74.288H367.41C367.442 74.952 367.634 75.46 367.986 75.812C368.338 76.156 368.826 76.328 369.45 76.328C369.802 76.328 370.138 76.276 370.458 76.172C370.778 76.06 371.082 75.88 371.37 75.632L371.706 76.316C371.442 76.564 371.106 76.76 370.698 76.904C370.29 77.04 369.874 77.108 369.45 77.108ZM369.294 71.78C368.742 71.78 368.306 71.952 367.986 72.296C367.666 72.64 367.478 73.092 367.422 73.652H370.962C370.938 73.06 370.782 72.6 370.494 72.272C370.214 71.944 369.814 71.78 369.294 71.78ZM373.209 77V71.168H374.157V72.212C374.469 71.508 375.109 71.12 376.077 71.048L376.425 71.012L376.497 71.852L375.885 71.924C375.333 71.972 374.913 72.148 374.625 72.452C374.337 72.748 374.193 73.156 374.193 73.676V77H373.209Z" fill="#151E29"/>
<path d="M277.72 145L275.548 139.168H276.568L278.212 143.86L279.916 139.168H280.744L282.424 143.872L284.092 139.168H285.064L282.88 145H281.956L280.312 140.476L278.656 145H277.72ZM286.262 145V139.168H287.21V140.212C287.522 139.508 288.162 139.12 289.13 139.048L289.478 139.012L289.55 139.852L288.938 139.924C288.386 139.972 287.966 140.148 287.678 140.452C287.39 140.748 287.246 141.156 287.246 141.676V145H286.262ZM290.442 137.716V136.624H291.642V137.716H290.442ZM290.562 145V139.168H291.534V145H290.562ZM295.691 145.108C295.003 145.108 294.487 144.928 294.143 144.568C293.799 144.2 293.627 143.672 293.627 142.984V139.924H292.487V139.168H293.627V137.38H294.599V139.168H296.447V139.924H294.599V142.888C294.599 143.344 294.695 143.692 294.887 143.932C295.079 144.164 295.391 144.28 295.823 144.28C295.951 144.28 296.079 144.264 296.207 144.232C296.335 144.2 296.451 144.168 296.555 144.136L296.723 144.88C296.619 144.936 296.467 144.988 296.267 145.036C296.067 145.084 295.875 145.108 295.691 145.108ZM300.116 145.108C299.196 145.108 298.468 144.84 297.932 144.304C297.396 143.76 297.128 143.024 297.128 142.096C297.128 141.496 297.248 140.968 297.488 140.512C297.728 140.048 298.056 139.692 298.472 139.444C298.896 139.188 299.384 139.06 299.936 139.06C300.728 139.06 301.348 139.316 301.796 139.828C302.244 140.332 302.468 141.028 302.468 141.916V142.288H298.076C298.108 142.952 298.3 143.46 298.652 143.812C299.004 144.156 299.492 144.328 300.116 144.328C300.468 144.328 300.804 144.276 301.124 144.172C301.444 144.06 301.748 143.88 302.036 143.632L302.372 144.316C302.108 144.564 301.772 144.76 301.364 144.904C300.956 145.04 300.54 145.108 300.116 145.108ZM299.96 139.78C299.408 139.78 298.972 139.952 298.652 140.296C298.332 140.64 298.144 141.092 298.088 141.652H301.628C301.604 141.06 301.448 140.6 301.16 140.272C300.88 139.944 300.48 139.78 299.96 139.78ZM305.843 145.108C305.387 145.108 304.955 145.044 304.547 144.916C304.139 144.788 303.803 144.608 303.539 144.376L303.851 143.692C304.139 143.924 304.455 144.096 304.799 144.208C305.151 144.312 305.507 144.364 305.867 144.364C306.323 144.364 306.667 144.28 306.899 144.112C307.131 143.944 307.247 143.716 307.247 143.428C307.247 143.204 307.171 143.028 307.019 142.9C306.867 142.764 306.627 142.66 306.299 142.588L305.207 142.348C304.215 142.132 303.719 141.62 303.719 140.812C303.719 140.284 303.927 139.86 304.343 139.54C304.767 139.22 305.319 139.06 305.999 139.06C306.399 139.06 306.779 139.124 307.139 139.252C307.507 139.372 307.811 139.552 308.051 139.792L307.727 140.476C307.495 140.26 307.223 140.096 306.911 139.984C306.607 139.864 306.303 139.804 305.999 139.804C305.551 139.804 305.211 139.892 304.979 140.068C304.747 140.244 304.631 140.476 304.631 140.764C304.631 141.212 304.927 141.5 305.519 141.628L306.611 141.856C307.123 141.968 307.511 142.148 307.775 142.396C308.039 142.636 308.171 142.964 308.171 143.38C308.171 143.916 307.959 144.34 307.535 144.652C307.111 144.956 306.547 145.108 305.843 145.108Z" fill="#151E29"/>
<path d="M298.849 203.945L302.826 199.68L303.52 200.326L302.808 201.09C303.516 200.788 304.249 200.94 305.006 201.548L305.285 201.759L304.765 202.422L304.268 202.058C303.831 201.716 303.404 201.558 302.986 201.584C302.574 201.604 302.19 201.805 301.836 202.185L299.569 204.616L298.849 203.945ZM303.791 208.701C303.118 208.074 302.769 207.381 302.742 206.624C302.721 205.86 303.027 205.139 303.66 204.461C304.069 204.022 304.517 203.718 305.004 203.548C305.496 203.372 305.978 203.335 306.452 203.438C306.936 203.54 307.381 203.779 307.784 204.155C308.364 204.695 308.642 205.306 308.621 205.986C308.605 206.66 308.294 207.321 307.688 207.971L307.435 208.243L304.222 205.248C303.793 205.755 303.587 206.258 303.604 206.755C303.627 207.247 303.867 207.705 304.323 208.131C304.581 208.371 304.862 208.562 305.167 208.704C305.477 208.841 305.822 208.916 306.202 208.931L305.981 209.661C305.619 209.662 305.24 209.576 304.843 209.403C304.452 209.224 304.101 208.99 303.791 208.701ZM307.311 204.698C306.907 204.322 306.471 204.15 306.002 204.184C305.534 204.217 305.088 204.419 304.665 204.791L307.254 207.205C307.64 206.756 307.84 206.313 307.853 205.876C307.872 205.446 307.691 205.053 307.311 204.698ZM307.883 212.517C307.59 212.244 307.379 211.943 307.249 211.614C307.13 211.284 307.095 210.957 307.146 210.632C307.197 210.308 307.337 210.023 307.566 209.777C307.856 209.467 308.164 209.295 308.491 209.261C308.824 209.232 309.21 209.352 309.65 209.619C310.1 209.887 310.648 210.32 311.291 210.921L311.572 211.182L311.826 210.91C312.164 210.548 312.331 210.216 312.326 209.916C312.333 209.616 312.172 209.313 311.844 209.008C311.587 208.768 311.303 208.574 310.992 208.426C310.687 208.273 310.332 208.161 309.927 208.09L310.164 207.343C310.534 207.392 310.921 207.517 311.324 207.718C311.733 207.925 312.084 208.165 312.376 208.437C312.926 208.95 313.207 209.464 313.22 209.979C313.238 210.499 312.982 211.043 312.453 211.61L309.949 214.296L309.282 213.674L309.969 212.936C309.623 213.084 309.265 213.122 308.895 213.05C308.53 212.984 308.193 212.806 307.883 212.517ZM308.496 212.088C308.847 212.415 309.246 212.563 309.692 212.53C310.143 212.492 310.544 212.285 310.893 211.911L311.138 211.648L310.866 211.394C310.392 210.952 309.996 210.626 309.677 210.417C309.37 210.206 309.109 210.105 308.894 210.113C308.691 210.12 308.502 210.217 308.327 210.404C308.103 210.644 308.003 210.917 308.024 211.221C308.052 211.532 308.21 211.821 308.496 212.088ZM312.818 217.119C312.437 216.764 312.188 216.362 312.071 215.913C311.959 215.47 311.977 215.011 312.125 214.536C312.283 214.061 312.573 213.598 312.993 213.147C313.419 212.691 313.86 212.37 314.318 212.184C314.787 211.998 315.244 211.948 315.688 212.034C316.144 212.12 316.562 212.341 316.942 212.695C317.276 213.006 317.5 213.352 317.615 213.733C317.736 214.119 317.738 214.499 317.621 214.871L320.109 212.203L320.82 212.866L315.05 219.053L314.357 218.406L315.085 217.625C314.711 217.78 314.325 217.813 313.926 217.725C313.526 217.637 313.157 217.435 312.818 217.119ZM313.499 216.687C313.897 217.058 314.346 217.215 314.848 217.158C315.355 217.095 315.855 216.8 316.346 216.274C316.842 215.741 317.101 215.223 317.123 214.718C317.145 214.214 316.957 213.776 316.56 213.405C316.156 213.028 315.703 212.869 315.201 212.926C314.705 212.989 314.209 213.286 313.713 213.818C313.222 214.345 312.959 214.861 312.926 215.366C312.904 215.87 313.095 216.311 313.499 216.687ZM317.75 221.718C317.416 221.407 317.144 221.066 316.933 220.694C316.722 220.322 316.599 219.961 316.564 219.611L317.259 219.324C317.311 219.69 317.425 220.031 317.6 220.348C317.787 220.664 318.012 220.945 318.275 221.19C318.608 221.501 318.917 221.674 319.201 221.71C319.486 221.745 319.726 221.657 319.922 221.447C320.075 221.283 320.14 221.102 320.116 220.905C320.097 220.702 319.993 220.462 319.802 220.186L319.167 219.266C318.589 218.431 318.575 217.718 319.126 217.128C319.486 216.741 319.928 216.573 320.45 216.623C320.979 216.678 321.491 216.937 321.989 217.401C322.281 217.674 322.516 217.98 322.692 218.319C322.879 218.658 322.978 218.997 322.99 219.336L322.287 219.615C322.264 219.299 322.177 218.994 322.026 218.699C321.885 218.404 321.704 218.153 321.481 217.945C321.154 217.64 320.845 217.472 320.555 217.443C320.266 217.413 320.023 217.504 319.826 217.714C319.521 218.042 319.541 218.455 319.886 218.952L320.529 219.863C320.828 220.294 320.989 220.691 321.012 221.052C321.042 221.408 320.915 221.738 320.631 222.042C320.265 222.434 319.821 222.599 319.298 222.538C318.781 222.472 318.265 222.198 317.75 221.718Z" fill="#151E29"/>
<path d="M272.338 222.182L276.316 217.917L277.009 218.563L276.338 219.283C276.707 219.146 277.068 219.116 277.422 219.194C277.781 219.267 278.112 219.445 278.417 219.728C279.084 220.35 279.241 221.038 278.888 221.792C279.267 221.643 279.654 221.61 280.047 221.692C280.446 221.769 280.81 221.96 281.137 222.265C282.085 223.149 282.035 224.153 280.988 225.276L278.508 227.936L277.797 227.273L280.244 224.649C280.61 224.257 280.807 223.904 280.836 223.592C280.876 223.279 280.738 222.976 280.422 222.681C280.076 222.359 279.687 222.226 279.253 222.28C278.819 222.335 278.411 222.567 278.029 222.977L275.779 225.39L275.068 224.727L277.515 222.103C277.88 221.711 278.077 221.359 278.106 221.047C278.146 220.734 278.008 220.43 277.692 220.136C277.341 219.808 276.949 219.672 276.515 219.727C276.087 219.787 275.682 220.022 275.3 220.432L273.049 222.845L272.338 222.182ZM281.273 230.662C280.249 229.707 280.264 228.665 281.317 227.536L283.788 224.885L284.499 225.548L282.036 228.19C281.681 228.57 281.495 228.922 281.478 229.245C281.467 229.574 281.628 229.894 281.962 230.205C282.324 230.543 282.732 230.698 283.184 230.671C283.641 230.638 284.058 230.42 284.434 230.016L286.693 227.594L287.404 228.257L283.427 232.522L282.733 231.876L283.404 231.156C283.03 231.288 282.654 231.31 282.277 231.221C281.912 231.132 281.577 230.945 281.273 230.662ZM286.394 235.437C285.891 234.968 285.637 234.485 285.63 233.987C285.63 233.483 285.864 232.979 286.333 232.476L288.42 230.238L287.587 229.461L288.102 228.908L288.936 229.685L290.155 228.378L290.866 229.041L289.647 230.348L290.998 231.609L290.483 232.162L289.131 230.901L287.11 233.069C286.799 233.402 286.632 233.722 286.608 234.029C286.591 234.33 286.74 234.627 287.056 234.922C287.149 235.009 287.254 235.085 287.369 235.149C287.485 235.212 287.591 235.268 287.689 235.316L287.305 235.974C287.19 235.944 287.044 235.879 286.865 235.777C286.686 235.676 286.529 235.563 286.394 235.437ZM289.094 237.955C288.801 237.682 288.59 237.381 288.46 237.051C288.341 236.722 288.306 236.395 288.357 236.07C288.408 235.746 288.548 235.461 288.778 235.215C289.067 234.905 289.375 234.733 289.702 234.699C290.035 234.67 290.421 234.79 290.861 235.057C291.312 235.325 291.859 235.758 292.502 236.358L292.783 236.62L293.037 236.348C293.375 235.986 293.542 235.654 293.537 235.354C293.544 235.054 293.383 234.751 293.055 234.446C292.798 234.206 292.514 234.012 292.203 233.864C291.898 233.711 291.543 233.599 291.138 233.528L291.376 232.781C291.745 232.83 292.132 232.955 292.535 233.156C292.944 233.363 293.295 233.602 293.587 233.875C294.137 234.388 294.418 234.902 294.431 235.417C294.449 235.937 294.193 236.481 293.664 237.048L291.16 239.734L290.493 239.112L291.18 238.374C290.835 238.522 290.476 238.56 290.106 238.488C289.741 238.422 289.404 238.244 289.094 237.955ZM289.707 237.526C290.058 237.853 290.457 238.001 290.903 237.968C291.354 237.93 291.755 237.723 292.104 237.349L292.349 237.085L292.077 236.832C291.603 236.39 291.207 236.064 290.889 235.854C290.581 235.644 290.32 235.543 290.105 235.551C289.902 235.558 289.713 235.655 289.538 235.842C289.314 236.082 289.214 236.354 289.236 236.659C289.263 236.97 289.421 237.258 289.707 237.526ZM294.116 242.638C293.613 242.169 293.359 241.685 293.353 241.188C293.352 240.684 293.586 240.18 294.055 239.677L296.142 237.439L295.309 236.662L295.824 236.109L296.658 236.886L297.877 235.579L298.588 236.242L297.369 237.549L298.72 238.81L298.205 239.363L296.853 238.102L294.832 240.27C294.521 240.603 294.354 240.923 294.33 241.23C294.313 241.53 294.462 241.828 294.778 242.123C294.871 242.21 294.976 242.286 295.091 242.35C295.207 242.413 295.313 242.469 295.411 242.517L295.027 243.175C294.912 243.145 294.766 243.08 294.587 242.978C294.408 242.877 294.251 242.764 294.116 242.638ZM297.352 245.656C296.68 245.028 296.33 244.336 296.303 243.578C296.282 242.815 296.588 242.094 297.221 241.415C297.631 240.976 298.078 240.672 298.565 240.502C299.057 240.327 299.54 240.29 300.013 240.392C300.498 240.494 300.942 240.733 301.345 241.11C301.925 241.65 302.204 242.26 302.182 242.94C302.166 243.614 301.855 244.276 301.249 244.926L300.996 245.198L297.784 242.202C297.354 242.71 297.148 243.212 297.166 243.71C297.188 244.201 297.428 244.66 297.884 245.085C298.142 245.326 298.423 245.517 298.728 245.659C299.038 245.795 299.383 245.871 299.763 245.886L299.542 246.615C299.18 246.617 298.801 246.531 298.404 246.358C298.013 246.179 297.663 245.945 297.352 245.656ZM300.872 241.653C300.468 241.276 300.032 241.105 299.563 241.138C299.095 241.172 298.649 241.374 298.226 241.745L300.815 244.16C301.201 243.71 301.401 243.267 301.414 242.831C301.433 242.4 301.252 242.008 300.872 241.653ZM301.541 249.562C301.207 249.251 300.935 248.909 300.724 248.537C300.513 248.165 300.39 247.805 300.355 247.455L301.05 247.167C301.102 247.533 301.216 247.875 301.391 248.191C301.577 248.507 301.802 248.788 302.066 249.034C302.399 249.345 302.708 249.518 302.992 249.553C303.277 249.589 303.517 249.501 303.713 249.29C303.866 249.127 303.93 248.946 303.907 248.749C303.888 248.546 303.784 248.306 303.593 248.03L302.958 247.109C302.38 246.275 302.366 245.562 302.917 244.971C303.277 244.585 303.719 244.417 304.241 244.466C304.769 244.521 305.282 244.781 305.779 245.245C306.072 245.517 306.306 245.823 306.482 246.163C306.67 246.501 306.769 246.84 306.781 247.18L306.078 247.459C306.055 247.143 305.968 246.837 305.816 246.542C305.676 246.247 305.494 245.996 305.272 245.789C304.944 245.483 304.636 245.316 304.346 245.286C304.056 245.257 303.813 245.347 303.617 245.558C303.311 245.886 303.331 246.298 303.677 246.795L304.32 247.707C304.618 248.138 304.779 248.534 304.803 248.896C304.833 249.251 304.705 249.581 304.422 249.885C304.056 250.277 303.612 250.443 303.089 250.382C302.572 250.315 302.056 250.042 301.541 249.562Z" fill="#151E29"/>
<circle cx="364.5" cy="20.9375" r="9.875" stroke="#151E29" stroke-width="3"/>
<mask id="path-20-inside-1_122_1179" fill="white">
<path d="M381.438 58.625C383.647 58.625 385.476 56.8182 385.057 54.6493C384.79 53.2696 384.384 51.9171 383.844 50.6126C382.792 48.0723 381.249 45.7642 379.305 43.82C377.361 41.8757 375.053 40.3335 372.512 39.2813C369.972 38.2291 367.25 37.6875 364.5 37.6875C361.75 37.6875 359.028 38.2291 356.488 39.2813C353.947 40.3335 351.639 41.8757 349.695 43.82C347.751 45.7642 346.208 48.0723 345.156 50.6126C344.616 51.9171 344.21 53.2696 343.943 54.6493C343.524 56.8182 345.353 58.625 347.563 58.625L364.5 58.625H381.438Z"/>
</mask>
<path d="M381.438 58.625C383.647 58.625 385.476 56.8182 385.057 54.6493C384.79 53.2696 384.384 51.9171 383.844 50.6126C382.792 48.0723 381.249 45.7642 379.305 43.82C377.361 41.8757 375.053 40.3335 372.512 39.2813C369.972 38.2291 367.25 37.6875 364.5 37.6875C361.75 37.6875 359.028 38.2291 356.488 39.2813C353.947 40.3335 351.639 41.8757 349.695 43.82C347.751 45.7642 346.208 48.0723 345.156 50.6126C344.616 51.9171 344.21 53.2696 343.943 54.6493C343.524 56.8182 345.353 58.625 347.563 58.625L364.5 58.625H381.438Z" stroke="#151E29" stroke-width="6" mask="url(#path-20-inside-1_122_1179)"/>
<path d="M27.2918 49.239L34.6145 32.5025M40.2649 31.1085L48.7351 37.8851M61.7083 19.7525L54.3855 36.489M20.5938 53.6207C20.5937 54.2486 20.7174 54.8703 20.9577 55.4504C21.198 56.0305 21.5502 56.5576 21.9941 57.0016C22.4381 57.4456 22.9652 57.7977 23.5453 58.038C24.1254 58.2783 24.7471 58.402 25.375 58.402C26.0029 58.402 26.6246 58.2783 27.2047 58.038C27.7848 57.7977 28.3119 57.4456 28.7559 57.0016C29.1998 56.5576 29.552 56.0305 29.7923 55.4504C30.0326 54.8703 30.1563 54.2486 30.1562 53.6207C30.1563 52.9928 30.0326 52.3711 29.7923 51.791C29.552 51.2109 29.1998 50.6839 28.7559 50.2399C28.3119 49.7959 27.7848 49.4437 27.2047 49.2034C26.6246 48.9631 26.0029 48.8395 25.375 48.8395C24.7471 48.8395 24.1254 48.9631 23.5453 49.2034C22.9652 49.4437 22.4381 49.7959 21.9941 50.2399C21.5502 50.6839 21.198 51.2109 20.9577 51.791C20.7174 52.3711 20.5937 52.9928 20.5938 53.6207ZM31.75 28.1207C31.75 28.7486 31.8737 29.3703 32.114 29.9504C32.3542 30.5305 32.7064 31.0576 33.1504 31.5016C33.5944 31.9456 34.1215 32.2977 34.7015 32.538C35.2816 32.7783 35.9034 32.902 36.5312 32.902C37.1591 32.902 37.7809 32.7783 38.361 32.538C38.941 32.2977 39.4681 31.9456 39.9121 31.5016C40.3561 31.0576 40.7083 30.5305 40.9485 29.9504C41.1888 29.3703 41.3125 28.7486 41.3125 28.1207C41.3125 27.4928 41.1888 26.8711 40.9485 26.291C40.7083 25.7109 40.3561 25.1839 39.9121 24.7399C39.4681 24.2959 38.941 23.9437 38.361 23.7034C37.7809 23.4631 37.1591 23.3395 36.5312 23.3395C35.9034 23.3395 35.2816 23.4631 34.7015 23.7034C34.1215 23.9437 33.5944 24.2959 33.1504 24.7399C32.7064 25.1839 32.3542 25.7109 32.114 26.291C31.8737 26.8711 31.75 27.4928 31.75 28.1207ZM47.6875 40.8707C47.6875 42.1388 48.1912 43.3549 49.0879 44.2516C49.9846 45.1482 51.2007 45.652 52.4687 45.652C53.7368 45.652 54.9529 45.1482 55.8496 44.2516C56.7463 43.3549 57.25 42.1388 57.25 40.8707C57.25 39.6027 56.7463 38.3865 55.8496 37.4899C54.9529 36.5932 53.7368 36.0895 52.4687 36.0895C51.2007 36.0895 49.9846 36.5932 49.0879 37.4899C48.1912 38.3865 47.6875 39.6027 47.6875 40.8707ZM58.8438 15.3707C58.8437 16.6388 59.3475 17.8549 60.2441 18.7516C61.1408 19.6482 62.3569 20.152 63.625 20.152C64.8931 20.152 66.1092 19.6482 67.0059 18.7516C67.9025 17.8549 68.4063 16.6388 68.4063 15.3707C68.4063 14.1027 67.9025 12.8865 67.0059 11.9899C66.1092 11.0932 64.8931 10.5895 63.625 10.5895C62.3569 10.5895 61.1408 11.0932 60.2441 11.9899C59.3475 12.8865 58.8438 14.1027 58.8438 15.3707Z" stroke="#006FD6" stroke-width="2" stroke-linecap="round" stroke-linejoin="round"/>
<g clip-path="url(#clip0_122_1179)">
<path d="M42.0573 183.229L43.6858 184.858L46.9427 181.601M51.8281 183.229C51.8281 187.276 48.5472 190.557 44.5 190.557C40.4528 190.557 37.1719 187.276 37.1719 183.229C37.1719 179.182 40.4528 175.901 44.5 175.901C48.5472 175.901 51.8281 179.182 51.8281 183.229Z" stroke="#006FD6" stroke-width="2.79167" stroke-linecap="round" stroke-linejoin="round"/>
<path d="M15.1875 149.729H73.8125C74.5834 149.729 75.2084 150.354 75.2084 151.125V166.479C75.2084 167.25 74.5834 167.875 73.8125 167.875H15.1875C14.4166 167.875 13.7917 167.25 13.7917 166.479V151.125C13.7917 150.354 14.4166 149.729 15.1875 149.729Z" stroke="#006FD6" stroke-width="2.79167"/>
<path fill-rule="evenodd" clip-rule="evenodd" d="M26.3541 137.167V141.354C26.3541 142.896 27.604 144.146 29.1458 144.146H59.8541C61.3959 144.146 62.6458 142.896 62.6458 141.354V137.167H59.8541V141.354H29.1458V137.167H26.3541Z" fill="#006FD6"/>
<circle cx="64.7396" cy="158.802" r="4.88542" stroke="#006FD6" stroke-width="2.79167"/>
<circle cx="61.25" cy="132.979" r="4.1875" stroke="#006FD6" stroke-width="2.79167"/>
<path d="M44.5 150.427V137.167" stroke="#006FD6" stroke-width="2.79167"/>
<path d="M44.5 176.25V167.875" stroke="#006FD6" stroke-width="2.79167"/>
<rect x="20.7709" y="153.917" width="9.77083" height="9.77083" rx="1.675" stroke="#006FD6" stroke-width="2.79167"/>
<rect x="23.5625" y="128.792" width="8.375" height="8.375" rx="1.675" stroke="#006FD6" stroke-width="2.79167"/>
<path d="M44.9561 154.335C45.0636 154.149 45.3322 154.149 45.4396 154.335L50.3958 162.92C50.5033 163.106 50.369 163.339 50.1541 163.339H40.2417C40.0268 163.339 39.8925 163.106 39.9999 162.92L44.9561 154.335Z" stroke="#006FD6" stroke-width="2.79167"/>
<path d="M44.2582 129.21C44.3656 129.024 44.6343 129.024 44.7417 129.21L49.0935 136.748C49.201 136.934 49.0666 137.167 48.8517 137.167H40.1482C39.9333 137.167 39.799 136.934 39.9064 136.748L44.2582 129.21Z" stroke="#006FD6" stroke-width="2.79167"/>
</g>
<g clip-path="url(#clip1_122_1179)">
<path d="M202.47 134.711C207.505 137.635 211.582 140.996 214.116 144.022C215.386 145.54 216.218 146.914 216.618 148.054C217.02 149.2 216.93 149.928 216.672 150.378C216.414 150.827 215.832 151.269 214.644 151.492C213.462 151.714 211.864 151.676 209.921 151.329C206.048 150.635 201.116 148.765 196.081 145.841C191.047 142.918 186.969 139.557 184.436 136.531C183.165 135.013 182.334 133.639 181.934 132.499C181.532 131.353 181.621 130.625 181.879 130.175C182.137 129.726 182.719 129.284 183.907 129.061C185.089 128.839 186.688 128.877 188.63 129.224C192.503 129.918 197.436 131.788 202.47 134.711Z" stroke="#151E29" stroke-width="2.79167"/>
<path d="M202.47 145.841C197.436 148.765 192.503 150.635 188.63 151.329C186.688 151.676 185.089 151.714 183.907 151.492C182.72 151.269 182.137 150.827 181.879 150.378C181.622 149.928 181.532 149.2 181.934 148.054C182.334 146.914 183.165 145.54 184.436 144.022C186.97 140.996 191.047 137.635 196.081 134.712C201.116 131.788 206.048 129.918 209.921 129.224C211.864 128.877 213.462 128.839 214.644 129.061C215.832 129.284 216.414 129.726 216.672 130.175C216.93 130.625 217.02 131.353 216.618 132.499C216.218 133.639 215.386 135.013 214.116 136.531C211.582 139.557 207.505 142.918 202.47 145.841Z" stroke="#151E29" stroke-width="2.79167"/>
<path fill-rule="evenodd" clip-rule="evenodd" d="M203.212 150.833C202.91 152.225 202.551 153.493 202.15 154.607C201.509 156.386 200.812 157.629 200.178 158.373C199.868 158.737 199.622 158.925 199.464 159.015C199.389 159.058 199.339 159.075 199.313 159.082C199.29 159.089 199.279 159.089 199.276 159.089C199.272 159.089 199.262 159.089 199.238 159.082C199.213 159.075 199.163 159.058 199.087 159.015C198.93 158.925 198.683 158.737 198.373 158.373C197.739 157.629 197.042 156.386 196.402 154.607C196 153.493 195.642 152.225 195.339 150.833C194.433 151.181 193.546 151.49 192.685 151.758C194.061 157.839 196.499 161.881 199.276 161.881C202.053 161.881 204.49 157.839 205.867 151.758C205.006 151.49 204.119 151.181 203.212 150.833ZM203.212 129.72C204.119 129.372 205.006 129.063 205.867 128.795C204.49 122.714 202.053 118.672 199.276 118.672C196.499 118.672 194.061 122.714 192.685 128.795C193.546 129.063 194.433 129.372 195.339 129.72C195.642 128.328 196 127.061 196.402 125.946C197.042 124.167 197.739 122.925 198.373 122.18C198.683 121.816 198.93 121.628 199.087 121.539C199.163 121.496 199.213 121.478 199.238 121.471C199.262 121.464 199.272 121.464 199.276 121.464C199.279 121.464 199.29 121.464 199.313 121.471C199.339 121.478 199.389 121.496 199.464 121.539C199.622 121.628 199.868 121.816 200.178 122.18C200.812 122.925 201.509 124.167 202.15 125.946C202.551 127.061 202.91 128.328 203.212 129.72Z" fill="#151E29"/>
<ellipse cx="199.276" cy="140.277" rx="2.68247" ry="2.6978" fill="#151E29"/>
<path d="M199.392 177.536V165.639M214.615 123.807C232.524 123.807 235.683 139.329 242.374 156.044H235.21V163.208C235.21 165.108 234.456 166.93 233.112 168.274C231.769 169.617 229.947 170.372 228.047 170.372H224.465V177.536" stroke="#151E29" stroke-width="2.79167" stroke-linecap="round" stroke-linejoin="round"/>
</g>
<path d="M394.569 147.063C374.461 149.153 356.402 143.141 356.402 135.444C356.402 128.793 369.878 123.405 386.5 123.405C403.122 123.405 416.598 128.793 416.598 135.444C416.598 138.612 413.537 141.496 408.531 143.644" stroke="#151E29" stroke-width="2.79167" stroke-linecap="round" stroke-linejoin="round"/>
<path d="M416.598 149.49V135.444" stroke="#151E29" stroke-width="2.79167" stroke-linecap="round" stroke-linejoin="round"/>
<path d="M356.402 135.444V151.496C356.402 157.845 368.693 163.048 384.279 163.503" stroke="#151E29" stroke-width="2.79167" stroke-linecap="round" stroke-linejoin="round"/>
<path d="M356.402 151.496V167.548C356.402 173.897 368.709 179.1 384.279 179.555" stroke="#151E29" stroke-width="2.79167" stroke-linecap="round" stroke-linejoin="round"/>
<path d="M408.881 152.104C402.738 152.104 398.615 155.681 398.615 162.62V167.568C399.239 167.261 399.923 167.098 400.618 167.091C401.315 167.092 402.002 167.25 402.628 167.556V162.597C402.628 158.097 405.113 155.786 408.899 155.786C412.685 155.786 415.135 158.097 415.135 162.597V173.409H419.136V162.597C419.148 155.617 415.025 152.104 408.881 152.104Z" fill="#151E29"/>
<path d="M400.444 168.363C399.701 168.364 398.979 168.609 398.389 169.06L394.626 166.487C394.71 166.187 394.753 165.876 394.754 165.564C394.762 164.886 394.568 164.221 394.198 163.654C393.827 163.086 393.296 162.641 392.672 162.376C392.048 162.111 391.36 162.037 390.694 162.164C390.028 162.291 389.414 162.613 388.932 163.089C388.449 163.565 388.119 164.174 387.983 164.838C387.847 165.502 387.912 166.191 388.168 166.819C388.425 167.446 388.862 167.983 389.425 168.362C389.987 168.74 390.65 168.943 391.328 168.944C392.071 168.944 392.794 168.699 393.383 168.247L397.134 170.837C396.964 171.442 396.964 172.083 397.134 172.689L393.372 175.261C392.785 174.812 392.067 174.567 391.328 174.565C390.65 174.564 389.986 174.764 389.422 175.14C388.858 175.516 388.418 176.051 388.158 176.677C387.898 177.303 387.829 177.993 387.961 178.658C388.093 179.323 388.42 179.934 388.899 180.413C389.379 180.893 389.99 181.219 390.655 181.351C391.32 181.483 392.009 181.415 392.636 181.155C393.262 180.895 393.797 180.455 394.173 179.89C394.549 179.326 394.749 178.663 394.748 177.985C394.748 177.677 394.707 177.37 394.626 177.073L398.389 174.501C398.979 174.952 399.701 175.197 400.444 175.198C401.308 175.136 402.117 174.749 402.707 174.115C403.298 173.481 403.626 172.647 403.626 171.78C403.626 170.914 403.298 170.08 402.707 169.446C402.117 168.812 401.308 168.425 400.444 168.363V168.363Z" fill="#151E29"/>
<path fill-rule="evenodd" clip-rule="evenodd" d="M393.479 145.759V148.556C397.189 148.349 401.042 147.605 405.218 146.412C410.367 144.941 415.241 141.497 417.333 139.972C417.956 139.517 418.092 138.644 417.638 138.021C417.184 137.399 416.311 137.262 415.688 137.716C413.593 139.244 409.074 142.407 404.451 143.728C400.473 144.865 396.88 145.555 393.479 145.759Z" fill="#151E29"/>
<g clip-path="url(#clip2_122_1179)">
<path d="M336.5 264.996C336.5 265.587 336.616 266.172 336.843 266.718C337.069 267.264 337.4 267.76 337.818 268.178C338.236 268.596 338.732 268.927 339.278 269.153C339.824 269.38 340.409 269.496 341 269.496C341.591 269.496 342.176 269.38 342.722 269.153C343.268 268.927 343.764 268.596 344.182 268.178C344.6 267.76 344.931 267.264 345.157 266.718C345.384 266.172 345.5 265.587 345.5 264.996C345.5 264.405 345.384 263.82 345.157 263.274C344.931 262.728 344.6 262.232 344.182 261.814C343.764 261.396 343.268 261.065 342.722 260.839C342.176 260.612 341.591 260.496 341 260.496C340.409 260.496 339.824 260.612 339.278 260.839C338.732 261.065 338.236 261.396 337.818 261.814C337.4 262.232 337.069 262.728 336.843 263.274C336.616 263.82 336.5 264.405 336.5 264.996V264.996Z" stroke="black" stroke-width="2" stroke-linecap="round" stroke-linejoin="round"/>
<path d="M347 240.996C347 241.587 347.116 242.172 347.343 242.718C347.569 243.264 347.9 243.76 348.318 244.178C348.736 244.596 349.232 244.927 349.778 245.153C350.324 245.38 350.909 245.496 351.5 245.496C352.091 245.496 352.676 245.38 353.222 245.153C353.768 244.927 354.264 244.596 354.682 244.178C355.1 243.76 355.431 243.264 355.657 242.718C355.884 242.172 356 241.587 356 240.996C356 240.405 355.884 239.82 355.657 239.274C355.431 238.728 355.1 238.232 354.682 237.814C354.264 237.396 353.768 237.065 353.222 236.839C352.676 236.612 352.091 236.496 351.5 236.496C350.909 236.496 350.324 236.612 349.778 236.839C349.232 237.065 348.736 237.396 348.318 237.814C347.9 238.232 347.569 238.728 347.343 239.274C347.116 239.82 347 240.405 347 240.996V240.996Z" stroke="black" stroke-width="2" stroke-linecap="round" stroke-linejoin="round"/>
<path d="M362 252.996C362 254.189 362.474 255.334 363.318 256.178C364.162 257.022 365.307 257.496 366.5 257.496C367.693 257.496 368.838 257.022 369.682 256.178C370.526 255.334 371 254.189 371 252.996C371 251.802 370.526 250.658 369.682 249.814C368.838 248.97 367.693 248.496 366.5 248.496C365.307 248.496 364.162 248.97 363.318 249.814C362.474 250.658 362 251.802 362 252.996V252.996Z" stroke="black" stroke-width="2" stroke-linecap="round" stroke-linejoin="round"/>
<path d="M372.5 228.996C372.5 230.189 372.974 231.334 373.818 232.178C374.662 233.022 375.807 233.496 377 233.496C378.193 233.496 379.338 233.022 380.182 232.178C381.026 231.334 381.5 230.189 381.5 228.996C381.5 227.802 381.026 226.658 380.182 225.814C379.338 224.97 378.193 224.496 377 224.496C375.807 224.496 374.662 224.97 373.818 225.814C372.974 226.658 372.5 227.802 372.5 228.996V228.996Z" stroke="black" stroke-width="2" stroke-linecap="round" stroke-linejoin="round"/>
<path d="M342.804 260.872L349.696 245.12" stroke="black" stroke-width="2" stroke-linecap="round" stroke-linejoin="round"/>
<path d="M355.014 243.808L362.986 250.186" stroke="black" stroke-width="2" stroke-linecap="round" stroke-linejoin="round"/>
<path d="M375.196 233.12L368.304 248.872" stroke="black" stroke-width="2" stroke-linecap="round" stroke-linejoin="round"/>
</g>
<g clip-path="url(#clip3_122_1179)">
<path d="M351.5 276.996C351.5 277.587 351.616 278.172 351.843 278.718C352.069 279.264 352.4 279.76 352.818 280.178C353.236 280.596 353.732 280.927 354.278 281.153C354.824 281.38 355.409 281.496 356 281.496C356.591 281.496 357.176 281.38 357.722 281.153C358.268 280.927 358.764 280.596 359.182 280.178C359.6 279.76 359.931 279.264 360.157 278.718C360.384 278.172 360.5 277.587 360.5 276.996C360.5 276.405 360.384 275.82 360.157 275.274C359.931 274.728 359.6 274.232 359.182 273.814C358.764 273.396 358.268 273.065 357.722 272.839C357.176 272.612 356.591 272.496 356 272.496C355.409 272.496 354.824 272.612 354.278 272.839C353.732 273.065 353.236 273.396 352.818 273.814C352.4 274.232 352.069 274.728 351.843 275.274C351.616 275.82 351.5 276.405 351.5 276.996V276.996Z" stroke="black" stroke-width="2" stroke-linecap="round" stroke-linejoin="round"/>
<path d="M362 252.996C362 253.587 362.116 254.172 362.343 254.718C362.569 255.264 362.9 255.76 363.318 256.178C363.736 256.596 364.232 256.927 364.778 257.153C365.324 257.38 365.909 257.496 366.5 257.496C367.091 257.496 367.676 257.38 368.222 257.153C368.768 256.927 369.264 256.596 369.682 256.178C370.1 255.76 370.431 255.264 370.657 254.718C370.884 254.172 371 253.587 371 252.996C371 252.405 370.884 251.82 370.657 251.274C370.431 250.728 370.1 250.232 369.682 249.814C369.264 249.396 368.768 249.065 368.222 248.839C367.676 248.612 367.091 248.496 366.5 248.496C365.909 248.496 365.324 248.612 364.778 248.839C364.232 249.065 363.736 249.396 363.318 249.814C362.9 250.232 362.569 250.728 362.343 251.274C362.116 251.82 362 252.405 362 252.996V252.996Z" stroke="black" stroke-width="2" stroke-linecap="round" stroke-linejoin="round"/>
<path d="M377 264.996C377 266.189 377.474 267.334 378.318 268.178C379.162 269.022 380.307 269.496 381.5 269.496C382.693 269.496 383.838 269.022 384.682 268.178C385.526 267.334 386 266.189 386 264.996C386 263.802 385.526 262.658 384.682 261.814C383.838 260.97 382.693 260.496 381.5 260.496C380.307 260.496 379.162 260.97 378.318 261.814C377.474 262.658 377 263.802 377 264.996V264.996Z" stroke="black" stroke-width="2" stroke-linecap="round" stroke-linejoin="round"/>
<path d="M387.5 240.996C387.5 242.189 387.974 243.334 388.818 244.178C389.662 245.022 390.807 245.496 392 245.496C393.193 245.496 394.338 245.022 395.182 244.178C396.026 243.334 396.5 242.189 396.5 240.996C396.5 239.802 396.026 238.658 395.182 237.814C394.338 236.97 393.193 236.496 392 236.496C390.807 236.496 389.662 236.97 388.818 237.814C387.974 238.658 387.5 239.802 387.5 240.996V240.996Z" stroke="black" stroke-width="2" stroke-linecap="round" stroke-linejoin="round"/>
<path d="M357.804 272.872L364.696 257.12" stroke="black" stroke-width="2" stroke-linecap="round" stroke-linejoin="round"/>
<path d="M370.014 255.808L377.986 262.186" stroke="black" stroke-width="2" stroke-linecap="round" stroke-linejoin="round"/>
<path d="M390.196 245.12L383.304 260.872" stroke="black" stroke-width="2" stroke-linecap="round" stroke-linejoin="round"/>
</g>
<defs>
<clipPath id="clip0_122_1179">
<rect x="11" y="126" width="67" height="67" rx="1.39583" fill="white"/>
</clipPath>
<clipPath id="clip1_122_1179">
<rect width="67" height="67" fill="white" transform="translate(179 116)"/>
</clipPath>
<clipPath id="clip2_122_1179">
<rect width="48" height="48" fill="white" transform="translate(335 223)"/>
</clipPath>
<clipPath id="clip3_122_1179">
<rect width="48" height="48" fill="white" transform="translate(350 235)"/>
</clipPath>
</defs>
</svg>
